  0
SECTION
  2
HEADER
  9
$LIMMIN
 10
0
 20
0
  9
$LIMMAX
 10
68.25
 20
96.525
  9
$EXTMIN
 10
0
 20
247.642013637273
  9
$EXTMAX
 10
0
 20
374.648497774087
  0
ENDSEC
  0
SECTION
  2
TABLES
  0
TABLE
  2
LTYPE
 70
9
  0
LTYPE
  2
CONTINUOUS
 70
64
  3
Solid line
 72
65
 73
0
 40
0
  0
LTYPE
  2
DASHED
 70
64
  3
__ __ __ __ __ __ __ __ __
 72
65
 73
2
 40
0.75
 49
0.5
 49
-0.25
  0
LTYPE
  2
DOT
 70
64
  3
...........................
 72
65
 73
2
 40
0.25
 49
0
 49
-0.25
  0
LTYPE
  2
DASHDOT
 70
64
  3
__ . __ . __ . __ . __ . __ . 
 72
65
 73
4
 40
1
 49
0.5
 49
-0.25
 49
0
 49
-0.25
  0
ENDTAB
  0
TABLE
  2
LAYER
 70
10
  0
LAYER
  2
_LabelDrawingFrame
 70
0
 62
7
  6
CONTINUOUS
  0
LAYER
  2
1
 70
0
 62
7
  6
CONTINUOUS
  0
LAYER
  2
CONNECTIONS
 70
0
 62
-7
  6
CONTINUOUS
  0
ENDTAB
  0
ENDSEC
  0
SECTION
  2
BLOCKS
  0
BLOCK
  8
0
  2
TRICON
 70
0
 10
0
 20
0
  0
POLYLINE
  8
1
 62
7
 70
1
 66
1
 40
0.65
 41
0.65
  0
VERTEX
  8
1
 10
-0.325
 20
0
 42
1
  0
VERTEX
  8
1
 10
0.325
 20
0
 42
1
  0
SEQEND
  8
1
  0
ENDBLK
  8
0
  0
BLOCK
  8
0
  2
TRICONSMALL
 70
0
 10
0
 20
0
  0
POLYLINE
  8
1
 62
7
 70
1
 66
1
 40
0.325
 41
0.325
  0
VERTEX
  8
1
 10
-0.1625
 20
0
 42
1
  0
VERTEX
  8
1
 10
0.1625
 20
0
 42
1
  0
SEQEND
  8
1
  0
ENDBLK
  8
0
  0
BLOCK
  8
0
  2
LCBP0
 70
0
 10
0
 20
0
  0
LINE
  8
1
 62
7
 10
0
 20
-0.609375
 11
0
 21
0.609375
  0
ENDBLK
  8
0
  0
BLOCK
  8
0
  2
LCBP1
 70
0
 10
0
 20
0
  0
LINE
  8
1
 62
7
 10
0
 20
-0.8125
 11
0
 21
0.8125
  0
ENDBLK
  8
0
  0
BLOCK
  8
0
  2
LCBP2
 70
0
 10
0
 20
0
  0
LINE
  8
1
 62
7
 10
0
 20
-1.21875
 11
0
 21
1.21875
  0
ENDBLK
  8
0
  0
BLOCK
  8
0
  2
LCA1
 70
0
 10
0
 20
0
  0
SOLID
  8
1
 62
7 
 10
0
 20
0
 11
-1.82
 21
-0.3575
 12
-1.82
 22
0.3575
 13
-1.82
 23
0.3575
  0
ENDBLK
  8
0
  0
BLOCK
  8
0
  2
LCA2
 70
0
 10
0
 20
0
  0
SOLID
  8
1
 62
7 
 10
0
 20
0
 11
-2.145
 21
-0.6825
 12
-2.145
 22
0.6825
 13
-2.145
 23
0.6825
  0
ENDBLK
  8
0
  0
BLOCK
  8
0
  2
LCA3
 70
0
 10
0
 20
0
  0
SOLID
  8
1
 62
7 
 10
0
 20
0
 11
-2.795
 21
-1.495
 12
-2.795
 22
1.495
 13
-2.795
 23
1.495
  0
ENDBLK
  8
0
  0
BLOCK
  8
0
  2
LCA1R
 70
0
 10
0
 20
0
  0
SOLID
  8
1
 62
7 
 10
0
 20
0
 11
1.82
 21
-0.3575
 12
1.82
 22
0.3575
 13
1.82
 23
0.3575
  0
ENDBLK
  8
0
  0
BLOCK
  8
0
  2
LCA2R
 70
0
 10
0
 20
0
  0
SOLID
  8
1
 62
7 
 10
0
 20
0
 11
2.145
 21
-0.6825
 12
2.145
 22
0.6825
 13
2.145
 23
0.6825
  0
ENDBLK
  8
0
  0
BLOCK
  8
0
  2
LCA3R
 70
0
 10
0
 20
0
  0
SOLID
  8
1
 62
7 
 10
0
 20
0
 11
2.795
 21
-1.495
 12
2.795
 22
1.495
 13
2.795
 23
1.495
  0
ENDBLK
  8
0
  0
BLOCK
  8
0
  2
B48857
 70
0
 10
0
 20
0
  0
TEXT
  8
1
 62
7
 40
2.34
 41
0.75
  1
1
  7
STANDARD
 72
2
 73
3
 10
1.63599046468735
 20
1.65783818006516
 11
1.63599046468735
 21
1.65783818006516
  0
ENDBLK
  8
0
  0
BLOCK
  8
0
  2
B48858
 70
0
 10
0
 20
0
  0
TEXT
  8
1
 62
7
 40
2.34
 41
0.75
  1
5
  7
STANDARD
 72
2
 73
3
 10
1.63599046468735
 20
1.65783818006516
 11
1.63599046468735
 21
1.65783818006516
  0
ENDBLK
  8
0
  0
BLOCK
  8
0
  2
B48859
 70
0
 10
0
 20
0
  0
TEXT
  8
1
 62
7
 40
2.34
 41
0.75
  1
2
  7
STANDARD
 73
3
 10
-1.63599046468735
 20
1.65783818006516
 11
-1.63599046468735
 21
1.65783818006516
  0
ENDBLK
  8
0
  0
BLOCK
  8
0
  2
B48860
 70
0
 10
0
 20
0
  0
TEXT
  8
1
 62
7
 40
2.34
 41
0.75
  1
4
  7
STANDARD
 72
2
 10
1.63599046468735
 20
-1.07283818006515
 11
1.63599046468735
 21
-1.07283818006515
  0
ENDBLK
  8
0
  0
BLOCK
  8
0
  2
B48861
 70
0
 10
0
 20
0
  0
TEXT
  8
1
 62
7
 40
2.34
 41
0.75
  1
2
  7
STANDARD
 72
2
 10
1.63599046468735
 20
-1.07283818006515
 11
1.63599046468735
 21
-1.07283818006515
  0
ENDBLK
  8
0
  0
BLOCK
  8
0
  2
B48949_00991756
 70
0
 10
0
 20
0
  0
POLYLINE
  8
1
 62
7
  6
DASHDOT
 66
1
  0
VERTEX
  8
1
 62
7
 10
-25.6518693861414
 20
19.5
  0
VERTEX
  8
1
 62
7
 10
25.0481306138586
 20
19.5
  0
VERTEX
  8
1
 62
7
 10
25.0481306138586
 20
-15.6
  0
VERTEX
  8
1
 62
7
 10
-25.6518693861414
 20
-15.6
  0
VERTEX
  8
1
 62
7
 10
-25.6518693861414
 20
19.5
  0
SEQEND
  8
1
  0
LINE
  8
1
 62
7
 10
25.0481306138586
 20
0
 11
28.9481306138586
 21
0
  0
LINE
  8
1
 62
7
 10
-4.20186938614142
 20
-15.6
 11
-4.20186938614142
 21
-19.5
  0
LINE
  8
1
 62
7
 10
-25.6518693861414
 20
-3.9
 11
-29.5518693861414
 21
-3.9
  0
LINE
  8
1
 62
7
 10
-29.5518693861414
 20
0
 11
-25.6518693861414
 21
0
  0
LINE
  8
1
 62
7
 10
13.3481306138586
 20
0
 11
25.0481306138586
 21
0
  0
POLYLINE
  8
1
 62
7
 66
1
  0
VERTEX
  8
1
 62
7
 10
3.59813061385856
 20
0
  0
VERTEX
  8
1
 62
7
 10
3.59813061385856
 20
-9.75
  0
VERTEX
  8
1
 62
7
 10
5.54813061385856
 20
-9.75
  0
SEQEND
  8
1
  0
LINE
  8
1
 62
7
 10
-4.20186938614142
 20
-5.54223484848485
 11
-4.20186938614142
 21
-15.6
  0
LINE
  8
1
 62
7
 10
-13.9518693861414
 20
0
 11
-9.71730227939647
 21
0
  0
LINE
  8
1
 62
7
 10
-21.7518693861414
 20
-3.9
 11
-25.6518693861414
 21
-3.9
  0
LINE
  8
1
 62
7
 10
-25.6518693861414
 20
0
 11
-21.7518693861414
 21
0
  0
LINE
  8
1
 62
7
 10
1.31356350711366
 20
0
 11
5.54813061385858
 21
0
  0
POLYLINE
  8
1
 62
7
 70
1
 66
1
 40
0.4875
 41
0.4875
  0
VERTEX
  8
1
 10
3.35438061385858
 20
0
 42
1
  0
VERTEX
  8
1
 10
3.84188061385858
 20
0
 42
1
  0
SEQEND
  8
1
  0
POLYLINE
  8
1
 62
7
 70
1
 66
1
 40
0.4875
 41
0.4875
  0
VERTEX
  8
1
 10
17.0043806138586
 20
0
 42
1
  0
VERTEX
  8
1
 10
17.4918806138586
 20
0
 42
1
  0
SEQEND
  8
1
  0
POLYLINE
  8
1
 62
7
 66
1
  0
VERTEX
  8
1
 62
7
 10
15.2981306138586
 20
-9.75
  0
VERTEX
  8
1
 62
7
 10
17.2481306138586
 20
-9.75
  0
VERTEX
  8
1
 62
7
 10
17.2481306138586
 20
0
  0
SEQEND
  8
1
  0
LINE
  8
1
 62
7
 10
17.2481306138586
 20
5.85
 11
17.2481306138586
 21
0
  0
LINE
  8
1
 62
7
 10
18.9717033930008
 20
8.02642722085779
 11
15.5245578347164
 21
11.4735727791422
  0
INSERT
  8
1
  2
LCA1
 10
15.5245578347164
 20
11.4735727791422
 50
135
  0
CIRCLE
  8
1
 62
7
 10
17.2481306138586
 20
9.75
 40
3.9
  0
LINE
  8
1
 62
7
 10
5.54813061385858
 20
-9.75
 11
8.98403325077541
 21
-9.75263691683571
  0
LINE
  8
1
 62
7
 10
11.3981306138586
 20
-9.75
 11
15.2981306138586
 21
-9.75
  0
CIRCLE
  8
1
 62
7
 10
9.93563061385858
 20
-9.75
 40
0.975
  0
POLYLINE
  8
1
 62
7
 66
1
  0
VERTEX
  8
1
 62
7
 10
9.44813061385856
 20
-11.7
  0
VERTEX
  8
1
 62
7
 10
11.3981306138586
 20
-9.75
  0
VERTEX
  8
1
 62
7
 10
9.44813061385856
 20
-7.80000000000001
  0
SEQEND
  8
1
  0
POLYLINE
  8
1
 62
7
 66
1
  0
VERTEX
  8
1
 62
7
 10
-13.9518693861414
 20
9.75
  0
VERTEX
  8
1
 62
7
 10
-21.7518693861414
 20
9.75
  0
VERTEX
  8
1
 62
7
 10
-21.7518693861414
 20
1.94999999999999
  0
VERTEX
  8
1
 62
7
 10
-13.9518693861414
 20
1.94999999999999
  0
VERTEX
  8
1
 62
7
 10
-13.9518693861414
 20
9.75
  0
SEQEND
  8
1
  0
LINE
  8
1
 62
7
 10
-21.7518693861414
 20
3.9
 11
-19.8018693861414
 21
3.9
  0
INSERT
  8
1
  2
LCBP1
 10
-19.8018693861414
 20
3.9
 50
0
  0
LINE
  8
1
 62
7
 10
-21.7518693861414
 20
7.8
 11
-13.9518693861414
 21
7.8
  0
INSERT
  8
1
  2
LCA1
 10
-13.9518693861414
 20
7.8
 50
0
  0
LINE
  8
1
 62
7
 10
-21.7518693861414
 20
0
 11
-19.8018693861414
 21
0
  0
INSERT
  8
1
  2
LCBP1
 10
-19.8018693861414
 20
0
 50
0
  0
POLYLINE
  8
1
 62
7
 66
1
  0
VERTEX
  8
1
 62
7
 10
-13.9518693861414
 20
1.94999999999999
  0
VERTEX
  8
1
 62
7
 10
-21.7518693861414
 20
1.94999999999999
  0
VERTEX
  8
1
 62
7
 10
-21.7518693861414
 20
-5.85000000000002
  0
VERTEX
  8
1
 62
7
 10
-13.9518693861414
 20
-5.85000000000002
  0
VERTEX
  8
1
 62
7
 10
-13.9518693861414
 20
1.94999999999999
  0
SEQEND
  8
1
  0
LINE
  8
1
 62
7
 10
-13.9518693861414
 20
0
 11
-21.7518693861414
 21
-3.9
  0
INSERT
  8
1
  2
LCA1
 10
-21.7518693861414
 20
-3.9
 50
-153.434948822922
  0
LINE
  8
1
 62
7
 10
-17.8518693861414
 20
12.675
 11
-15.9018693861414
 21
12.675
  0
LINE
  8
1
 62
7
 10
-21.2643693861414
 20
15.6
 11
-18.3393693861414
 21
15.6
  0
LINE
  8
1
 62
7
 10
-18.8268693861414
 20
13.89375
 11
-18.8268693861414
 21
15.6
  0
POLYLINE
  8
1
 62
7
 66
1
  0
VERTEX
  8
1
 62
7
 10
-18.8268693861414
 20
13.89375
  0
VERTEX
  8
1
 62
7
 10
-18.8268693861414
 20
13.40625
  0
VERTEX
  8
1
 62
7
 10
-20.0934315391762
 20
12.675
  0
VERTEX
  8
1
 62
7
 10
-18.8268693861414
 20
11.94375
  0
VERTEX
  8
1
 62
7
 10
-18.8268693861414
 20
11.45625
  0
SEQEND
  8
1
  0
LINE
  8
1
 62
7
 10
-18.8268693861414
 20
9.75
 11
-18.8268693861414
 21
11.45625
  0
LINE
  8
1
 62
7
 10
-20.7768693861414
 20
9.75
 11
-20.7768693861414
 21
15.6
  0
LINE
  8
1
 62
7
  6
DASHED
 10
-4.20185560597615
 20
-2.12973484848484
 11
-4.20185560597615
 21
5.48863093802527
  0
LINE
  8
1
 62
7
 10
-5.54609203689282
 20
-2.12972486276279
 11
-4.20186938614142
 21
-3.47394751351419
  0
LINE
  8
1
 62
7
 10
-4.20186938614142
 20
-3.47394751351419
 11
-2.85768721777667
 21
-2.12976534514945
  0
LINE
  8
1
 62
7
 10
-0.78934799762888
 20
-2.12973484848484
 11
-7.61436321432342
 21
-2.12973484848484
  0
POLYLINE
  8
1
 62
7
 66
1
  0
VERTEX
  8
1
 62
7
 10
-4.20186938614144
 20
5.48863093802527
  0
VERTEX
  8
1
 62
7
 10
-9.7173022793965
 20
-0.0268019552298142
  0
VERTEX
  8
1
 62
7
 10
-4.20186938614144
 20
-5.5422348484849
  0
VERTEX
  8
1
 62
7
 10
1.31356350711377
 20
-0.0268019552298142
  0
VERTEX
  8
1
 62
7
 10
-4.20186938614144
 20
5.48863093802527
  0
SEQEND
  8
1
  0
LINE
  8
1
 62
7
 10
3.16659767828234
 20
7.08860462147179
 11
11.8299323530519
 21
9.48646977884308
  0
INSERT
  8
1
  2
LCA1
 10
11.8299323530519
 20
9.48646977884308
 50
15.4711922908485
  0
POLYLINE
  8
1
 62
7
 66
1
  0
VERTEX
  8
1
 62
7
 10
7.4982389247557
 20
5.8500225647702
  0
VERTEX
  8
1
 62
7
 10
9.4482389247557
 20
6.25627256477031
  0
VERTEX
  8
1
 62
7
 10
5.5482389247557
 20
7.0687725647702
  0
VERTEX
  8
1
 62
7
 10
9.4482389247557
 20
7.88127256477031
  0
VERTEX
  8
1
 62
7
 10
5.5482389247557
 20
8.69377256477031
  0
VERTEX
  8
1
 62
7
 10
9.4482389247557
 20
9.5062725647702
  0
VERTEX
  8
1
 62
7
 10
5.5482389247557
 20
10.3187725647702
  0
VERTEX
  8
1
 62
7
 10
7.4982389247557
 20
10.7250225647702
  0
SEQEND
  8
1
  0
POLYLINE
  8
1
 62
7
 66
1
  0
VERTEX
  8
1
 62
7
 10
5.54813061385856
 20
4.875
  0
VERTEX
  8
1
 62
7
 10
3.59813061385856
 20
3.89999999999998
  0
VERTEX
  8
1
 62
7
 10
5.54813061385856
 20
2.92500000000001
  0
SEQEND
  8
1
  0
POLYLINE
  8
1
 62
7
  6
DOT
 66
1
  0
VERTEX
  8
1
 62
7
 10
7.49813061385856
 20
-1.94999999999999
  0
VERTEX
  8
1
 62
7
 10
7.49813061385856
 20
-5.85000000000002
  0
VERTEX
  8
1
 62
7
 10
15.2981306138586
 20
-5.85000000000002
  0
VERTEX
  8
1
 62
7
 10
15.2981306138586
 20
-1.94999999999999
  0
VERTEX
  8
1
 62
7
 10
13.3481306138586
 20
0
  0
SEQEND
  8
1
  0
POLYLINE
  8
1
 62
7
 66
1
  0
VERTEX
  8
1
 62
7
 10
5.54813061385856
 20
-1.94999999999999
  0
VERTEX
  8
1
 62
7
 10
13.3481306138586
 20
-1.94999999999999
  0
VERTEX
  8
1
 62
7
 10
13.3481306138586
 20
5.85000000000002
  0
VERTEX
  8
1
 62
7
 10
5.54813061385856
 20
5.85000000000002
  0
VERTEX
  8
1
 62
7
 10
5.54813061385856
 20
-1.94999999999999
  0
SEQEND
  8
1
  0
LINE
  8
1
 62
7
 10
13.3481306138586
 20
0
 11
5.54813061385858
 21
0
  0
INSERT
  8
1
  2
LCA1
 10
5.54813061385858
 20
0
 50
-180
  0
INSERT
  8
1
  2
LCA1R
 10
13.3481306138586
 20
0
 50
-180
  0
CIRCLE
  8
CONNECTIONS
 62
7
 10
28.9481306138586
 20
0
 40
0
  0
CIRCLE
  8
CONNECTIONS
 62
7
 10
-29.5518693861414
 20
0
 40
0
  0
CIRCLE
  8
CONNECTIONS
 62
7
 10
-29.5518693861414
 20
-3.9
 40
0
  0
ENDBLK
  8
0
  0
BLOCK
  8
0
  2
B48953
 70
0
 10
0
 20
0
  0
TEXT
  8
1
 62
7
 40
2.34
 41
0.75
  1
3
  7
STANDARD
 73
2
 10
-1.63599046468735
 20
0
 11
-1.63599046468735
 21
0
  0
ENDBLK
  8
0
  0
BLOCK
  8
0
  2
B48954
 70
0
 10
0
 20
0
  0
TEXT
  8
1
 62
7
 40
2.34
 41
0.75
  1
1
  7
STANDARD
 72
2
 10
1.63599046468735
 20
-1.07283818006515
 11
1.63599046468735
 21
-1.07283818006515
  0
ENDBLK
  8
0
  0
BLOCK
  8
0
  2
B48955
 70
0
 10
0
 20
0
  0
TEXT
  8
1
 62
7
 40
2.34
 41
0.75
  1
2
  7
STANDARD
 73
2
 10
-1.63599046468735
 20
0
 11
-1.63599046468735
 21
0
  0
ENDBLK
  8
0
  0
BLOCK
  8
0
  2
B61440_00991471
 70
0
 10
0
 20
0
  0
LINE
  8
1
 62
7
 10
0.4875
 20
-2.68125
 11
0.4875
 21
-6.58125
  0
LINE
  8
1
 62
7
 10
4.3875
 20
-2.68125
 11
4.3875
 21
-6.58125
  0
LINE
  8
1
 62
7
 10
2.4375
 20
7.06875
 11
2.4375
 21
3.16875
  0
POLYLINE
  8
1
 62
7
 66
1
  0
VERTEX
  8
1
 62
7
 10
11.2125
 20
0.243749999999977
  0
VERTEX
  8
1
 62
7
 10
10.80625
 20
-1.70625000000001
  0
VERTEX
  8
1
 62
7
 10
9.99375
 20
2.19375000000002
  0
VERTEX
  8
1
 62
7
 10
9.18125
 20
-1.70625000000001
  0
VERTEX
  8
1
 62
7
 10
8.36875
 20
2.19375000000002
  0
VERTEX
  8
1
 62
7
 10
7.55625
 20
-1.70625000000001
  0
VERTEX
  8
1
 62
7
 10
6.74375
 20
2.19375000000002
  0
VERTEX
  8
1
 62
7
 10
6.3375
 20
0.243749999999977
  0
SEQEND
  8
1
  0
LINE
  8
1
 62
7
 10
7.57606742131435
 20
-4.08791733738478
 11
9.97393257868564
 21
4.57541733738478
  0
INSERT
  8
1
  2
LCA1
 10
9.97393257868564
 20
4.57541733738478
 50
74.5288077091515
  0
LINE
  8
1
 62
7
 10
-5.36249999999323
 20
0.243742669606235
 11
-1.4625
 21
0.243742669606235
  0
LINE
  8
1
 62
7
 10
-8.73998637813807
 20
0.24375
 11
-11.2125
 21
0.24375
  0
LINE
  8
1
 62
7
 10
-8.73998637813806
 20
2.19375
 11
-8.73998637813806
 21
-1.70625
  0
LINE
  8
1
 62
7
 10
-8.73998637813806
 20
2.19375
 11
-5.36248730337875
 21
0.24375
  0
LINE
  8
1
 62
7
 10
-8.73998637813806
 20
-1.70625
 11
-5.36248730337875
 21
0.24375
  0
LINE
  8
1
 62
7
 10
2.16708365442307
 20
1.30062548163459
 11
0.757916345608673
 21
-0.813125481586999
  0
LINE
  8
1
 62
7
 10
2.4375
 20
2.19375
 11
2.4375
 21
3.16875
  0
LINE
  8
1
 62
7
 10
4.3875
 20
-1.70625
 11
4.3875
 21
-2.68125
  0
LINE
  8
1
 62
7
 10
0.4875
 20
-1.70625
 11
0.4875
 21
-2.68125
  0
CIRCLE
  8
1
 62
7
 10
2.4375
 20
1.70625
 40
0.4875
  0
CIRCLE
  8
1
 62
7
 10
4.3875
 20
-1.21875
 40
0.4875
  0
CIRCLE
  8
1
 62
7
 10
0.4875
 20
-1.21875
 40
0.4875
  0
POLYLINE
  8
1
 62
7
 66
1
  0
VERTEX
  8
1
 62
7
 10
-1.4625
 20
3.16874999999999
  0
VERTEX
  8
1
 62
7
 10
6.3375
 20
3.16874999999999
  0
VERTEX
  8
1
 62
7
 10
6.3375
 20
-2.68124999999998
  0
VERTEX
  8
1
 62
7
 10
-1.4625
 20
-2.68124999999998
  0
VERTEX
  8
1
 62
7
 10
-1.4625
 20
3.16874999999999
  0
SEQEND
  8
1
  0
CIRCLE
  8
CONNECTIONS
 62
7
 10
2.4375
 20
7.06875
 40
0
  0
CIRCLE
  8
CONNECTIONS
 62
7
 10
0.4875
 20
-6.58125
 40
0
  0
CIRCLE
  8
CONNECTIONS
 62
7
 10
4.3875
 20
-6.58125
 40
0
  0
CIRCLE
  8
CONNECTIONS
 62
7
 10
-11.2124873033788
 20
0.243764660787531
 40
0
  0
ENDBLK
  8
0
  0
BLOCK
  8
0
  2
B61445
 70
0
 10
0
 20
0
  0
TEXT
  8
1
 62
7
 40
2.34
 41
0.75
  1
3
  7
STANDARD
 73
3
 10
-1.63599046468735
 20
1.65783818006516
 11
-1.63599046468735
 21
1.65783818006516
  0
ENDBLK
  8
0
  0
BLOCK
  8
0
  2
B61446
 70
0
 10
0
 20
0
  0
TEXT
  8
1
 62
7
 40
2.34
 41
0.75
  1
2
  7
STANDARD
 72
2
 73
3
 10
1.63599046468735
 20
1.65783818006516
 11
1.63599046468735
 21
1.65783818006516
  0
ENDBLK
  8
0
  0
BLOCK
  8
0
  2
B61447
 70
0
 10
0
 20
0
  0
TEXT
  8
1
 62
7
 40
2.34
 41
0.75
  1
1
  7
STANDARD
 10
-1.63599046468735
 20
-1.07283818006515
  0
ENDBLK
  8
0
  0
BLOCK
  8
0
  2
B63492_00991454
 70
0
 10
0
 20
0
  0
LINE
  8
1
 62
7
 10
-0.1625
 20
5.85
 11
-0.1625
 21
9.75
  0
LINE
  8
1
 62
7
 10
-0.1625
 20
-5.85
 11
-0.1625
 21
-9.75
  0
LINE
  8
1
 62
7
 10
-0.1625
 20
5.85
 11
-0.1625
 21
-5.85
  0
LINE
  8
1
 62
7
 10
-3.4125
 20
-1.43
 11
3.4125
 21
1.495
  0
INSERT
  8
1
  2
LCA1
 10
3.4125
 20
1.495
 50
23.1985905136482
  0
ARC
  8
1
 62
7
 10
-9.9125
 20
0
 40
8.775
 50
340.528596800055
 51
19.4710505793386
  0
ARC
  8
1
 62
7
 10
9.5875
 20
0
 40
8.775
 50
160.52865870751
 51
199.47139531546
  0
CIRCLE
  8
CONNECTIONS
 62
7
 10
-0.1625
 20
9.75
 40
0
  0
CIRCLE
  8
CONNECTIONS
 62
7
 10
-0.1625
 20
-9.75
 40
0
  0
ENDBLK
  8
0
  0
BLOCK
  8
0
  2
B66465_00991454
 70
0
 10
0
 20
0
  0
LINE
  8
1
 62
7
 10
-0.1625
 20
5.85
 11
-0.1625
 21
9.75
  0
LINE
  8
1
 62
7
 10
-0.1625
 20
-5.85
 11
-0.1625
 21
-9.75
  0
LINE
  8
1
 62
7
 10
-0.1625
 20
5.85
 11
-0.1625
 21
-5.85
  0
LINE
  8
1
 62
7
 10
-3.4125
 20
-1.43
 11
3.4125
 21
1.495
  0
INSERT
  8
1
  2
LCA1
 10
3.4125
 20
1.495
 50
23.1985905136482
  0
ARC
  8
1
 62
7
 10
-9.9125
 20
0
 40
8.775
 50
340.528596800055
 51
19.4710505793386
  0
ARC
  8
1
 62
7
 10
9.5875
 20
0
 40
8.775
 50
160.52865870751
 51
199.47139531546
  0
CIRCLE
  8
CONNECTIONS
 62
7
 10
-0.1625
 20
9.75
 40
0
  0
CIRCLE
  8
CONNECTIONS
 62
7
 10
-0.1625
 20
-9.75
 40
0
  0
ENDBLK
  8
0
  0
BLOCK
  8
0
  2
B67744
 70
0
 10
0
 20
0
  0
CIRCLE
  8
CONNECTIONS
 62
7
 10
0
 20
0
 40
0
  0
CIRCLE
  8
CONNECTIONS
 62
7
 10
0
 20
0
 40
0
  0
CIRCLE
  8
CONNECTIONS
 62
7
 10
0
 20
0
 40
0
  0
CIRCLE
  8
CONNECTIONS
 62
7
 10
0
 20
0
 40
0
  0
ENDBLK
  8
0
  0
BLOCK
  8
0
  2
B70872
 70
0
 10
0
 20
0
  0
CIRCLE
  8
CONNECTIONS
 62
7
 10
0
 20
0
 40
0
  0
CIRCLE
  8
CONNECTIONS
 62
7
 10
0
 20
0
 40
0
  0
CIRCLE
  8
CONNECTIONS
 62
7
 10
0
 20
0
 40
0
  0
CIRCLE
  8
CONNECTIONS
 62
7
 10
0
 20
0
 40
0
  0
ENDBLK
  8
0
  0
BLOCK
  8
0
  2
B72609_00991399
 70
0
 10
0
 20
0
  0
LINE
  8
1
 62
7
 10
10.2787969857435
 20
-3.9975
 11
10.2787969857435
 21
-7.8975
  0
LINE
  8
1
 62
7
 10
10.2787969857435
 20
3.8025
 11
10.2787969857435
 21
7.7025
  0
TEXT
  8
1
 62
7
 40
2.413125
 41
0.75
  1
12
  7
STANDARD
 73
2
 10
-11.9512030142565
 20
6.045
 11
-11.9512030142565
 21
6.045
  0
LINE
  8
1
 62
7
 10
-11.1712030142565
 20
3.315
 11
-7.27120301425653
 21
3.315
  0
LINE
  8
1
 62
7
 10
-11.1712030142565
 20
3.8025
 11
-11.1712030142565
 21
0.877500000000001
  0
LINE
  8
1
 62
7
 10
-11.1712030142565
 20
1.365
 11
-7.27120301425653
 21
1.365
  0
LINE
  8
1
 62
7
 10
-7.27120301425653
 20
-0.0974999999999991
 11
-7.27120301425653
 21
3.8025
  0
LINE
  8
1
 62
7
 10
-11.1712030142565
 20
-3.9975
 11
-9.22120301425653
 21
-0.0974999999999991
  0
POLYLINE
  8
1
 62
7
 66
1
  0
VERTEX
  8
1
 62
7
 10
-13.1212030142565
 20
-0.0974999999999682
  0
VERTEX
  8
1
 62
7
 10
-7.27120301425653
 20
-0.0974999999999682
  0
VERTEX
  8
1
 62
7
 10
-7.27120301425653
 20
-3.9975
  0
VERTEX
  8
1
 62
7
 10
-13.1212030142565
 20
-3.9975
  0
VERTEX
  8
1
 62
7
 10
-13.1212030142565
 20
-0.0974999999999682
  0
SEQEND
  8
1
  0
LINE
  8
1
 62
7
 10
-7.27120301425653
 20
-0.0974999999999991
 11
-7.27120301425653
 21
-3.9975
  0
LINE
  8
1
 62
7
 10
-7.27120301425653
 20
-0.0974999999999991
 11
-3.89370393949722
 21
-2.0475
  0
LINE
  8
1
 62
7
 10
-7.27120301425653
 20
-3.9975
 11
-3.89370393949722
 21
-2.0475
  0
POLYLINE
  8
1
 62
7
 66
1
  0
VERTEX
  8
1
 62
7
 10
-7.27120301425653
 20
-0.0974999999999682
  0
VERTEX
  8
1
 62
7
 10
-1.42120301425653
 20
-0.0974999999999682
  0
VERTEX
  8
1
 62
7
 10
-1.42120301425653
 20
-3.9975
  0
VERTEX
  8
1
 62
7
 10
-7.27120301425653
 20
-3.9975
  0
VERTEX
  8
1
 62
7
 10
-7.27120301425653
 20
-0.0974999999999682
  0
SEQEND
  8
1
  0
POLYLINE
  8
1
 62
7
 66
1
  0
VERTEX
  8
1
 62
7
 10
14.1788359850665
 20
-0.0974999999999682
  0
VERTEX
  8
1
 62
7
 10
20.0288359850665
 20
-0.0974999999999682
  0
VERTEX
  8
1
 62
7
 10
20.0288359850665
 20
-3.99999427437217
  0
VERTEX
  8
1
 62
7
 10
14.1788359850665
 20
-3.99999427437217
  0
VERTEX
  8
1
 62
7
 10
14.1788359850665
 20
-0.0974999999999682
  0
SEQEND
  8
1
  0
LINE
  8
1
 62
7
 10
19.996301527959
 20
-0.135025145047961
 11
16.6837979109842
 21
-2.0475
  0
LINE
  8
1
 62
7
 10
16.6512979109842
 20
-2.0475
 11
14.1787969857435
 21
-2.0475
  0
LINE
  8
1
 62
7
 10
20.0287969857435
 20
-0.0974999999999991
 11
20.0287969857435
 21
-3.9975
  0
LINE
  8
1
 62
7
 10
20.0287969857435
 20
-3.9975
 11
16.6512979109842
 21
-2.0475
  0
LINE
  8
1
 62
7
 10
10.2787969857435
 20
3.8025
 11
10.2787969857435
 21
1.8525
  0
INSERT
  8
1
  2
LCBP1
 10
10.2787969857435
 20
1.8525
 50
-90
  0
LINE
  8
1
 62
7
 10
10.2787969857435
 20
-3.9975
 11
10.2787969857435
 21
-2.0475
  0
INSERT
  8
1
  2
LCBP1
 10
10.2787969857435
 20
-2.0475
 50
90
  0
POLYLINE
  8
1
 62
7
 66
1
  0
VERTEX
  8
1
 62
7
 10
6.37879698574347
 20
3.80250000000001
  0
VERTEX
  8
1
 62
7
 10
14.1787969857435
 20
3.80250000000001
  0
VERTEX
  8
1
 62
7
 10
14.1787969857435
 20
-3.9975
  0
VERTEX
  8
1
 62
7
 10
6.37879698574347
 20
-3.9975
  0
VERTEX
  8
1
 62
7
 10
6.37879698574347
 20
3.80250000000001
  0
SEQEND
  8
1
  0
LINE
  8
1
 62
7
 10
2.47879698574347
 20
-3.9975
 11
2.47879698574347
 21
3.8025
  0
INSERT
  8
1
  2
LCA1
 10
2.47879698574347
 20
3.8025
 50
90
  0
POLYLINE
  8
1
 62
7
 66
1
  0
VERTEX
  8
1
 62
7
 10
-1.42120301425653
 20
3.80250000000001
  0
VERTEX
  8
1
 62
7
 10
6.37879698574347
 20
3.80250000000001
  0
VERTEX
  8
1
 62
7
 10
6.37879698574347
 20
-3.9975
  0
VERTEX
  8
1
 62
7
 10
-1.42120301425653
 20
-3.9975
  0
VERTEX
  8
1
 62
7
 10
-1.42120301425653
 20
3.80250000000001
  0
SEQEND
  8
1
  0
CIRCLE
  8
CONNECTIONS
 62
7
 10
-13.1212030142565
 20
-2.0475
 40
0
  0
CIRCLE
  8
CONNECTIONS
 62
7
 10
10.2787969857435
 20
7.7025
 40
0
  0
CIRCLE
  8
CONNECTIONS
 62
7
 10
10.2787969857435
 20
-7.8975
 40
0
  0
ENDBLK
  8
0
  0
BLOCK
  8
0
  2
B72613
 70
0
 10
0
 20
0
  0
TEXT
  8
1
 62
7
 40
2.34
 41
0.75
  1
1
  7
STANDARD
 72
2
 73
2
 10
1.63599046468735
 20
0
 11
1.63599046468735
 21
0
  0
ENDBLK
  8
0
  0
BLOCK
  8
0
  2
B72614
 70
0
 10
0
 20
0
  0
TEXT
  8
1
 62
7
 40
2.34
 41
0.75
  1
2
  7
STANDARD
 72
2
 73
2
 10
1.63599046468735
 20
0
 11
1.63599046468735
 21
0
  0
ENDBLK
  8
0
  0
BLOCK
  8
0
  2
B77593_00991558
 70
0
 10
0
 20
0
  0
POLYLINE
  8
1
 62
7
 66
1
  0
VERTEX
  8
1
 62
7
 10
-10.725
 20
14.625
  0
VERTEX
  8
1
 62
7
 10
10.725
 20
14.625
  0
VERTEX
  8
1
 62
7
 10
10.725
 20
-14.625
  0
VERTEX
  8
1
 62
7
 10
-10.725
 20
-14.625
  0
VERTEX
  8
1
 62
7
 10
-10.725
 20
14.625
  0
SEQEND
  8
1
  0
LINE
  8
1
 62
7
 10
10.725
 20
0.975
 11
14.625
 21
0.975
  0
LINE
  8
1
 62
7
 10
-10.725
 20
0.975
 11
-14.625
 21
0.975
  0
LINE
  8
1
 62
7
 10
2.925
 20
0.975
 11
10.725
 21
0.975
  0
LINE
  8
1
 62
7
 10
-10.725
 20
0.975
 11
-4.875
 21
0.975
  0
LINE
  8
1
 62
7
 10
4.3875
 20
-8.775
 11
6.825
 21
-8.775
  0
LINE
  8
1
 62
7
 10
-6.825
 20
-8.775
 11
-4.3875
 21
-8.775
  0
POLYLINE
  8
1
 62
7
 70
1
 66
1
 40
0.585
 41
0.585
  0
VERTEX
  8
1
 10
6.5325
 20
0.975
 42
1
  0
VERTEX
  8
1
 10
7.1175
 20
0.975
 42
1
  0
SEQEND
  8
1
  0
POLYLINE
  8
1
 62
7
 70
1
 66
1
 40
0.585
 41
0.585
  0
VERTEX
  8
1
 10
-7.1175
 20
0.975
 42
1
  0
VERTEX
  8
1
 10
-6.5325
 20
0.975
 42
1
  0
SEQEND
  8
1
  0
LINE
  8
1
 62
7
 10
6.825
 20
-8.775
 11
6.825
 21
0.975
  0
LINE
  8
1
 62
7
 10
-6.825
 20
0.975
 11
-6.825
 21
-8.775
  0
LINE
  8
1
 62
7
 10
8.11706673158955
 20
5.41158588395623
 11
5.35935028496202
 21
8.16930233058376
  0
INSERT
  8
1
  2
LCA1
 10
5.35935028496202
 20
8.16930233058376
 50
135
  0
LINE
  8
1
 62
7
 10
6.825
 20
4.06728355337246
 11
6.825
 21
0.975
  0
CIRCLE
  8
1
 62
7
 10
6.825
 20
6.825
 40
2.75771644662754
  0
LINE
  8
1
 62
7
 10
-1.07250000000002
 20
-8.775
 11
-4.3875
 21
-8.775
  0
LINE
  8
1
 62
7
 10
4.3875
 20
-8.775
 11
1.4625
 21
-8.775
  0
POLYLINE
  8
1
 62
7
 66
1
  0
VERTEX
  8
1
 62
7
 10
-0.487499999999993
 20
-10.725
  0
VERTEX
  8
1
 62
7
 10
1.4625
 20
-8.77499999999998
  0
VERTEX
  8
1
 62
7
 10
-0.487499999999993
 20
-6.82499999999999
  0
SEQEND
  8
1
  0
CIRCLE
  8
1
 62
7
 10
0.0325000000000028
 20
-8.775
 40
0.975
  0
LINE
  8
1
 62
7
 10
-7.25881063338159
 20
8.07133491918382
 11
1.40880982185617
 21
10.4536616482334
  0
INSERT
  8
1
  2
LCA1
 10
1.40880982185617
 20
10.4536616482334
 50
15.3684528725217
  0
POLYLINE
  8
1
 62
7
 66
1
  0
VERTEX
  8
1
 62
7
 10
-2.925
 20
6.82499999999999
  0
VERTEX
  8
1
 62
7
 10
-0.975
 20
7.23124999999999
  0
VERTEX
  8
1
 62
7
 10
-4.875
 20
8.04374999999999
  0
VERTEX
  8
1
 62
7
 10
-0.975
 20
8.85624999999999
  0
VERTEX
  8
1
 62
7
 10
-4.875
 20
9.66874999999999
  0
VERTEX
  8
1
 62
7
 10
-0.975
 20
10.48125
  0
VERTEX
  8
1
 62
7
 10
-4.875
 20
11.29375
  0
VERTEX
  8
1
 62
7
 10
-2.925
 20
11.7
  0
SEQEND
  8
1
  0
POLYLINE
  8
1
 62
7
 66
1
  0
VERTEX
  8
1
 62
7
 10
-4.875
 20
5.85000000000002
  0
VERTEX
  8
1
 62
7
 10
-6.825
 20
4.875
  0
VERTEX
  8
1
 62
7
 10
-4.875
 20
3.89999999999998
  0
SEQEND
  8
1
  0
POLYLINE
  8
1
 62
7
  6
DOT
 66
1
  0
VERTEX
  8
1
 62
7
 10
-2.925
 20
-0.975000000000023
  0
VERTEX
  8
1
 62
7
 10
-2.925
 20
-4.875
  0
VERTEX
  8
1
 62
7
 10
4.875
 20
-4.875
  0
VERTEX
  8
1
 62
7
 10
4.875
 20
-0.975000000000023
  0
VERTEX
  8
1
 62
7
 10
2.925
 20
0.975000000000023
  0
SEQEND
  8
1
  0
POLYLINE
  8
1
 62
7
 66
1
  0
VERTEX
  8
1
 62
7
 10
-4.875
 20
-0.975000000000023
  0
VERTEX
  8
1
 62
7
 10
2.925
 20
-0.975000000000023
  0
VERTEX
  8
1
 62
7
 10
2.925
 20
6.82499999999999
  0
VERTEX
  8
1
 62
7
 10
-4.875
 20
6.82499999999999
  0
VERTEX
  8
1
 62
7
 10
-4.875
 20
-0.975000000000023
  0
SEQEND
  8
1
  0
LINE
  8
1
 62
7
 10
2.925
 20
0.975
 11
-4.875
 21
0.975
  0
INSERT
  8
1
  2
LCA1
 10
-4.875
 20
0.975
 50
-180
  0
INSERT
  8
1
  2
LCA1R
 10
2.925
 20
0.975
 50
-180
  0
CIRCLE
  8
CONNECTIONS
 62
7
 10
-14.625
 20
0.975
 40
0
  0
CIRCLE
  8
CONNECTIONS
 62
7
 10
14.625
 20
0.975
 40
0
  0
ENDBLK
  8
0
  0
BLOCK
  8
0
  2
B77599
 70
0
 10
0
 20
0
  0
TEXT
  8
1
 62
7
 40
2.34
 41
0.75
  1
2
  7
STANDARD
 73
2
 10
-1.63599046468735
 20
0
 11
-1.63599046468735
 21
0
  0
ENDBLK
  8
0
  0
BLOCK
  8
0
  2
B77600
 70
0
 10
0
 20
0
  0
TEXT
  8
1
 62
7
 40
2.34
 41
0.75
  1
1
  7
STANDARD
 72
2
 73
2
 10
1.63599046468735
 20
0
 11
1.63599046468735
 21
0
  0
ENDBLK
  8
0
  0
BLOCK
  8
0
  2
B80852_00991483
 70
0
 10
0
 20
0
  0
LINE
  8
1
 62
7
  6
DASHED
 10
-5.51543289325507
 20
0
 11
5.51543289325507
 21
0
  0
POLYLINE
  8
1
 62
7
 66
1
  0
VERTEX
  8
1
 62
7
 10
-1.84741111297626E-14
 20
5.51543289325502
  0
VERTEX
  8
1
 62
7
 10
-5.51543289325509
 20
0
  0
VERTEX
  8
1
 62
7
 10
-1.84741111297626E-14
 20
-5.51543289325502
  0
VERTEX
  8
1
 62
7
 10
5.51543289325506
 20
0
  0
VERTEX
  8
1
 62
7
 10
-1.84741111297626E-14
 20
5.51543289325502
  0
SEQEND
  8
1
  0
LINE
  8
1
 62
7
 10
0
 20
-9.75
 11
0
 21
-5.51543289325504
  0
LINE
  8
1
 62
7
 10
0
 20
9.75
 11
0
 21
5.51543289325503
  0
CIRCLE
  8
CONNECTIONS
 62
7
 10
9.2370555648813E-15
 20
9.75
 40
0
  0
CIRCLE
  8
CONNECTIONS
 62
7
 10
9.2370555648813E-15
 20
-9.75
 40
0
  0
ENDBLK
  8
0
  0
BLOCK
  8
0
  2
B84399_00993166
 70
0
 10
0
 20
0
  0
LINE
  8
1
 62
7
 10
1.42749907475932
 20
0
 11
1.95
 21
0
  0
LINE
  8
1
 62
7
 10
1.42749907475931
 20
0
 11
-1.95
 21
1.95
  0
LINE
  8
1
 62
7
 10
-1.95
 20
1.95
 11
-1.95
 21
-1.95
  0
LINE
  8
1
 62
7
 10
1.42749907475931
 20
0
 11
-1.95
 21
-1.95
  0
CIRCLE
  8
CONNECTIONS
 62
7
 10
1.95
 20
0
 40
0
  0
ENDBLK
  8
0
  0
BLOCK
  8
0
  2
B85148
 70
0
 10
0
 20
0
  0
CIRCLE
  8
CONNECTIONS
 62
7
 10
0
 20
0
 40
0
  0
CIRCLE
  8
CONNECTIONS
 62
7
 10
0
 20
0
 40
0
  0
CIRCLE
  8
CONNECTIONS
 62
7
 10
0
 20
0
 40
0
  0
CIRCLE
  8
CONNECTIONS
 62
7
 10
0
 20
0
 40
0
  0
ENDBLK
  8
0
  0
BLOCK
  8
0
  2
B85397_00991473
 70
0
 10
0
 20
0
  0
LINE
  8
1
 62
7
 10
2.925
 20
1.95
 11
2.925
 21
0
  0
LINE
  8
1
 62
7
 10
0.975
 20
-1.95
 11
0.975
 21
0
  0
LINE
  8
1
 62
7
 10
-0.975
 20
1.95
 11
-0.975
 21
0
  0
POLYLINE
  8
1
 62
7
 66
1
  0
VERTEX
  8
1
 62
7
 10
-2.925
 20
1.94999999999999
  0
VERTEX
  8
1
 62
7
 10
4.875
 20
1.94999999999999
  0
VERTEX
  8
1
 62
7
 10
4.875
 20
-1.94999999999999
  0
VERTEX
  8
1
 62
7
 10
-2.925
 20
-1.94999999999999
  0
VERTEX
  8
1
 62
7
 10
-2.925
 20
1.94999999999999
  0
SEQEND
  8
1
  0
LINE
  8
1
 62
7
 10
-6.825
 20
0
 11
-2.925
 21
0
  0
POLYLINE
  8
1
 62
7
 66
1
  0
VERTEX
  8
1
 62
7
 10
4.875
 20
-0.975000000000023
  0
VERTEX
  8
1
 62
7
 10
6.825
 20
0
  0
VERTEX
  8
1
 62
7
 10
4.875
 20
0.975000000000023
  0
SEQEND
  8
1
  0
CIRCLE
  8
CONNECTIONS
 62
7
 10
-6.825
 20
0
 40
0
  0
ENDBLK
  8
0
  0
BLOCK
  8
0
  2
B89847_00991473
 70
0
 10
0
 20
0
  0
LINE
  8
1
 62
7
 10
2.925
 20
1.95
 11
2.925
 21
0
  0
LINE
  8
1
 62
7
 10
0.975
 20
-1.95
 11
0.975
 21
0
  0
LINE
  8
1
 62
7
 10
-0.975
 20
1.95
 11
-0.975
 21
0
  0
POLYLINE
  8
1
 62
7
 66
1
  0
VERTEX
  8
1
 62
7
 10
-2.925
 20
1.94999999999999
  0
VERTEX
  8
1
 62
7
 10
4.875
 20
1.94999999999999
  0
VERTEX
  8
1
 62
7
 10
4.875
 20
-1.94999999999999
  0
VERTEX
  8
1
 62
7
 10
-2.925
 20
-1.94999999999999
  0
VERTEX
  8
1
 62
7
 10
-2.925
 20
1.94999999999999
  0
SEQEND
  8
1
  0
LINE
  8
1
 62
7
 10
-6.825
 20
0
 11
-2.925
 21
0
  0
POLYLINE
  8
1
 62
7
 66
1
  0
VERTEX
  8
1
 62
7
 10
4.875
 20
-0.975000000000023
  0
VERTEX
  8
1
 62
7
 10
6.825
 20
0
  0
VERTEX
  8
1
 62
7
 10
4.875
 20
0.975000000000023
  0
SEQEND
  8
1
  0
CIRCLE
  8
CONNECTIONS
 62
7
 10
-6.825
 20
0
 40
0
  0
ENDBLK
  8
0
  0
BLOCK
  8
0
  2
B96754
 70
0
 10
0
 20
0
  0
CIRCLE
  8
CONNECTIONS
 62
7
 10
0
 20
0
 40
0
  0
CIRCLE
  8
CONNECTIONS
 62
7
 10
0
 20
0
 40
0
  0
ENDBLK
  8
0
  0
BLOCK
  8
0
  2
B48850_00991040
 70
0
 10
0
 20
0
  0
TEXT
  8
1
 62
7
 40
2.413125
 41
0.75
  1
14
  7
STANDARD
 73
2
 10
-15.8265345859528
 20
3.12
 11
-15.8265345859528
 21
3.12
  0
LINE
  8
1
 62
7
 10
16.0875
 20
4.095
 11
16.0875
 21
7.995
  0
LINE
  8
1
 62
7
 10
8.2875
 20
-3.705
 11
8.2875
 21
-7.605
  0
LINE
  8
1
 62
7
 10
8.2875
 20
7.995
 11
8.2875
 21
4.095
  0
LINE
  8
1
 62
7
 10
12.1875
 20
-3.705
 11
12.1875
 21
-7.605
  0
LINE
  8
1
 62
7
 10
16.0875
 20
-3.705
 11
16.0875
 21
-7.605
  0
LINE
  8
1
 62
7
 10
-15.1125
 20
-3.705
 11
-13.1625
 21
0.195000000000002
  0
POLYLINE
  8
1
 62
7
 66
1
  0
VERTEX
  8
1
 62
7
 10
-17.0625
 20
0.194999999999993
  0
VERTEX
  8
1
 62
7
 10
-11.2125
 20
0.194999999999993
  0
VERTEX
  8
1
 62
7
 10
-11.2125
 20
-3.70500000000004
  0
VERTEX
  8
1
 62
7
 10
-17.0625
 20
-3.70500000000004
  0
VERTEX
  8
1
 62
7
 10
-17.0625
 20
0.194999999999993
  0
SEQEND
  8
1
  0
POLYLINE
  8
1
 62
7
 66
1
  0
VERTEX
  8
1
 62
7
 10
18.0375
 20
0.194999999999993
  0
VERTEX
  8
1
 62
7
 10
23.8875
 20
0.194999999999993
  0
VERTEX
  8
1
 62
7
 10
23.8875
 20
-3.70500000000004
  0
VERTEX
  8
1
 62
7
 10
18.0375
 20
-3.70500000000004
  0
VERTEX
  8
1
 62
7
 10
18.0375
 20
0.194999999999993
  0
SEQEND
  8
1
  0
LINE
  8
1
 62
7
 10
20.5100009252407
 20
-1.755
 11
23.8875
 21
0.195000000000002
  0
LINE
  8
1
 62
7
 10
20.5100009252407
 20
-1.755
 11
18.0375
 21
-1.755
  0
LINE
  8
1
 62
7
 10
23.8875
 20
-3.705
 11
20.5100009252407
 21
-1.755
  0
LINE
  8
1
 62
7
 10
-11.2125
 20
0.195000000000002
 11
-11.2125
 21
-3.705
  0
POLYLINE
  8
1
 62
7
 66
1
  0
VERTEX
  8
1
 62
7
 10
-11.2125
 20
0.194999999999993
  0
VERTEX
  8
1
 62
7
 10
-5.3625
 20
0.194999999999993
  0
VERTEX
  8
1
 62
7
 10
-5.3625
 20
-3.70500000000004
  0
VERTEX
  8
1
 62
7
 10
-11.2125
 20
-3.70500000000004
  0
VERTEX
  8
1
 62
7
 10
-11.2125
 20
0.194999999999993
  0
SEQEND
  8
1
  0
LINE
  8
1
 62
7
 10
-11.2125
 20
0.195000000000002
 11
-7.83500092524069
 21
-1.755
  0
LINE
  8
1
 62
7
 10
-11.2125
 20
-3.705
 11
-7.83500092524069
 21
-1.755
  0
LINE
  8
1
 62
7
 10
-3.4125
 20
-3.705
 11
-3.4125
 21
-1.755
  0
INSERT
  8
1
  2
LCBP1
 10
-3.4125
 20
-1.755
 50
90
  0
POLYLINE
  8
1
 62
7
 66
1
  0
VERTEX
  8
1
 62
7
 10
-5.3625
 20
4.09499999999997
  0
VERTEX
  8
1
 62
7
 10
6.3375
 20
4.09499999999997
  0
VERTEX
  8
1
 62
7
 10
6.3375
 20
-3.70500000000004
  0
VERTEX
  8
1
 62
7
 10
-5.3625
 20
-3.70500000000004
  0
VERTEX
  8
1
 62
7
 10
-5.3625
 20
4.09499999999997
  0
SEQEND
  8
1
  0
LINE
  8
1
 62
7
 10
4.3875
 20
4.095
 11
4.3875
 21
-3.705
  0
INSERT
  8
1
  2
LCA1
 10
4.3875
 20
-3.705
 50
-90
  0
LINE
  8
1
 62
7
 10
0.4875
 20
-3.705
 11
-3.4125
 21
4.095
  0
INSERT
  8
1
  2
LCA1
 10
-3.4125
 20
4.095
 50
116.565051177078
  0
LINE
  8
1
 62
7
 10
16.0875
 20
-3.705
 11
16.0875
 21
-1.755
  0
INSERT
  8
1
  2
LCBP1
 10
16.0875
 20
-1.755
 50
90
  0
POLYLINE
  8
1
 62
7
 66
1
  0
VERTEX
  8
1
 62
7
 10
6.3375
 20
4.09499999999997
  0
VERTEX
  8
1
 62
7
 10
18.0375
 20
4.09499999999997
  0
VERTEX
  8
1
 62
7
 10
18.0375
 20
-3.70500000000004
  0
VERTEX
  8
1
 62
7
 10
6.3375
 20
-3.70500000000004
  0
VERTEX
  8
1
 62
7
 10
6.3375
 20
4.09499999999997
  0
SEQEND
  8
1
  0
LINE
  8
1
 62
7
 10
8.2875
 20
4.095
 11
8.2875
 21
-3.705
  0
INSERT
  8
1
  2
LCA1
 10
8.2875
 20
-3.705
 50
-90
  0
LINE
  8
1
 62
7
 10
12.1875
 20
-3.705
 11
16.0875
 21
4.095
  0
INSERT
  8
1
  2
LCA1
 10
16.0875
 20
4.095
 50
63.434948822922
  0
CIRCLE
  8
CONNECTIONS
 62
7
 10
8.2875
 20
7.995
 40
0
  0
CIRCLE
  8
CONNECTIONS
 62
7
 10
16.0875
 20
7.995
 40
0
  0
CIRCLE
  8
CONNECTIONS
 62
7
 10
16.0875
 20
-7.605
 40
0
  0
CIRCLE
  8
CONNECTIONS
 62
7
 10
12.1875
 20
-7.605
 40
0
  0
CIRCLE
  8
CONNECTIONS
 62
7
 10
8.2875
 20
-7.605
 40
0
  0
CIRCLE
  8
CONNECTIONS
 62
7
 10
-17.0773670291901
 20
-1.755
 40
0
  0
ENDBLK
  8
0
  0
BLOCK
  8
0
  2
B99742
 70
0
 10
0
 20
0
  0
LINE
  8
1
 62
7
 10
0
 20
0.8125
 11
0
 21
-0.8125
  0
LINE
  8
1
 62
7
 10
-1.3
 20
-0.8125
 11
1.3
 21
-0.8125
  0
CIRCLE
  8
CONNECTIONS
 62
7
 10
0
 20
0.8125
 40
0
  0
ENDBLK
  8
0
  0
BLOCK
  8
0
  2
B99744
 70
0
 10
0
 20
0
  0
ENDBLK
  8
0
  0
BLOCK
  8
0
  2
B112706
 70
0
 10
0
 20
0
  0
LINE
  8
1
 62
7
 10
-2.75770434900357
 20
0
 11
2.75770434900357
 21
0
  0
ENDBLK
  8
0
  0
BLOCK
  8
0
  2
B115633
 70
0
 10
0
 20
0
  0
LINE
  8
1
 62
7
 10
-2.75771433238984
 20
0
 11
2.75771433238984
 21
0
  0
ENDBLK
  8
0
  0
BLOCK
  8
0
  2
B115634
 70
0
 10
0
 20
0
  0
LINE
  8
1
 62
7
 10
-2.75770434900357
 20
0
 11
2.75770434900357
 21
0
  0
ENDBLK
  8
0
  0
BLOCK
  8
0
  2
B123011
 70
0
 10
0
 20
0
  0
LINE
  8
1
 62
7
 10
-2.75770956598537
 20
0
 11
2.75770956598537
 21
0
  0
ENDBLK
  8
0
  0
BLOCK
  8
0
  2
B126961
 70
0
 10
0
 20
0
  0
LINE
  8
1
 62
7
 10
-1.9500036088155
 20
0
 11
1.9500036088155
 21
0
  0
ENDBLK
  8
0
  0
BLOCK
  8
0
  2
B129055
 70
0
 10
0
 20
0
  0
LINE
  8
1
 62
7
 10
-1.9500036088155
 20
0
 11
1.9500036088155
 21
0
  0
ENDBLK
  8
0
  0
BLOCK
  8
0
  2
B141661
 70
0
 10
0
 20
0
  0
LINE
  8
1
 62
7
 10
-25.3499993445221
 20
0
 11
25.3499993445221
 21
0
  0
ENDBLK
  8
0
  0
BLOCK
  8
0
  2
B143323
 70
0
 10
0
 20
0
  0
LINE
  8
1
 62
7
 10
-2.75771433238984
 20
0
 11
2.75771433238984
 21
0
  0
ENDBLK
  8
0
  0
BLOCK
  8
0
  2
B143324
 70
0
 10
0
 20
0
  0
LINE
  8
1
 62
7
 10
-2.75770434900357
 20
0
 11
2.75770434900357
 21
0
  0
ENDBLK
  8
0
  0
BLOCK
  8
0
  2
B143325
 70
0
 10
0
 20
0
  0
LINE
  8
1
 62
7
 10
-3.89999539819335
 20
0
 11
3.89999539819335
 21
0
  0
ENDBLK
  8
0
  0
BLOCK
  8
0
  2
B143502
 70
0
 10
0
 20
0
  0
LINE
  8
1
 62
7
 10
-2.75771433238984
 20
0
 11
2.75771433238984
 21
0
  0
ENDBLK
  8
0
  0
BLOCK
  8
0
  2
B143503
 70
0
 10
0
 20
0
  0
LINE
  8
1
 62
7
 10
-2.75770434900357
 20
0
 11
2.75770434900357
 21
0
  0
ENDBLK
  8
0
  0
BLOCK
  8
0
  2
B143504
 70
0
 10
0
 20
0
  0
LINE
  8
1
 62
7
 10
-3.9000278982279
 20
0
 11
3.9000278982279
 21
0
  0
ENDBLK
  8
0
  0
BLOCK
  8
0
  2
B143690
 70
0
 10
0
 20
0
  0
LINE
  8
1
 62
7
 10
-2.75771433238984
 20
0
 11
2.75771433238984
 21
0
  0
ENDBLK
  8
0
  0
BLOCK
  8
0
  2
B143691
 70
0
 10
0
 20
0
  0
LINE
  8
1
 62
7
 10
-2.75770434900357
 20
0
 11
2.75770434900357
 21
0
  0
ENDBLK
  8
0
  0
BLOCK
  8
0
  2
B143692
 70
0
 10
0
 20
0
  0
LINE
  8
1
 62
7
 10
-3.90000947643256
 20
0
 11
3.90000947643256
 21
0
  0
ENDBLK
  8
0
  0
BLOCK
  8
0
  2
B143887
 70
0
 10
0
 20
0
  0
LINE
  8
1
 62
7
 10
-2.75771433238984
 20
0
 11
2.75771433238984
 21
0
  0
ENDBLK
  8
0
  0
BLOCK
  8
0
  2
B143888
 70
0
 10
0
 20
0
  0
LINE
  8
1
 62
7
 10
-2.75770434900357
 20
0
 11
2.75770434900357
 21
0
  0
ENDBLK
  8
0
  0
BLOCK
  8
0
  2
B143889
 70
0
 10
0
 20
0
  0
LINE
  8
1
 62
7
 10
-3.90001331599179
 20
0
 11
3.90001331599179
 21
0
  0
ENDBLK
  8
0
  0
BLOCK
  8
0
  2
B147121
 70
0
 10
0
 20
0
  0
TEXT
  8
1
 62
7
 40
2.413125
 41
0.75
  1
NOZZLE
  7
STANDARD
 73
3
 10
-8.18676691055298
 20
1.70964553117752
 11
-8.18676691055298
 21
1.70964553117752
  0
ENDBLK
  8
0
  0
BLOCK
  8
0
  2
B151009
 70
0
 10
0
 20
0
  0
TEXT
  8
1
 62
7
 40
2.413125
 41
0.75
  1
NOZZLE
  7
STANDARD
 73
3
 10
-8.18676691055298
 20
1.70964553117752
 11
-8.18676691055298
 21
1.70964553117752
  0
ENDBLK
  8
0
  0
BLOCK
  8
0
  2
B154333
 70
0
 10
0
 20
0
  0
TEXT
  8
1
 62
7
 40
2.413125
 41
0.75
  1
ION NOZZLE
  7
STANDARD
 73
3
 10
-12.1289255142212
 20
1.70964553117752
 11
-12.1289255142212
 21
1.70964553117752
  0
ENDBLK
  8
0
  0
BLOCK
  8
0
  2
B202109
 70
0
 10
0
 20
0
  0
TEXT
  8
_LabelDrawingFrame
 62
7
 40
4.095
 41
0.75
  1
A
  7
STANDARD
 73
3
 10
-3.22400653362274
 20
2.90121693134308
 11
-3.22400653362274
 21
2.90121693134308
  0
ENDBLK
  8
0
  0
BLOCK
  8
0
  2
B202110
 70
0
 10
0
 20
0
  0
TEXT
  8
_LabelDrawingFrame
 62
7
 40
4.095
 41
0.75
  1
B
  7
STANDARD
 73
3
 10
-3.22400653362274
 20
2.90121693134308
 11
-3.22400653362274
 21
2.90121693134308
  0
ENDBLK
  8
0
  0
BLOCK
  8
0
  2
B202111
 70
0
 10
0
 20
0
  0
TEXT
  8
_LabelDrawingFrame
 62
7
 40
4.095
 41
0.75
  1
C
  7
STANDARD
 73
3
 10
-3.40297510623932
 20
2.90121693134308
 11
-3.40297510623932
 21
2.90121693134308
  0
ENDBLK
  8
0
  0
BLOCK
  8
0
  2
B202112
 70
0
 10
0
 20
0
  0
TEXT
  8
_LabelDrawingFrame
 62
7
 40
4.095
 41
0.75
  1
D
  7
STANDARD
 73
3
 10
-3.40297510623932
 20
2.90121693134308
 11
-3.40297510623932
 21
2.90121693134308
  0
ENDBLK
  8
0
  0
BLOCK
  8
0
  2
B202113
 70
0
 10
0
 20
0
  0
TEXT
  8
_LabelDrawingFrame
 62
7
 40
4.095
 41
0.75
  1
E
  7
STANDARD
 73
3
 10
-3.22400653362274
 20
2.90121693134308
 11
-3.22400653362274
 21
2.90121693134308
  0
ENDBLK
  8
0
  0
BLOCK
  8
0
  2
B202114
 70
0
 10
0
 20
0
  0
TEXT
  8
_LabelDrawingFrame
 62
7
 40
4.095
 41
0.75
  1
F
  7
STANDARD
 73
3
 10
-3.04195215702057
 20
2.90121693134308
 11
-3.04195215702057
 21
2.90121693134308
  0
ENDBLK
  8
0
  0
BLOCK
  8
0
  2
B202115
 70
0
 10
0
 20
0
  0
TEXT
  8
_LabelDrawingFrame
 62
7
 40
4.095
 41
0.75
  1
1
  7
STANDARD
 73
3
 10
-2.86298358440399
 20
2.90121693134308
 11
-2.86298358440399
 21
2.90121693134308
  0
ENDBLK
  8
0
  0
BLOCK
  8
0
  2
B202116
 70
0
 10
0
 20
0
  0
TEXT
  8
_LabelDrawingFrame
 62
7
 40
4.095
 41
0.75
  1
2
  7
STANDARD
 73
3
 10
-2.86298358440399
 20
2.90121693134308
 11
-2.86298358440399
 21
2.90121693134308
  0
ENDBLK
  8
0
  0
BLOCK
  8
0
  2
B202117
 70
0
 10
0
 20
0
  0
TEXT
  8
_LabelDrawingFrame
 62
7
 40
4.095
 41
0.75
  1
3
  7
STANDARD
 73
3
 10
-2.86298358440399
 20
2.90121693134308
 11
-2.86298358440399
 21
2.90121693134308
  0
ENDBLK
  8
0
  0
BLOCK
  8
0
  2
B202118
 70
0
 10
0
 20
0
  0
TEXT
  8
_LabelDrawingFrame
 62
7
 40
4.095
 41
0.75
  1
4
  7
STANDARD
 73
3
 10
-2.86298358440399
 20
2.90121693134308
 11
-2.86298358440399
 21
2.90121693134308
  0
ENDBLK
  8
0
  0
BLOCK
  8
0
  2
B202119
 70
0
 10
0
 20
0
  0
LINE
  8
_LabelDrawingFrame
 62
7
 10
-3.25
 20
0
 11
3.25
 21
0
  0
ENDBLK
  8
0
  0
BLOCK
  8
0
  2
B202120
 70
0
 10
0
 20
0
  0
LINE
  8
_LabelDrawingFrame
 62
7
 10
-3.25
 20
0
 11
3.25
 21
0
  0
ENDBLK
  8
0
  0
BLOCK
  8
0
  2
B202121
 70
0
 10
0
 20
0
  0
LINE
  8
_LabelDrawingFrame
 62
7
 10
-3.25
 20
0
 11
3.25
 21
0
  0
ENDBLK
  8
0
  0
BLOCK
  8
0
  2
B202122
 70
0
 10
0
 20
0
  0
LINE
  8
_LabelDrawingFrame
 62
7
 10
-3.25
 20
0
 11
3.25
 21
0
  0
ENDBLK
  8
0
  0
BLOCK
  8
0
  2
B202123
 70
0
 10
0
 20
0
  0
LINE
  8
_LabelDrawingFrame
 62
7
 10
-3.25
 20
0
 11
3.25
 21
0
  0
ENDBLK
  8
0
  0
BLOCK
  8
0
  2
B202124
 70
0
 10
0
 20
0
  0
LINE
  8
_LabelDrawingFrame
 62
7
 10
-123.5
 20
0
 11
123.5
 21
0
  0
ENDBLK
  8
0
  0
BLOCK
  8
0
  2
B202125
 70
0
 10
0
 20
0
  0
LINE
  8
_LabelDrawingFrame
 62
7
 10
-186.55
 20
0
 11
186.55
 21
0
  0
ENDBLK
  8
0
  0
BLOCK
  8
0
  2
B202126
 70
0
 10
0
 20
0
  0
LINE
  8
_LabelDrawingFrame
 62
7
 10
-117
 20
0
 11
117
 21
0
  0
ENDBLK
  8
0
  0
BLOCK
  8
0
  2
B202127
 70
0
 10
0
 20
0
  0
LINE
  8
_LabelDrawingFrame
 62
7
 10
-180.05
 20
0
 11
180.05
 21
0
  0
ENDBLK
  8
0
  0
BLOCK
  8
0
  2
B202128
 70
0
 10
0
 20
0
  0
LINE
  8
_LabelDrawingFrame
 62
7
 10
-186.55
 20
0
 11
186.55
 21
0
  0
ENDBLK
  8
0
  0
BLOCK
  8
0
  2
B202129
 70
0
 10
0
 20
0
  0
LINE
  8
_LabelDrawingFrame
 62
7
 10
-117
 20
0
 11
117
 21
0
  0
ENDBLK
  8
0
  0
BLOCK
  8
0
  2
B202130
 70
0
 10
0
 20
0
  0
TEXT
  8
_LabelDrawingFrame
 62
7
 40
4.095
 41
0.75
  1
A
  7
STANDARD
 73
3
 10
-3.22400653362274
 20
2.90121693134308
 11
-3.22400653362274
 21
2.90121693134308
  0
ENDBLK
  8
0
  0
BLOCK
  8
0
  2
B202131
 70
0
 10
0
 20
0
  0
TEXT
  8
_LabelDrawingFrame
 62
7
 40
4.095
 41
0.75
  1
B
  7
STANDARD
 73
3
 10
-3.22400653362274
 20
2.90121693134308
 11
-3.22400653362274
 21
2.90121693134308
  0
ENDBLK
  8
0
  0
BLOCK
  8
0
  2
B202132
 70
0
 10
0
 20
0
  0
TEXT
  8
_LabelDrawingFrame
 62
7
 40
4.095
 41
0.75
  1
C
  7
STANDARD
 73
3
 10
-3.40297510623932
 20
2.90121693134308
 11
-3.40297510623932
 21
2.90121693134308
  0
ENDBLK
  8
0
  0
BLOCK
  8
0
  2
B202133
 70
0
 10
0
 20
0
  0
TEXT
  8
_LabelDrawingFrame
 62
7
 40
4.095
 41
0.75
  1
D
  7
STANDARD
 73
3
 10
-3.40297510623932
 20
2.90121693134308
 11
-3.40297510623932
 21
2.90121693134308
  0
ENDBLK
  8
0
  0
BLOCK
  8
0
  2
B202134
 70
0
 10
0
 20
0
  0
TEXT
  8
_LabelDrawingFrame
 62
7
 40
4.095
 41
0.75
  1
E
  7
STANDARD
 73
3
 10
-3.22400653362274
 20
2.90121693134308
 11
-3.22400653362274
 21
2.90121693134308
  0
ENDBLK
  8
0
  0
BLOCK
  8
0
  2
B202135
 70
0
 10
0
 20
0
  0
TEXT
  8
_LabelDrawingFrame
 62
7
 40
4.095
 41
0.75
  1
F
  7
STANDARD
 73
3
 10
-3.04195215702057
 20
2.90121693134308
 11
-3.04195215702057
 21
2.90121693134308
  0
ENDBLK
  8
0
  0
BLOCK
  8
0
  2
B202136
 70
0
 10
0
 20
0
  0
LINE
  8
_LabelDrawingFrame
 62
7
 10
-3.25
 20
0
 11
3.25
 21
0
  0
ENDBLK
  8
0
  0
BLOCK
  8
0
  2
B202137
 70
0
 10
0
 20
0
  0
LINE
  8
_LabelDrawingFrame
 62
7
 10
-3.25
 20
0
 11
3.25
 21
0
  0
ENDBLK
  8
0
  0
BLOCK
  8
0
  2
B202138
 70
0
 10
0
 20
0
  0
LINE
  8
_LabelDrawingFrame
 62
7
 10
-3.25
 20
0
 11
3.25
 21
0
  0
ENDBLK
  8
0
  0
BLOCK
  8
0
  2
B202139
 70
0
 10
0
 20
0
  0
LINE
  8
_LabelDrawingFrame
 62
7
 10
-3.25
 20
0
 11
3.25
 21
0
  0
ENDBLK
  8
0
  0
BLOCK
  8
0
  2
B202140
 70
0
 10
0
 20
0
  0
LINE
  8
_LabelDrawingFrame
 62
7
 10
-3.25
 20
0
 11
3.25
 21
0
  0
ENDBLK
  8
0
  0
BLOCK
  8
0
  2
B202141
 70
0
 10
0
 20
0
  0
LINE
  8
_LabelDrawingFrame
 62
7
 10
-180.128737540339
 20
0
 11
180.128737540339
 21
0
  0
ENDBLK
  8
0
  0
BLOCK
  8
0
  2
B202142
 70
0
 10
0
 20
0
  0
LINE
  8
_LabelDrawingFrame
 62
7
 10
-3.2538169808555
 20
0
 11
3.2538169808555
 21
0
  0
ENDBLK
  8
0
  0
BLOCK
  8
0
  2
B202143
 70
0
 10
0
 20
0
  0
LINE
  8
_LabelDrawingFrame
 62
7
 10
-3.25001297380744
 20
0
 11
3.25001297380744
 21
0
  0
ENDBLK
  8
0
  0
BLOCK
  8
0
  2
B202144
 70
0
 10
0
 20
0
  0
TEXT
  8
_LabelDrawingFrame
 62
7
 40
4.095
 41
0.75
  1
1
  7
STANDARD
 73
3
 10
-2.86298358440399
 20
2.90121693134308
 11
-2.86298358440399
 21
2.90121693134308
  0
ENDBLK
  8
0
  0
BLOCK
  8
0
  2
B202145
 70
0
 10
0
 20
0
  0
TEXT
  8
_LabelDrawingFrame
 62
7
 40
4.095
 41
0.75
  1
2
  7
STANDARD
 73
3
 10
-2.86298358440399
 20
2.90121693134308
 11
-2.86298358440399
 21
2.90121693134308
  0
ENDBLK
  8
0
  0
BLOCK
  8
0
  2
B202146
 70
0
 10
0
 20
0
  0
TEXT
  8
_LabelDrawingFrame
 62
7
 40
4.095
 41
0.75
  1
3
  7
STANDARD
 73
3
 10
-2.86298358440399
 20
2.90121693134308
 11
-2.86298358440399
 21
2.90121693134308
  0
ENDBLK
  8
0
  0
BLOCK
  8
0
  2
B202147
 70
0
 10
0
 20
0
  0
TEXT
  8
_LabelDrawingFrame
 62
7
 40
4.095
 41
0.75
  1
4
  7
STANDARD
 73
3
 10
-2.86298358440399
 20
2.90121693134308
 11
-2.86298358440399
 21
2.90121693134308
  0
ENDBLK
  8
0
  0
BLOCK
  8
0
  2
B202148
 70
0
 10
0
 20
0
  0
LINE
  8
_LabelDrawingFrame
 62
7
 10
-123.5
 20
0
 11
123.5
 21
0
  0
ENDBLK
  8
0
  0
BLOCK
  8
0
  2
B202149
 70
0
 10
0
 20
0
  0
LINE
  8
_LabelDrawingFrame
 62
7
 10
-3.22001817792579
 20
0
 11
3.22001817792579
 21
0
  0
ENDBLK
  8
0
  0
BLOCK
  8
0
  2
B202150
 70
0
 10
0
 20
0
  0
LINE
  8
_LabelDrawingFrame
 62
7
 10
-3.18085311132255
 20
0
 11
3.18085311132255
 21
0
  0
ENDBLK
  8
0
  0
BLOCK
  8
0
  2
B202151
 70
0
 10
0
 20
0
  0
LINE
  8
_LabelDrawingFrame
 62
7
 10
-3.1616722669058
 20
0
 11
3.1616722669058
 21
0
  0
ENDBLK
  8
0
  0
BLOCK
  8
0
  2
B202152
 70
0
 10
0
 20
0
  0
LINE
  8
_LabelDrawingFrame
 62
7
 10
-3.16166898907119
 20
0
 11
3.16166898907119
 21
0
  0
ENDBLK
  8
0
  0
BLOCK
  8
0
  2
B202153
 70
0
 10
0
 20
0
  0
ENDBLK
  8
0
  0
BLOCK
  8
0
  2
B202154
 70
0
 10
0
 20
0
  0
TEXT
  8
_LabelDrawingFrame
 62
7
 40
2.1059988284111
 41
0.421866989395123
  1
No.
  7
STANDARD
 73
2
 10
-5.1435827666983
 20
0
 11
-5.1435827666983
 21
0
  0
ENDBLK
  8
0
  0
BLOCK
  8
0
  2
B202155
 70
0
 10
0
 20
0
  0
TEXT
  8
_LabelDrawingFrame
 62
7
 40
2.1059988284111
 41
0.75
  1
Scale
  7
STANDARD
 73
3
 10
-12.8799224595449
 20
1.49205358564854
 11
-12.8799224595449
 21
1.49205358564854
  0
ENDBLK
  8
0
  0
BLOCK
  8
0
  2
B202156
 70
0
 10
0
 20
0
  0
TEXT
  8
_LabelDrawingFrame
 62
7
 40
2.1059988284111
 41
0.538984027275345
  1
Seen
  7
STANDARD
 73
2
 10
-7.70853005018621
 20
0
 11
-7.70853005018621
 21
0
  0
ENDBLK
  8
0
  0
BLOCK
  8
0
  2
B202157
 70
0
 10
0
 20
0
  0
TEXT
  8
_LabelDrawingFrame
 62
7
 40
2.1059988284111
 41
0.621370319841273
  1
Release
  7
STANDARD
 73
2
 10
-7.72918088720587
 20
0
 11
-7.72918088720587
 21
0
  0
ENDBLK
  8
0
  0
BLOCK
  8
0
  2
B202158
 70
0
 10
0
 20
0
  0
TEXT
  8
_LabelDrawingFrame
 62
7
 40
2.1059988284111
 41
0.75
  1
Installation
  7
STANDARD
 73
2
 10
-10.933036432231
 20
0
 11
-10.933036432231
 21
0
  0
ENDBLK
  8
0
  0
BLOCK
  8
0
  2
B202159
 70
0
 10
0
 20
0
  0
TEXT
  8
_LabelDrawingFrame
 62
7
 40
2.1059988284111
 41
0.510413728691954
  1
Name
  7
STANDARD
 73
2
 10
-7.67791061166761
 20
0
 11
-7.67791061166761
 21
0
  0
ENDBLK
  8
0
  0
BLOCK
  8
0
  2
B202160
 70
0
 10
0
 20
0
  0
TEXT
  8
_LabelDrawingFrame
 62
7
 40
2.1059988284111
 41
0.75
  1
Project
  7
STANDARD
 73
3
 10
-37.7956197398792
 20
1.49205358564854
 11
-37.7956197398792
 21
1.49205358564854
  0
ENDBLK
  8
0
  0
BLOCK
  8
0
  2
B202161
 70
0
 10
0
 20
0
  0
TEXT
  8
_LabelDrawingFrame
 62
7
 40
2.1059988284111
 41
0.552790526057986
  1
Page
  7
STANDARD
 73
2
 10
-7.90599009606523
 20
0
 11
-7.90599009606523
 21
0
  0
ENDBLK
  8
0
  0
BLOCK
  8
0
  2
B202162
 70
0
 10
0
 20
0
  0
TEXT
  8
_LabelDrawingFrame
 62
7
 40
2.1059988284111
 41
0.75
  1
Modification
  7
STANDARD
 73
2
 10
-12.8583237595517
 20
0
 11
-12.8583237595517
 21
0
  0
ENDBLK
  8
0
  0
BLOCK
  8
0
  2
B202163
 70
0
 10
0
 20
0
  0
TEXT
  8
_LabelDrawingFrame
 62
7
 40
2.1059988284111
 41
0.75
  1
Date
  7
STANDARD
 73
2
 10
-10.3527552127838
 20
0
 11
-10.3527552127838
 21
0
  0
ENDBLK
  8
0
  0
BLOCK
  8
0
  2
B202164
 70
0
 10
0
 20
0
  0
TEXT
  8
_LabelDrawingFrame
 62
7
 40
2.1059988284111
 41
0.514158907358535
  1
Name
  7
STANDARD
 73
3
 10
-7.73424755052782
 20
1.49205358564854
 11
-7.73424755052782
 21
1.49205358564854
  0
ENDBLK
  8
0
  0
BLOCK
  8
0
  2
B202165
 70
0
 10
0
 20
0
  0
TEXT
  8
_LabelDrawingFrame
 62
7
 40
2.1059988284111
 41
0.75
  1
Date
  7
STANDARD
 73
3
 10
-10.3527552127838
 20
1.49205358564854
 11
-10.3527552127838
 21
1.49205358564854
  0
ENDBLK
  8
0
  0
BLOCK
  8
0
  2
B202166
 70
0
 10
0
 20
0
  0
TEXT
  8
_LabelDrawingFrame
 62
7
 40
2.1059988284111
 41
0.75
  1
Location
  7
STANDARD
 73
2
 10
-10.8976021832352
 20
0
 11
-10.8976021832352
 21
0
  0
ENDBLK
  8
0
  0
BLOCK
  8
0
  2
B202167
 70
0
 10
0
 20
0
  0
TEXT
  8
_LabelDrawingFrame
 62
7
 40
2.1059988284111
 41
0.75
  1
Title
  7
STANDARD
 73
3
 10
-42.7381259137538
 20
1.49205358564854
 11
-42.7381259137538
 21
1.49205358564854
  0
ENDBLK
  8
0
  0
BLOCK
  8
0
  2
B202168
 70
0
 10
0
 20
0
  0
TEXT
  8
_LabelDrawingFrame
 62
7
 40
2.1059988284111
 41
0.510263783473545
  1
of
  7
STANDARD
 73
2
 10
-7.8672946535793
 20
0
 11
-7.8672946535793
 21
0
  0
ENDBLK
  8
0
  0
BLOCK
  8
0
  2
B202169
 70
0
 10
0
 20
0
  0
TEXT
  8
_LabelDrawingFrame
 62
7
 40
2.1059988284111
 41
0.500604650814399
  1
Drawn
  7
STANDARD
 73
2
 10
-7.77821529196051
 20
0
 11
-7.77821529196051
 21
0
  0
ENDBLK
  8
0
  0
BLOCK
  8
0
  2
B202170
 70
0
 10
0
 20
0
  0
LINE
  8
_LabelDrawingFrame
 62
7
 10
-15.5999972916688
 20
0
 11
15.5999972916688
 21
0
  0
ENDBLK
  8
0
  0
BLOCK
  8
0
  2
B202171
 70
0
 10
0
 20
0
  0
LINE
  8
_LabelDrawingFrame
 62
7
 10
-10.4
 20
0
 11
10.4
 21
0
  0
ENDBLK
  8
0
  0
BLOCK
  8
0
  2
B202172
 70
0
 10
0
 20
0
  0
LINE
  8
_LabelDrawingFrame
 62
7
 10
-62.4
 20
0
 11
62.4
 21
0
  0
ENDBLK
  8
0
  0
BLOCK
  8
0
  2
B202173
 70
0
 10
0
 20
0
  0
LINE
  8
_LabelDrawingFrame
 62
7
 10
-117
 20
0
 11
117
 21
0
  0
ENDBLK
  8
0
  0
BLOCK
  8
0
  2
B202174
 70
0
 10
0
 20
0
  0
LINE
  8
_LabelDrawingFrame
 62
7
 10
-15.6
 20
0
 11
15.6
 21
0
  0
ENDBLK
  8
0
  0
BLOCK
  8
0
  2
B202175
 70
0
 10
0
 20
0
  0
LINE
  8
_LabelDrawingFrame
 62
7
 10
-117
 20
0
 11
117
 21
0
  0
ENDBLK
  8
0
  0
BLOCK
  8
0
  2
B202176
 70
0
 10
0
 20
0
  0
LINE
  8
_LabelDrawingFrame
 62
7
 10
-5.2
 20
0
 11
5.2
 21
0
  0
ENDBLK
  8
0
  0
BLOCK
  8
0
  2
B202177
 70
0
 10
0
 20
0
  0
LINE
  8
_LabelDrawingFrame
 62
7
 10
-10.3316980324416
 20
0
 11
10.3316980324416
 21
0
  0
ENDBLK
  8
0
  0
BLOCK
  8
0
  2
B202178
 70
0
 10
0
 20
0
  0
LINE
  8
_LabelDrawingFrame
 62
7
 10
-27.2822206376272
 20
0
 11
27.2822206376272
 21
0
  0
ENDBLK
  8
0
  0
BLOCK
  8
0
  2
B202179
 70
0
 10
0
 20
0
  0
LINE
  8
_LabelDrawingFrame
 62
7
 10
-117
 20
0
 11
117
 21
0
  0
ENDBLK
  8
0
  0
BLOCK
  8
0
  2
B202180
 70
0
 10
0
 20
0
  0
LINE
  8
_LabelDrawingFrame
 62
7
 10
-10.4000050969089
 20
0
 11
10.4000050969089
 21
0
  0
ENDBLK
  8
0
  0
BLOCK
  8
0
  2
B202181
 70
0
 10
0
 20
0
  0
LINE
  8
_LabelDrawingFrame
 62
7
 10
-10.4000050969089
 20
0
 11
10.4000050969089
 21
0
  0
ENDBLK
  8
0
  0
BLOCK
  8
0
  2
B202182
 70
0
 10
0
 20
0
  0
LINE
  8
_LabelDrawingFrame
 62
7
 10
-62.4
 20
0
 11
62.4
 21
0
  0
ENDBLK
  8
0
  0
BLOCK
  8
0
  2
B202183
 70
0
 10
0
 20
0
  0
LINE
  8
_LabelDrawingFrame
 62
7
 10
-62.4
 20
0
 11
62.4
 21
0
  0
ENDBLK
  8
0
  0
BLOCK
  8
0
  2
B202184
 70
0
 10
0
 20
0
  0
LINE
  8
_LabelDrawingFrame
 62
7
 10
-15.6
 20
0
 11
15.6
 21
0
  0
ENDBLK
  8
0
  0
BLOCK
  8
0
  2
B202185
 70
0
 10
0
 20
0
  0
LINE
  8
_LabelDrawingFrame
 62
7
 10
-10.4
 20
0
 11
10.4
 21
0
  0
ENDBLK
  8
0
  0
BLOCK
  8
0
  2
B202186
 70
0
 10
0
 20
0
  0
LINE
  8
_LabelDrawingFrame
 62
7
 10
-10.4
 20
0
 11
10.4
 21
0
  0
ENDBLK
  8
0
  0
BLOCK
  8
0
  2
B202187
 70
0
 10
0
 20
0
  0
LINE
  8
_LabelDrawingFrame
 62
7
 10
-5.22430388487227
 20
0
 11
5.22430388487227
 21
0
  0
ENDBLK
  8
0
  0
BLOCK
  8
0
  2
B202188
 70
0
 10
0
 20
0
  0
LINE
  8
_LabelDrawingFrame
 62
7
 10
-14.2908616572585
 20
0
 11
14.2908616572585
 21
0
  0
ENDBLK
  8
0
  0
BLOCK
  8
0
  2
B202189
 70
0
 10
0
 20
0
  0
LINE
  8
_LabelDrawingFrame
 62
7
 10
-27.2513080115297
 20
0
 11
27.2513080115297
 21
0
  0
ENDBLK
  8
0
  0
BLOCK
  8
0
  2
B202190
 70
0
 10
0
 20
0
  0
LINE
  8
_LabelDrawingFrame
 62
7
 10
-10.4
 20
0
 11
10.4
 21
0
  0
ENDBLK
  8
0
  0
BLOCK
  8
0
  2
B202191
 70
0
 10
0
 20
0
  0
ENDBLK
  8
0
  0
BLOCK
  8
0
  2
B202193
 70
0
 10
0
 20
0
  0
ENDBLK
  8
0
  0
BLOCK
  8
0
  2
B202194
 70
0
 10
0
 20
0
  0
TEXT
  8
_LabelDrawingFrame
 62
7
 40
2.851875
 41
0.75
  1
E DZME VE TEMZLEME MAKNES
  7
STANDARD
 73
3
 10
-37.5922412996584
 20
2.02049010276794
 11
-37.5922412996584
 21
2.02049010276794
  0
ENDBLK
  8
0
  0
BLOCK
  8
0
  2
B202196
 70
0
 10
0
 20
0
  0
ENDBLK
  8
0
  0
BLOCK
  8
0
  2
B202198
 70
0
 10
0
 20
0
  0
TEXT
  8
_LabelDrawingFrame
 62
7
 40
2.851875
 41
0.252942495280038
  1
1
  7
STANDARD
 72
2
 73
3
 10
6.32329047345003
 20
2.02049010276794
 11
6.32329047345003
 21
2.02049010276794
  0
ENDBLK
  8
0
  0
BLOCK
  8
0
  2
B202200
 70
0
 10
0
 20
0
  0
ENDBLK
  8
0
  0
BLOCK
  8
0
  2
B202202
 70
0
 10
0
 20
0
  0
ENDBLK
  8
0
  0
BLOCK
  8
0
  2
B202204
 70
0
 10
0
 20
0
  0
ENDBLK
  8
0
  0
BLOCK
  8
0
  2
B202206
 70
0
 10
0
 20
0
  0
ENDBLK
  8
0
  0
BLOCK
  8
0
  2
B202208
 70
0
 10
0
 20
0
  0
TEXT
  8
_LabelDrawingFrame
 62
7
 40
2.851875
 41
0.26219325566372
  1
1
  7
STANDARD
 72
2
 73
3
 10
6.2679466640524
 20
2.02049010276794
 11
6.2679466640524
 21
2.02049010276794
  0
ENDBLK
  8
0
  0
BLOCK
  8
0
  2
B202211
 70
0
 10
0
 20
0
  0
TEXT
  8
_LabelDrawingFrame
 62
7
 40
2.413125
 41
0.75
  1
ELEKTROMAG MAKNE
  7
STANDARD
 73
2
 10
-27.0657799765984
 20
0
 11
-27.0657799765984
 21
0
  0
ENDBLK
  8
0
  0
BLOCK
  8
0
  2
B202213
 70
0
 10
0
 20
0
  0
ENDBLK
  8
0
  0
BLOCK
  8
0
  2
B202215
 70
0
 10
0
 20
0
  0
TEXT
  8
_LabelDrawingFrame
 62
7
 40
2.851875
 41
0.75
  1
A015-00-00-00
  7
STANDARD
 73
3
 10
-42.651082474011
 20
2.02049010276794
 11
-42.651082474011
 21
2.02049010276794
  0
ENDBLK
  8
0
  0
BLOCK
  8
0
  2
B202217
 70
0
 10
0
 20
0
  0
ENDBLK
  8
0
  0
BLOCK
  8
0
  2
B202219
 70
0
 10
0
 20
0
  0
ENDBLK
  8
0
  0
BLOCK
  8
0
  2
B202221
 70
0
 10
0
 20
0
  0
ENDBLK
  8
0
  0
BLOCK
  8
0
  2
B202223
 70
0
 10
0
 20
0
  0
ENDBLK
  8
0
  0
BLOCK
  8
0
  2
B202225
 70
0
 10
0
 20
0
  0
ENDBLK
  8
0
  0
BLOCK
  8
0
  2
B202227
 70
0
 10
0
 20
0
  0
ENDBLK
  8
0
  0
BLOCK
  8
0
  2
B202229
 70
0
 10
0
 20
0
  0
ENDBLK
  8
0
  0
BLOCK
  8
0
  2
B202231
 70
0
 10
0
 20
0
  0
ENDBLK
  8
0
  0
BLOCK
  8
0
  2
B202233
 70
0
 10
0
 20
0
  0
ENDBLK
  8
0
  0
BLOCK
  8
0
  2
B202235
 70
0
 10
0
 20
0
  0
ENDBLK
  8
0
  0
BLOCK
  8
0
  2
B202237
 70
0
 10
0
 20
0
  0
ENDBLK
  8
0
  0
BLOCK
  8
0
  2
B202239
 70
0
 10
0
 20
0
  0
ENDBLK
  8
0
  0
BLOCK
  8
0
  2
B202241
 70
0
 10
0
 20
0
  0
ENDBLK
  8
0
  0
BLOCK
  8
0
  2
B202243
 70
0
 10
0
 20
0
  0
ENDBLK
  8
0
  0
BLOCK
  8
0
  2
B202245
 70
0
 10
0
 20
0
  0
ENDBLK
  8
0
  0
BLOCK
  8
0
  2
B202247
 70
0
 10
0
 20
0
  0
ENDBLK
  8
0
  0
BLOCK
  8
0
  2
B202249
 70
0
 10
0
 20
0
  0
TEXT
  8
_LabelDrawingFrame
 62
7
 40
2.413125
 41
0.423591887920627
  1
14.01.2020
  7
STANDARD
 73
2
 10
-10.3117153220916
 20
0
 11
-10.3117153220916
 21
0
  0
ENDBLK
  8
0
  0
BLOCK
  8
0
  2
B202251
 70
0
 10
0
 20
0
  0
ENDBLK
  8
0
  0
BLOCK
  8
0
  2
B202253
 70
0
 10
0
 20
0
  0
ENDBLK
  8
0
  0
BLOCK
  8
0
  2
B202255
 70
0
 10
0
 20
0
  0
ENDBLK
  8
0
  0
BLOCK
  8
0
  2
B202256
 70
0
 10
0
 20
0
  0
ENDBLK
  8
0
  0
ENDSEC
  0
SECTION
  2
ENTITIES
  0
INSERT
  8
_LabelDrawingFrame
  2
B202131
 10
3.22400653362274
 20
278.160473703956
 50
360
  0
INSERT
  8
_LabelDrawingFrame
  2
B202129
 10
123.61614821168
 20
8.04088962892484
  0
INSERT
  8
1
  2
B61446
 10
43.2140095353127
 20
203.568128531667
  0
INSERT
  8
_LabelDrawingFrame
  2
B202189
 10
213.440374948303
 20
23.6300410943081
 50
-179.999984709723
  0
INSERT
  8
_LabelDrawingFrame
  2
B202126
 10
123.61614821168
 20
368.140889628925
  0
INSERT
  8
1
  2
B89847_00991473
 10
89.70001482
 20
241.398501476487
 50
270
  0
INSERT
  8
_LabelDrawingFrame
  2
B202190
 10
186.091682959832
 20
18.430048366747
 50
90
  0
INSERT
  8
_LabelDrawingFrame
  2
B202162
 10
30.0911198805153
 20
10.1869165426471
  0
INSERT
  8
_LabelDrawingFrame
  2
B202251
 10
105.275137386713
 20
15.579770996315
  0
INSERT
  8
_LabelDrawingFrame
  2
B202146
 10
153.264606111577
 20
3.92496693134308
  0
INSERT
  8
_LabelDrawingFrame
  2
B202217
 10
42.9289230039446
 20
36.8036099308851
  0
INSERT
  8
1
  2
B48949_00991756
 10
52.9518693861414
 20
170.223497774087
  0
INSERT
  8
_LabelDrawingFrame
  2
B202231
 10
53.3869938162267
 20
26.0848447355525
  0
INSERT
  8
1
  2
B143691
 10
189.150011432709
 20
316.473528032188
 50
315.00001320895
  0
INSERT
  8
_LabelDrawingFrame
  2
B202241
 10
198.898383976305
 20
10.3755111712947
  0
INSERT
  8
_LabelDrawingFrame
  2
B202198
 10
234.266666004506
 20
15.5479814196892
  0
INSERT
  8
1
  2
B154333
 10
183.728925514221
 20
305.13642599291
  0
INSERT
  8
1
  2
B143502
 10
220.349985779005
 20
316.473520254891
 50
224.999833842112
  0
INSERT
  8
_LabelDrawingFrame
  2
B202174
 10
6.69168295983194
 20
23.630048366747
 50
90
  0
INSERT
  8
1
  2
B63492_00991454
 10
89.8625
 20
300.873497774087
  0
INSERT
  8
1
  2
B77599
 10
207.3610102178
 20
235.548497774087
  0
INSERT
  8
1
  2
B143325
 10
171.599990616034
 20
314.523500179572
 50
269.999877867677
  0
INSERT
  8
_LabelDrawingFrame
  2
B202169
 10
87.2283164567574
 20
20.312153965446
  0
INSERT
  8
1
  2
B143323
 10
169.650019101987
 20
316.47346081054
 50
224.999833842112
  0
INSERT
  8
_LabelDrawingFrame
  2
B202130
 10
3.27394517093657
 20
337.310473703956
 50
360
  0
INSERT
  8
_LabelDrawingFrame
  2
B202109
 10
244.060069958417
 20
337.292300330974
  0
INSERT
  8
1
  2
B143889
 10
206.699986518257
 20
314.523527540869
 50
269.999806966029
  0
INSERT
  8
_LabelDrawingFrame
  2
B202179
 10
123.691682959832
 20
8.03004836674703
  0
INSERT
  8
_LabelDrawingFrame
  2
B202132
 10
3.45291374355314
 20
217.834506535148
 50
360
  0
INSERT
  8
_LabelDrawingFrame
  2
B202256
 10
123.641054157423
 20
23.4053568913293
  0
INSERT
  8
_LabelDrawingFrame
  2
B202172
 10
69.0916829598319
 20
13.230048366747
  0
INSERT
  8
1
  2
TRICON
 10
93.6
 20
216.048497774087
  0
INSERT
  8
_LabelDrawingFrame
  2
B202155
 10
198.971605419377
 20
16.4114950739957
  0
INSERT
  8
_LabelDrawingFrame
  2
B202200
 10
29.8497192121383
 20
15.6649185977912
  0
INSERT
  8
_LabelDrawingFrame
  2
B202194
 10
117.254245736849
 20
32.001799777517
  0
INSERT
  8
_LabelDrawingFrame
  2
B202219
 10
11.6509262193036
 20
15.6529259778649
  0
INSERT
  8
1
  2
B112706
 10
91.6499983952384
 20
312.57347427795
 50
315.00001320895
  0
INSERT
  8
_LabelDrawingFrame
  2
B202161
 10
220.015981457005
 20
15.2486016594983
  0
INSERT
  8
1
  2
B61445
 10
50.3859904646873
 20
203.568128531667
  0
INSERT
  8
1
  2
B143504
 10
222.299988425611
 20
314.523527123966
 50
269.999995002732
  0
INSERT
  8
1
  2
B48861
 10
95.5376000332832
 20
266.093409172975
  0
INSERT
  8
_LabelDrawingFrame
  2
B202191
 10
168.799583393756
 20
25.3218322464829
 41
0.6
 42
0.5
  0
INSERT
  8
_LabelDrawingFrame
  2
B202237
 10
224.31007083277
 20
25.9583814196892
  0
INSERT
  8
_LabelDrawingFrame
  2
B202175
 10
123.691682959832
 20
39.230048366747
  0
INSERT
  8
1
  2
B61440_00991471
 10
44.3625
 20
208.979716711732
  0
INSERT
  8
_LabelDrawingFrame
  2
B202180
 10
115.891682959832
 20
18.4300432698382
 50
90
  0
INSERT
  8
_LabelDrawingFrame
  2
B202137
 10
3.48801665306091
 20
247.87345728836
  0
INSERT
  8
_LabelDrawingFrame
  2
B202151
 10
123.616167028284
 20
4.72174496669846
 50
-89.9998114304797
  0
INSERT
  8
_LabelDrawingFrame
  2
B202243
 10
123.460599775318
 20
20.7621818204234
  0
INSERT
  8
_LabelDrawingFrame
  2
B202112
 10
244.225109959605
 20
157.450806824481
 50
360
  0
INSERT
  8
_LabelDrawingFrame
  2
B202239
 10
224.362471698754
 20
20.7941314196891
  0
INSERT
  8
_LabelDrawingFrame
  2
B202119
 10
243.86614821168
 20
308.140497774087
  0
INSERT
  8
1
  2
B96754
 10
198.900029768524
 20
310.623497774087
 50
180
  0
INSERT
  8
_LabelDrawingFrame
  2
B202153
 10
123.821006818636
 20
187.324248887044
  0
INSERT
  8
1
  2
B48953
 10
25.0998622504016
 20
162.794926345516
  0
INSERT
  8
_LabelDrawingFrame
  2
B202213
 10
158.508150399227
 20
10.3512756000581
  0
INSERT
  8
_LabelDrawingFrame
  2
B202117
 10
153.253164627276
 20
370.715922697582
  0
INSERT
  8
_LabelDrawingFrame
  2
B202115
 10
36.2531646272765
 20
370.715922697582
  0
INSERT
  8
_LabelDrawingFrame
  2
B202163
 10
53.4990381726157
 20
10.1350516594984
  0
INSERT
  8
_LabelDrawingFrame
  2
B202178
 10
213.471293437884
 20
18.4786601957326
 50
179.999997096096
  0
INSERT
  8
_LabelDrawingFrame
  2
B202249
 10
105.29807401407
 20
20.7525877244823
  0
INSERT
  8
_LabelDrawingFrame
  2
B202121
 10
243.86614821168
 20
188.098497774087
  0
INSERT
  8
_LabelDrawingFrame
  2
B202128
 10
0.221445436030055
 20
188.083265782353
 50
270
  0
INSERT
  8
1
  2
B48859
 10
99.1359904646874
 20
253.3635863752
  0
INSERT
  8
1
  2
TRICON
 10
113.1000104
 20
135.123497774087
  0
INSERT
  8
_LabelDrawingFrame
  2
B202186
 10
43.0916829598319
 20
18.430048366747
 50
90
  0
INSERT
  8
_LabelDrawingFrame
  2
B202253
 10
105.309924862567
 20
10.393762386229
  0
INSERT
  8
_LabelDrawingFrame
  2
B202165
 10
105.444438172616
 20
25.6486016594983
  0
INSERT
  8
_LabelDrawingFrame
  2
B202116
 10
94.7531646272765
 20
370.715922697582
 50
360
  0
INSERT
  8
_LabelDrawingFrame
  2
B202134
 10
3.27394517093657
 20
97.5845065351478
  0
INSERT
  8
_LabelDrawingFrame
  2
B202170
 10
79.4916748348347
 20
23.6300456584137
 50
89.9999701584533
  0
INSERT
  8
1
  2
B99742
 10
97.5
 20
268.535997774087
 50
180
  0
INSERT
  8
_LabelDrawingFrame
  2
B202206
 10
71.5017388459788
 20
15.649675977865
  0
INSERT
  8
_LabelDrawingFrame
  2
B202193
 10
123.722598517672
 20
23.5613632694289
  0
INSERT
  8
_LabelDrawingFrame
  2
B202118
 10
211.753164627276
 20
370.715922697582
 50
360
  0
INSERT
  8
_LabelDrawingFrame
  2
B202148
 10
123.61614821168
 20
1.54088962892484
 50
0.00889757212410906
  0
INSERT
  8
1
  2
B61447
 10
48.4359904646874
 20
214.391304891797
  0
INSERT
  8
_LabelDrawingFrame
  2
B202211
 10
158.501657849726
 20
15.5512756000581
  0
INSERT
  8
_LabelDrawingFrame
  2
B202247
 10
123.477505654354
 20
10.3621818204234
  0
INSERT
  8
_LabelDrawingFrame
  2
B202183
 10
69.0916829598319
 20
18.430048366747
  0
INSERT
  8
_LabelDrawingFrame
  2
B202188
 10
226.40084231867
 20
13.2300455830887
  0
INSERT
  8
_LabelDrawingFrame
  2
B202138
 10
3.48801665306091
 20
188.07345728836
  0
INSERT
  8
_LabelDrawingFrame
  2
B202143
 10
182.11614821168
 20
371.390876655117
 50
90.0001859795096
  0
INSERT
  8
_LabelDrawingFrame
  2
B202113
 10
244.060069958417
 20
97.5663331621664
  0
INSERT
  8
_LabelDrawingFrame
  2
B202223
 10
53.3770999047876
 20
20.8472678597839
  0
INSERT
  8
1
  2
B66465_00991454
 10
140.562529143677
 20
300.873497774087
  0
INSERT
  8
1
  2
B72613
 10
200.350118004093
 20
180.94846599291
  0
INSERT
  8
_LabelDrawingFrame
  2
B202136
 10
3.48801665306091
 20
308.11545728836
  0
INSERT
  8
_LabelDrawingFrame
  2
B202124
 10
123.61614821168
 20
374.640889628925
  0
INSERT
  8
_LabelDrawingFrame
  2
B202149
 10
65.1161482116805
 20
371.36742605138
 50
90
  0
INSERT
  8
1
  2
B77593_00991558
 10
194.025019753113
 20
231.648497774087
  0
INSERT
  8
1
  2
B77600
 10
180.689029288425
 20
235.548497774087
  0
INSERT
  8
_LabelDrawingFrame
  2
B202140
 10
3.48801665306091
 20
67.8234572883598
  0
INSERT
  8
1
  2
B143692
 10
187.200005477639
 20
314.523520269137
 50
269.999779390044
  0
INSERT
  8
_LabelDrawingFrame
  2
B202225
 10
71.483350162092
 20
20.849675977865
  0
INSERT
  8
_LabelDrawingFrame
  2
B202166
 10
196.989285143067
 20
20.4486016594983
  0
INSERT
  8
1
  2
B115633
 10
138.45001653239
 20
312.573492574087
 50
224.999833842112
  0
INSERT
  8
_LabelDrawingFrame
  2
B202176
 10
154.989067088844
 20
33.8934258840407
 50
90
  0
INSERT
  8
1
  2
B143690
 10
185.25004579747
 20
316.473494978325
 50
224.999833842112
  0
INSERT
  8
_LabelDrawingFrame
  2
B202168
 10
219.958977613411
 20
10.0486016594983
  0
INSERT
  8
_LabelDrawingFrame
  2
B202184
 10
240.691682959832
 20
23.630048366747
 50
-90
  0
INSERT
  8
1
  2
B80852_00991483
 10
198.900029768524
 20
285.273497774087
  0
INSERT
  8
_LabelDrawingFrame
  2
B202187
 10
212.091682959832
 20
13.2543522516193
 50
90
  0
INSERT
  8
1
  2
B143887
 10
204.750024961059
 20
316.473506089623
 50
224.999833842112
  0
INSERT
  8
_LabelDrawingFrame
  2
B202164
 10
123.62593051036
 20
25.6486016594983
  0
INSERT
  8
_LabelDrawingFrame
  2
B202204
 10
53.3153379121677
 20
15.6580612177173
  0
INSERT
  8
1
  2
B99744
 10
84.825
 20
260.735997774087
  0
INSERT
  8
_LabelDrawingFrame
  2
B202135
 10
3.04195215702057
 20
37.0104737039558
  0
INSERT
  8
_LabelDrawingFrame
  2
B202171
 10
95.0916720540261
 20
18.292678172105
 50
89.9999399176302
  0
INSERT
  8
_LabelDrawingFrame
  2
B202139
 10
3.48801665306091
 20
128.27345728836
  0
INSERT
  8
_LabelDrawingFrame
  2
B202182
 10
69.0916829598319
 20
23.6300443211406
  0
INSERT
  8
1
  2
B72614
 10
200.545118004093
 20
194.79346599291
  0
INSERT
  8
1
  2
B48955
 10
80.7655311614087
 20
173.164481380645
  0
INSERT
  8
1
  2
B123011
 10
87.7499746935136
 20
312.573509860385
 50
224.999984732699
  0
INSERT
  8
_LabelDrawingFrame
  2
B202110
 10
244.010131321103
 20
278.142300330974
  0
INSERT
  8
_LabelDrawingFrame
  2
B202142
 10
123.61614821168
 20
371.387072648069
 50
90.000132687202
  0
INSERT
  8
1
  2
B141661
 10
196.949977298302
 20
310.623517350634
  0
INSERT
  8
_LabelDrawingFrame
  2
B202150
 10
65.1161672292828
 20
4.70255499999998
 50
90
  0
INSERT
  8
_LabelDrawingFrame
  2
B202196
 10
42.9289230039446
 20
31.6036099308851
  0
INSERT
  8
_LabelDrawingFrame
  2
B202159
 10
71.6033935714995
 20
10.1019016594984
  0
INSERT
  8
1
  2
TRICON
 10
89.7
 20
279.423530274087
  0
INSERT
  8
1
  2
B129055
 10
89.6999821224155
 20
312.573500634087
 50
270.000228461015
  0
INSERT
  8
_LabelDrawingFrame
  2
B202185
 10
63.8682829598319
 20
18.454748366747
 50
90
  0
INSERT
  8
_LabelDrawingFrame
  2
B202127
 10
6.72144543603009
 20
188.083265782353
 50
270
  0
INSERT
  8
1
  2
B48858
 10
87.8351000332832
 20
253.4610863752
  0
INSERT
  8
1
  2
B85397_00991473
 10
97.5
 20
241.398497774087
 50
270
  0
INSERT
  8
_LabelDrawingFrame
  2
B202235
 10
11.6672161947034
 20
26.0529259778649
  0
INSERT
  8
1
  2
B48850_00991040
 10
81.4125
 20
259.728497774087
  0
INSERT
  8
_LabelDrawingFrame
  2
B202208
 10
234.236613402067
 20
10.3141242686795
  0
INSERT
  8
1
  2
B143888
 10
208.649990596298
 20
316.473539143485
 50
315.00001320895
  0
INSERT
  8
_LabelDrawingFrame
  2
B202255
 10
123.571180259005
 20
23.3486010639871
  0
INSERT
  8
_LabelDrawingFrame
  2
B202156
 10
87.1865592862753
 20
15.1896865002698
  0
INSERT
  8
_LabelDrawingFrame
  2
B202202
 10
158.506292904591
 20
20.7512756000581
  0
INSERT
  8
_LabelDrawingFrame
  2
B202245
 10
123.447356983262
 20
15.5621818204234
  0
INSERT
  8
_LabelDrawingFrame
  2
B202167
 10
197.629808873586
 20
37.2114950739957
  0
INSERT
  8
_LabelDrawingFrame
  2
B202145
 10
93.9905732803851
 20
3.92496693134308
 50
360
  0
INSERT
  8
_LabelDrawingFrame
  2
B202114
 10
243.828076944501
 20
36.9923003309744
  0
INSERT
  8
_LabelDrawingFrame
  2
B202123
 10
243.86614821168
 20
67.8484977740874
  0
INSERT
  8
_LabelDrawingFrame
  2
B202229
 10
29.8919608915141
 20
26.0743128167333
  0
INSERT
  8
1
  2
B48954
 10
25.2100845518937
 20
173.097112614511
  0
INSERT
  8
_LabelDrawingFrame
  2
B202133
 10
3.43898517212455
 20
157.468980197462
  0
INSERT
  8
_LabelDrawingFrame
  2
B202120
 10
243.86614821168
 20
247.898497774087
  0
INSERT
  8
_LabelDrawingFrame
  2
B202144
 10
36.2646061115771
 20
3.92496693134308
  0
INSERT
  8
_LabelDrawingFrame
  2
B202152
 10
182.116166827285
 20
4.72173912226458
 50
-90.0001653137182
  0
INSERT
  8
_LabelDrawingFrame
  2
B202177
 10
17.0916829598319
 20
18.3617290519533
 50
90
  0
INSERT
  8
1
  2
B84399_00993166
 10
113.1
 20
113.673497774087
 50
90
  0
INSERT
  8
_LabelDrawingFrame
  2
B202141
 10
240.61614821168
 20
188.012152088586
 50
90
  0
INSERT
  8
_LabelDrawingFrame
  2
B202233
 10
71.4882774697159
 20
26.049675977865
  0
INSERT
  8
_LabelDrawingFrame
  2
B202154
 10
11.9416002898759
 20
10.2356865303469
  0
INSERT
  8
_LabelDrawingFrame
  2
B202125
 10
247.11614821168
 20
188.098497774087
 50
270
  0
INSERT
  8
1
  2
B115634
 10
142.349982167628
 20
312.57352562795
 50
315.00001320895
  0
INSERT
  8
_LabelDrawingFrame
  2
B202122
 10
243.86614821168
 20
128.298497774087
  0
INSERT
  8
_LabelDrawingFrame
  2
B202181
 10
131.491682959832
 20
18.4300432698382
 50
90
  0
INSERT
  8
_LabelDrawingFrame
  2
B202215
 10
197.818939627308
 20
31.9886219753486
  0
INSERT
  8
_LabelDrawingFrame
  2
B202158
 10
197.024719392063
 20
25.6486016594983
  0
INSERT
  8
_LabelDrawingFrame
  2
B202173
 10
123.691682959832
 20
28.830048366747
  0
INSERT
  8
_LabelDrawingFrame
  2
B202157
 10
87.3156055444548
 20
10.1733249067307
  0
INSERT
  8
1
  2
B143324
 10
173.549984737225
 20
316.473493864402
 50
315.00001320895
  0
INSERT
  8
1
  2
B72609_00991399
 10
192.521220985066
 20
187.87096599291
  0
INSERT
  8
1
  2
B126961
 10
140.399991229038
 20
312.573523732487
 50
270.000228461015
  0
INSERT
  8
_LabelDrawingFrame
  2
B202227
 10
11.6436675479795
 20
20.8529259778649
  0
INSERT
  8
1
  2
B151009
 10
125.186766910553
 20
312.21057099291
  0
INSERT
  8
_LabelDrawingFrame
  2
B202147
 10
211.764606111577
 20
3.92496693134308
 50
360
  0
INSERT
  8
_LabelDrawingFrame
  2
B202160
 10
117.287302699711
 20
37.2114950739957
  0
INSERT
  8
1
  2
B48857
 10
92.3201000332832
 20
253.4610863752
  0
INSERT
  8
1
  2
B143503
 10
224.249951414244
 20
316.473553308753
 50
315.00001320895
  0
INSERT
  8
1
  2
B48860
 10
87.9326006531715
 20
266.066335954152
  0
INSERT
  8
1
  2
B147121
 10
74.486766910553
 20
312.21057099291
  0
INSERT
  8
_LabelDrawingFrame
  2
B202111
 10
244.239038531034
 20
217.816333162166
 50
360
  0
INSERT
  8
_LabelDrawingFrame
  2
B202221
 10
29.870406481511
 20
20.8537254858601
  0
POLYLINE
  8
1
 62
7
 66
1
  0
VERTEX
  8
1
 62
7
 10
46.8
 20
216.048466711732
  0
VERTEX
  8
1
 62
7
 10
93.6
 20
216.048466711732
  0
SEQEND
  8
1
  0
POLYLINE
  8
1
 62
7
 66
1
  0
VERTEX
  8
1
 62
7
 10
89.7
 20
291.123497774087
  0
VERTEX
  8
1
 62
7
 10
89.7
 20
279.423530274087
  0
SEQEND
  8
1
  0
POLYLINE
  8
1
 62
7
 66
1
  0
VERTEX
  8
1
 62
7
 10
140.400029143677
 20
291.123497774087
  0
VERTEX
  8
1
 62
7
 10
140.400029143677
 20
279.423530274087
  0
VERTEX
  8
1
 62
7
 10
89.6999999999999
 20
279.423530274087
  0
SEQEND
  8
1
  0
POLYLINE
  8
1
 62
7
 66
1
  0
VERTEX
  8
1
 62
7
 10
89.7
 20
279.423530274087
  0
VERTEX
  8
1
 62
7
 10
89.7
 20
267.723497774087
  0
SEQEND
  8
1
  0
POLYLINE
  8
1
 62
7
 66
1
  0
VERTEX
  8
1
 62
7
 10
93.6
 20
216.048497774087
  0
VERTEX
  8
1
 62
7
 10
93.6
 20
170.223497774087
  0
VERTEX
  8
1
 62
7
 10
81.9
 20
170.223497774087
  0
SEQEND
  8
1
  0
POLYLINE
  8
1
 62
7
 66
1
  0
VERTEX
  8
1
 62
7
 10
202.80001797081
 20
179.97346599291
  0
VERTEX
  8
1
 62
7
 10
202.80001797081
 20
135.123497774087
  0
VERTEX
  8
1
 62
7
 10
113.1000104
 20
135.123497774087
  0
SEQEND
  8
1
  0
POLYLINE
  8
1
 62
7
 66
1
  0
VERTEX
  8
1
 62
7
 10
179.400019753113
 20
232.623497774087
  0
VERTEX
  8
1
 62
7
 10
171.6
 20
232.623497774087
  0
VERTEX
  8
1
 62
7
 10
171.6
 20
273.898497774087
  0
VERTEX
  8
1
 62
7
 10
198.900029768524
 20
273.898497774087
  0
VERTEX
  8
1
 62
7
 10
198.900029768524
 20
275.523497774087
  0
SEQEND
  8
1
  0
POLYLINE
  8
1
 62
7
 66
1
  0
VERTEX
  8
1
 62
7
 10
208.650019753113
 20
232.623497774087
  0
VERTEX
  8
1
 62
7
 10
220.350019753113
 20
232.623497774087
  0
VERTEX
  8
1
 62
7
 10
220.350019753113
 20
199.47346599291
  0
VERTEX
  8
1
 62
7
 10
202.80001797081
 20
199.47346599291
  0
VERTEX
  8
1
 62
7
 10
202.80001797081
 20
195.57346599291
  0
SEQEND
  8
1
  0
POLYLINE
  8
1
 62
7
 66
1
  0
VERTEX
  8
1
 62
7
 10
198.900029768524
 20
295.023497774087
  0
VERTEX
  8
1
 62
7
 10
198.900029768524
 20
310.623497774087
  0
SEQEND
  8
1
  0
POLYLINE
  8
1
 62
7
 66
1
  0
VERTEX
  8
1
 62
7
 10
113.1
 20
115.623497774087
  0
VERTEX
  8
1
 62
7
 10
113.1
 20
135.123497774087
  0
SEQEND
  8
1
  0
POLYLINE
  8
1
 62
7
 66
1
  0
VERTEX
  8
1
 62
7
 10
113.1000104
 20
135.123497774087
  0
VERTEX
  8
1
 62
7
 10
15.6
 20
135.123497774087
  0
VERTEX
  8
1
 62
7
 10
15.6
 20
170.223497774087
  0
VERTEX
  8
1
 62
7
 10
23.4
 20
170.223497774087
  0
SEQEND
  8
1
  0
POLYLINE
  8
1
 62
7
 66
1
  0
VERTEX
  8
1
 62
7
 10
97.5
 20
252.123497774087
  0
VERTEX
  8
1
 62
7
 10
97.5
 20
250.173497774087
  0
VERTEX
  8
1
 62
7
 10
97.5
 20
250.173497774087
  0
VERTEX
  8
1
 62
7
 10
97.5
 20
248.223497774087
  0
SEQEND
  8
1
  0
POLYLINE
  8
1
 62
7
 66
1
  0
VERTEX
  8
1
 62
7
 10
93.6
 20
252.123497774087
  0
VERTEX
  8
1
 62
7
 10
93.6
 20
216.048497774087
  0
SEQEND
  8
1
  0
POLYLINE
  8
1
 62
7
 66
1
  0
VERTEX
  8
1
 62
7
 10
89.7
 20
252.123497774087
  0
VERTEX
  8
1
 62
7
 10
89.7
 20
250.173499625287
  0
VERTEX
  8
1
 62
7
 10
89.70001482
 20
250.173499625287
  0
VERTEX
  8
1
 62
7
 10
89.70001482
 20
248.223501476487
  0
SEQEND
  8
1
  0
ENDSEC
  0
EOF
