  0
SECTION
  2
HEADER
  9
$LIMMIN
 10
0
 20
0
  9
$LIMMAX
 10
61.9105034093182
 20
93.6621244435218
  9
$EXTMIN
 10
0
 20
247.642013637273
  9
$EXTMAX
 10
0
 20
374.648497774087
  0
ENDSEC
  0
SECTION
  2
TABLES
  0
TABLE
  2
LTYPE
 70
9
  0
LTYPE
  2
CONTINUOUS
 70
64
  3
Solid line
 72
65
 73
0
 40
0
  0
LTYPE
  2
DASHED
 70
64
  3
__ __ __ __ __ __ __ __ __
 72
65
 73
2
 40
0.75
 49
0.5
 49
-0.25
  0
LTYPE
  2
DOT
 70
64
  3
...........................
 72
65
 73
2
 40
0.25
 49
0
 49
-0.25
  0
LTYPE
  2
DASHDOT
 70
64
  3
__ . __ . __ . __ . __ . __ . 
 72
65
 73
4
 40
1
 49
0.5
 49
-0.25
 49
0
 49
-0.25
  0
ENDTAB
  0
TABLE
  2
LAYER
 70
10
  0
LAYER
  2
_LabelDrawingFrame
 70
0
 62
7
  6
CONTINUOUS
  0
LAYER
  2
1
 70
0
 62
7
  6
CONTINUOUS
  0
LAYER
  2
CONNECTIONS
 70
0
 62
-7
  6
CONTINUOUS
  0
ENDTAB
  0
ENDSEC
  0
SECTION
  2
BLOCKS
  0
BLOCK
  8
0
  2
TRICON
 70
0
 10
0
 20
0
  0
POLYLINE
  8
1
 62
7
 70
1
 66
1
 40
0.65
 41
0.65
  0
VERTEX
  8
1
 10
-0.325
 20
0
 42
1
  0
VERTEX
  8
1
 10
0.325
 20
0
 42
1
  0
SEQEND
  8
1
  0
ENDBLK
  8
0
  0
BLOCK
  8
0
  2
TRICONSMALL
 70
0
 10
0
 20
0
  0
POLYLINE
  8
1
 62
7
 70
1
 66
1
 40
0.325
 41
0.325
  0
VERTEX
  8
1
 10
-0.1625
 20
0
 42
1
  0
VERTEX
  8
1
 10
0.1625
 20
0
 42
1
  0
SEQEND
  8
1
  0
ENDBLK
  8
0
  0
BLOCK
  8
0
  2
LCBP0
 70
0
 10
0
 20
0
  0
LINE
  8
1
 62
7
 10
0
 20
-0.609375
 11
0
 21
0.609375
  0
ENDBLK
  8
0
  0
BLOCK
  8
0
  2
LCBP1
 70
0
 10
0
 20
0
  0
LINE
  8
1
 62
7
 10
0
 20
-0.8125
 11
0
 21
0.8125
  0
ENDBLK
  8
0
  0
BLOCK
  8
0
  2
LCBP2
 70
0
 10
0
 20
0
  0
LINE
  8
1
 62
7
 10
0
 20
-1.21875
 11
0
 21
1.21875
  0
ENDBLK
  8
0
  0
BLOCK
  8
0
  2
LCA1
 70
0
 10
0
 20
0
  0
SOLID
  8
1
 62
7 
 10
0
 20
0
 11
-1.82
 21
-0.3575
 12
-1.82
 22
0.3575
 13
-1.82
 23
0.3575
  0
ENDBLK
  8
0
  0
BLOCK
  8
0
  2
LCA2
 70
0
 10
0
 20
0
  0
SOLID
  8
1
 62
7 
 10
0
 20
0
 11
-2.145
 21
-0.6825
 12
-2.145
 22
0.6825
 13
-2.145
 23
0.6825
  0
ENDBLK
  8
0
  0
BLOCK
  8
0
  2
LCA3
 70
0
 10
0
 20
0
  0
SOLID
  8
1
 62
7 
 10
0
 20
0
 11
-2.795
 21
-1.495
 12
-2.795
 22
1.495
 13
-2.795
 23
1.495
  0
ENDBLK
  8
0
  0
BLOCK
  8
0
  2
LCA1R
 70
0
 10
0
 20
0
  0
SOLID
  8
1
 62
7 
 10
0
 20
0
 11
1.82
 21
-0.3575
 12
1.82
 22
0.3575
 13
1.82
 23
0.3575
  0
ENDBLK
  8
0
  0
BLOCK
  8
0
  2
LCA2R
 70
0
 10
0
 20
0
  0
SOLID
  8
1
 62
7 
 10
0
 20
0
 11
2.145
 21
-0.6825
 12
2.145
 22
0.6825
 13
2.145
 23
0.6825
  0
ENDBLK
  8
0
  0
BLOCK
  8
0
  2
LCA3R
 70
0
 10
0
 20
0
  0
SOLID
  8
1
 62
7 
 10
0
 20
0
 11
2.795
 21
-1.495
 12
2.795
 22
1.495
 13
2.795
 23
1.495
  0
ENDBLK
  8
0
  0
BLOCK
  8
0
  2
B45928_00991756
 70
0
 10
0
 20
0
  0
POLYLINE
  8
1
 62
7
  6
DASHDOT
 66
1
  0
VERTEX
  8
1
 62
7
 10
-25.6518693861414
 20
19.5
  0
VERTEX
  8
1
 62
7
 10
25.0481306138586
 20
19.5
  0
VERTEX
  8
1
 62
7
 10
25.0481306138586
 20
-15.6
  0
VERTEX
  8
1
 62
7
 10
-25.6518693861414
 20
-15.6
  0
VERTEX
  8
1
 62
7
 10
-25.6518693861414
 20
19.5
  0
SEQEND
  8
1
  0
LINE
  8
1
 62
7
 10
25.0481306138586
 20
0
 11
28.9481306138586
 21
0
  0
LINE
  8
1
 62
7
 10
-4.20186938614142
 20
-15.6
 11
-4.20186938614142
 21
-19.5
  0
LINE
  8
1
 62
7
 10
-25.6518693861414
 20
-3.9
 11
-29.5518693861414
 21
-3.9
  0
LINE
  8
1
 62
7
 10
-29.5518693861414
 20
0
 11
-25.6518693861414
 21
0
  0
LINE
  8
1
 62
7
 10
13.3481306138586
 20
0
 11
25.0481306138586
 21
0
  0
POLYLINE
  8
1
 62
7
 66
1
  0
VERTEX
  8
1
 62
7
 10
3.59813061385856
 20
0
  0
VERTEX
  8
1
 62
7
 10
3.59813061385856
 20
-9.75
  0
VERTEX
  8
1
 62
7
 10
5.54813061385856
 20
-9.75
  0
SEQEND
  8
1
  0
LINE
  8
1
 62
7
 10
-4.20186938614142
 20
-5.54223484848485
 11
-4.20186938614142
 21
-15.6
  0
LINE
  8
1
 62
7
 10
-13.9518693861414
 20
0
 11
-9.71730227939647
 21
0
  0
LINE
  8
1
 62
7
 10
-21.7518693861414
 20
-3.9
 11
-25.6518693861414
 21
-3.9
  0
LINE
  8
1
 62
7
 10
-25.6518693861414
 20
0
 11
-21.7518693861414
 21
0
  0
LINE
  8
1
 62
7
 10
1.31356350711366
 20
0
 11
5.54813061385858
 21
0
  0
POLYLINE
  8
1
 62
7
 70
1
 66
1
 40
0.4875
 41
0.4875
  0
VERTEX
  8
1
 10
3.35438061385858
 20
0
 42
1
  0
VERTEX
  8
1
 10
3.84188061385858
 20
0
 42
1
  0
SEQEND
  8
1
  0
POLYLINE
  8
1
 62
7
 70
1
 66
1
 40
0.4875
 41
0.4875
  0
VERTEX
  8
1
 10
17.0043806138586
 20
0
 42
1
  0
VERTEX
  8
1
 10
17.4918806138586
 20
0
 42
1
  0
SEQEND
  8
1
  0
POLYLINE
  8
1
 62
7
 66
1
  0
VERTEX
  8
1
 62
7
 10
15.2981306138586
 20
-9.75
  0
VERTEX
  8
1
 62
7
 10
17.2481306138586
 20
-9.75
  0
VERTEX
  8
1
 62
7
 10
17.2481306138586
 20
0
  0
SEQEND
  8
1
  0
LINE
  8
1
 62
7
 10
17.2481306138586
 20
5.85
 11
17.2481306138586
 21
0
  0
LINE
  8
1
 62
7
 10
18.9717033930008
 20
8.02642722085779
 11
15.5245578347164
 21
11.4735727791422
  0
INSERT
  8
1
  2
LCA1
 10
15.5245578347164
 20
11.4735727791422
 50
135
  0
CIRCLE
  8
1
 62
7
 10
17.2481306138586
 20
9.75
 40
3.9
  0
LINE
  8
1
 62
7
 10
5.54813061385858
 20
-9.75
 11
8.98403325077541
 21
-9.75263691683571
  0
LINE
  8
1
 62
7
 10
11.3981306138586
 20
-9.75
 11
15.2981306138586
 21
-9.75
  0
CIRCLE
  8
1
 62
7
 10
9.93563061385858
 20
-9.75
 40
0.975
  0
POLYLINE
  8
1
 62
7
 66
1
  0
VERTEX
  8
1
 62
7
 10
9.44813061385856
 20
-11.7
  0
VERTEX
  8
1
 62
7
 10
11.3981306138586
 20
-9.75
  0
VERTEX
  8
1
 62
7
 10
9.44813061385856
 20
-7.80000000000001
  0
SEQEND
  8
1
  0
POLYLINE
  8
1
 62
7
 66
1
  0
VERTEX
  8
1
 62
7
 10
-13.9518693861414
 20
9.75
  0
VERTEX
  8
1
 62
7
 10
-21.7518693861414
 20
9.75
  0
VERTEX
  8
1
 62
7
 10
-21.7518693861414
 20
1.94999999999999
  0
VERTEX
  8
1
 62
7
 10
-13.9518693861414
 20
1.94999999999999
  0
VERTEX
  8
1
 62
7
 10
-13.9518693861414
 20
9.75
  0
SEQEND
  8
1
  0
LINE
  8
1
 62
7
 10
-21.7518693861414
 20
3.9
 11
-19.8018693861414
 21
3.9
  0
INSERT
  8
1
  2
LCBP1
 10
-19.8018693861414
 20
3.9
 50
0
  0
LINE
  8
1
 62
7
 10
-21.7518693861414
 20
7.8
 11
-13.9518693861414
 21
7.8
  0
INSERT
  8
1
  2
LCA1
 10
-13.9518693861414
 20
7.8
 50
0
  0
LINE
  8
1
 62
7
 10
-21.7518693861414
 20
0
 11
-19.8018693861414
 21
0
  0
INSERT
  8
1
  2
LCBP1
 10
-19.8018693861414
 20
0
 50
0
  0
POLYLINE
  8
1
 62
7
 66
1
  0
VERTEX
  8
1
 62
7
 10
-13.9518693861414
 20
1.94999999999999
  0
VERTEX
  8
1
 62
7
 10
-21.7518693861414
 20
1.94999999999999
  0
VERTEX
  8
1
 62
7
 10
-21.7518693861414
 20
-5.85000000000002
  0
VERTEX
  8
1
 62
7
 10
-13.9518693861414
 20
-5.85000000000002
  0
VERTEX
  8
1
 62
7
 10
-13.9518693861414
 20
1.94999999999999
  0
SEQEND
  8
1
  0
LINE
  8
1
 62
7
 10
-13.9518693861414
 20
0
 11
-21.7518693861414
 21
-3.9
  0
INSERT
  8
1
  2
LCA1
 10
-21.7518693861414
 20
-3.9
 50
-153.434948822922
  0
LINE
  8
1
 62
7
 10
-17.8518693861414
 20
12.675
 11
-15.9018693861414
 21
12.675
  0
LINE
  8
1
 62
7
 10
-21.2643693861414
 20
15.6
 11
-18.3393693861414
 21
15.6
  0
LINE
  8
1
 62
7
 10
-18.8268693861414
 20
13.89375
 11
-18.8268693861414
 21
15.6
  0
POLYLINE
  8
1
 62
7
 66
1
  0
VERTEX
  8
1
 62
7
 10
-18.8268693861414
 20
13.89375
  0
VERTEX
  8
1
 62
7
 10
-18.8268693861414
 20
13.40625
  0
VERTEX
  8
1
 62
7
 10
-20.0934315391762
 20
12.675
  0
VERTEX
  8
1
 62
7
 10
-18.8268693861414
 20
11.94375
  0
VERTEX
  8
1
 62
7
 10
-18.8268693861414
 20
11.45625
  0
SEQEND
  8
1
  0
LINE
  8
1
 62
7
 10
-18.8268693861414
 20
9.75
 11
-18.8268693861414
 21
11.45625
  0
LINE
  8
1
 62
7
 10
-20.7768693861414
 20
9.75
 11
-20.7768693861414
 21
15.6
  0
LINE
  8
1
 62
7
  6
DASHED
 10
-4.20185560597615
 20
-2.12973484848484
 11
-4.20185560597615
 21
5.48863093802527
  0
LINE
  8
1
 62
7
 10
-5.54609203689282
 20
-2.12972486276279
 11
-4.20186938614142
 21
-3.47394751351419
  0
LINE
  8
1
 62
7
 10
-4.20186938614142
 20
-3.47394751351419
 11
-2.85768721777667
 21
-2.12976534514945
  0
LINE
  8
1
 62
7
 10
-0.78934799762888
 20
-2.12973484848484
 11
-7.61436321432342
 21
-2.12973484848484
  0
POLYLINE
  8
1
 62
7
 66
1
  0
VERTEX
  8
1
 62
7
 10
-4.20186938614144
 20
5.48863093802527
  0
VERTEX
  8
1
 62
7
 10
-9.7173022793965
 20
-0.0268019552298142
  0
VERTEX
  8
1
 62
7
 10
-4.20186938614144
 20
-5.5422348484849
  0
VERTEX
  8
1
 62
7
 10
1.31356350711377
 20
-0.0268019552298142
  0
VERTEX
  8
1
 62
7
 10
-4.20186938614144
 20
5.48863093802527
  0
SEQEND
  8
1
  0
LINE
  8
1
 62
7
 10
3.16659767828234
 20
7.08860462147179
 11
11.8299323530519
 21
9.48646977884308
  0
INSERT
  8
1
  2
LCA1
 10
11.8299323530519
 20
9.48646977884308
 50
15.4711922908485
  0
POLYLINE
  8
1
 62
7
 66
1
  0
VERTEX
  8
1
 62
7
 10
7.4982389247557
 20
5.8500225647702
  0
VERTEX
  8
1
 62
7
 10
9.4482389247557
 20
6.25627256477031
  0
VERTEX
  8
1
 62
7
 10
5.5482389247557
 20
7.0687725647702
  0
VERTEX
  8
1
 62
7
 10
9.4482389247557
 20
7.88127256477031
  0
VERTEX
  8
1
 62
7
 10
5.5482389247557
 20
8.69377256477031
  0
VERTEX
  8
1
 62
7
 10
9.4482389247557
 20
9.5062725647702
  0
VERTEX
  8
1
 62
7
 10
5.5482389247557
 20
10.3187725647702
  0
VERTEX
  8
1
 62
7
 10
7.4982389247557
 20
10.7250225647702
  0
SEQEND
  8
1
  0
POLYLINE
  8
1
 62
7
 66
1
  0
VERTEX
  8
1
 62
7
 10
5.54813061385856
 20
4.875
  0
VERTEX
  8
1
 62
7
 10
3.59813061385856
 20
3.89999999999998
  0
VERTEX
  8
1
 62
7
 10
5.54813061385856
 20
2.92500000000001
  0
SEQEND
  8
1
  0
POLYLINE
  8
1
 62
7
  6
DOT
 66
1
  0
VERTEX
  8
1
 62
7
 10
7.49813061385856
 20
-1.94999999999999
  0
VERTEX
  8
1
 62
7
 10
7.49813061385856
 20
-5.85000000000002
  0
VERTEX
  8
1
 62
7
 10
15.2981306138586
 20
-5.85000000000002
  0
VERTEX
  8
1
 62
7
 10
15.2981306138586
 20
-1.94999999999999
  0
VERTEX
  8
1
 62
7
 10
13.3481306138586
 20
0
  0
SEQEND
  8
1
  0
POLYLINE
  8
1
 62
7
 66
1
  0
VERTEX
  8
1
 62
7
 10
5.54813061385856
 20
-1.94999999999999
  0
VERTEX
  8
1
 62
7
 10
13.3481306138586
 20
-1.94999999999999
  0
VERTEX
  8
1
 62
7
 10
13.3481306138586
 20
5.85000000000002
  0
VERTEX
  8
1
 62
7
 10
5.54813061385856
 20
5.85000000000002
  0
VERTEX
  8
1
 62
7
 10
5.54813061385856
 20
-1.94999999999999
  0
SEQEND
  8
1
  0
LINE
  8
1
 62
7
 10
13.3481306138586
 20
0
 11
5.54813061385858
 21
0
  0
INSERT
  8
1
  2
LCA1
 10
5.54813061385858
 20
0
 50
-180
  0
INSERT
  8
1
  2
LCA1R
 10
13.3481306138586
 20
0
 50
-180
  0
CIRCLE
  8
CONNECTIONS
 62
7
 10
28.9481306138586
 20
0
 40
0
  0
CIRCLE
  8
CONNECTIONS
 62
7
 10
-29.5518693861414
 20
0
 40
0
  0
CIRCLE
  8
CONNECTIONS
 62
7
 10
-29.5518693861414
 20
-3.9
 40
0
  0
ENDBLK
  8
0
  0
BLOCK
  8
0
  2
B45932
 70
0
 10
0
 20
0
  0
TEXT
  8
1
 62
7
 40
2.34
 41
0.75
  1
3
  7
STANDARD
 73
2
 10
-1.63599046468735
 20
0
 11
-1.63599046468735
 21
0
  0
ENDBLK
  8
0
  0
BLOCK
  8
0
  2
B45933
 70
0
 10
0
 20
0
  0
TEXT
  8
1
 62
7
 40
2.34
 41
0.75
  1
1
  7
STANDARD
 72
2
 10
1.63599046468735
 20
-1.07283818006515
 11
1.63599046468735
 21
-1.07283818006515
  0
ENDBLK
  8
0
  0
BLOCK
  8
0
  2
B45934
 70
0
 10
0
 20
0
  0
TEXT
  8
1
 62
7
 40
2.34
 41
0.75
  1
2
  7
STANDARD
 73
2
 10
-1.63599046468735
 20
0
 11
-1.63599046468735
 21
0
  0
ENDBLK
  8
0
  0
BLOCK
  8
0
  2
B49444_00991471
 70
0
 10
0
 20
0
  0
LINE
  8
1
 62
7
 10
0.4875
 20
-2.68125
 11
0.4875
 21
-6.58125
  0
LINE
  8
1
 62
7
 10
4.3875
 20
-2.68125
 11
4.3875
 21
-6.58125
  0
LINE
  8
1
 62
7
 10
2.4375
 20
7.06875
 11
2.4375
 21
3.16875
  0
POLYLINE
  8
1
 62
7
 66
1
  0
VERTEX
  8
1
 62
7
 10
11.2125
 20
0.243749999999977
  0
VERTEX
  8
1
 62
7
 10
10.80625
 20
-1.70625000000001
  0
VERTEX
  8
1
 62
7
 10
9.99375
 20
2.19375000000002
  0
VERTEX
  8
1
 62
7
 10
9.18125
 20
-1.70625000000001
  0
VERTEX
  8
1
 62
7
 10
8.36875
 20
2.19375000000002
  0
VERTEX
  8
1
 62
7
 10
7.55625
 20
-1.70625000000001
  0
VERTEX
  8
1
 62
7
 10
6.74375
 20
2.19375000000002
  0
VERTEX
  8
1
 62
7
 10
6.3375
 20
0.243749999999977
  0
SEQEND
  8
1
  0
LINE
  8
1
 62
7
 10
7.57606742131435
 20
-4.08791733738478
 11
9.97393257868564
 21
4.57541733738478
  0
INSERT
  8
1
  2
LCA1
 10
9.97393257868564
 20
4.57541733738478
 50
74.5288077091515
  0
LINE
  8
1
 62
7
 10
-5.36249999999323
 20
0.243742669606235
 11
-1.4625
 21
0.243742669606235
  0
LINE
  8
1
 62
7
 10
-8.73998637813807
 20
0.24375
 11
-11.2125
 21
0.24375
  0
LINE
  8
1
 62
7
 10
-8.73998637813806
 20
2.19375
 11
-8.73998637813806
 21
-1.70625
  0
LINE
  8
1
 62
7
 10
-8.73998637813806
 20
2.19375
 11
-5.36248730337875
 21
0.24375
  0
LINE
  8
1
 62
7
 10
-8.73998637813806
 20
-1.70625
 11
-5.36248730337875
 21
0.24375
  0
LINE
  8
1
 62
7
 10
2.16708365442307
 20
1.30062548163459
 11
0.757916345608673
 21
-0.813125481586999
  0
LINE
  8
1
 62
7
 10
2.4375
 20
2.19375
 11
2.4375
 21
3.16875
  0
LINE
  8
1
 62
7
 10
4.3875
 20
-1.70625
 11
4.3875
 21
-2.68125
  0
LINE
  8
1
 62
7
 10
0.4875
 20
-1.70625
 11
0.4875
 21
-2.68125
  0
CIRCLE
  8
1
 62
7
 10
2.4375
 20
1.70625
 40
0.4875
  0
CIRCLE
  8
1
 62
7
 10
4.3875
 20
-1.21875
 40
0.4875
  0
CIRCLE
  8
1
 62
7
 10
0.4875
 20
-1.21875
 40
0.4875
  0
POLYLINE
  8
1
 62
7
 66
1
  0
VERTEX
  8
1
 62
7
 10
-1.4625
 20
3.16874999999999
  0
VERTEX
  8
1
 62
7
 10
6.3375
 20
3.16874999999999
  0
VERTEX
  8
1
 62
7
 10
6.3375
 20
-2.68124999999998
  0
VERTEX
  8
1
 62
7
 10
-1.4625
 20
-2.68124999999998
  0
VERTEX
  8
1
 62
7
 10
-1.4625
 20
3.16874999999999
  0
SEQEND
  8
1
  0
CIRCLE
  8
CONNECTIONS
 62
7
 10
2.4375
 20
7.06875
 40
0
  0
CIRCLE
  8
CONNECTIONS
 62
7
 10
0.4875
 20
-6.58125
 40
0
  0
CIRCLE
  8
CONNECTIONS
 62
7
 10
4.3875
 20
-6.58125
 40
0
  0
CIRCLE
  8
CONNECTIONS
 62
7
 10
-11.2124873033788
 20
0.243764660787531
 40
0
  0
ENDBLK
  8
0
  0
BLOCK
  8
0
  2
B49449
 70
0
 10
0
 20
0
  0
TEXT
  8
1
 62
7
 40
2.34
 41
0.75
  1
3
  7
STANDARD
 73
3
 10
-1.63599046468735
 20
1.65783818006516
 11
-1.63599046468735
 21
1.65783818006516
  0
ENDBLK
  8
0
  0
BLOCK
  8
0
  2
B49450
 70
0
 10
0
 20
0
  0
TEXT
  8
1
 62
7
 40
2.34
 41
0.75
  1
2
  7
STANDARD
 72
2
 73
3
 10
1.63599046468735
 20
1.65783818006516
 11
1.63599046468735
 21
1.65783818006516
  0
ENDBLK
  8
0
  0
BLOCK
  8
0
  2
B49451
 70
0
 10
0
 20
0
  0
TEXT
  8
1
 62
7
 40
2.34
 41
0.75
  1
1
  7
STANDARD
 10
-1.63599046468735
 20
-1.07283818006515
  0
ENDBLK
  8
0
  0
BLOCK
  8
0
  2
B51541_00991513
 70
0
 10
0
 20
0
  0
POLYLINE
  8
1
 62
7
  6
DASHDOT
 66
1
  0
VERTEX
  8
1
 62
7
 10
-13.65
 20
18.525
  0
VERTEX
  8
1
 62
7
 10
13.65
 20
18.525
  0
VERTEX
  8
1
 62
7
 10
13.65
 20
-18.525
  0
VERTEX
  8
1
 62
7
 10
-13.65
 20
-18.525
  0
VERTEX
  8
1
 62
7
 10
-13.65
 20
18.525
  0
SEQEND
  8
1
  0
LINE
  8
1
 62
7
 10
-7.8
 20
14.625
 11
0
 21
14.625
  0
LINE
  8
1
 62
7
 10
-7.8
 20
14.625
 11
-7.8
 21
12.675
  0
LINE
  8
1
 62
7
 10
-7.8
 20
-6.825
 11
-7.8
 21
0.975
  0
LINE
  8
1
 62
7
 10
5.85
 20
-6.825
 11
13.65
 21
-6.825
  0
LINE
  8
1
 62
7
 10
-0.975
 20
-6.825
 11
-13.65
 21
-6.825
  0
POLYLINE
  8
1
 62
7
 70
1
 66
1
 40
0.4875
 41
0.4875
  0
VERTEX
  8
1
 10
-0.24375
 20
14.625
 42
1
  0
VERTEX
  8
1
 10
0.24375
 20
14.625
 42
1
  0
SEQEND
  8
1
  0
POLYLINE
  8
1
 62
7
 70
1
 66
1
 40
0.4875
 41
0.4875
  0
VERTEX
  8
1
 10
9.50625
 20
-6.825
 42
1
  0
VERTEX
  8
1
 10
9.99375
 20
-6.825
 42
1
  0
SEQEND
  8
1
  0
POLYLINE
  8
1
 62
7
 70
1
 66
1
 40
0.4875
 41
0.4875
  0
VERTEX
  8
1
 10
-8.04375
 20
-6.825
 42
1
  0
VERTEX
  8
1
 10
-7.55625
 20
-6.825
 42
1
  0
SEQEND
  8
1
  0
POLYLINE
  8
1
 62
7
 66
1
  0
VERTEX
  8
1
 62
7
 10
0
 20
10.725
  0
VERTEX
  8
1
 62
7
 10
0
 20
14.625
  0
VERTEX
  8
1
 62
7
 10
9.75
 20
14.625
  0
VERTEX
  8
1
 62
7
 10
9.75
 20
-6.82499999999999
  0
SEQEND
  8
1
  0
LINE
  8
1
 62
7
 10
-10.9361651972142
 20
7.73497324906137
 11
-3.9
 21
5.3625
  0
INSERT
  8
1
  2
LCA1
 10
-3.9
 20
5.3625
 50
-18.6332168002092
  0
LINE
  8
1
 62
7
 10
-7.8
 20
0.975
 11
-7.8
 21
12.675
  0
ARC
  8
1
 62
7
 10
-17.55
 20
6.825
 40
8.775
 50
340.528596800055
 51
19.4710505793386
  0
ARC
  8
1
 62
7
 10
1.95
 20
6.825
 40
8.775
 50
160.52865870751
 51
199.47139531546
  0
LINE
  8
1
 62
7
 10
1.95
 20
10.725
 11
0
 21
7.34750092524069
  0
LINE
  8
1
 62
7
 10
-1.95
 20
10.725
 11
0
 21
7.34750092524069
  0
POLYLINE
  8
1
 62
7
 66
1
  0
VERTEX
  8
1
 62
7
 10
1.95
 20
10.725
  0
VERTEX
  8
1
 62
7
 10
-1.95
 20
10.725
  0
VERTEX
  8
1
 62
7
 10
-1.95
 20
4.875
  0
VERTEX
  8
1
 62
7
 10
1.95
 20
4.875
  0
VERTEX
  8
1
 62
7
 10
1.95
 20
10.725
  0
SEQEND
  8
1
  0
POLYLINE
  8
1
 62
7
 66
1
  0
VERTEX
  8
1
 62
7
 10
0
 20
-15.6
  0
VERTEX
  8
1
 62
7
 10
-1.95
 20
-15.1937499999999
  0
VERTEX
  8
1
 62
7
 10
1.95
 20
-14.38125
  0
VERTEX
  8
1
 62
7
 10
-1.95
 20
-13.5687500000001
  0
VERTEX
  8
1
 62
7
 10
1.95
 20
-12.7562499999999
  0
VERTEX
  8
1
 62
7
 10
-1.95
 20
-11.94375
  0
VERTEX
  8
1
 62
7
 10
1.95
 20
-11.1312500000001
  0
VERTEX
  8
1
 62
7
 10
0
 20
-10.725
  0
SEQEND
  8
1
  0
POLYLINE
  8
1
 62
7
 66
1
  0
VERTEX
  8
1
 62
7
 10
5.85
 20
-2.92500000000001
  0
VERTEX
  8
1
 62
7
 10
-1.95
 20
-2.92500000000001
  0
VERTEX
  8
1
 62
7
 10
-1.95
 20
-10.725
  0
VERTEX
  8
1
 62
7
 10
5.85
 20
-10.725
  0
VERTEX
  8
1
 62
7
 10
5.85
 20
-2.92500000000001
  0
SEQEND
  8
1
  0
LINE
  8
1
 62
7
 10
-1.95
 20
0.975
 11
5.85
 21
0.975
  0
INSERT
  8
1
  2
LCA1
 10
5.85
 20
0.975
 50
0
  0
POLYLINE
  8
1
 62
7
 66
1
  0
VERTEX
  8
1
 62
7
 10
5.85
 20
4.875
  0
VERTEX
  8
1
 62
7
 10
-1.95
 20
4.875
  0
VERTEX
  8
1
 62
7
 10
-1.95
 20
-2.92500000000001
  0
VERTEX
  8
1
 62
7
 10
5.85
 20
-2.92500000000001
  0
VERTEX
  8
1
 62
7
 10
5.85
 20
4.875
  0
SEQEND
  8
1
  0
LINE
  8
1
 62
7
 10
5.85
 20
-6.825
 11
3.9
 21
-6.825
  0
INSERT
  8
1
  2
LCBP1
 10
3.9
 20
-6.825
 50
-180
  0
LINE
  8
1
 62
7
 10
-1.95
 20
-6.825
 11
0
 21
-6.825
  0
INSERT
  8
1
  2
LCBP1
 10
0
 20
-6.825
 50
0
  0
POLYLINE
  8
1
 62
7
 66
1
  0
VERTEX
  8
1
 62
7
 10
5.85
 20
-2.92500000000001
  0
VERTEX
  8
1
 62
7
 10
-1.95
 20
-2.92500000000001
  0
VERTEX
  8
1
 62
7
 10
-1.95
 20
-10.725
  0
VERTEX
  8
1
 62
7
 10
5.85
 20
-10.725
  0
VERTEX
  8
1
 62
7
 10
5.85
 20
-2.92500000000001
  0
SEQEND
  8
1
  0
CIRCLE
  8
CONNECTIONS
 62
7
 10
-13.65
 20
-6.825
 40
0
  0
CIRCLE
  8
CONNECTIONS
 62
7
 10
13.65
 20
-6.825
 40
0
  0
ENDBLK
  8
0
  0
BLOCK
  8
0
  2
B51544
 70
0
 10
0
 20
0
  0
TEXT
  8
1
 62
7
 40
2.34
 41
0.75
  1
2
  7
STANDARD
 73
2
 10
-1.63599046468735
 20
0
 11
-1.63599046468735
 21
0
  0
ENDBLK
  8
0
  0
BLOCK
  8
0
  2
B51545
 70
0
 10
0
 20
0
  0
TEXT
  8
1
 62
7
 40
2.34
 41
0.75
  1
1
  7
STANDARD
 73
2
 10
-1.63599046468735
 20
0
 11
-1.63599046468735
 21
0
  0
ENDBLK
  8
0
  0
BLOCK
  8
0
  2
B77140_00991235
 70
0
 10
0
 20
0
  0
LINE
  8
1
 62
7
 10
4.3875
 20
-3.65625
 11
4.3875
 21
-7.55625
  0
LINE
  8
1
 62
7
 10
-11.2125
 20
-3.65625
 11
-11.2125
 21
-7.55625
  0
LINE
  8
1
 62
7
 10
-7.3125
 20
-2.19375
 11
-7.3125
 21
-1.21875
  0
SOLID
  8
1
 62
7
 10
-7.3125
 20
-1.21875
 11
-7.3125
 21
-2.19375000000002
 12
-9.2625
 22
-2.19375000000002
 13
-9.2625
 23
-2.19375000000002
  0
SOLID
  8
1
 62
7
 10
-9.2625
 20
2.68124999999998
 11
-7.3125
 21
2.68124999999998
 12
-7.3125
 22
1.70625000000001
 13
-7.3125
 23
1.70625000000001
  0
SOLID
  8
1
 62
7
 10
-8.2875
 20
-1.21875
 11
-7.3125
 21
-1.21875
 12
-9.2625
 22
-2.19375000000002
 13
-9.2625
 23
-2.19375000000002
  0
SOLID
  8
1
 62
7
 10
-9.2625
 20
2.68124999999998
 11
-7.3125
 21
1.70625000000001
 12
-8.2875
 22
1.70625000000001
 13
-8.2875
 23
1.70625000000001
  0
SOLID
  8
1
 62
7
 10
-8.2875
 20
1.70625000000001
 11
-8.2875
 21
-1.21875
 12
-9.2625
 22
-2.19375000000002
 13
-9.2625
 23
-2.19375000000002
  0
SOLID
  8
1
 62
7
 10
-9.2625
 20
-2.19375000000002
 11
-9.2625
 21
2.68124999999998
 12
-8.2875
 22
1.70625000000001
 13
-8.2875
 23
1.70625000000001
  0
LINE
  8
1
 62
7
 10
-10.2375
 20
-7.06875
 11
-6.3375
 21
7.55625
  0
INSERT
  8
1
  2
LCA1
 10
-6.3375
 20
7.55625
 50
75.0685828218624
  0
POLYLINE
  8
1
 62
7
 66
1
  0
VERTEX
  8
1
 62
7
 10
-6.3375
 20
2.19375000000002
  0
VERTEX
  8
1
 62
7
 10
-5.3625
 20
2.19375000000002
  0
VERTEX
  8
1
 62
7
 10
-5.3625
 20
-1.70625000000001
  0
VERTEX
  8
1
 62
7
 10
-6.3375
 20
-1.70625000000001
  0
VERTEX
  8
1
 62
7
 10
-6.3375
 20
2.19375000000002
  0
SEQEND
  8
1
  0
POLYLINE
  8
1
 62
7
 66
1
  0
VERTEX
  8
1
 62
7
 10
-11.2125
 20
2.19375000000002
  0
VERTEX
  8
1
 62
7
 10
-10.2375
 20
2.19375000000002
  0
VERTEX
  8
1
 62
7
 10
-10.2375
 20
-1.70625000000001
  0
VERTEX
  8
1
 62
7
 10
-11.2125
 20
-1.70625000000001
  0
VERTEX
  8
1
 62
7
 10
-11.2125
 20
2.19375000000002
  0
SEQEND
  8
1
  0
POLYLINE
  8
1
 62
7
 66
1
  0
VERTEX
  8
1
 62
7
 10
-10.2375
 20
4.14375000000001
  0
VERTEX
  8
1
 62
7
 10
-6.3375
 20
4.14375000000001
  0
VERTEX
  8
1
 62
7
 10
-6.3375
 20
-3.65625
  0
VERTEX
  8
1
 62
7
 10
-10.2375
 20
-3.65625
  0
VERTEX
  8
1
 62
7
 10
-10.2375
 20
4.14375000000001
  0
SEQEND
  8
1
  0
LINE
  8
1
 62
7
 10
5.3625
 20
4.14375
 11
5.3625
 21
1.21875
  0
LINE
  8
1
 62
7
 10
5.3625
 20
-0.73125
 11
5.3625
 21
-3.65625
  0
LINE
  8
1
 62
7
 10
-12.1875
 20
4.14375
 11
-12.1875
 21
-3.65625
  0
LINE
  8
1
 62
7
 10
-12.1875
 20
4.14375
 11
5.3625
 21
4.14375
  0
LINE
  8
1
 62
7
 10
-12.1875
 20
-3.65625
 11
5.3625
 21
-3.65625
  0
POLYLINE
  8
1
 62
7
 66
1
  0
VERTEX
  8
1
 62
7
 10
-5.3625
 20
1.21875
  0
VERTEX
  8
1
 62
7
 10
12.1875
 20
1.21875
  0
VERTEX
  8
1
 62
7
 10
12.1875
 20
-0.731249999999989
  0
VERTEX
  8
1
 62
7
 10
-5.3625
 20
-0.731249999999989
  0
SEQEND
  8
1
  0
CIRCLE
  8
CONNECTIONS
 62
7
 10
-11.2125
 20
-7.55625
 40
0
  0
CIRCLE
  8
CONNECTIONS
 62
7
 10
4.3875
 20
-7.55625
 40
0
  0
ENDBLK
  8
0
  0
BLOCK
  8
0
  2
B79213_00991738
 70
0
 10
0
 20
0
  0
LINE
  8
1
 62
7
 10
4.3875
 20
-2.4375
 11
4.3875
 21
-6.3375
  0
LINE
  8
1
 62
7
 10
-11.2125
 20
-2.4375
 11
-11.2125
 21
-6.3375
  0
POLYLINE
  8
1
 62
7
 66
1
  0
VERTEX
  8
1
 62
7
 10
-6.3375
 20
3.41250000000002
  0
VERTEX
  8
1
 62
7
 10
-5.3625
 20
3.41250000000002
  0
VERTEX
  8
1
 62
7
 10
-5.3625
 20
-0.487500000000011
  0
VERTEX
  8
1
 62
7
 10
-6.3375
 20
-0.487500000000011
  0
VERTEX
  8
1
 62
7
 10
-6.3375
 20
3.41250000000002
  0
SEQEND
  8
1
  0
POLYLINE
  8
1
 62
7
 66
1
  0
VERTEX
  8
1
 62
7
 10
-11.2125
 20
3.41250000000002
  0
VERTEX
  8
1
 62
7
 10
-10.2375
 20
3.41250000000002
  0
VERTEX
  8
1
 62
7
 10
-10.2375
 20
-0.487500000000011
  0
VERTEX
  8
1
 62
7
 10
-11.2125
 20
-0.487500000000011
  0
VERTEX
  8
1
 62
7
 10
-11.2125
 20
3.41250000000002
  0
SEQEND
  8
1
  0
POLYLINE
  8
1
 62
7
 66
1
  0
VERTEX
  8
1
 62
7
 10
-10.2375
 20
5.36250000000001
  0
VERTEX
  8
1
 62
7
 10
-6.3375
 20
5.36250000000001
  0
VERTEX
  8
1
 62
7
 10
-6.3375
 20
-2.4375
  0
VERTEX
  8
1
 62
7
 10
-10.2375
 20
-2.4375
  0
VERTEX
  8
1
 62
7
 10
-10.2375
 20
5.36250000000001
  0
SEQEND
  8
1
  0
LINE
  8
1
 62
7
 10
5.3625
 20
5.3625
 11
5.3625
 21
2.4375
  0
LINE
  8
1
 62
7
 10
5.3625
 20
0.4875
 11
5.3625
 21
-2.4375
  0
LINE
  8
1
 62
7
 10
-12.1875
 20
5.3625
 11
-12.1875
 21
-2.4375
  0
LINE
  8
1
 62
7
 10
-12.1875
 20
5.3625
 11
5.3625
 21
5.3625
  0
LINE
  8
1
 62
7
 10
-12.1875
 20
-2.4375
 11
5.3625
 21
-2.4375
  0
POLYLINE
  8
1
 62
7
 66
1
  0
VERTEX
  8
1
 62
7
 10
-5.3625
 20
2.4375
  0
VERTEX
  8
1
 62
7
 10
12.1875
 20
2.4375
  0
VERTEX
  8
1
 62
7
 10
12.1875
 20
0.487500000000011
  0
VERTEX
  8
1
 62
7
 10
-5.3625
 20
0.487500000000011
  0
SEQEND
  8
1
  0
LINE
  8
1
 62
7
 10
6.3375
 20
6.3375
 11
6.3375
 21
2.4375
  0
LINE
  8
1
 62
7
 10
-10.2375
 20
6.3375
 11
7.3125
 21
6.3375
  0
CIRCLE
  8
CONNECTIONS
 62
7
 10
-11.2125
 20
-6.3375
 40
0
  0
CIRCLE
  8
CONNECTIONS
 62
7
 10
4.3875
 20
-6.3375
 40
0
  0
ENDBLK
  8
0
  0
BLOCK
  8
0
  2
B80364_00991738
 70
0
 10
0
 20
0
  0
LINE
  8
1
 62
7
 10
4.3875
 20
-2.4375
 11
4.3875
 21
-6.3375
  0
LINE
  8
1
 62
7
 10
-11.2125
 20
-2.4375
 11
-11.2125
 21
-6.3375
  0
POLYLINE
  8
1
 62
7
 66
1
  0
VERTEX
  8
1
 62
7
 10
-6.3375
 20
3.41250000000002
  0
VERTEX
  8
1
 62
7
 10
-5.3625
 20
3.41250000000002
  0
VERTEX
  8
1
 62
7
 10
-5.3625
 20
-0.487500000000011
  0
VERTEX
  8
1
 62
7
 10
-6.3375
 20
-0.487500000000011
  0
VERTEX
  8
1
 62
7
 10
-6.3375
 20
3.41250000000002
  0
SEQEND
  8
1
  0
POLYLINE
  8
1
 62
7
 66
1
  0
VERTEX
  8
1
 62
7
 10
-11.2125
 20
3.41250000000002
  0
VERTEX
  8
1
 62
7
 10
-10.2375
 20
3.41250000000002
  0
VERTEX
  8
1
 62
7
 10
-10.2375
 20
-0.487500000000011
  0
VERTEX
  8
1
 62
7
 10
-11.2125
 20
-0.487500000000011
  0
VERTEX
  8
1
 62
7
 10
-11.2125
 20
3.41250000000002
  0
SEQEND
  8
1
  0
POLYLINE
  8
1
 62
7
 66
1
  0
VERTEX
  8
1
 62
7
 10
-10.2375
 20
5.36250000000001
  0
VERTEX
  8
1
 62
7
 10
-6.3375
 20
5.36250000000001
  0
VERTEX
  8
1
 62
7
 10
-6.3375
 20
-2.4375
  0
VERTEX
  8
1
 62
7
 10
-10.2375
 20
-2.4375
  0
VERTEX
  8
1
 62
7
 10
-10.2375
 20
5.36250000000001
  0
SEQEND
  8
1
  0
LINE
  8
1
 62
7
 10
5.3625
 20
5.3625
 11
5.3625
 21
2.4375
  0
LINE
  8
1
 62
7
 10
5.3625
 20
0.4875
 11
5.3625
 21
-2.4375
  0
LINE
  8
1
 62
7
 10
-12.1875
 20
5.3625
 11
-12.1875
 21
-2.4375
  0
LINE
  8
1
 62
7
 10
-12.1875
 20
5.3625
 11
5.3625
 21
5.3625
  0
LINE
  8
1
 62
7
 10
-12.1875
 20
-2.4375
 11
5.3625
 21
-2.4375
  0
POLYLINE
  8
1
 62
7
 66
1
  0
VERTEX
  8
1
 62
7
 10
-5.3625
 20
2.4375
  0
VERTEX
  8
1
 62
7
 10
12.1875
 20
2.4375
  0
VERTEX
  8
1
 62
7
 10
12.1875
 20
0.487500000000011
  0
VERTEX
  8
1
 62
7
 10
-5.3625
 20
0.487500000000011
  0
SEQEND
  8
1
  0
LINE
  8
1
 62
7
 10
6.3375
 20
6.3375
 11
6.3375
 21
2.4375
  0
LINE
  8
1
 62
7
 10
-10.2375
 20
6.3375
 11
7.3125
 21
6.3375
  0
CIRCLE
  8
CONNECTIONS
 62
7
 10
-11.2125
 20
-6.3375
 40
0
  0
CIRCLE
  8
CONNECTIONS
 62
7
 10
4.3875
 20
-6.3375
 40
0
  0
ENDBLK
  8
0
  0
BLOCK
  8
0
  2
B103101_00991738
 70
0
 10
0
 20
0
  0
LINE
  8
1
 62
7
 10
4.3875
 20
-2.4375
 11
4.3875
 21
-6.3375
  0
LINE
  8
1
 62
7
 10
-11.2125
 20
-2.4375
 11
-11.2125
 21
-6.3375
  0
POLYLINE
  8
1
 62
7
 66
1
  0
VERTEX
  8
1
 62
7
 10
-6.3375
 20
3.41250000000002
  0
VERTEX
  8
1
 62
7
 10
-5.3625
 20
3.41250000000002
  0
VERTEX
  8
1
 62
7
 10
-5.3625
 20
-0.487500000000011
  0
VERTEX
  8
1
 62
7
 10
-6.3375
 20
-0.487500000000011
  0
VERTEX
  8
1
 62
7
 10
-6.3375
 20
3.41250000000002
  0
SEQEND
  8
1
  0
POLYLINE
  8
1
 62
7
 66
1
  0
VERTEX
  8
1
 62
7
 10
-11.2125
 20
3.41250000000002
  0
VERTEX
  8
1
 62
7
 10
-10.2375
 20
3.41250000000002
  0
VERTEX
  8
1
 62
7
 10
-10.2375
 20
-0.487500000000011
  0
VERTEX
  8
1
 62
7
 10
-11.2125
 20
-0.487500000000011
  0
VERTEX
  8
1
 62
7
 10
-11.2125
 20
3.41250000000002
  0
SEQEND
  8
1
  0
POLYLINE
  8
1
 62
7
 66
1
  0
VERTEX
  8
1
 62
7
 10
-10.2375
 20
5.36250000000001
  0
VERTEX
  8
1
 62
7
 10
-6.3375
 20
5.36250000000001
  0
VERTEX
  8
1
 62
7
 10
-6.3375
 20
-2.4375
  0
VERTEX
  8
1
 62
7
 10
-10.2375
 20
-2.4375
  0
VERTEX
  8
1
 62
7
 10
-10.2375
 20
5.36250000000001
  0
SEQEND
  8
1
  0
LINE
  8
1
 62
7
 10
5.3625
 20
5.3625
 11
5.3625
 21
2.4375
  0
LINE
  8
1
 62
7
 10
5.3625
 20
0.4875
 11
5.3625
 21
-2.4375
  0
LINE
  8
1
 62
7
 10
-12.1875
 20
5.3625
 11
-12.1875
 21
-2.4375
  0
LINE
  8
1
 62
7
 10
-12.1875
 20
5.3625
 11
5.3625
 21
5.3625
  0
LINE
  8
1
 62
7
 10
-12.1875
 20
-2.4375
 11
5.3625
 21
-2.4375
  0
POLYLINE
  8
1
 62
7
 66
1
  0
VERTEX
  8
1
 62
7
 10
-5.3625
 20
2.4375
  0
VERTEX
  8
1
 62
7
 10
12.1875
 20
2.4375
  0
VERTEX
  8
1
 62
7
 10
12.1875
 20
0.487500000000011
  0
VERTEX
  8
1
 62
7
 10
-5.3625
 20
0.487500000000011
  0
SEQEND
  8
1
  0
LINE
  8
1
 62
7
 10
6.3375
 20
6.3375
 11
6.3375
 21
2.4375
  0
LINE
  8
1
 62
7
 10
-10.2375
 20
6.3375
 11
7.3125
 21
6.3375
  0
CIRCLE
  8
CONNECTIONS
 62
7
 10
-11.2125
 20
-6.3375
 40
0
  0
CIRCLE
  8
CONNECTIONS
 62
7
 10
4.3875
 20
-6.3375
 40
0
  0
ENDBLK
  8
0
  0
BLOCK
  8
0
  2
B115465_00993166
 70
0
 10
0
 20
0
  0
LINE
  8
1
 62
7
 10
1.42749907475932
 20
0
 11
1.95
 21
0
  0
LINE
  8
1
 62
7
 10
1.42749907475931
 20
0
 11
-1.95
 21
1.95
  0
LINE
  8
1
 62
7
 10
-1.95
 20
1.95
 11
-1.95
 21
-1.95
  0
LINE
  8
1
 62
7
 10
1.42749907475931
 20
0
 11
-1.95
 21
-1.95
  0
CIRCLE
  8
CONNECTIONS
 62
7
 10
1.95000000000001
 20
0
 40
0
  0
ENDBLK
  8
0
  0
BLOCK
  8
0
  2
B155056
 70
0
 10
0
 20
0
  0
CIRCLE
  8
CONNECTIONS
 62
7
 10
0
 20
0
 40
0
  0
CIRCLE
  8
CONNECTIONS
 62
7
 10
0
 20
0
 40
0
  0
CIRCLE
  8
CONNECTIONS
 62
7
 10
0
 20
0
 40
0
  0
CIRCLE
  8
CONNECTIONS
 62
7
 10
0
 20
0
 40
0
  0
ENDBLK
  8
0
  0
BLOCK
  8
0
  2
B413907
 70
0
 10
0
 20
0
  0
CIRCLE
  8
CONNECTIONS
 62
7
 10
0
 20
0
 40
0
  0
ENDBLK
  8
0
  0
BLOCK
  8
0
  2
B413909
 70
0
 10
0
 20
0
  0
CIRCLE
  8
CONNECTIONS
 62
7
 10
0
 20
0
 40
0
  0
ENDBLK
  8
0
  0
BLOCK
  8
0
  2
B422903_00992233
 70
0
 10
0
 20
0
  0
TEXT
  8
1
 62
7
 40
2.413125
 41
0.75
  1
14
  7
STANDARD
 73
2
 10
-15.8265345859528
 20
6.045
 11
-15.8265345859528
 21
6.045
  0
LINE
  8
1
 62
7
 10
16.0875
 20
4.095
 11
16.0875
 21
7.995
  0
LINE
  8
1
 62
7
 10
8.2875
 20
-3.705
 11
8.2875
 21
-7.605
  0
LINE
  8
1
 62
7
 10
8.2875
 20
7.995
 11
8.2875
 21
4.095
  0
LINE
  8
1
 62
7
 10
12.1875
 20
-3.705
 11
12.1875
 21
-7.605
  0
LINE
  8
1
 62
7
 10
16.0875
 20
-3.705
 11
16.0875
 21
-7.605
  0
LINE
  8
1
 62
7
 10
-15.1125
 20
3.6075
 11
-11.2125
 21
3.6075
  0
LINE
  8
1
 62
7
 10
-15.1125
 20
4.095
 11
-15.1125
 21
1.17
  0
LINE
  8
1
 62
7
 10
-15.1125
 20
1.6575
 11
-11.2125
 21
1.6575
  0
LINE
  8
1
 62
7
 10
-11.2125
 20
0.195000000000002
 11
-11.2125
 21
4.095
  0
LINE
  8
1
 62
7
 10
-15.1125
 20
-3.705
 11
-13.1625
 21
0.195000000000002
  0
POLYLINE
  8
1
 62
7
 66
1
  0
VERTEX
  8
1
 62
7
 10
-17.0625
 20
0.194999999999993
  0
VERTEX
  8
1
 62
7
 10
-11.2125
 20
0.194999999999993
  0
VERTEX
  8
1
 62
7
 10
-11.2125
 20
-3.70500000000004
  0
VERTEX
  8
1
 62
7
 10
-17.0625
 20
-3.70500000000004
  0
VERTEX
  8
1
 62
7
 10
-17.0625
 20
0.194999999999993
  0
SEQEND
  8
1
  0
LINE
  8
1
 62
7
 10
18.0375
 20
4.095
 11
18.0375
 21
7.995
  0
POLYLINE
  8
1
 62
7
 66
1
  0
VERTEX
  8
1
 62
7
 10
22.9125
 20
6.04499999999996
  0
VERTEX
  8
1
 62
7
 10
22.5062499999999
 20
4.09499999999997
  0
VERTEX
  8
1
 62
7
 10
21.69375
 20
7.99499999999995
  0
VERTEX
  8
1
 62
7
 10
20.88125
 20
4.09499999999997
  0
VERTEX
  8
1
 62
7
 10
20.06875
 20
7.99499999999995
  0
VERTEX
  8
1
 62
7
 10
19.25625
 20
4.09499999999997
  0
VERTEX
  8
1
 62
7
 10
18.44375
 20
7.99499999999995
  0
VERTEX
  8
1
 62
7
 10
18.0375
 20
6.04499999999996
  0
SEQEND
  8
1
  0
POLYLINE
  8
1
 62
7
 66
1
  0
VERTEX
  8
1
 62
7
 10
18.0375
 20
0.194999999999993
  0
VERTEX
  8
1
 62
7
 10
23.8875
 20
0.194999999999993
  0
VERTEX
  8
1
 62
7
 10
23.8875
 20
-3.70500000000004
  0
VERTEX
  8
1
 62
7
 10
18.0375
 20
-3.70500000000004
  0
VERTEX
  8
1
 62
7
 10
18.0375
 20
0.194999999999993
  0
SEQEND
  8
1
  0
LINE
  8
1
 62
7
 10
20.5100009252407
 20
-1.755
 11
23.8875
 21
0.195000000000002
  0
LINE
  8
1
 62
7
 10
20.5100009252407
 20
-1.755
 11
18.0375
 21
-1.755
  0
LINE
  8
1
 62
7
 10
23.8875
 20
-3.705
 11
20.5100009252407
 21
-1.755
  0
LINE
  8
1
 62
7
 10
-11.2125
 20
0.195000000000002
 11
-11.2125
 21
-3.705
  0
POLYLINE
  8
1
 62
7
 66
1
  0
VERTEX
  8
1
 62
7
 10
-11.2125
 20
0.194999999999993
  0
VERTEX
  8
1
 62
7
 10
-5.3625
 20
0.194999999999993
  0
VERTEX
  8
1
 62
7
 10
-5.3625
 20
-3.70500000000004
  0
VERTEX
  8
1
 62
7
 10
-11.2125
 20
-3.70500000000004
  0
VERTEX
  8
1
 62
7
 10
-11.2125
 20
0.194999999999993
  0
SEQEND
  8
1
  0
LINE
  8
1
 62
7
 10
-11.2125
 20
0.195000000000002
 11
-7.83500092524069
 21
-1.755
  0
LINE
  8
1
 62
7
 10
-11.2125
 20
-3.705
 11
-7.83500092524069
 21
-1.755
  0
LINE
  8
1
 62
7
 10
4.3875
 20
-3.705
 11
4.3875
 21
4.095
  0
INSERT
  8
1
  2
LCA1
 10
4.3875
 20
4.095
 50
90
  0
INSERT
  8
1
  2
LCA1R
 10
4.3875
 20
-3.705
 50
90
  0
LINE
  8
1
 62
7
 10
-3.4125
 20
-3.705
 11
-3.4125
 21
-1.755
  0
INSERT
  8
1
  2
LCBP1
 10
-3.4125
 20
-1.755
 50
90
  0
POLYLINE
  8
1
 62
7
 66
1
  0
VERTEX
  8
1
 62
7
 10
-5.3625
 20
4.09499999999997
  0
VERTEX
  8
1
 62
7
 10
6.3375
 20
4.09499999999997
  0
VERTEX
  8
1
 62
7
 10
6.3375
 20
-3.70500000000004
  0
VERTEX
  8
1
 62
7
 10
-5.3625
 20
-3.70500000000004
  0
VERTEX
  8
1
 62
7
 10
-5.3625
 20
4.09499999999997
  0
SEQEND
  8
1
  0
LINE
  8
1
 62
7
 10
0.4875
 20
-3.705
 11
-3.4125
 21
4.095
  0
INSERT
  8
1
  2
LCA1
 10
-3.4125
 20
4.095
 50
116.565051177078
  0
LINE
  8
1
 62
7
 10
8.2875
 20
-3.705
 11
8.2875
 21
4.095
  0
INSERT
  8
1
  2
LCA1
 10
8.2875
 20
4.095
 50
90
  0
INSERT
  8
1
  2
LCA1R
 10
8.2875
 20
-3.705
 50
90
  0
LINE
  8
1
 62
7
 10
16.0875
 20
-3.705
 11
16.0875
 21
-1.755
  0
INSERT
  8
1
  2
LCBP1
 10
16.0875
 20
-1.755
 50
90
  0
POLYLINE
  8
1
 62
7
 66
1
  0
VERTEX
  8
1
 62
7
 10
6.3375
 20
4.09499999999997
  0
VERTEX
  8
1
 62
7
 10
18.0375
 20
4.09499999999997
  0
VERTEX
  8
1
 62
7
 10
18.0375
 20
-3.70500000000004
  0
VERTEX
  8
1
 62
7
 10
6.3375
 20
-3.70500000000004
  0
VERTEX
  8
1
 62
7
 10
6.3375
 20
4.09499999999997
  0
SEQEND
  8
1
  0
LINE
  8
1
 62
7
 10
12.1875
 20
-3.705
 11
16.0875
 21
4.095
  0
INSERT
  8
1
  2
LCA1
 10
16.0875
 20
4.095
 50
63.434948822922
  0
CIRCLE
  8
CONNECTIONS
 62
7
 10
8.2875
 20
7.995
 40
0
  0
CIRCLE
  8
CONNECTIONS
 62
7
 10
16.0875
 20
7.995
 40
0
  0
CIRCLE
  8
CONNECTIONS
 62
7
 10
16.0875
 20
-7.605
 40
0
  0
CIRCLE
  8
CONNECTIONS
 62
7
 10
12.1875
 20
-7.605
 40
0
  0
CIRCLE
  8
CONNECTIONS
 62
7
 10
8.2875
 20
-7.605
 40
0
  0
CIRCLE
  8
CONNECTIONS
 62
7
 10
-17.0773670291901
 20
-1.755
 40
0
  0
ENDBLK
  8
0
  0
BLOCK
  8
0
  2
B422909
 70
0
 10
0
 20
0
  0
TEXT
  8
1
 62
7
 40
2.34
 41
0.75
  1
1
  7
STANDARD
 72
2
 73
3
 10
1.63599046468735
 20
1.65783818006516
 11
1.63599046468735
 21
1.65783818006516
  0
ENDBLK
  8
0
  0
BLOCK
  8
0
  2
B422910
 70
0
 10
0
 20
0
  0
TEXT
  8
1
 62
7
 40
2.34
 41
0.75
  1
5
  7
STANDARD
 72
2
 73
3
 10
1.63599046468735
 20
1.65783818006516
 11
1.63599046468735
 21
1.65783818006516
  0
ENDBLK
  8
0
  0
BLOCK
  8
0
  2
B422911
 70
0
 10
0
 20
0
  0
TEXT
  8
1
 62
7
 40
2.34
 41
0.75
  1
3
  7
STANDARD
 73
3
 10
-1.63599046468735
 20
1.65783818006516
 11
-1.63599046468735
 21
1.65783818006516
  0
ENDBLK
  8
0
  0
BLOCK
  8
0
  2
B422912
 70
0
 10
0
 20
0
  0
TEXT
  8
1
 62
7
 40
2.34
 41
0.75
  1
4
  7
STANDARD
 72
2
 10
1.63599046468735
 20
-1.07283818006515
 11
1.63599046468735
 21
-1.07283818006515
  0
ENDBLK
  8
0
  0
BLOCK
  8
0
  2
B422913
 70
0
 10
0
 20
0
  0
TEXT
  8
1
 62
7
 40
2.34
 41
0.75
  1
2
  7
STANDARD
 72
2
 10
1.63599046468735
 20
-1.07283818006515
 11
1.63599046468735
 21
-1.07283818006515
  0
ENDBLK
  8
0
  0
BLOCK
  8
0
  2
B450328_00992233
 70
0
 10
0
 20
0
  0
TEXT
  8
1
 62
7
 40
2.413125
 41
0.75
  1
14
  7
STANDARD
 73
2
 10
-15.8265345859528
 20
6.045
 11
-15.8265345859528
 21
6.045
  0
LINE
  8
1
 62
7
 10
16.0875
 20
4.095
 11
16.0875
 21
7.995
  0
LINE
  8
1
 62
7
 10
8.2875
 20
-3.705
 11
8.2875
 21
-7.605
  0
LINE
  8
1
 62
7
 10
8.2875
 20
7.995
 11
8.2875
 21
4.095
  0
LINE
  8
1
 62
7
 10
12.1875
 20
-3.705
 11
12.1875
 21
-7.605
  0
LINE
  8
1
 62
7
 10
16.0875
 20
-3.705
 11
16.0875
 21
-7.605
  0
LINE
  8
1
 62
7
 10
-15.1125
 20
3.6075
 11
-11.2125
 21
3.6075
  0
LINE
  8
1
 62
7
 10
-15.1125
 20
4.095
 11
-15.1125
 21
1.17
  0
LINE
  8
1
 62
7
 10
-15.1125
 20
1.6575
 11
-11.2125
 21
1.6575
  0
LINE
  8
1
 62
7
 10
-11.2125
 20
0.195000000000002
 11
-11.2125
 21
4.095
  0
LINE
  8
1
 62
7
 10
-15.1125
 20
-3.705
 11
-13.1625
 21
0.195000000000002
  0
POLYLINE
  8
1
 62
7
 66
1
  0
VERTEX
  8
1
 62
7
 10
-17.0625
 20
0.194999999999993
  0
VERTEX
  8
1
 62
7
 10
-11.2125
 20
0.194999999999993
  0
VERTEX
  8
1
 62
7
 10
-11.2125
 20
-3.70500000000004
  0
VERTEX
  8
1
 62
7
 10
-17.0625
 20
-3.70500000000004
  0
VERTEX
  8
1
 62
7
 10
-17.0625
 20
0.194999999999993
  0
SEQEND
  8
1
  0
LINE
  8
1
 62
7
 10
18.0375
 20
4.095
 11
18.0375
 21
7.995
  0
POLYLINE
  8
1
 62
7
 66
1
  0
VERTEX
  8
1
 62
7
 10
22.9125
 20
6.04499999999996
  0
VERTEX
  8
1
 62
7
 10
22.5062499999999
 20
4.09499999999997
  0
VERTEX
  8
1
 62
7
 10
21.69375
 20
7.99499999999995
  0
VERTEX
  8
1
 62
7
 10
20.88125
 20
4.09499999999997
  0
VERTEX
  8
1
 62
7
 10
20.06875
 20
7.99499999999995
  0
VERTEX
  8
1
 62
7
 10
19.25625
 20
4.09499999999997
  0
VERTEX
  8
1
 62
7
 10
18.44375
 20
7.99499999999995
  0
VERTEX
  8
1
 62
7
 10
18.0375
 20
6.04499999999996
  0
SEQEND
  8
1
  0
POLYLINE
  8
1
 62
7
 66
1
  0
VERTEX
  8
1
 62
7
 10
18.0375
 20
0.194999999999993
  0
VERTEX
  8
1
 62
7
 10
23.8875
 20
0.194999999999993
  0
VERTEX
  8
1
 62
7
 10
23.8875
 20
-3.70500000000004
  0
VERTEX
  8
1
 62
7
 10
18.0375
 20
-3.70500000000004
  0
VERTEX
  8
1
 62
7
 10
18.0375
 20
0.194999999999993
  0
SEQEND
  8
1
  0
LINE
  8
1
 62
7
 10
20.5100009252407
 20
-1.755
 11
23.8875
 21
0.195000000000002
  0
LINE
  8
1
 62
7
 10
20.5100009252407
 20
-1.755
 11
18.0375
 21
-1.755
  0
LINE
  8
1
 62
7
 10
23.8875
 20
-3.705
 11
20.5100009252407
 21
-1.755
  0
LINE
  8
1
 62
7
 10
-11.2125
 20
0.195000000000002
 11
-11.2125
 21
-3.705
  0
POLYLINE
  8
1
 62
7
 66
1
  0
VERTEX
  8
1
 62
7
 10
-11.2125
 20
0.194999999999993
  0
VERTEX
  8
1
 62
7
 10
-5.3625
 20
0.194999999999993
  0
VERTEX
  8
1
 62
7
 10
-5.3625
 20
-3.70500000000004
  0
VERTEX
  8
1
 62
7
 10
-11.2125
 20
-3.70500000000004
  0
VERTEX
  8
1
 62
7
 10
-11.2125
 20
0.194999999999993
  0
SEQEND
  8
1
  0
LINE
  8
1
 62
7
 10
-11.2125
 20
0.195000000000002
 11
-7.83500092524069
 21
-1.755
  0
LINE
  8
1
 62
7
 10
-11.2125
 20
-3.705
 11
-7.83500092524069
 21
-1.755
  0
LINE
  8
1
 62
7
 10
4.3875
 20
-3.705
 11
4.3875
 21
4.095
  0
INSERT
  8
1
  2
LCA1
 10
4.3875
 20
4.095
 50
90
  0
INSERT
  8
1
  2
LCA1R
 10
4.3875
 20
-3.705
 50
90
  0
LINE
  8
1
 62
7
 10
-3.4125
 20
-3.705
 11
-3.4125
 21
-1.755
  0
INSERT
  8
1
  2
LCBP1
 10
-3.4125
 20
-1.755
 50
90
  0
POLYLINE
  8
1
 62
7
 66
1
  0
VERTEX
  8
1
 62
7
 10
-5.3625
 20
4.09499999999997
  0
VERTEX
  8
1
 62
7
 10
6.3375
 20
4.09499999999997
  0
VERTEX
  8
1
 62
7
 10
6.3375
 20
-3.70500000000004
  0
VERTEX
  8
1
 62
7
 10
-5.3625
 20
-3.70500000000004
  0
VERTEX
  8
1
 62
7
 10
-5.3625
 20
4.09499999999997
  0
SEQEND
  8
1
  0
LINE
  8
1
 62
7
 10
0.4875
 20
-3.705
 11
-3.4125
 21
4.095
  0
INSERT
  8
1
  2
LCA1
 10
-3.4125
 20
4.095
 50
116.565051177078
  0
LINE
  8
1
 62
7
 10
8.2875
 20
-3.705
 11
8.2875
 21
4.095
  0
INSERT
  8
1
  2
LCA1
 10
8.2875
 20
4.095
 50
90
  0
INSERT
  8
1
  2
LCA1R
 10
8.2875
 20
-3.705
 50
90
  0
LINE
  8
1
 62
7
 10
16.0875
 20
-3.705
 11
16.0875
 21
-1.755
  0
INSERT
  8
1
  2
LCBP1
 10
16.0875
 20
-1.755
 50
90
  0
POLYLINE
  8
1
 62
7
 66
1
  0
VERTEX
  8
1
 62
7
 10
6.3375
 20
4.09499999999997
  0
VERTEX
  8
1
 62
7
 10
18.0375
 20
4.09499999999997
  0
VERTEX
  8
1
 62
7
 10
18.0375
 20
-3.70500000000004
  0
VERTEX
  8
1
 62
7
 10
6.3375
 20
-3.70500000000004
  0
VERTEX
  8
1
 62
7
 10
6.3375
 20
4.09499999999997
  0
SEQEND
  8
1
  0
LINE
  8
1
 62
7
 10
12.1875
 20
-3.705
 11
16.0875
 21
4.095
  0
INSERT
  8
1
  2
LCA1
 10
16.0875
 20
4.095
 50
63.434948822922
  0
CIRCLE
  8
CONNECTIONS
 62
7
 10
8.2875
 20
7.995
 40
0
  0
CIRCLE
  8
CONNECTIONS
 62
7
 10
16.0875
 20
7.995
 40
0
  0
CIRCLE
  8
CONNECTIONS
 62
7
 10
16.0875
 20
-7.605
 40
0
  0
CIRCLE
  8
CONNECTIONS
 62
7
 10
12.1875
 20
-7.605
 40
0
  0
CIRCLE
  8
CONNECTIONS
 62
7
 10
8.2875
 20
-7.605
 40
0
  0
CIRCLE
  8
CONNECTIONS
 62
7
 10
-17.0773670291901
 20
-1.755
 40
0
  0
ENDBLK
  8
0
  0
BLOCK
  8
0
  2
B450334
 70
0
 10
0
 20
0
  0
TEXT
  8
1
 62
7
 40
2.34
 41
0.75
  1
1
  7
STANDARD
 72
2
 73
3
 10
1.63599046468735
 20
1.65783818006516
 11
1.63599046468735
 21
1.65783818006516
  0
ENDBLK
  8
0
  0
BLOCK
  8
0
  2
B450335
 70
0
 10
0
 20
0
  0
TEXT
  8
1
 62
7
 40
2.34
 41
0.75
  1
5
  7
STANDARD
 72
2
 73
3
 10
1.63599046468735
 20
1.65783818006516
 11
1.63599046468735
 21
1.65783818006516
  0
ENDBLK
  8
0
  0
BLOCK
  8
0
  2
B450336
 70
0
 10
0
 20
0
  0
TEXT
  8
1
 62
7
 40
2.34
 41
0.75
  1
3
  7
STANDARD
 73
3
 10
-1.63599046468735
 20
1.65783818006516
 11
-1.63599046468735
 21
1.65783818006516
  0
ENDBLK
  8
0
  0
BLOCK
  8
0
  2
B450337
 70
0
 10
0
 20
0
  0
TEXT
  8
1
 62
7
 40
2.34
 41
0.75
  1
4
  7
STANDARD
 72
2
 10
1.63599046468735
 20
-1.07283818006515
 11
1.63599046468735
 21
-1.07283818006515
  0
ENDBLK
  8
0
  0
BLOCK
  8
0
  2
B450338
 70
0
 10
0
 20
0
  0
TEXT
  8
1
 62
7
 40
2.34
 41
0.75
  1
2
  7
STANDARD
 72
2
 10
1.63599046468735
 20
-1.07283818006515
 11
1.63599046468735
 21
-1.07283818006515
  0
ENDBLK
  8
0
  0
BLOCK
  8
0
  2
B452482
 70
0
 10
0
 20
0
  0
CIRCLE
  8
CONNECTIONS
 62
7
 10
0
 20
0
 40
0
  0
CIRCLE
  8
CONNECTIONS
 62
7
 10
0
 20
0
 40
0
  0
CIRCLE
  8
CONNECTIONS
 62
7
 10
0
 20
0
 40
0
  0
CIRCLE
  8
CONNECTIONS
 62
7
 10
0
 20
0
 40
0
  0
ENDBLK
  8
0
  0
BLOCK
  8
0
  2
B456573_00992233
 70
0
 10
0
 20
0
  0
TEXT
  8
1
 62
7
 40
2.413125
 41
0.75
  1
14
  7
STANDARD
 73
2
 10
-15.8265345859528
 20
6.045
 11
-15.8265345859528
 21
6.045
  0
LINE
  8
1
 62
7
 10
16.0875
 20
4.095
 11
16.0875
 21
7.995
  0
LINE
  8
1
 62
7
 10
8.2875
 20
-3.705
 11
8.2875
 21
-7.605
  0
LINE
  8
1
 62
7
 10
8.2875
 20
7.995
 11
8.2875
 21
4.095
  0
LINE
  8
1
 62
7
 10
12.1875
 20
-3.705
 11
12.1875
 21
-7.605
  0
LINE
  8
1
 62
7
 10
16.0875
 20
-3.705
 11
16.0875
 21
-7.605
  0
LINE
  8
1
 62
7
 10
-15.1125
 20
3.6075
 11
-11.2125
 21
3.6075
  0
LINE
  8
1
 62
7
 10
-15.1125
 20
4.095
 11
-15.1125
 21
1.17
  0
LINE
  8
1
 62
7
 10
-15.1125
 20
1.6575
 11
-11.2125
 21
1.6575
  0
LINE
  8
1
 62
7
 10
-11.2125
 20
0.195000000000002
 11
-11.2125
 21
4.095
  0
LINE
  8
1
 62
7
 10
-15.1125
 20
-3.705
 11
-13.1625
 21
0.195000000000002
  0
POLYLINE
  8
1
 62
7
 66
1
  0
VERTEX
  8
1
 62
7
 10
-17.0625
 20
0.194999999999993
  0
VERTEX
  8
1
 62
7
 10
-11.2125
 20
0.194999999999993
  0
VERTEX
  8
1
 62
7
 10
-11.2125
 20
-3.70500000000004
  0
VERTEX
  8
1
 62
7
 10
-17.0625
 20
-3.70500000000004
  0
VERTEX
  8
1
 62
7
 10
-17.0625
 20
0.194999999999993
  0
SEQEND
  8
1
  0
LINE
  8
1
 62
7
 10
18.0375
 20
4.095
 11
18.0375
 21
7.995
  0
POLYLINE
  8
1
 62
7
 66
1
  0
VERTEX
  8
1
 62
7
 10
22.9125
 20
6.04499999999996
  0
VERTEX
  8
1
 62
7
 10
22.5062499999999
 20
4.09499999999997
  0
VERTEX
  8
1
 62
7
 10
21.69375
 20
7.99499999999995
  0
VERTEX
  8
1
 62
7
 10
20.88125
 20
4.09499999999997
  0
VERTEX
  8
1
 62
7
 10
20.06875
 20
7.99499999999995
  0
VERTEX
  8
1
 62
7
 10
19.25625
 20
4.09499999999997
  0
VERTEX
  8
1
 62
7
 10
18.44375
 20
7.99499999999995
  0
VERTEX
  8
1
 62
7
 10
18.0375
 20
6.04499999999996
  0
SEQEND
  8
1
  0
POLYLINE
  8
1
 62
7
 66
1
  0
VERTEX
  8
1
 62
7
 10
18.0375
 20
0.194999999999993
  0
VERTEX
  8
1
 62
7
 10
23.8875
 20
0.194999999999993
  0
VERTEX
  8
1
 62
7
 10
23.8875
 20
-3.70500000000004
  0
VERTEX
  8
1
 62
7
 10
18.0375
 20
-3.70500000000004
  0
VERTEX
  8
1
 62
7
 10
18.0375
 20
0.194999999999993
  0
SEQEND
  8
1
  0
LINE
  8
1
 62
7
 10
20.5100009252407
 20
-1.755
 11
23.8875
 21
0.195000000000002
  0
LINE
  8
1
 62
7
 10
20.5100009252407
 20
-1.755
 11
18.0375
 21
-1.755
  0
LINE
  8
1
 62
7
 10
23.8875
 20
-3.705
 11
20.5100009252407
 21
-1.755
  0
LINE
  8
1
 62
7
 10
-11.2125
 20
0.195000000000002
 11
-11.2125
 21
-3.705
  0
POLYLINE
  8
1
 62
7
 66
1
  0
VERTEX
  8
1
 62
7
 10
-11.2125
 20
0.194999999999993
  0
VERTEX
  8
1
 62
7
 10
-5.3625
 20
0.194999999999993
  0
VERTEX
  8
1
 62
7
 10
-5.3625
 20
-3.70500000000004
  0
VERTEX
  8
1
 62
7
 10
-11.2125
 20
-3.70500000000004
  0
VERTEX
  8
1
 62
7
 10
-11.2125
 20
0.194999999999993
  0
SEQEND
  8
1
  0
LINE
  8
1
 62
7
 10
-11.2125
 20
0.195000000000002
 11
-7.83500092524069
 21
-1.755
  0
LINE
  8
1
 62
7
 10
-11.2125
 20
-3.705
 11
-7.83500092524069
 21
-1.755
  0
LINE
  8
1
 62
7
 10
4.3875
 20
-3.705
 11
4.3875
 21
4.095
  0
INSERT
  8
1
  2
LCA1
 10
4.3875
 20
4.095
 50
90
  0
INSERT
  8
1
  2
LCA1R
 10
4.3875
 20
-3.705
 50
90
  0
LINE
  8
1
 62
7
 10
-3.4125
 20
-3.705
 11
-3.4125
 21
-1.755
  0
INSERT
  8
1
  2
LCBP1
 10
-3.4125
 20
-1.755
 50
90
  0
POLYLINE
  8
1
 62
7
 66
1
  0
VERTEX
  8
1
 62
7
 10
-5.3625
 20
4.09499999999997
  0
VERTEX
  8
1
 62
7
 10
6.3375
 20
4.09499999999997
  0
VERTEX
  8
1
 62
7
 10
6.3375
 20
-3.70500000000004
  0
VERTEX
  8
1
 62
7
 10
-5.3625
 20
-3.70500000000004
  0
VERTEX
  8
1
 62
7
 10
-5.3625
 20
4.09499999999997
  0
SEQEND
  8
1
  0
LINE
  8
1
 62
7
 10
0.4875
 20
-3.705
 11
-3.4125
 21
4.095
  0
INSERT
  8
1
  2
LCA1
 10
-3.4125
 20
4.095
 50
116.565051177078
  0
LINE
  8
1
 62
7
 10
8.2875
 20
-3.705
 11
8.2875
 21
4.095
  0
INSERT
  8
1
  2
LCA1
 10
8.2875
 20
4.095
 50
90
  0
INSERT
  8
1
  2
LCA1R
 10
8.2875
 20
-3.705
 50
90
  0
LINE
  8
1
 62
7
 10
16.0875
 20
-3.705
 11
16.0875
 21
-1.755
  0
INSERT
  8
1
  2
LCBP1
 10
16.0875
 20
-1.755
 50
90
  0
POLYLINE
  8
1
 62
7
 66
1
  0
VERTEX
  8
1
 62
7
 10
6.3375
 20
4.09499999999997
  0
VERTEX
  8
1
 62
7
 10
18.0375
 20
4.09499999999997
  0
VERTEX
  8
1
 62
7
 10
18.0375
 20
-3.70500000000004
  0
VERTEX
  8
1
 62
7
 10
6.3375
 20
-3.70500000000004
  0
VERTEX
  8
1
 62
7
 10
6.3375
 20
4.09499999999997
  0
SEQEND
  8
1
  0
LINE
  8
1
 62
7
 10
12.1875
 20
-3.705
 11
16.0875
 21
4.095
  0
INSERT
  8
1
  2
LCA1
 10
16.0875
 20
4.095
 50
63.434948822922
  0
CIRCLE
  8
CONNECTIONS
 62
7
 10
8.2875
 20
7.995
 40
0
  0
CIRCLE
  8
CONNECTIONS
 62
7
 10
16.0875
 20
7.995
 40
0
  0
CIRCLE
  8
CONNECTIONS
 62
7
 10
16.0875
 20
-7.605
 40
0
  0
CIRCLE
  8
CONNECTIONS
 62
7
 10
12.1875
 20
-7.605
 40
0
  0
CIRCLE
  8
CONNECTIONS
 62
7
 10
8.2875
 20
-7.605
 40
0
  0
CIRCLE
  8
CONNECTIONS
 62
7
 10
-17.0773670291901
 20
-1.755
 40
0
  0
ENDBLK
  8
0
  0
BLOCK
  8
0
  2
B456579
 70
0
 10
0
 20
0
  0
TEXT
  8
1
 62
7
 40
2.34
 41
0.75
  1
1
  7
STANDARD
 72
2
 73
3
 10
1.63599046468735
 20
1.65783818006516
 11
1.63599046468735
 21
1.65783818006516
  0
ENDBLK
  8
0
  0
BLOCK
  8
0
  2
B456580
 70
0
 10
0
 20
0
  0
TEXT
  8
1
 62
7
 40
2.34
 41
0.75
  1
5
  7
STANDARD
 72
2
 73
3
 10
1.63599046468735
 20
1.65783818006516
 11
1.63599046468735
 21
1.65783818006516
  0
ENDBLK
  8
0
  0
BLOCK
  8
0
  2
B456581
 70
0
 10
0
 20
0
  0
TEXT
  8
1
 62
7
 40
2.34
 41
0.75
  1
3
  7
STANDARD
 73
3
 10
-1.63599046468735
 20
1.65783818006516
 11
-1.63599046468735
 21
1.65783818006516
  0
ENDBLK
  8
0
  0
BLOCK
  8
0
  2
B456582
 70
0
 10
0
 20
0
  0
TEXT
  8
1
 62
7
 40
2.34
 41
0.75
  1
4
  7
STANDARD
 72
2
 10
1.63599046468735
 20
-1.07283818006515
 11
1.63599046468735
 21
-1.07283818006515
  0
ENDBLK
  8
0
  0
BLOCK
  8
0
  2
B456583
 70
0
 10
0
 20
0
  0
TEXT
  8
1
 62
7
 40
2.34
 41
0.75
  1
2
  7
STANDARD
 72
2
 10
1.63599046468735
 20
-1.07283818006515
 11
1.63599046468735
 21
-1.07283818006515
  0
ENDBLK
  8
0
  0
BLOCK
  8
0
  2
B459857_00992233
 70
0
 10
0
 20
0
  0
TEXT
  8
1
 62
7
 40
2.413125
 41
0.75
  1
14
  7
STANDARD
 73
2
 10
-15.8265345859528
 20
6.045
 11
-15.8265345859528
 21
6.045
  0
LINE
  8
1
 62
7
 10
16.0875
 20
4.095
 11
16.0875
 21
7.995
  0
LINE
  8
1
 62
7
 10
8.2875
 20
-3.705
 11
8.2875
 21
-7.605
  0
LINE
  8
1
 62
7
 10
8.2875
 20
7.995
 11
8.2875
 21
4.095
  0
LINE
  8
1
 62
7
 10
12.1875
 20
-3.705
 11
12.1875
 21
-7.605
  0
LINE
  8
1
 62
7
 10
16.0875
 20
-3.705
 11
16.0875
 21
-7.605
  0
LINE
  8
1
 62
7
 10
-15.1125
 20
3.6075
 11
-11.2125
 21
3.6075
  0
LINE
  8
1
 62
7
 10
-15.1125
 20
4.095
 11
-15.1125
 21
1.17
  0
LINE
  8
1
 62
7
 10
-15.1125
 20
1.6575
 11
-11.2125
 21
1.6575
  0
LINE
  8
1
 62
7
 10
-11.2125
 20
0.195000000000002
 11
-11.2125
 21
4.095
  0
LINE
  8
1
 62
7
 10
-15.1125
 20
-3.705
 11
-13.1625
 21
0.195000000000002
  0
POLYLINE
  8
1
 62
7
 66
1
  0
VERTEX
  8
1
 62
7
 10
-17.0625
 20
0.194999999999993
  0
VERTEX
  8
1
 62
7
 10
-11.2125
 20
0.194999999999993
  0
VERTEX
  8
1
 62
7
 10
-11.2125
 20
-3.70500000000004
  0
VERTEX
  8
1
 62
7
 10
-17.0625
 20
-3.70500000000004
  0
VERTEX
  8
1
 62
7
 10
-17.0625
 20
0.194999999999993
  0
SEQEND
  8
1
  0
LINE
  8
1
 62
7
 10
18.0375
 20
4.095
 11
18.0375
 21
7.995
  0
POLYLINE
  8
1
 62
7
 66
1
  0
VERTEX
  8
1
 62
7
 10
22.9125
 20
6.04499999999996
  0
VERTEX
  8
1
 62
7
 10
22.5062499999999
 20
4.09499999999997
  0
VERTEX
  8
1
 62
7
 10
21.69375
 20
7.99499999999995
  0
VERTEX
  8
1
 62
7
 10
20.88125
 20
4.09499999999997
  0
VERTEX
  8
1
 62
7
 10
20.06875
 20
7.99499999999995
  0
VERTEX
  8
1
 62
7
 10
19.25625
 20
4.09499999999997
  0
VERTEX
  8
1
 62
7
 10
18.44375
 20
7.99499999999995
  0
VERTEX
  8
1
 62
7
 10
18.0375
 20
6.04499999999996
  0
SEQEND
  8
1
  0
POLYLINE
  8
1
 62
7
 66
1
  0
VERTEX
  8
1
 62
7
 10
18.0375
 20
0.194999999999993
  0
VERTEX
  8
1
 62
7
 10
23.8875
 20
0.194999999999993
  0
VERTEX
  8
1
 62
7
 10
23.8875
 20
-3.70500000000004
  0
VERTEX
  8
1
 62
7
 10
18.0375
 20
-3.70500000000004
  0
VERTEX
  8
1
 62
7
 10
18.0375
 20
0.194999999999993
  0
SEQEND
  8
1
  0
LINE
  8
1
 62
7
 10
20.5100009252407
 20
-1.755
 11
23.8875
 21
0.195000000000002
  0
LINE
  8
1
 62
7
 10
20.5100009252407
 20
-1.755
 11
18.0375
 21
-1.755
  0
LINE
  8
1
 62
7
 10
23.8875
 20
-3.705
 11
20.5100009252407
 21
-1.755
  0
LINE
  8
1
 62
7
 10
-11.2125
 20
0.195000000000002
 11
-11.2125
 21
-3.705
  0
POLYLINE
  8
1
 62
7
 66
1
  0
VERTEX
  8
1
 62
7
 10
-11.2125
 20
0.194999999999993
  0
VERTEX
  8
1
 62
7
 10
-5.3625
 20
0.194999999999993
  0
VERTEX
  8
1
 62
7
 10
-5.3625
 20
-3.70500000000004
  0
VERTEX
  8
1
 62
7
 10
-11.2125
 20
-3.70500000000004
  0
VERTEX
  8
1
 62
7
 10
-11.2125
 20
0.194999999999993
  0
SEQEND
  8
1
  0
LINE
  8
1
 62
7
 10
-11.2125
 20
0.195000000000002
 11
-7.83500092524069
 21
-1.755
  0
LINE
  8
1
 62
7
 10
-11.2125
 20
-3.705
 11
-7.83500092524069
 21
-1.755
  0
LINE
  8
1
 62
7
 10
4.3875
 20
-3.705
 11
4.3875
 21
4.095
  0
INSERT
  8
1
  2
LCA1
 10
4.3875
 20
4.095
 50
90
  0
INSERT
  8
1
  2
LCA1R
 10
4.3875
 20
-3.705
 50
90
  0
LINE
  8
1
 62
7
 10
-3.4125
 20
-3.705
 11
-3.4125
 21
-1.755
  0
INSERT
  8
1
  2
LCBP1
 10
-3.4125
 20
-1.755
 50
90
  0
POLYLINE
  8
1
 62
7
 66
1
  0
VERTEX
  8
1
 62
7
 10
-5.3625
 20
4.09499999999997
  0
VERTEX
  8
1
 62
7
 10
6.3375
 20
4.09499999999997
  0
VERTEX
  8
1
 62
7
 10
6.3375
 20
-3.70500000000004
  0
VERTEX
  8
1
 62
7
 10
-5.3625
 20
-3.70500000000004
  0
VERTEX
  8
1
 62
7
 10
-5.3625
 20
4.09499999999997
  0
SEQEND
  8
1
  0
LINE
  8
1
 62
7
 10
0.4875
 20
-3.705
 11
-3.4125
 21
4.095
  0
INSERT
  8
1
  2
LCA1
 10
-3.4125
 20
4.095
 50
116.565051177078
  0
LINE
  8
1
 62
7
 10
8.2875
 20
-3.705
 11
8.2875
 21
4.095
  0
INSERT
  8
1
  2
LCA1
 10
8.2875
 20
4.095
 50
90
  0
INSERT
  8
1
  2
LCA1R
 10
8.2875
 20
-3.705
 50
90
  0
LINE
  8
1
 62
7
 10
16.0875
 20
-3.705
 11
16.0875
 21
-1.755
  0
INSERT
  8
1
  2
LCBP1
 10
16.0875
 20
-1.755
 50
90
  0
POLYLINE
  8
1
 62
7
 66
1
  0
VERTEX
  8
1
 62
7
 10
6.3375
 20
4.09499999999997
  0
VERTEX
  8
1
 62
7
 10
18.0375
 20
4.09499999999997
  0
VERTEX
  8
1
 62
7
 10
18.0375
 20
-3.70500000000004
  0
VERTEX
  8
1
 62
7
 10
6.3375
 20
-3.70500000000004
  0
VERTEX
  8
1
 62
7
 10
6.3375
 20
4.09499999999997
  0
SEQEND
  8
1
  0
LINE
  8
1
 62
7
 10
12.1875
 20
-3.705
 11
16.0875
 21
4.095
  0
INSERT
  8
1
  2
LCA1
 10
16.0875
 20
4.095
 50
63.434948822922
  0
CIRCLE
  8
CONNECTIONS
 62
7
 10
8.2875
 20
7.995
 40
0
  0
CIRCLE
  8
CONNECTIONS
 62
7
 10
16.0875
 20
7.995
 40
0
  0
CIRCLE
  8
CONNECTIONS
 62
7
 10
16.0875
 20
-7.605
 40
0
  0
CIRCLE
  8
CONNECTIONS
 62
7
 10
12.1875
 20
-7.605
 40
0
  0
CIRCLE
  8
CONNECTIONS
 62
7
 10
8.2875
 20
-7.605
 40
0
  0
CIRCLE
  8
CONNECTIONS
 62
7
 10
-17.0773670291901
 20
-1.755
 40
0
  0
ENDBLK
  8
0
  0
BLOCK
  8
0
  2
B459863
 70
0
 10
0
 20
0
  0
TEXT
  8
1
 62
7
 40
2.34
 41
0.75
  1
1
  7
STANDARD
 72
2
 73
3
 10
1.63599046468735
 20
1.65783818006516
 11
1.63599046468735
 21
1.65783818006516
  0
ENDBLK
  8
0
  0
BLOCK
  8
0
  2
B459864
 70
0
 10
0
 20
0
  0
TEXT
  8
1
 62
7
 40
2.34
 41
0.75
  1
5
  7
STANDARD
 72
2
 73
3
 10
1.63599046468735
 20
1.65783818006516
 11
1.63599046468735
 21
1.65783818006516
  0
ENDBLK
  8
0
  0
BLOCK
  8
0
  2
B459865
 70
0
 10
0
 20
0
  0
TEXT
  8
1
 62
7
 40
2.34
 41
0.75
  1
3
  7
STANDARD
 73
3
 10
-1.63599046468735
 20
1.65783818006516
 11
-1.63599046468735
 21
1.65783818006516
  0
ENDBLK
  8
0
  0
BLOCK
  8
0
  2
B459866
 70
0
 10
0
 20
0
  0
TEXT
  8
1
 62
7
 40
2.34
 41
0.75
  1
4
  7
STANDARD
 72
2
 10
1.63599046468735
 20
-1.07283818006515
 11
1.63599046468735
 21
-1.07283818006515
  0
ENDBLK
  8
0
  0
BLOCK
  8
0
  2
B459867
 70
0
 10
0
 20
0
  0
TEXT
  8
1
 62
7
 40
2.34
 41
0.75
  1
2
  7
STANDARD
 72
2
 10
1.63599046468735
 20
-1.07283818006515
 11
1.63599046468735
 21
-1.07283818006515
  0
ENDBLK
  8
0
  0
BLOCK
  8
0
  2
B462726
 70
0
 10
0
 20
0
  0
CIRCLE
  8
CONNECTIONS
 62
7
 10
0
 20
0
 40
0
  0
CIRCLE
  8
CONNECTIONS
 62
7
 10
0
 20
0
 40
0
  0
CIRCLE
  8
CONNECTIONS
 62
7
 10
0
 20
0
 40
0
  0
CIRCLE
  8
CONNECTIONS
 62
7
 10
0
 20
0
 40
0
  0
ENDBLK
  8
0
  0
BLOCK
  8
0
  2
B465304
 70
0
 10
0
 20
0
  0
CIRCLE
  8
CONNECTIONS
 62
7
 10
0
 20
0
 40
0
  0
CIRCLE
  8
CONNECTIONS
 62
7
 10
0
 20
0
 40
0
  0
CIRCLE
  8
CONNECTIONS
 62
7
 10
0
 20
0
 40
0
  0
CIRCLE
  8
CONNECTIONS
 62
7
 10
0
 20
0
 40
0
  0
ENDBLK
  8
0
  0
BLOCK
  8
0
  2
B470421
 70
0
 10
0
 20
0
  0
CIRCLE
  8
CONNECTIONS
 62
7
 10
0
 20
0
 40
0
  0
CIRCLE
  8
CONNECTIONS
 62
7
 10
0
 20
0
 40
0
  0
CIRCLE
  8
CONNECTIONS
 62
7
 10
0
 20
0
 40
0
  0
CIRCLE
  8
CONNECTIONS
 62
7
 10
0
 20
0
 40
0
  0
ENDBLK
  8
0
  0
BLOCK
  8
0
  2
B528205_00991453
 70
0
 10
0
 20
0
  0
POLYLINE
  8
1
 62
7
 66
1
  0
VERTEX
  8
1
 62
7
 10
-6.825
 20
8.77499999999998
  0
VERTEX
  8
1
 62
7
 10
6.825
 20
8.77499999999998
  0
VERTEX
  8
1
 62
7
 10
6.825
 20
-8.77499999999998
  0
VERTEX
  8
1
 62
7
 10
-6.825
 20
-8.77499999999998
  0
VERTEX
  8
1
 62
7
 10
-6.825
 20
8.77499999999998
  0
SEQEND
  8
1
  0
LINE
  8
1
 62
7
 10
-2.925
 20
8.775
 11
-2.925
 21
12.675
  0
LINE
  8
1
 62
7
 10
-2.925
 20
-8.775
 11
-2.925
 21
-12.675
  0
LINE
  8
1
 62
7
 10
-2.925
 20
-4.875
 11
2.925
 21
-4.875
  0
LINE
  8
1
 62
7
 10
2.925
 20
4.875
 11
-2.925
 21
4.875
  0
LINE
  8
1
 62
7
 10
2.925
 20
4.875
 11
2.925
 21
3.9
  0
LINE
  8
1
 62
7
 10
2.925
 20
-4.875
 11
2.925
 21
-3.9
  0
LINE
  8
1
 62
7
 10
-2.925
 20
4.875
 11
-2.925
 21
8.775
  0
LINE
  8
1
 62
7
 10
-2.925
 20
-8.775
 11
-2.925
 21
-4.875
  0
POLYLINE
  8
1
 62
7
 70
1
 66
1
 40
0.4875
 41
0.4875
  0
VERTEX
  8
1
 10
-3.16875
 20
-4.875
 42
1
  0
VERTEX
  8
1
 10
-2.68125
 20
-4.875
 42
1
  0
SEQEND
  8
1
  0
POLYLINE
  8
1
 62
7
 70
1
 66
1
 40
0.4875
 41
0.4875
  0
VERTEX
  8
1
 10
-3.16875
 20
4.875
 42
1
  0
VERTEX
  8
1
 10
-2.68125
 20
4.875
 42
1
  0
SEQEND
  8
1
  0
LINE
  8
1
 62
7
 10
2.925
 20
3.9
 11
2.925
 21
1.56000000000001
  0
LINE
  8
1
 62
7
 10
2.925
 20
-0.975
 11
2.925
 21
-3.80249999999998
  0
POLYLINE
  8
1
 62
7
 66
1
  0
VERTEX
  8
1
 62
7
 10
0.975
 20
-0.390000000000043
  0
VERTEX
  8
1
 62
7
 10
2.925
 20
1.56
  0
VERTEX
  8
1
 62
7
 10
4.875
 20
-0.390000000000043
  0
SEQEND
  8
1
  0
CIRCLE
  8
1
 62
7
 10
2.925
 20
0.130000000000016
 40
0.975
  0
LINE
  8
1
 62
7
 10
-2.925
 20
4.875
 11
-2.925
 21
-4.875
  0
LINE
  8
1
 62
7
 10
-6.175
 20
-1.43
 11
0.65
 21
1.495
  0
INSERT
  8
1
  2
LCA1
 10
0.65
 20
1.495
 50
23.1985905136482
  0
ARC
  8
1
 62
7
 10
-12.675
 20
0
 40
8.775
 50
340.528596800055
 51
19.4710505793386
  0
ARC
  8
1
 62
7
 10
6.825
 20
0
 40
8.775
 50
160.52865870751
 51
199.47139531546
  0
CIRCLE
  8
CONNECTIONS
 62
7
 10
-2.925
 20
-12.675
 40
0
  0
CIRCLE
  8
CONNECTIONS
 62
7
 10
-2.925
 20
12.675
 40
0
  0
ENDBLK
  8
0
  0
BLOCK
  8
0
  2
B528208
 70
0
 10
0
 20
0
  0
TEXT
  8
1
 62
7
 40
2.34
 41
0.75
  1
2
  7
STANDARD
 73
2
 10
-1.63599046468735
 20
0
 11
-1.63599046468735
 21
0
  0
ENDBLK
  8
0
  0
BLOCK
  8
0
  2
B528209
 70
0
 10
0
 20
0
  0
TEXT
  8
1
 62
7
 40
2.34
 41
0.75
  1
1
  7
STANDARD
 73
2
 10
-1.63599046468735
 20
0
 11
-1.63599046468735
 21
0
  0
ENDBLK
  8
0
  0
BLOCK
  8
0
  2
B549018_00991453
 70
0
 10
0
 20
0
  0
POLYLINE
  8
1
 62
7
 66
1
  0
VERTEX
  8
1
 62
7
 10
-6.825
 20
8.77499999999998
  0
VERTEX
  8
1
 62
7
 10
6.825
 20
8.77499999999998
  0
VERTEX
  8
1
 62
7
 10
6.825
 20
-8.77499999999998
  0
VERTEX
  8
1
 62
7
 10
-6.825
 20
-8.77499999999998
  0
VERTEX
  8
1
 62
7
 10
-6.825
 20
8.77499999999998
  0
SEQEND
  8
1
  0
LINE
  8
1
 62
7
 10
-2.925
 20
8.775
 11
-2.925
 21
12.675
  0
LINE
  8
1
 62
7
 10
-2.925
 20
-8.775
 11
-2.925
 21
-12.675
  0
LINE
  8
1
 62
7
 10
-2.925
 20
-4.875
 11
2.925
 21
-4.875
  0
LINE
  8
1
 62
7
 10
2.925
 20
4.875
 11
-2.925
 21
4.875
  0
LINE
  8
1
 62
7
 10
2.925
 20
4.875
 11
2.925
 21
3.9
  0
LINE
  8
1
 62
7
 10
2.925
 20
-4.875
 11
2.925
 21
-3.9
  0
LINE
  8
1
 62
7
 10
-2.925
 20
4.875
 11
-2.925
 21
8.775
  0
LINE
  8
1
 62
7
 10
-2.925
 20
-8.775
 11
-2.925
 21
-4.875
  0
POLYLINE
  8
1
 62
7
 70
1
 66
1
 40
0.4875
 41
0.4875
  0
VERTEX
  8
1
 10
-3.16875
 20
-4.875
 42
1
  0
VERTEX
  8
1
 10
-2.68125
 20
-4.875
 42
1
  0
SEQEND
  8
1
  0
POLYLINE
  8
1
 62
7
 70
1
 66
1
 40
0.4875
 41
0.4875
  0
VERTEX
  8
1
 10
-3.16875
 20
4.875
 42
1
  0
VERTEX
  8
1
 10
-2.68125
 20
4.875
 42
1
  0
SEQEND
  8
1
  0
LINE
  8
1
 62
7
 10
2.925
 20
3.9
 11
2.925
 21
1.56000000000001
  0
LINE
  8
1
 62
7
 10
2.925
 20
-0.975
 11
2.925
 21
-3.80249999999998
  0
POLYLINE
  8
1
 62
7
 66
1
  0
VERTEX
  8
1
 62
7
 10
0.975
 20
-0.390000000000043
  0
VERTEX
  8
1
 62
7
 10
2.925
 20
1.56
  0
VERTEX
  8
1
 62
7
 10
4.875
 20
-0.390000000000043
  0
SEQEND
  8
1
  0
CIRCLE
  8
1
 62
7
 10
2.925
 20
0.130000000000016
 40
0.975
  0
LINE
  8
1
 62
7
 10
-2.925
 20
4.875
 11
-2.925
 21
-4.875
  0
LINE
  8
1
 62
7
 10
-6.175
 20
-1.43
 11
0.65
 21
1.495
  0
INSERT
  8
1
  2
LCA1
 10
0.65
 20
1.495
 50
23.1985905136482
  0
ARC
  8
1
 62
7
 10
-12.675
 20
0
 40
8.775
 50
340.528596800055
 51
19.4710505793386
  0
ARC
  8
1
 62
7
 10
6.825
 20
0
 40
8.775
 50
160.52865870751
 51
199.47139531546
  0
CIRCLE
  8
CONNECTIONS
 62
7
 10
-2.925
 20
-12.675
 40
0
  0
CIRCLE
  8
CONNECTIONS
 62
7
 10
-2.925
 20
12.675
 40
0
  0
ENDBLK
  8
0
  0
BLOCK
  8
0
  2
B549027
 70
0
 10
0
 20
0
  0
TEXT
  8
1
 62
7
 40
2.34
 41
0.75
  1
2
  7
STANDARD
 73
2
 10
-1.63599046468735
 20
0
 11
-1.63599046468735
 21
0
  0
ENDBLK
  8
0
  0
BLOCK
  8
0
  2
B549028
 70
0
 10
0
 20
0
  0
TEXT
  8
1
 62
7
 40
2.34
 41
0.75
  1
1
  7
STANDARD
 73
2
 10
-1.63599046468735
 20
0
 11
-1.63599046468735
 21
0
  0
ENDBLK
  8
0
  0
BLOCK
  8
0
  2
B555171_00991453
 70
0
 10
0
 20
0
  0
POLYLINE
  8
1
 62
7
 66
1
  0
VERTEX
  8
1
 62
7
 10
-6.825
 20
8.77499999999998
  0
VERTEX
  8
1
 62
7
 10
6.825
 20
8.77499999999998
  0
VERTEX
  8
1
 62
7
 10
6.825
 20
-8.77499999999998
  0
VERTEX
  8
1
 62
7
 10
-6.825
 20
-8.77499999999998
  0
VERTEX
  8
1
 62
7
 10
-6.825
 20
8.77499999999998
  0
SEQEND
  8
1
  0
LINE
  8
1
 62
7
 10
-2.925
 20
8.775
 11
-2.925
 21
12.675
  0
LINE
  8
1
 62
7
 10
-2.925
 20
-8.775
 11
-2.925
 21
-12.675
  0
LINE
  8
1
 62
7
 10
-2.925
 20
-4.875
 11
2.925
 21
-4.875
  0
LINE
  8
1
 62
7
 10
2.925
 20
4.875
 11
-2.925
 21
4.875
  0
LINE
  8
1
 62
7
 10
2.925
 20
4.875
 11
2.925
 21
3.9
  0
LINE
  8
1
 62
7
 10
2.925
 20
-4.875
 11
2.925
 21
-3.9
  0
LINE
  8
1
 62
7
 10
-2.925
 20
4.875
 11
-2.925
 21
8.775
  0
LINE
  8
1
 62
7
 10
-2.925
 20
-8.775
 11
-2.925
 21
-4.875
  0
POLYLINE
  8
1
 62
7
 70
1
 66
1
 40
0.4875
 41
0.4875
  0
VERTEX
  8
1
 10
-3.16875
 20
-4.875
 42
1
  0
VERTEX
  8
1
 10
-2.68125
 20
-4.875
 42
1
  0
SEQEND
  8
1
  0
POLYLINE
  8
1
 62
7
 70
1
 66
1
 40
0.4875
 41
0.4875
  0
VERTEX
  8
1
 10
-3.16875
 20
4.875
 42
1
  0
VERTEX
  8
1
 10
-2.68125
 20
4.875
 42
1
  0
SEQEND
  8
1
  0
LINE
  8
1
 62
7
 10
2.925
 20
3.9
 11
2.925
 21
1.56000000000001
  0
LINE
  8
1
 62
7
 10
2.925
 20
-0.975
 11
2.925
 21
-3.80249999999998
  0
POLYLINE
  8
1
 62
7
 66
1
  0
VERTEX
  8
1
 62
7
 10
0.975
 20
-0.390000000000043
  0
VERTEX
  8
1
 62
7
 10
2.925
 20
1.56
  0
VERTEX
  8
1
 62
7
 10
4.875
 20
-0.390000000000043
  0
SEQEND
  8
1
  0
CIRCLE
  8
1
 62
7
 10
2.925
 20
0.130000000000016
 40
0.975
  0
LINE
  8
1
 62
7
 10
-2.925
 20
4.875
 11
-2.925
 21
-4.875
  0
LINE
  8
1
 62
7
 10
-6.175
 20
-1.43
 11
0.65
 21
1.495
  0
INSERT
  8
1
  2
LCA1
 10
0.65
 20
1.495
 50
23.1985905136482
  0
ARC
  8
1
 62
7
 10
-12.675
 20
0
 40
8.775
 50
340.528596800055
 51
19.4710505793386
  0
ARC
  8
1
 62
7
 10
6.825
 20
0
 40
8.775
 50
160.52865870751
 51
199.47139531546
  0
CIRCLE
  8
CONNECTIONS
 62
7
 10
-2.925
 20
-12.675
 40
0
  0
CIRCLE
  8
CONNECTIONS
 62
7
 10
-2.925
 20
12.675
 40
0
  0
ENDBLK
  8
0
  0
BLOCK
  8
0
  2
B555180
 70
0
 10
0
 20
0
  0
TEXT
  8
1
 62
7
 40
2.34
 41
0.75
  1
2
  7
STANDARD
 73
2
 10
-1.63599046468735
 20
0
 11
-1.63599046468735
 21
0
  0
ENDBLK
  8
0
  0
BLOCK
  8
0
  2
B555181
 70
0
 10
0
 20
0
  0
TEXT
  8
1
 62
7
 40
2.34
 41
0.75
  1
1
  7
STANDARD
 73
2
 10
-1.63599046468735
 20
0
 11
-1.63599046468735
 21
0
  0
ENDBLK
  8
0
  0
BLOCK
  8
0
  2
B555182_00991453
 70
0
 10
0
 20
0
  0
POLYLINE
  8
1
 62
7
 66
1
  0
VERTEX
  8
1
 62
7
 10
-6.825
 20
8.77499999999998
  0
VERTEX
  8
1
 62
7
 10
6.825
 20
8.77499999999998
  0
VERTEX
  8
1
 62
7
 10
6.825
 20
-8.77499999999998
  0
VERTEX
  8
1
 62
7
 10
-6.825
 20
-8.77499999999998
  0
VERTEX
  8
1
 62
7
 10
-6.825
 20
8.77499999999998
  0
SEQEND
  8
1
  0
LINE
  8
1
 62
7
 10
-2.925
 20
8.775
 11
-2.925
 21
12.675
  0
LINE
  8
1
 62
7
 10
-2.925
 20
-8.775
 11
-2.925
 21
-12.675
  0
LINE
  8
1
 62
7
 10
-2.925
 20
-4.875
 11
2.925
 21
-4.875
  0
LINE
  8
1
 62
7
 10
2.925
 20
4.875
 11
-2.925
 21
4.875
  0
LINE
  8
1
 62
7
 10
2.925
 20
4.875
 11
2.925
 21
3.9
  0
LINE
  8
1
 62
7
 10
2.925
 20
-4.875
 11
2.925
 21
-3.9
  0
LINE
  8
1
 62
7
 10
-2.925
 20
4.875
 11
-2.925
 21
8.775
  0
LINE
  8
1
 62
7
 10
-2.925
 20
-8.775
 11
-2.925
 21
-4.875
  0
POLYLINE
  8
1
 62
7
 70
1
 66
1
 40
0.4875
 41
0.4875
  0
VERTEX
  8
1
 10
-3.16875
 20
-4.875
 42
1
  0
VERTEX
  8
1
 10
-2.68125
 20
-4.875
 42
1
  0
SEQEND
  8
1
  0
POLYLINE
  8
1
 62
7
 70
1
 66
1
 40
0.4875
 41
0.4875
  0
VERTEX
  8
1
 10
-3.16875
 20
4.875
 42
1
  0
VERTEX
  8
1
 10
-2.68125
 20
4.875
 42
1
  0
SEQEND
  8
1
  0
LINE
  8
1
 62
7
 10
2.925
 20
3.9
 11
2.925
 21
1.56000000000001
  0
LINE
  8
1
 62
7
 10
2.925
 20
-0.975
 11
2.925
 21
-3.80249999999998
  0
POLYLINE
  8
1
 62
7
 66
1
  0
VERTEX
  8
1
 62
7
 10
0.975
 20
-0.390000000000043
  0
VERTEX
  8
1
 62
7
 10
2.925
 20
1.56
  0
VERTEX
  8
1
 62
7
 10
4.875
 20
-0.390000000000043
  0
SEQEND
  8
1
  0
CIRCLE
  8
1
 62
7
 10
2.925
 20
0.130000000000016
 40
0.975
  0
LINE
  8
1
 62
7
 10
-2.925
 20
4.875
 11
-2.925
 21
-4.875
  0
LINE
  8
1
 62
7
 10
-6.175
 20
-1.43
 11
0.65
 21
1.495
  0
INSERT
  8
1
  2
LCA1
 10
0.65
 20
1.495
 50
23.1985905136482
  0
ARC
  8
1
 62
7
 10
-12.675
 20
0
 40
8.775
 50
340.528596800055
 51
19.4710505793386
  0
ARC
  8
1
 62
7
 10
6.825
 20
0
 40
8.775
 50
160.52865870751
 51
199.47139531546
  0
CIRCLE
  8
CONNECTIONS
 62
7
 10
-2.925
 20
-12.675
 40
0
  0
CIRCLE
  8
CONNECTIONS
 62
7
 10
-2.925
 20
12.675
 40
0
  0
ENDBLK
  8
0
  0
BLOCK
  8
0
  2
B555191
 70
0
 10
0
 20
0
  0
TEXT
  8
1
 62
7
 40
2.34
 41
0.75
  1
2
  7
STANDARD
 73
2
 10
-1.63599046468735
 20
0
 11
-1.63599046468735
 21
0
  0
ENDBLK
  8
0
  0
BLOCK
  8
0
  2
B555192
 70
0
 10
0
 20
0
  0
TEXT
  8
1
 62
7
 40
2.34
 41
0.75
  1
1
  7
STANDARD
 73
2
 10
-1.63599046468735
 20
0
 11
-1.63599046468735
 21
0
  0
ENDBLK
  8
0
  0
BLOCK
  8
0
  2
B628121_00991453
 70
0
 10
0
 20
0
  0
POLYLINE
  8
1
 62
7
 66
1
  0
VERTEX
  8
1
 62
7
 10
-6.825
 20
8.77499999999998
  0
VERTEX
  8
1
 62
7
 10
6.825
 20
8.77499999999998
  0
VERTEX
  8
1
 62
7
 10
6.825
 20
-8.77499999999998
  0
VERTEX
  8
1
 62
7
 10
-6.825
 20
-8.77499999999998
  0
VERTEX
  8
1
 62
7
 10
-6.825
 20
8.77499999999998
  0
SEQEND
  8
1
  0
LINE
  8
1
 62
7
 10
-2.925
 20
8.775
 11
-2.925
 21
12.675
  0
LINE
  8
1
 62
7
 10
-2.925
 20
-8.775
 11
-2.925
 21
-12.675
  0
LINE
  8
1
 62
7
 10
-2.925
 20
-4.875
 11
2.925
 21
-4.875
  0
LINE
  8
1
 62
7
 10
2.925
 20
4.875
 11
-2.925
 21
4.875
  0
LINE
  8
1
 62
7
 10
2.925
 20
4.875
 11
2.925
 21
3.9
  0
LINE
  8
1
 62
7
 10
2.925
 20
-4.875
 11
2.925
 21
-3.9
  0
LINE
  8
1
 62
7
 10
-2.925
 20
4.875
 11
-2.925
 21
8.775
  0
LINE
  8
1
 62
7
 10
-2.925
 20
-8.775
 11
-2.925
 21
-4.875
  0
POLYLINE
  8
1
 62
7
 70
1
 66
1
 40
0.4875
 41
0.4875
  0
VERTEX
  8
1
 10
-3.16875
 20
-4.875
 42
1
  0
VERTEX
  8
1
 10
-2.68125
 20
-4.875
 42
1
  0
SEQEND
  8
1
  0
POLYLINE
  8
1
 62
7
 70
1
 66
1
 40
0.4875
 41
0.4875
  0
VERTEX
  8
1
 10
-3.16875
 20
4.875
 42
1
  0
VERTEX
  8
1
 10
-2.68125
 20
4.875
 42
1
  0
SEQEND
  8
1
  0
LINE
  8
1
 62
7
 10
2.925
 20
3.9
 11
2.925
 21
1.56000000000001
  0
LINE
  8
1
 62
7
 10
2.925
 20
-0.975
 11
2.925
 21
-3.80249999999998
  0
POLYLINE
  8
1
 62
7
 66
1
  0
VERTEX
  8
1
 62
7
 10
0.975
 20
-0.390000000000043
  0
VERTEX
  8
1
 62
7
 10
2.925
 20
1.56
  0
VERTEX
  8
1
 62
7
 10
4.875
 20
-0.390000000000043
  0
SEQEND
  8
1
  0
CIRCLE
  8
1
 62
7
 10
2.925
 20
0.130000000000016
 40
0.975
  0
LINE
  8
1
 62
7
 10
-2.925
 20
4.875
 11
-2.925
 21
-4.875
  0
LINE
  8
1
 62
7
 10
-6.175
 20
-1.43
 11
0.65
 21
1.495
  0
INSERT
  8
1
  2
LCA1
 10
0.65
 20
1.495
 50
23.1985905136482
  0
ARC
  8
1
 62
7
 10
-12.675
 20
0
 40
8.775
 50
340.528596800055
 51
19.4710505793386
  0
ARC
  8
1
 62
7
 10
6.825
 20
0
 40
8.775
 50
160.52865870751
 51
199.47139531546
  0
CIRCLE
  8
CONNECTIONS
 62
7
 10
-2.925
 20
-12.675
 40
0
  0
CIRCLE
  8
CONNECTIONS
 62
7
 10
-2.925
 20
12.675
 40
0
  0
ENDBLK
  8
0
  0
BLOCK
  8
0
  2
B628130
 70
0
 10
0
 20
0
  0
TEXT
  8
1
 62
7
 40
2.34
 41
0.75
  1
2
  7
STANDARD
 73
2
 10
-1.63599046468735
 20
0
 11
-1.63599046468735
 21
0
  0
ENDBLK
  8
0
  0
BLOCK
  8
0
  2
B628131
 70
0
 10
0
 20
0
  0
TEXT
  8
1
 62
7
 40
2.34
 41
0.75
  1
1
  7
STANDARD
 73
2
 10
-1.63599046468735
 20
0
 11
-1.63599046468735
 21
0
  0
ENDBLK
  8
0
  0
BLOCK
  8
0
  2
B628132_00991453
 70
0
 10
0
 20
0
  0
POLYLINE
  8
1
 62
7
 66
1
  0
VERTEX
  8
1
 62
7
 10
-6.825
 20
8.77499999999998
  0
VERTEX
  8
1
 62
7
 10
6.825
 20
8.77499999999998
  0
VERTEX
  8
1
 62
7
 10
6.825
 20
-8.77499999999998
  0
VERTEX
  8
1
 62
7
 10
-6.825
 20
-8.77499999999998
  0
VERTEX
  8
1
 62
7
 10
-6.825
 20
8.77499999999998
  0
SEQEND
  8
1
  0
LINE
  8
1
 62
7
 10
-2.925
 20
8.775
 11
-2.925
 21
12.675
  0
LINE
  8
1
 62
7
 10
-2.925
 20
-8.775
 11
-2.925
 21
-12.675
  0
LINE
  8
1
 62
7
 10
-2.925
 20
-4.875
 11
2.925
 21
-4.875
  0
LINE
  8
1
 62
7
 10
2.925
 20
4.875
 11
-2.925
 21
4.875
  0
LINE
  8
1
 62
7
 10
2.925
 20
4.875
 11
2.925
 21
3.9
  0
LINE
  8
1
 62
7
 10
2.925
 20
-4.875
 11
2.925
 21
-3.9
  0
LINE
  8
1
 62
7
 10
-2.925
 20
4.875
 11
-2.925
 21
8.775
  0
LINE
  8
1
 62
7
 10
-2.925
 20
-8.775
 11
-2.925
 21
-4.875
  0
POLYLINE
  8
1
 62
7
 70
1
 66
1
 40
0.4875
 41
0.4875
  0
VERTEX
  8
1
 10
-3.16875
 20
-4.875
 42
1
  0
VERTEX
  8
1
 10
-2.68125
 20
-4.875
 42
1
  0
SEQEND
  8
1
  0
POLYLINE
  8
1
 62
7
 70
1
 66
1
 40
0.4875
 41
0.4875
  0
VERTEX
  8
1
 10
-3.16875
 20
4.875
 42
1
  0
VERTEX
  8
1
 10
-2.68125
 20
4.875
 42
1
  0
SEQEND
  8
1
  0
LINE
  8
1
 62
7
 10
2.925
 20
3.9
 11
2.925
 21
1.56000000000001
  0
LINE
  8
1
 62
7
 10
2.925
 20
-0.975
 11
2.925
 21
-3.80249999999998
  0
POLYLINE
  8
1
 62
7
 66
1
  0
VERTEX
  8
1
 62
7
 10
0.975
 20
-0.390000000000043
  0
VERTEX
  8
1
 62
7
 10
2.925
 20
1.56
  0
VERTEX
  8
1
 62
7
 10
4.875
 20
-0.390000000000043
  0
SEQEND
  8
1
  0
CIRCLE
  8
1
 62
7
 10
2.925
 20
0.130000000000016
 40
0.975
  0
LINE
  8
1
 62
7
 10
-2.925
 20
4.875
 11
-2.925
 21
-4.875
  0
LINE
  8
1
 62
7
 10
-6.175
 20
-1.43
 11
0.65
 21
1.495
  0
INSERT
  8
1
  2
LCA1
 10
0.65
 20
1.495
 50
23.1985905136482
  0
ARC
  8
1
 62
7
 10
-12.675
 20
0
 40
8.775
 50
340.528596800055
 51
19.4710505793386
  0
ARC
  8
1
 62
7
 10
6.825
 20
0
 40
8.775
 50
160.52865870751
 51
199.47139531546
  0
CIRCLE
  8
CONNECTIONS
 62
7
 10
-2.925
 20
-12.675
 40
0
  0
CIRCLE
  8
CONNECTIONS
 62
7
 10
-2.925
 20
12.675
 40
0
  0
ENDBLK
  8
0
  0
BLOCK
  8
0
  2
B628141
 70
0
 10
0
 20
0
  0
TEXT
  8
1
 62
7
 40
2.34
 41
0.75
  1
2
  7
STANDARD
 73
2
 10
-1.63599046468735
 20
0
 11
-1.63599046468735
 21
0
  0
ENDBLK
  8
0
  0
BLOCK
  8
0
  2
B628142
 70
0
 10
0
 20
0
  0
TEXT
  8
1
 62
7
 40
2.34
 41
0.75
  1
1
  7
STANDARD
 73
2
 10
-1.63599046468735
 20
0
 11
-1.63599046468735
 21
0
  0
ENDBLK
  8
0
  0
BLOCK
  8
0
  2
B694718_00991473
 70
0
 10
0
 20
0
  0
LINE
  8
1
 62
7
 10
0.975
 20
-1.4625
 11
0
 21
-1.4625
  0
LINE
  8
1
 62
7
 10
-0.975
 20
-0.4875
 11
0
 21
-0.4875
  0
LINE
  8
1
 62
7
 10
0.975
 20
0.4875
 11
0
 21
0.4875
  0
POLYLINE
  8
1
 62
7
 66
1
  0
VERTEX
  8
1
 62
7
 10
0.975
 20
1.46249999999998
  0
VERTEX
  8
1
 62
7
 10
-0.975
 20
1.46249999999998
  0
VERTEX
  8
1
 62
7
 10
-0.975
 20
-2.4375
  0
VERTEX
  8
1
 62
7
 10
0.975
 20
-2.4375
  0
VERTEX
  8
1
 62
7
 10
0.975
 20
1.46249999999998
  0
SEQEND
  8
1
  0
LINE
  8
1
 62
7
 10
0
 20
3.4125
 11
0
 21
1.4625
  0
POLYLINE
  8
1
 62
7
 66
1
  0
VERTEX
  8
1
 62
7
 10
-0.4875
 20
-2.4375
  0
VERTEX
  8
1
 62
7
 10
0
 20
-3.41250000000002
  0
VERTEX
  8
1
 62
7
 10
0.4875
 20
-2.4375
  0
SEQEND
  8
1
  0
CIRCLE
  8
CONNECTIONS
 62
7
 10
0
 20
3.4125
 40
0
  0
ENDBLK
  8
0
  0
BLOCK
  8
0
  2
B694720
 70
0
 10
0
 20
0
  0
ENDBLK
  8
0
  0
BLOCK
  8
0
  2
B696250_00991473
 70
0
 10
0
 20
0
  0
LINE
  8
1
 62
7
 10
0.975
 20
-1.4625
 11
0
 21
-1.4625
  0
LINE
  8
1
 62
7
 10
-0.975
 20
-0.4875
 11
0
 21
-0.4875
  0
LINE
  8
1
 62
7
 10
0.975
 20
0.4875
 11
0
 21
0.4875
  0
POLYLINE
  8
1
 62
7
 66
1
  0
VERTEX
  8
1
 62
7
 10
0.975
 20
1.46249999999998
  0
VERTEX
  8
1
 62
7
 10
-0.975
 20
1.46249999999998
  0
VERTEX
  8
1
 62
7
 10
-0.975
 20
-2.4375
  0
VERTEX
  8
1
 62
7
 10
0.975
 20
-2.4375
  0
VERTEX
  8
1
 62
7
 10
0.975
 20
1.46249999999998
  0
SEQEND
  8
1
  0
LINE
  8
1
 62
7
 10
0
 20
3.4125
 11
0
 21
1.4625
  0
POLYLINE
  8
1
 62
7
 66
1
  0
VERTEX
  8
1
 62
7
 10
-0.4875
 20
-2.4375
  0
VERTEX
  8
1
 62
7
 10
0
 20
-3.41250000000002
  0
VERTEX
  8
1
 62
7
 10
0.4875
 20
-2.4375
  0
SEQEND
  8
1
  0
CIRCLE
  8
CONNECTIONS
 62
7
 10
0
 20
3.4125
 40
0
  0
ENDBLK
  8
0
  0
BLOCK
  8
0
  2
B700252_00991473
 70
0
 10
0
 20
0
  0
LINE
  8
1
 62
7
 10
0.975
 20
-1.4625
 11
0
 21
-1.4625
  0
LINE
  8
1
 62
7
 10
-0.975
 20
-0.4875
 11
0
 21
-0.4875
  0
LINE
  8
1
 62
7
 10
0.975
 20
0.4875
 11
0
 21
0.4875
  0
POLYLINE
  8
1
 62
7
 66
1
  0
VERTEX
  8
1
 62
7
 10
0.975
 20
1.46249999999998
  0
VERTEX
  8
1
 62
7
 10
-0.975
 20
1.46249999999998
  0
VERTEX
  8
1
 62
7
 10
-0.975
 20
-2.4375
  0
VERTEX
  8
1
 62
7
 10
0.975
 20
-2.4375
  0
VERTEX
  8
1
 62
7
 10
0.975
 20
1.46249999999998
  0
SEQEND
  8
1
  0
LINE
  8
1
 62
7
 10
0
 20
3.4125
 11
0
 21
1.4625
  0
POLYLINE
  8
1
 62
7
 66
1
  0
VERTEX
  8
1
 62
7
 10
-0.4875
 20
-2.4375
  0
VERTEX
  8
1
 62
7
 10
0
 20
-3.41250000000002
  0
VERTEX
  8
1
 62
7
 10
0.4875
 20
-2.4375
  0
SEQEND
  8
1
  0
CIRCLE
  8
CONNECTIONS
 62
7
 10
0
 20
3.4125
 40
0
  0
ENDBLK
  8
0
  0
BLOCK
  8
0
  2
B700254
 70
0
 10
0
 20
0
  0
ENDBLK
  8
0
  0
BLOCK
  8
0
  2
B702309_00991473
 70
0
 10
0
 20
0
  0
LINE
  8
1
 62
7
 10
0.975
 20
-1.4625
 11
0
 21
-1.4625
  0
LINE
  8
1
 62
7
 10
-0.975
 20
-0.4875
 11
0
 21
-0.4875
  0
LINE
  8
1
 62
7
 10
0.975
 20
0.4875
 11
0
 21
0.4875
  0
POLYLINE
  8
1
 62
7
 66
1
  0
VERTEX
  8
1
 62
7
 10
0.975
 20
1.46249999999998
  0
VERTEX
  8
1
 62
7
 10
-0.975
 20
1.46249999999998
  0
VERTEX
  8
1
 62
7
 10
-0.975
 20
-2.4375
  0
VERTEX
  8
1
 62
7
 10
0.975
 20
-2.4375
  0
VERTEX
  8
1
 62
7
 10
0.975
 20
1.46249999999998
  0
SEQEND
  8
1
  0
LINE
  8
1
 62
7
 10
0
 20
3.4125
 11
0
 21
1.4625
  0
POLYLINE
  8
1
 62
7
 66
1
  0
VERTEX
  8
1
 62
7
 10
-0.4875
 20
-2.4375
  0
VERTEX
  8
1
 62
7
 10
0
 20
-3.41250000000002
  0
VERTEX
  8
1
 62
7
 10
0.4875
 20
-2.4375
  0
SEQEND
  8
1
  0
CIRCLE
  8
CONNECTIONS
 62
7
 10
0
 20
3.4125
 40
0
  0
ENDBLK
  8
0
  0
BLOCK
  8
0
  2
B704878_00991473
 70
0
 10
0
 20
0
  0
LINE
  8
1
 62
7
 10
0.975
 20
-1.4625
 11
0
 21
-1.4625
  0
LINE
  8
1
 62
7
 10
-0.975
 20
-0.4875
 11
0
 21
-0.4875
  0
LINE
  8
1
 62
7
 10
0.975
 20
0.4875
 11
0
 21
0.4875
  0
POLYLINE
  8
1
 62
7
 66
1
  0
VERTEX
  8
1
 62
7
 10
0.975
 20
1.46249999999998
  0
VERTEX
  8
1
 62
7
 10
-0.975
 20
1.46249999999998
  0
VERTEX
  8
1
 62
7
 10
-0.975
 20
-2.4375
  0
VERTEX
  8
1
 62
7
 10
0.975
 20
-2.4375
  0
VERTEX
  8
1
 62
7
 10
0.975
 20
1.46249999999998
  0
SEQEND
  8
1
  0
LINE
  8
1
 62
7
 10
0
 20
3.4125
 11
0
 21
1.4625
  0
POLYLINE
  8
1
 62
7
 66
1
  0
VERTEX
  8
1
 62
7
 10
-0.4875
 20
-2.4375
  0
VERTEX
  8
1
 62
7
 10
0
 20
-3.41250000000002
  0
VERTEX
  8
1
 62
7
 10
0.4875
 20
-2.4375
  0
SEQEND
  8
1
  0
CIRCLE
  8
CONNECTIONS
 62
7
 10
0
 20
3.4125
 40
0
  0
ENDBLK
  8
0
  0
BLOCK
  8
0
  2
B704880
 70
0
 10
0
 20
0
  0
ENDBLK
  8
0
  0
BLOCK
  8
0
  2
B706975_00991473
 70
0
 10
0
 20
0
  0
LINE
  8
1
 62
7
 10
0.975
 20
-1.4625
 11
0
 21
-1.4625
  0
LINE
  8
1
 62
7
 10
-0.975
 20
-0.4875
 11
0
 21
-0.4875
  0
LINE
  8
1
 62
7
 10
0.975
 20
0.4875
 11
0
 21
0.4875
  0
POLYLINE
  8
1
 62
7
 66
1
  0
VERTEX
  8
1
 62
7
 10
0.975
 20
1.46249999999998
  0
VERTEX
  8
1
 62
7
 10
-0.975
 20
1.46249999999998
  0
VERTEX
  8
1
 62
7
 10
-0.975
 20
-2.4375
  0
VERTEX
  8
1
 62
7
 10
0.975
 20
-2.4375
  0
VERTEX
  8
1
 62
7
 10
0.975
 20
1.46249999999998
  0
SEQEND
  8
1
  0
LINE
  8
1
 62
7
 10
0
 20
3.4125
 11
0
 21
1.4625
  0
POLYLINE
  8
1
 62
7
 66
1
  0
VERTEX
  8
1
 62
7
 10
-0.4875
 20
-2.4375
  0
VERTEX
  8
1
 62
7
 10
0
 20
-3.41250000000002
  0
VERTEX
  8
1
 62
7
 10
0.4875
 20
-2.4375
  0
SEQEND
  8
1
  0
CIRCLE
  8
CONNECTIONS
 62
7
 10
0
 20
3.4125
 40
0
  0
ENDBLK
  8
0
  0
BLOCK
  8
0
  2
B710658_00991473
 70
0
 10
0
 20
0
  0
LINE
  8
1
 62
7
 10
0.975
 20
-1.4625
 11
0
 21
-1.4625
  0
LINE
  8
1
 62
7
 10
-0.975
 20
-0.4875
 11
0
 21
-0.4875
  0
LINE
  8
1
 62
7
 10
0.975
 20
0.4875
 11
0
 21
0.4875
  0
POLYLINE
  8
1
 62
7
 66
1
  0
VERTEX
  8
1
 62
7
 10
0.975
 20
1.46249999999998
  0
VERTEX
  8
1
 62
7
 10
-0.975
 20
1.46249999999998
  0
VERTEX
  8
1
 62
7
 10
-0.975
 20
-2.4375
  0
VERTEX
  8
1
 62
7
 10
0.975
 20
-2.4375
  0
VERTEX
  8
1
 62
7
 10
0.975
 20
1.46249999999998
  0
SEQEND
  8
1
  0
LINE
  8
1
 62
7
 10
0
 20
3.4125
 11
0
 21
1.4625
  0
POLYLINE
  8
1
 62
7
 66
1
  0
VERTEX
  8
1
 62
7
 10
-0.4875
 20
-2.4375
  0
VERTEX
  8
1
 62
7
 10
0
 20
-3.41250000000002
  0
VERTEX
  8
1
 62
7
 10
0.4875
 20
-2.4375
  0
SEQEND
  8
1
  0
CIRCLE
  8
CONNECTIONS
 62
7
 10
0
 20
3.4125
 40
0
  0
ENDBLK
  8
0
  0
BLOCK
  8
0
  2
B710660
 70
0
 10
0
 20
0
  0
ENDBLK
  8
0
  0
BLOCK
  8
0
  2
B712791_00991473
 70
0
 10
0
 20
0
  0
LINE
  8
1
 62
7
 10
0.975
 20
-1.4625
 11
0
 21
-1.4625
  0
LINE
  8
1
 62
7
 10
-0.975
 20
-0.4875
 11
0
 21
-0.4875
  0
LINE
  8
1
 62
7
 10
0.975
 20
0.4875
 11
0
 21
0.4875
  0
POLYLINE
  8
1
 62
7
 66
1
  0
VERTEX
  8
1
 62
7
 10
0.975
 20
1.46249999999998
  0
VERTEX
  8
1
 62
7
 10
-0.975
 20
1.46249999999998
  0
VERTEX
  8
1
 62
7
 10
-0.975
 20
-2.4375
  0
VERTEX
  8
1
 62
7
 10
0.975
 20
-2.4375
  0
VERTEX
  8
1
 62
7
 10
0.975
 20
1.46249999999998
  0
SEQEND
  8
1
  0
LINE
  8
1
 62
7
 10
0
 20
3.4125
 11
0
 21
1.4625
  0
POLYLINE
  8
1
 62
7
 66
1
  0
VERTEX
  8
1
 62
7
 10
-0.4875
 20
-2.4375
  0
VERTEX
  8
1
 62
7
 10
0
 20
-3.41250000000002
  0
VERTEX
  8
1
 62
7
 10
0.4875
 20
-2.4375
  0
SEQEND
  8
1
  0
CIRCLE
  8
CONNECTIONS
 62
7
 10
0
 20
3.4125
 40
0
  0
ENDBLK
  8
0
  0
BLOCK
  8
0
  2
B815729
 70
0
 10
0
 20
0
  0
TEXT
  8
_LabelDrawingFrame
 62
7
 40
4.095
 41
0.75
  1
A
  7
STANDARD
 73
3
 10
-3.22400653362274
 20
2.90121693134308
 11
-3.22400653362274
 21
2.90121693134308
  0
ENDBLK
  8
0
  0
BLOCK
  8
0
  2
B815730
 70
0
 10
0
 20
0
  0
TEXT
  8
_LabelDrawingFrame
 62
7
 40
4.095
 41
0.75
  1
B
  7
STANDARD
 73
3
 10
-3.22400653362274
 20
2.90121693134308
 11
-3.22400653362274
 21
2.90121693134308
  0
ENDBLK
  8
0
  0
BLOCK
  8
0
  2
B815731
 70
0
 10
0
 20
0
  0
TEXT
  8
_LabelDrawingFrame
 62
7
 40
4.095
 41
0.75
  1
C
  7
STANDARD
 73
3
 10
-3.40297510623932
 20
2.90121693134308
 11
-3.40297510623932
 21
2.90121693134308
  0
ENDBLK
  8
0
  0
BLOCK
  8
0
  2
B815732
 70
0
 10
0
 20
0
  0
TEXT
  8
_LabelDrawingFrame
 62
7
 40
4.095
 41
0.75
  1
D
  7
STANDARD
 73
3
 10
-3.40297510623932
 20
2.90121693134308
 11
-3.40297510623932
 21
2.90121693134308
  0
ENDBLK
  8
0
  0
BLOCK
  8
0
  2
B815733
 70
0
 10
0
 20
0
  0
TEXT
  8
_LabelDrawingFrame
 62
7
 40
4.095
 41
0.75
  1
E
  7
STANDARD
 73
3
 10
-3.22400653362274
 20
2.90121693134308
 11
-3.22400653362274
 21
2.90121693134308
  0
ENDBLK
  8
0
  0
BLOCK
  8
0
  2
B815734
 70
0
 10
0
 20
0
  0
TEXT
  8
_LabelDrawingFrame
 62
7
 40
4.095
 41
0.75
  1
F
  7
STANDARD
 73
3
 10
-3.04195215702057
 20
2.90121693134308
 11
-3.04195215702057
 21
2.90121693134308
  0
ENDBLK
  8
0
  0
BLOCK
  8
0
  2
B815735
 70
0
 10
0
 20
0
  0
TEXT
  8
_LabelDrawingFrame
 62
7
 40
4.095
 41
0.75
  1
1
  7
STANDARD
 73
3
 10
-2.86298358440399
 20
2.90121693134308
 11
-2.86298358440399
 21
2.90121693134308
  0
ENDBLK
  8
0
  0
BLOCK
  8
0
  2
B815736
 70
0
 10
0
 20
0
  0
TEXT
  8
_LabelDrawingFrame
 62
7
 40
4.095
 41
0.75
  1
2
  7
STANDARD
 73
3
 10
-2.86298358440399
 20
2.90121693134308
 11
-2.86298358440399
 21
2.90121693134308
  0
ENDBLK
  8
0
  0
BLOCK
  8
0
  2
B815737
 70
0
 10
0
 20
0
  0
TEXT
  8
_LabelDrawingFrame
 62
7
 40
4.095
 41
0.75
  1
3
  7
STANDARD
 73
3
 10
-2.86298358440399
 20
2.90121693134308
 11
-2.86298358440399
 21
2.90121693134308
  0
ENDBLK
  8
0
  0
BLOCK
  8
0
  2
B815738
 70
0
 10
0
 20
0
  0
TEXT
  8
_LabelDrawingFrame
 62
7
 40
4.095
 41
0.75
  1
4
  7
STANDARD
 73
3
 10
-2.86298358440399
 20
2.90121693134308
 11
-2.86298358440399
 21
2.90121693134308
  0
ENDBLK
  8
0
  0
BLOCK
  8
0
  2
B815739
 70
0
 10
0
 20
0
  0
LINE
  8
_LabelDrawingFrame
 62
7
 10
-3.25
 20
0
 11
3.25
 21
0
  0
ENDBLK
  8
0
  0
BLOCK
  8
0
  2
B815740
 70
0
 10
0
 20
0
  0
LINE
  8
_LabelDrawingFrame
 62
7
 10
-3.25
 20
0
 11
3.25
 21
0
  0
ENDBLK
  8
0
  0
BLOCK
  8
0
  2
B815741
 70
0
 10
0
 20
0
  0
LINE
  8
_LabelDrawingFrame
 62
7
 10
-3.25
 20
0
 11
3.25
 21
0
  0
ENDBLK
  8
0
  0
BLOCK
  8
0
  2
B815742
 70
0
 10
0
 20
0
  0
LINE
  8
_LabelDrawingFrame
 62
7
 10
-3.25
 20
0
 11
3.25
 21
0
  0
ENDBLK
  8
0
  0
BLOCK
  8
0
  2
B815743
 70
0
 10
0
 20
0
  0
LINE
  8
_LabelDrawingFrame
 62
7
 10
-3.25
 20
0
 11
3.25
 21
0
  0
ENDBLK
  8
0
  0
BLOCK
  8
0
  2
B815744
 70
0
 10
0
 20
0
  0
LINE
  8
_LabelDrawingFrame
 62
7
 10
-123.5
 20
0
 11
123.5
 21
0
  0
ENDBLK
  8
0
  0
BLOCK
  8
0
  2
B815745
 70
0
 10
0
 20
0
  0
LINE
  8
_LabelDrawingFrame
 62
7
 10
-186.55
 20
0
 11
186.55
 21
0
  0
ENDBLK
  8
0
  0
BLOCK
  8
0
  2
B815746
 70
0
 10
0
 20
0
  0
LINE
  8
_LabelDrawingFrame
 62
7
 10
-117
 20
0
 11
117
 21
0
  0
ENDBLK
  8
0
  0
BLOCK
  8
0
  2
B815747
 70
0
 10
0
 20
0
  0
LINE
  8
_LabelDrawingFrame
 62
7
 10
-180.05
 20
0
 11
180.05
 21
0
  0
ENDBLK
  8
0
  0
BLOCK
  8
0
  2
B815748
 70
0
 10
0
 20
0
  0
LINE
  8
_LabelDrawingFrame
 62
7
 10
-186.55
 20
0
 11
186.55
 21
0
  0
ENDBLK
  8
0
  0
BLOCK
  8
0
  2
B815749
 70
0
 10
0
 20
0
  0
LINE
  8
_LabelDrawingFrame
 62
7
 10
-117
 20
0
 11
117
 21
0
  0
ENDBLK
  8
0
  0
BLOCK
  8
0
  2
B815750
 70
0
 10
0
 20
0
  0
TEXT
  8
_LabelDrawingFrame
 62
7
 40
4.095
 41
0.75
  1
A
  7
STANDARD
 73
3
 10
-3.22400653362274
 20
2.90121693134308
 11
-3.22400653362274
 21
2.90121693134308
  0
ENDBLK
  8
0
  0
BLOCK
  8
0
  2
B815751
 70
0
 10
0
 20
0
  0
TEXT
  8
_LabelDrawingFrame
 62
7
 40
4.095
 41
0.75
  1
B
  7
STANDARD
 73
3
 10
-3.22400653362274
 20
2.90121693134308
 11
-3.22400653362274
 21
2.90121693134308
  0
ENDBLK
  8
0
  0
BLOCK
  8
0
  2
B815752
 70
0
 10
0
 20
0
  0
TEXT
  8
_LabelDrawingFrame
 62
7
 40
4.095
 41
0.75
  1
C
  7
STANDARD
 73
3
 10
-3.40297510623932
 20
2.90121693134308
 11
-3.40297510623932
 21
2.90121693134308
  0
ENDBLK
  8
0
  0
BLOCK
  8
0
  2
B815753
 70
0
 10
0
 20
0
  0
TEXT
  8
_LabelDrawingFrame
 62
7
 40
4.095
 41
0.75
  1
D
  7
STANDARD
 73
3
 10
-3.40297510623932
 20
2.90121693134308
 11
-3.40297510623932
 21
2.90121693134308
  0
ENDBLK
  8
0
  0
BLOCK
  8
0
  2
B815754
 70
0
 10
0
 20
0
  0
TEXT
  8
_LabelDrawingFrame
 62
7
 40
4.095
 41
0.75
  1
E
  7
STANDARD
 73
3
 10
-3.22400653362274
 20
2.90121693134308
 11
-3.22400653362274
 21
2.90121693134308
  0
ENDBLK
  8
0
  0
BLOCK
  8
0
  2
B815755
 70
0
 10
0
 20
0
  0
TEXT
  8
_LabelDrawingFrame
 62
7
 40
4.095
 41
0.75
  1
F
  7
STANDARD
 73
3
 10
-3.04195215702057
 20
2.90121693134308
 11
-3.04195215702057
 21
2.90121693134308
  0
ENDBLK
  8
0
  0
BLOCK
  8
0
  2
B815756
 70
0
 10
0
 20
0
  0
LINE
  8
_LabelDrawingFrame
 62
7
 10
-3.25
 20
0
 11
3.25
 21
0
  0
ENDBLK
  8
0
  0
BLOCK
  8
0
  2
B815757
 70
0
 10
0
 20
0
  0
LINE
  8
_LabelDrawingFrame
 62
7
 10
-3.25
 20
0
 11
3.25
 21
0
  0
ENDBLK
  8
0
  0
BLOCK
  8
0
  2
B815758
 70
0
 10
0
 20
0
  0
LINE
  8
_LabelDrawingFrame
 62
7
 10
-3.25
 20
0
 11
3.25
 21
0
  0
ENDBLK
  8
0
  0
BLOCK
  8
0
  2
B815759
 70
0
 10
0
 20
0
  0
LINE
  8
_LabelDrawingFrame
 62
7
 10
-3.25
 20
0
 11
3.25
 21
0
  0
ENDBLK
  8
0
  0
BLOCK
  8
0
  2
B815760
 70
0
 10
0
 20
0
  0
LINE
  8
_LabelDrawingFrame
 62
7
 10
-3.25
 20
0
 11
3.25
 21
0
  0
ENDBLK
  8
0
  0
BLOCK
  8
0
  2
B815761
 70
0
 10
0
 20
0
  0
LINE
  8
_LabelDrawingFrame
 62
7
 10
-180.128737540339
 20
0
 11
180.128737540339
 21
0
  0
ENDBLK
  8
0
  0
BLOCK
  8
0
  2
B815762
 70
0
 10
0
 20
0
  0
LINE
  8
_LabelDrawingFrame
 62
7
 10
-3.2538169808555
 20
0
 11
3.2538169808555
 21
0
  0
ENDBLK
  8
0
  0
BLOCK
  8
0
  2
B815763
 70
0
 10
0
 20
0
  0
LINE
  8
_LabelDrawingFrame
 62
7
 10
-3.25001297380744
 20
0
 11
3.25001297380744
 21
0
  0
ENDBLK
  8
0
  0
BLOCK
  8
0
  2
B815764
 70
0
 10
0
 20
0
  0
TEXT
  8
_LabelDrawingFrame
 62
7
 40
4.095
 41
0.75
  1
1
  7
STANDARD
 73
3
 10
-2.86298358440399
 20
2.90121693134308
 11
-2.86298358440399
 21
2.90121693134308
  0
ENDBLK
  8
0
  0
BLOCK
  8
0
  2
B815765
 70
0
 10
0
 20
0
  0
TEXT
  8
_LabelDrawingFrame
 62
7
 40
4.095
 41
0.75
  1
2
  7
STANDARD
 73
3
 10
-2.86298358440399
 20
2.90121693134308
 11
-2.86298358440399
 21
2.90121693134308
  0
ENDBLK
  8
0
  0
BLOCK
  8
0
  2
B815766
 70
0
 10
0
 20
0
  0
TEXT
  8
_LabelDrawingFrame
 62
7
 40
4.095
 41
0.75
  1
3
  7
STANDARD
 73
3
 10
-2.86298358440399
 20
2.90121693134308
 11
-2.86298358440399
 21
2.90121693134308
  0
ENDBLK
  8
0
  0
BLOCK
  8
0
  2
B815767
 70
0
 10
0
 20
0
  0
TEXT
  8
_LabelDrawingFrame
 62
7
 40
4.095
 41
0.75
  1
4
  7
STANDARD
 73
3
 10
-2.86298358440399
 20
2.90121693134308
 11
-2.86298358440399
 21
2.90121693134308
  0
ENDBLK
  8
0
  0
BLOCK
  8
0
  2
B815768
 70
0
 10
0
 20
0
  0
LINE
  8
_LabelDrawingFrame
 62
7
 10
-123.5
 20
0
 11
123.5
 21
0
  0
ENDBLK
  8
0
  0
BLOCK
  8
0
  2
B815769
 70
0
 10
0
 20
0
  0
LINE
  8
_LabelDrawingFrame
 62
7
 10
-3.22001817792579
 20
0
 11
3.22001817792579
 21
0
  0
ENDBLK
  8
0
  0
BLOCK
  8
0
  2
B815770
 70
0
 10
0
 20
0
  0
LINE
  8
_LabelDrawingFrame
 62
7
 10
-3.18085311132255
 20
0
 11
3.18085311132255
 21
0
  0
ENDBLK
  8
0
  0
BLOCK
  8
0
  2
B815771
 70
0
 10
0
 20
0
  0
LINE
  8
_LabelDrawingFrame
 62
7
 10
-3.1616722669058
 20
0
 11
3.1616722669058
 21
0
  0
ENDBLK
  8
0
  0
BLOCK
  8
0
  2
B815772
 70
0
 10
0
 20
0
  0
LINE
  8
_LabelDrawingFrame
 62
7
 10
-3.16166898907119
 20
0
 11
3.16166898907119
 21
0
  0
ENDBLK
  8
0
  0
BLOCK
  8
0
  2
B815773
 70
0
 10
0
 20
0
  0
ENDBLK
  8
0
  0
BLOCK
  8
0
  2
B815774
 70
0
 10
0
 20
0
  0
TEXT
  8
_LabelDrawingFrame
 62
7
 40
2.1059988284111
 41
0.421866989395123
  1
No.
  7
STANDARD
 73
2
 10
-5.1435827666983
 20
0
 11
-5.1435827666983
 21
0
  0
ENDBLK
  8
0
  0
BLOCK
  8
0
  2
B815775
 70
0
 10
0
 20
0
  0
TEXT
  8
_LabelDrawingFrame
 62
7
 40
2.1059988284111
 41
0.75
  1
Scale
  7
STANDARD
 73
3
 10
-12.8799224595449
 20
1.49205358564854
 11
-12.8799224595449
 21
1.49205358564854
  0
ENDBLK
  8
0
  0
BLOCK
  8
0
  2
B815776
 70
0
 10
0
 20
0
  0
TEXT
  8
_LabelDrawingFrame
 62
7
 40
2.1059988284111
 41
0.538984027275345
  1
Seen
  7
STANDARD
 73
2
 10
-7.70853005018621
 20
0
 11
-7.70853005018621
 21
0
  0
ENDBLK
  8
0
  0
BLOCK
  8
0
  2
B815777
 70
0
 10
0
 20
0
  0
TEXT
  8
_LabelDrawingFrame
 62
7
 40
2.1059988284111
 41
0.621370319841273
  1
Release
  7
STANDARD
 73
2
 10
-7.72918088720587
 20
0
 11
-7.72918088720587
 21
0
  0
ENDBLK
  8
0
  0
BLOCK
  8
0
  2
B815778
 70
0
 10
0
 20
0
  0
TEXT
  8
_LabelDrawingFrame
 62
7
 40
2.1059988284111
 41
0.75
  1
Installation
  7
STANDARD
 73
2
 10
-10.933036432231
 20
0
 11
-10.933036432231
 21
0
  0
ENDBLK
  8
0
  0
BLOCK
  8
0
  2
B815779
 70
0
 10
0
 20
0
  0
TEXT
  8
_LabelDrawingFrame
 62
7
 40
2.1059988284111
 41
0.510413728691954
  1
Name
  7
STANDARD
 73
2
 10
-7.67791061166761
 20
0
 11
-7.67791061166761
 21
0
  0
ENDBLK
  8
0
  0
BLOCK
  8
0
  2
B815780
 70
0
 10
0
 20
0
  0
TEXT
  8
_LabelDrawingFrame
 62
7
 40
2.1059988284111
 41
0.75
  1
Project
  7
STANDARD
 73
3
 10
-37.7956197398792
 20
1.49205358564854
 11
-37.7956197398792
 21
1.49205358564854
  0
ENDBLK
  8
0
  0
BLOCK
  8
0
  2
B815781
 70
0
 10
0
 20
0
  0
TEXT
  8
_LabelDrawingFrame
 62
7
 40
2.1059988284111
 41
0.552790526057986
  1
Page
  7
STANDARD
 73
2
 10
-7.90599009606523
 20
0
 11
-7.90599009606523
 21
0
  0
ENDBLK
  8
0
  0
BLOCK
  8
0
  2
B815782
 70
0
 10
0
 20
0
  0
TEXT
  8
_LabelDrawingFrame
 62
7
 40
2.1059988284111
 41
0.75
  1
Modification
  7
STANDARD
 73
2
 10
-12.8583237595517
 20
0
 11
-12.8583237595517
 21
0
  0
ENDBLK
  8
0
  0
BLOCK
  8
0
  2
B815783
 70
0
 10
0
 20
0
  0
TEXT
  8
_LabelDrawingFrame
 62
7
 40
2.1059988284111
 41
0.75
  1
Date
  7
STANDARD
 73
2
 10
-10.3527552127838
 20
0
 11
-10.3527552127838
 21
0
  0
ENDBLK
  8
0
  0
BLOCK
  8
0
  2
B815784
 70
0
 10
0
 20
0
  0
TEXT
  8
_LabelDrawingFrame
 62
7
 40
2.1059988284111
 41
0.514158907358535
  1
Name
  7
STANDARD
 73
3
 10
-7.73424755052782
 20
1.49205358564854
 11
-7.73424755052782
 21
1.49205358564854
  0
ENDBLK
  8
0
  0
BLOCK
  8
0
  2
B815785
 70
0
 10
0
 20
0
  0
TEXT
  8
_LabelDrawingFrame
 62
7
 40
2.1059988284111
 41
0.75
  1
Date
  7
STANDARD
 73
3
 10
-10.3527552127838
 20
1.49205358564854
 11
-10.3527552127838
 21
1.49205358564854
  0
ENDBLK
  8
0
  0
BLOCK
  8
0
  2
B815786
 70
0
 10
0
 20
0
  0
TEXT
  8
_LabelDrawingFrame
 62
7
 40
2.1059988284111
 41
0.75
  1
Location
  7
STANDARD
 73
2
 10
-10.8976021832352
 20
0
 11
-10.8976021832352
 21
0
  0
ENDBLK
  8
0
  0
BLOCK
  8
0
  2
B815787
 70
0
 10
0
 20
0
  0
TEXT
  8
_LabelDrawingFrame
 62
7
 40
2.1059988284111
 41
0.75
  1
Title
  7
STANDARD
 73
3
 10
-42.7381259137538
 20
1.49205358564854
 11
-42.7381259137538
 21
1.49205358564854
  0
ENDBLK
  8
0
  0
BLOCK
  8
0
  2
B815788
 70
0
 10
0
 20
0
  0
TEXT
  8
_LabelDrawingFrame
 62
7
 40
2.1059988284111
 41
0.510263783473545
  1
of
  7
STANDARD
 73
2
 10
-7.8672946535793
 20
0
 11
-7.8672946535793
 21
0
  0
ENDBLK
  8
0
  0
BLOCK
  8
0
  2
B815789
 70
0
 10
0
 20
0
  0
TEXT
  8
_LabelDrawingFrame
 62
7
 40
2.1059988284111
 41
0.500604650814399
  1
Drawn
  7
STANDARD
 73
2
 10
-7.77821529196051
 20
0
 11
-7.77821529196051
 21
0
  0
ENDBLK
  8
0
  0
BLOCK
  8
0
  2
B815790
 70
0
 10
0
 20
0
  0
LINE
  8
_LabelDrawingFrame
 62
7
 10
-15.5999972916688
 20
0
 11
15.5999972916688
 21
0
  0
ENDBLK
  8
0
  0
BLOCK
  8
0
  2
B815791
 70
0
 10
0
 20
0
  0
LINE
  8
_LabelDrawingFrame
 62
7
 10
-10.4
 20
0
 11
10.4
 21
0
  0
ENDBLK
  8
0
  0
BLOCK
  8
0
  2
B815792
 70
0
 10
0
 20
0
  0
LINE
  8
_LabelDrawingFrame
 62
7
 10
-62.4
 20
0
 11
62.4
 21
0
  0
ENDBLK
  8
0
  0
BLOCK
  8
0
  2
B815793
 70
0
 10
0
 20
0
  0
LINE
  8
_LabelDrawingFrame
 62
7
 10
-117
 20
0
 11
117
 21
0
  0
ENDBLK
  8
0
  0
BLOCK
  8
0
  2
B815794
 70
0
 10
0
 20
0
  0
LINE
  8
_LabelDrawingFrame
 62
7
 10
-15.6
 20
0
 11
15.6
 21
0
  0
ENDBLK
  8
0
  0
BLOCK
  8
0
  2
B815795
 70
0
 10
0
 20
0
  0
LINE
  8
_LabelDrawingFrame
 62
7
 10
-117
 20
0
 11
117
 21
0
  0
ENDBLK
  8
0
  0
BLOCK
  8
0
  2
B815796
 70
0
 10
0
 20
0
  0
LINE
  8
_LabelDrawingFrame
 62
7
 10
-5.2
 20
0
 11
5.2
 21
0
  0
ENDBLK
  8
0
  0
BLOCK
  8
0
  2
B815797
 70
0
 10
0
 20
0
  0
LINE
  8
_LabelDrawingFrame
 62
7
 10
-10.3316980324416
 20
0
 11
10.3316980324416
 21
0
  0
ENDBLK
  8
0
  0
BLOCK
  8
0
  2
B815798
 70
0
 10
0
 20
0
  0
LINE
  8
_LabelDrawingFrame
 62
7
 10
-27.2822206376272
 20
0
 11
27.2822206376272
 21
0
  0
ENDBLK
  8
0
  0
BLOCK
  8
0
  2
B815799
 70
0
 10
0
 20
0
  0
LINE
  8
_LabelDrawingFrame
 62
7
 10
-117
 20
0
 11
117
 21
0
  0
ENDBLK
  8
0
  0
BLOCK
  8
0
  2
B815800
 70
0
 10
0
 20
0
  0
LINE
  8
_LabelDrawingFrame
 62
7
 10
-10.4000050969089
 20
0
 11
10.4000050969089
 21
0
  0
ENDBLK
  8
0
  0
BLOCK
  8
0
  2
B815801
 70
0
 10
0
 20
0
  0
LINE
  8
_LabelDrawingFrame
 62
7
 10
-10.4000050969089
 20
0
 11
10.4000050969089
 21
0
  0
ENDBLK
  8
0
  0
BLOCK
  8
0
  2
B815802
 70
0
 10
0
 20
0
  0
LINE
  8
_LabelDrawingFrame
 62
7
 10
-62.4
 20
0
 11
62.4
 21
0
  0
ENDBLK
  8
0
  0
BLOCK
  8
0
  2
B815803
 70
0
 10
0
 20
0
  0
LINE
  8
_LabelDrawingFrame
 62
7
 10
-62.4
 20
0
 11
62.4
 21
0
  0
ENDBLK
  8
0
  0
BLOCK
  8
0
  2
B815804
 70
0
 10
0
 20
0
  0
LINE
  8
_LabelDrawingFrame
 62
7
 10
-15.6
 20
0
 11
15.6
 21
0
  0
ENDBLK
  8
0
  0
BLOCK
  8
0
  2
B815805
 70
0
 10
0
 20
0
  0
LINE
  8
_LabelDrawingFrame
 62
7
 10
-10.4
 20
0
 11
10.4
 21
0
  0
ENDBLK
  8
0
  0
BLOCK
  8
0
  2
B815806
 70
0
 10
0
 20
0
  0
LINE
  8
_LabelDrawingFrame
 62
7
 10
-10.4
 20
0
 11
10.4
 21
0
  0
ENDBLK
  8
0
  0
BLOCK
  8
0
  2
B815807
 70
0
 10
0
 20
0
  0
LINE
  8
_LabelDrawingFrame
 62
7
 10
-5.22430388487227
 20
0
 11
5.22430388487227
 21
0
  0
ENDBLK
  8
0
  0
BLOCK
  8
0
  2
B815808
 70
0
 10
0
 20
0
  0
LINE
  8
_LabelDrawingFrame
 62
7
 10
-14.2908616572585
 20
0
 11
14.2908616572585
 21
0
  0
ENDBLK
  8
0
  0
BLOCK
  8
0
  2
B815809
 70
0
 10
0
 20
0
  0
LINE
  8
_LabelDrawingFrame
 62
7
 10
-27.2513080115297
 20
0
 11
27.2513080115297
 21
0
  0
ENDBLK
  8
0
  0
BLOCK
  8
0
  2
B815810
 70
0
 10
0
 20
0
  0
LINE
  8
_LabelDrawingFrame
 62
7
 10
-10.4
 20
0
 11
10.4
 21
0
  0
ENDBLK
  8
0
  0
BLOCK
  8
0
  2
B815811
 70
0
 10
0
 20
0
  0
ENDBLK
  8
0
  0
BLOCK
  8
0
  2
B815813
 70
0
 10
0
 20
0
  0
ENDBLK
  8
0
  0
BLOCK
  8
0
  2
B815814
 70
0
 10
0
 20
0
  0
ENDBLK
  8
0
  0
BLOCK
  8
0
  2
B815816
 70
0
 10
0
 20
0
  0
ENDBLK
  8
0
  0
BLOCK
  8
0
  2
B815818
 70
0
 10
0
 20
0
  0
TEXT
  8
_LabelDrawingFrame
 62
7
 40
2.851875
 41
0.252942495280038
  1
1
  7
STANDARD
 72
2
 73
3
 10
6.32329047345003
 20
2.02049010276794
 11
6.32329047345003
 21
2.02049010276794
  0
ENDBLK
  8
0
  0
BLOCK
  8
0
  2
B815820
 70
0
 10
0
 20
0
  0
ENDBLK
  8
0
  0
BLOCK
  8
0
  2
B815822
 70
0
 10
0
 20
0
  0
ENDBLK
  8
0
  0
BLOCK
  8
0
  2
B815824
 70
0
 10
0
 20
0
  0
ENDBLK
  8
0
  0
BLOCK
  8
0
  2
B815826
 70
0
 10
0
 20
0
  0
ENDBLK
  8
0
  0
BLOCK
  8
0
  2
B815828
 70
0
 10
0
 20
0
  0
TEXT
  8
_LabelDrawingFrame
 62
7
 40
2.851875
 41
0.26219325566372
  1
1
  7
STANDARD
 72
2
 73
3
 10
6.2679466640524
 20
2.02049010276794
 11
6.2679466640524
 21
2.02049010276794
  0
ENDBLK
  8
0
  0
BLOCK
  8
0
  2
B815831
 70
0
 10
0
 20
0
  0
ENDBLK
  8
0
  0
BLOCK
  8
0
  2
B815833
 70
0
 10
0
 20
0
  0
TEXT
  8
_LabelDrawingFrame
 62
7
 40
2.413125
 41
0.75
  1
ELEKTROMAG
  7
STANDARD
 73
2
 10
-27.0722725260995
 20
0
 11
-27.0722725260995
 21
0
  0
ENDBLK
  8
0
  0
BLOCK
  8
0
  2
B815835
 70
0
 10
0
 20
0
  0
TEXT
  8
_LabelDrawingFrame
 62
7
 40
2.851875
 41
0.75
  1
OTOMATK VOLUMETRK 8 NOZULLU DOLUM MAKNES 
  7
STANDARD
 73
3
 10
-42.651082474011
 20
2.02049010276794
 11
-42.651082474011
 21
2.02049010276794
  0
ENDBLK
  8
0
  0
BLOCK
  8
0
  2
B815837
 70
0
 10
0
 20
0
  0
ENDBLK
  8
0
  0
BLOCK
  8
0
  2
B815839
 70
0
 10
0
 20
0
  0
ENDBLK
  8
0
  0
BLOCK
  8
0
  2
B815841
 70
0
 10
0
 20
0
  0
ENDBLK
  8
0
  0
BLOCK
  8
0
  2
B815843
 70
0
 10
0
 20
0
  0
ENDBLK
  8
0
  0
BLOCK
  8
0
  2
B815845
 70
0
 10
0
 20
0
  0
ENDBLK
  8
0
  0
BLOCK
  8
0
  2
B815847
 70
0
 10
0
 20
0
  0
ENDBLK
  8
0
  0
BLOCK
  8
0
  2
B815849
 70
0
 10
0
 20
0
  0
ENDBLK
  8
0
  0
BLOCK
  8
0
  2
B815851
 70
0
 10
0
 20
0
  0
ENDBLK
  8
0
  0
BLOCK
  8
0
  2
B815853
 70
0
 10
0
 20
0
  0
ENDBLK
  8
0
  0
BLOCK
  8
0
  2
B815855
 70
0
 10
0
 20
0
  0
ENDBLK
  8
0
  0
BLOCK
  8
0
  2
B815857
 70
0
 10
0
 20
0
  0
ENDBLK
  8
0
  0
BLOCK
  8
0
  2
B815859
 70
0
 10
0
 20
0
  0
ENDBLK
  8
0
  0
BLOCK
  8
0
  2
B815861
 70
0
 10
0
 20
0
  0
ENDBLK
  8
0
  0
BLOCK
  8
0
  2
B815863
 70
0
 10
0
 20
0
  0
ENDBLK
  8
0
  0
BLOCK
  8
0
  2
B815865
 70
0
 10
0
 20
0
  0
ENDBLK
  8
0
  0
BLOCK
  8
0
  2
B815867
 70
0
 10
0
 20
0
  0
ENDBLK
  8
0
  0
BLOCK
  8
0
  2
B815869
 70
0
 10
0
 20
0
  0
TEXT
  8
_LabelDrawingFrame
 62
7
 40
2.413125
 41
0.423591887920627
  1
01.02.2021
  7
STANDARD
 73
2
 10
-10.3117153220916
 20
0
 11
-10.3117153220916
 21
0
  0
ENDBLK
  8
0
  0
BLOCK
  8
0
  2
B815871
 70
0
 10
0
 20
0
  0
ENDBLK
  8
0
  0
BLOCK
  8
0
  2
B815873
 70
0
 10
0
 20
0
  0
ENDBLK
  8
0
  0
BLOCK
  8
0
  2
B815875
 70
0
 10
0
 20
0
  0
ENDBLK
  8
0
  0
BLOCK
  8
0
  2
B815876
 70
0
 10
0
 20
0
  0
ENDBLK
  8
0
  0
ENDSEC
  0
SECTION
  2
ENTITIES
  0
INSERT
  8
1
  2
B704878_00991473
 10
210.6000325
 20
223.035997774087
  0
INSERT
  8
_LabelDrawingFrame
  2
B815789
 10
87.2283164567574
 20
20.312153965446
  0
INSERT
  8
_LabelDrawingFrame
  2
B815794
 10
6.69168295983194
 20
23.630048366747
 50
90
  0
INSERT
  8
_LabelDrawingFrame
  2
B815867
 10
123.477505654354
 20
10.3621818204234
  0
INSERT
  8
_LabelDrawingFrame
  2
B815816
 10
42.9289230039446
 20
31.6036099308851
  0
INSERT
  8
1
  2
B450328_00992233
 10
91.1625241052246
 20
234.05346599291
  0
INSERT
  8
1
  2
B450337
 10
97.6826247583961
 20
240.391304172975
  0
INSERT
  8
_LabelDrawingFrame
  2
B815775
 10
198.971605419377
 20
16.4114950739957
  0
INSERT
  8
_LabelDrawingFrame
  2
B815805
 10
63.8682829598319
 20
18.454748366747
 50
90
  0
INSERT
  8
1
  2
B712791_00991473
 10
48.7500241052246
 20
223.035965465261
  0
INSERT
  8
1
  2
B45934
 10
102.215498661409
 20
112.389481380645
  0
INSERT
  8
1
  2
B422912
 10
39.1826247583962
 20
240.391303645326
  0
INSERT
  8
_LabelDrawingFrame
  2
B815820
 10
29.8497192121383
 20
15.6649185977912
  0
INSERT
  8
_LabelDrawingFrame
  2
B815853
 10
71.4882774697159
 20
26.049675977865
  0
INSERT
  8
_LabelDrawingFrame
  2
B815873
 10
105.309924862567
 20
10.393762386229
  0
INSERT
  8
_LabelDrawingFrame
  2
B815818
 10
234.266666004506
 20
15.5479814196892
  0
INSERT
  8
_LabelDrawingFrame
  2
B815808
 10
226.40084231867
 20
13.2300455830887
  0
INSERT
  8
1
  2
B49449
 10
58.1859904646874
 20
153.518128531667
  0
INSERT
  8
_LabelDrawingFrame
  2
B815766
 10
153.264606111577
 20
3.92496693134308
  0
INSERT
  8
1
  2
B710660
 10
36.0750241052246
 20
231.01742885585
  0
INSERT
  8
_LabelDrawingFrame
  2
B815783
 10
53.4990381726157
 20
10.1350516594984
  0
INSERT
  8
1
  2
B706975_00991473
 10
218.4000325
 20
223.035997774087
  0
INSERT
  8
1
  2
TRICON
 10
154.064876605225
 20
208.898497774087
  0
INSERT
  8
_LabelDrawingFrame
  2
B815784
 10
123.62593051036
 20
25.6486016594983
  0
INSERT
  8
1
  2
B456580
 10
148.299976638508
 20
227.786054594022
  0
INSERT
  8
_LabelDrawingFrame
  2
B815801
 10
131.491682959832
 20
18.4300432698382
 50
90
  0
INSERT
  8
1
  2
TRICON
 10
214.5000325
 20
208.898497774087
  0
INSERT
  8
_LabelDrawingFrame
  2
B815790
 10
79.4916748348347
 20
23.6300456584137
 50
89.9999701584533
  0
INSERT
  8
_LabelDrawingFrame
  2
B815851
 10
53.3869938162267
 20
26.0848447355525
  0
INSERT
  8
_LabelDrawingFrame
  2
B815837
 10
42.9289230039446
 20
36.8036099308851
  0
INSERT
  8
_LabelDrawingFrame
  2
B815748
 10
0.221445436030055
 20
188.083265782353
 50
270
  0
INSERT
  8
_LabelDrawingFrame
  2
B815869
 10
105.29807401407
 20
20.7525877244823
  0
INSERT
  8
1
  2
B45928_00991756
 10
74.4018693861414
 20
109.448497774087
  0
INSERT
  8
1
  2
B696250_00991473
 10
107.250024105225
 20
223.03596599291
  0
INSERT
  8
1
  2
B49451
 10
56.2359904646873
 20
164.341304891797
  0
INSERT
  8
1
  2
B51544
 10
140.085990464687
 20
111.320680872679
  0
INSERT
  8
1
  2
B700254
 10
145.289876605225
 20
231.017445274087
  0
INSERT
  8
_LabelDrawingFrame
  2
B815729
 10
244.060069958417
 20
337.292300330974
  0
INSERT
  8
_LabelDrawingFrame
  2
B815796
 10
154.989067088844
 20
33.8934258840407
 50
90
  0
INSERT
  8
_LabelDrawingFrame
  2
B815731
 10
244.239038531034
 20
217.816333162166
 50
360
  0
INSERT
  8
_LabelDrawingFrame
  2
B815730
 10
244.010131321103
 20
278.142300330974
  0
INSERT
  8
_LabelDrawingFrame
  2
B815782
 10
30.0911198805153
 20
10.1869165426471
  0
INSERT
  8
1
  2
B555191
 10
160.707301216717
 20
289.823421945135
  0
INSERT
  8
1
  2
B459866
 10
208.832633153172
 20
240.391304172975
  0
INSERT
  8
1
  2
B103101_00991738
 10
102.8625
 20
312.735997774087
  0
INSERT
  8
_LabelDrawingFrame
  2
B815833
 10
158.508150399227
 20
10.3512756000581
  0
INSERT
  8
1
  2
B702309_00991473
 10
157.964876605225
 20
223.035997774087
  0
INSERT
  8
_LabelDrawingFrame
  2
B815757
 10
3.48801665306091
 20
247.87345728836
  0
INSERT
  8
_LabelDrawingFrame
  2
B815828
 10
234.236613402067
 20
10.3141242686795
  0
INSERT
  8
_LabelDrawingFrame
  2
B815871
 10
105.275137386713
 20
15.579770996315
  0
INSERT
  8
_LabelDrawingFrame
  2
B815859
 10
224.362471698754
 20
20.7941314196891
  0
INSERT
  8
1
  2
B422903_00992233
 10
32.6625241052246
 20
234.053465465261
  0
INSERT
  8
_LabelDrawingFrame
  2
B815754
 10
3.27394517093657
 20
97.5845065351478
  0
INSERT
  8
_LabelDrawingFrame
  2
B815756
 10
3.48801665306091
 20
308.11545728836
  0
INSERT
  8
_LabelDrawingFrame
  2
B815788
 10
219.958977613411
 20
10.0486016594983
  0
INSERT
  8
1
  2
B528205_00991453
 10
92.625
 20
278.123497774087
  0
INSERT
  8
1
  2
B450335
 10
97.5851241385079
 20
227.786054594022
  0
INSERT
  8
_LabelDrawingFrame
  2
B815799
 10
123.691682959832
 20
8.03004836674703
  0
INSERT
  8
_LabelDrawingFrame
  2
B815744
 10
123.61614821168
 20
374.640889628925
  0
INSERT
  8
_LabelDrawingFrame
  2
B815774
 10
11.9416002898759
 20
10.2356865303469
  0
INSERT
  8
1
  2
B628130
 10
196.157648783283
 20
266.423543454152
  0
INSERT
  8
_LabelDrawingFrame
  2
B815824
 10
53.3153379121677
 20
15.6580612177173
  0
INSERT
  8
_LabelDrawingFrame
  2
B815809
 10
213.440374948303
 20
23.6300410943081
 50
-179.999984709723
  0
INSERT
  8
_LabelDrawingFrame
  2
B815763
 10
182.11614821168
 20
371.390876655117
 50
90.0001859795096
  0
INSERT
  8
_LabelDrawingFrame
  2
B815798
 10
213.471293437884
 20
18.4786601957326
 50
179.999997096096
  0
INSERT
  8
1
  2
B694720
 10
94.5750241052246
 20
231.017429383499
  0
INSERT
  8
1
  2
TRICON
 10
173.55
 20
183.548497774087
  0
INSERT
  8
1
  2
B77140_00991235
 10
59.9625
 20
294.454747774087
  0
INSERT
  8
1
  2
B413907
 10
1.95
 20
372.698497774087
  0
INSERT
  8
_LabelDrawingFrame
  2
B815861
 10
198.898383976305
 20
10.3755111712947
  0
INSERT
  8
1
  2
B459865
 10
220.035990464687
 20
227.688554594022
  0
INSERT
  8
_LabelDrawingFrame
  2
B815773
 10
123.821006818636
 20
187.324248887044
  0
INSERT
  8
_LabelDrawingFrame
  2
B815769
 10
65.1161482116805
 20
371.36742605138
 50
90
  0
INSERT
  8
_LabelDrawingFrame
  2
B815738
 10
211.753164627276
 20
370.715922697582
 50
360
  0
INSERT
  8
1
  2
B456581
 10
159.600842964687
 20
227.688554594022
  0
INSERT
  8
1
  2
TRICON
 10
103.35
 20
208.898497774087
  0
INSERT
  8
_LabelDrawingFrame
  2
B815875
 10
123.571180259005
 20
23.3486010639871
  0
INSERT
  8
_LabelDrawingFrame
  2
B815736
 10
94.7531646272765
 20
370.715922697582
 50
360
  0
INSERT
  8
_LabelDrawingFrame
  2
B815753
 10
3.43898517212455
 20
157.468980197462
  0
INSERT
  8
_LabelDrawingFrame
  2
B815814
 10
117.254245736849
 20
32.001799777517
  0
INSERT
  8
_LabelDrawingFrame
  2
B815845
 10
71.483350162092
 20
20.849675977865
  0
INSERT
  8
_LabelDrawingFrame
  2
B815835
 10
197.818939627308
 20
31.9886219753486
  0
INSERT
  8
_LabelDrawingFrame
  2
B815855
 10
11.6672161947034
 20
26.0529259778649
  0
INSERT
  8
_LabelDrawingFrame
  2
B815797
 10
17.0916829598319
 20
18.3617290519533
 50
90
  0
INSERT
  8
1
  2
B422913
 10
46.7876241385079
 20
240.418376864149
  0
INSERT
  8
1
  2
B700252_00991473
 10
150.164876605225
 20
223.035997774087
  0
INSERT
  8
_LabelDrawingFrame
  2
B815739
 10
243.86614821168
 20
308.140497774087
  0
INSERT
  8
_LabelDrawingFrame
  2
B815786
 10
196.989285143067
 20
20.4486016594983
  0
INSERT
  8
1
  2
B459864
 10
208.735132533283
 20
227.786054594022
  0
INSERT
  8
1
  2
TRICON
 10
44.879705
 20
208.898514119674
  0
INSERT
  8
_LabelDrawingFrame
  2
B815749
 10
123.61614821168
 20
8.04088962892484
  0
INSERT
  8
_LabelDrawingFrame
  2
B815831
 10
158.501657849726
 20
15.5512756000581
  0
INSERT
  8
1
  2
B51541_00991513
 10
128.7
 20
116.273497774087
  0
INSERT
  8
1
  2
B49450
 10
51.0140095353127
 20
153.518128531667
  0
INSERT
  8
_LabelDrawingFrame
  2
B815791
 10
95.0916720540261
 20
18.292678172105
 50
89.9999399176302
  0
INSERT
  8
_LabelDrawingFrame
  2
B815776
 10
87.1865592862753
 20
15.1896865002698
  0
INSERT
  8
_LabelDrawingFrame
  2
B815768
 10
123.61614821168
 20
1.54088962892484
 50
0.00889757212410906
  0
INSERT
  8
1
  2
B694718_00991473
 10
99.4500241052246
 20
223.03596599291
  0
INSERT
  8
_LabelDrawingFrame
  2
B815747
 10
6.72144543603009
 20
188.083265782353
 50
270
  0
INSERT
  8
_LabelDrawingFrame
  2
B815787
 10
197.629808873586
 20
37.2114950739957
  0
INSERT
  8
_LabelDrawingFrame
  2
B815822
 10
158.506292904591
 20
20.7512756000581
  0
INSERT
  8
_LabelDrawingFrame
  2
B815778
 10
197.024719392063
 20
25.6486016594983
  0
INSERT
  8
1
  2
B456573_00992233
 10
141.877376605225
 20
234.05346599291
  0
INSERT
  8
_LabelDrawingFrame
  2
B815740
 10
243.86614821168
 20
247.898497774087
  0
INSERT
  8
1
  2
B422911
 10
50.3859904646874
 20
227.688554066373
  0
INSERT
  8
1
  2
B422910
 10
39.0851241385079
 20
227.786054066373
  0
INSERT
  8
1
  2
B413909
 10
1.95
 20
372.698497774087
  0
INSERT
  8
_LabelDrawingFrame
  2
B815745
 10
247.11614821168
 20
188.098497774087
 50
270
  0
INSERT
  8
_LabelDrawingFrame
  2
B815765
 10
93.9905732803851
 20
3.92496693134308
 50
360
  0
INSERT
  8
1
  2
B710658_00991473
 10
40.9500241052246
 20
223.035965465261
  0
INSERT
  8
1
  2
B555171_00991453
 10
143.325
 20
278.123497774087
  0
INSERT
  8
_LabelDrawingFrame
  2
B815810
 10
186.091682959832
 20
18.430048366747
 50
90
  0
INSERT
  8
1
  2
B549018_00991453
 10
110.175
 20
278.123497774087
  0
INSERT
  8
1
  2
B555180
 10
143.142448716717
 20
289.823452094022
  0
INSERT
  8
_LabelDrawingFrame
  2
B815847
 10
11.6436675479795
 20
20.8529259778649
  0
INSERT
  8
1
  2
B628141
 10
217.637321283283
 20
266.42357360304
  0
INSERT
  8
_LabelDrawingFrame
  2
B815760
 10
3.48801665306091
 20
67.8234572883598
  0
INSERT
  8
_LabelDrawingFrame
  2
B815779
 10
71.6033935714995
 20
10.1019016594984
  0
INSERT
  8
1
  2
B80364_00991738
 10
215.992205
 20
312.735997774087
  0
INSERT
  8
_LabelDrawingFrame
  2
B815839
 10
11.6509262193036
 20
15.6529259778649
  0
INSERT
  8
_LabelDrawingFrame
  2
B815793
 10
123.691682959832
 20
28.830048366747
  0
INSERT
  8
1
  2
B450336
 10
108.885990464687
 20
227.688554594022
  0
INSERT
  8
1
  2
B459857_00992233
 10
202.3125325
 20
234.05346599291
  0
INSERT
  8
_LabelDrawingFrame
  2
B815806
 10
43.0916829598319
 20
18.430048366747
 50
90
  0
INSERT
  8
_LabelDrawingFrame
  2
B815843
 10
53.3770999047876
 20
20.8472678597839
  0
INSERT
  8
_LabelDrawingFrame
  2
B815802
 10
69.0916829598319
 20
23.6300443211406
  0
INSERT
  8
1
  2
B628132_00991453
 10
217.454705
 20
278.123497774087
 50
180
  0
INSERT
  8
_LabelDrawingFrame
  2
B815758
 10
3.48801665306091
 20
188.07345728836
  0
INSERT
  8
_LabelDrawingFrame
  2
B815795
 10
123.691682959832
 20
39.230048366747
  0
INSERT
  8
_LabelDrawingFrame
  2
B815764
 10
36.2646061115771
 20
3.92496693134308
  0
INSERT
  8
1
  2
B422909
 10
43.5701241385078
 20
227.786054066373
  0
INSERT
  8
_LabelDrawingFrame
  2
B815761
 10
240.61614821168
 20
188.012152088586
 50
90
  0
INSERT
  8
1
  2
B628121_00991453
 10
195.9750325
 20
278.123497774087
 50
180
  0
INSERT
  8
_LabelDrawingFrame
  2
B815741
 10
243.86614821168
 20
188.098497774087
  0
INSERT
  8
_LabelDrawingFrame
  2
B815735
 10
36.2531646272765
 20
370.715922697582
  0
INSERT
  8
_LabelDrawingFrame
  2
B815857
 10
224.31007083277
 20
25.9583814196892
  0
INSERT
  8
_LabelDrawingFrame
  2
B815841
 10
29.870406481511
 20
20.8537254858601
  0
INSERT
  8
_LabelDrawingFrame
  2
B815826
 10
71.5017388459788
 20
15.649675977865
  0
INSERT
  8
_LabelDrawingFrame
  2
B815752
 10
3.45291374355314
 20
217.834506535148
 50
360
  0
INSERT
  8
_LabelDrawingFrame
  2
B815781
 10
220.015981457005
 20
15.2486016594983
  0
INSERT
  8
_LabelDrawingFrame
  2
B815742
 10
243.86614821168
 20
128.298497774087
  0
INSERT
  8
_LabelDrawingFrame
  2
B815804
 10
240.691682959832
 20
23.630048366747
 50
-90
  0
INSERT
  8
_LabelDrawingFrame
  2
B815751
 10
3.22400653362274
 20
278.160473703956
 50
360
  0
INSERT
  8
1
  2
B115465_00993166
 10
31.2
 20
109.448497774087
  0
INSERT
  8
_LabelDrawingFrame
  2
B815780
 10
117.287302699711
 20
37.2114950739957
  0
INSERT
  8
_LabelDrawingFrame
  2
B815770
 10
65.1161672292828
 20
4.70255499999998
 50
90
  0
INSERT
  8
1
  2
B51545
 10
117.660990464687
 20
111.320680872679
  0
INSERT
  8
_LabelDrawingFrame
  2
B815759
 10
3.48801665306091
 20
128.27345728836
  0
INSERT
  8
_LabelDrawingFrame
  2
B815762
 10
123.61614821168
 20
371.387072648069
 50
90.000132687202
  0
INSERT
  8
_LabelDrawingFrame
  2
B815737
 10
153.253164627276
 20
370.715922697582
  0
INSERT
  8
_LabelDrawingFrame
  2
B815807
 10
212.091682959832
 20
13.2543522516193
 50
90
  0
INSERT
  8
1
  2
B555192
 10
160.575891714687
 20
266.423421945135
  0
INSERT
  8
1
  2
B549027
 10
109.992416216717
 20
289.823452094022
  0
INSERT
  8
1
  2
B528208
 10
92.4424162167168
 20
289.82348224291
  0
INSERT
  8
_LabelDrawingFrame
  2
B815876
 10
123.641054157423
 20
23.4053568913293
  0
INSERT
  8
1
  2
B549028
 10
109.861006714687
 20
266.423452094022
  0
INSERT
  8
1
  2
B45933
 10
46.6600520518937
 20
112.322112614511
  0
INSERT
  8
1
  2
B450338
 10
105.287624138508
 20
240.418377391797
  0
INSERT
  8
_LabelDrawingFrame
  2
B815734
 10
243.828076944501
 20
36.9923003309744
  0
INSERT
  8
1
  2
B704880
 10
205.7250325
 20
231.017445274087
  0
INSERT
  8
1
  2
B528209
 10
92.3110067146874
 20
266.42348224291
  0
INSERT
  8
1
  2
B456583
 10
156.002476638508
 20
240.418377391797
  0
INSERT
  8
_LabelDrawingFrame
  2
B815743
 10
243.86614821168
 20
67.8484977740874
  0
INSERT
  8
_LabelDrawingFrame
  2
B815813
 10
123.722598517672
 20
23.5613632694289
  0
INSERT
  8
1
  2
B459867
 10
216.437632533283
 20
240.418377391797
  0
INSERT
  8
1
  2
B628131
 10
196.289058285313
 20
289.823543454153
  0
INSERT
  8
1
  2
B45932
 10
46.5498297504016
 20
102.019926345516
  0
INSERT
  8
_LabelDrawingFrame
  2
B815803
 10
69.0916829598319
 20
18.430048366747
  0
INSERT
  8
1
  2
B79213_00991738
 10
153.5773525
 20
312.736030274087
  0
INSERT
  8
_LabelDrawingFrame
  2
B815767
 10
211.764606111577
 20
3.92496693134308
 50
360
  0
INSERT
  8
_LabelDrawingFrame
  2
B815785
 10
105.444438172616
 20
25.6486016594983
  0
INSERT
  8
_LabelDrawingFrame
  2
B815792
 10
69.0916829598319
 20
13.230048366747
  0
INSERT
  8
1
  2
B49444_00991471
 10
52.1625
 20
158.929716711732
  0
INSERT
  8
_LabelDrawingFrame
  2
B815771
 10
123.616167028284
 20
4.72174496669846
 50
-89.9998114304797
  0
INSERT
  8
1
  2
B456579
 10
152.784976638508
 20
227.786054594022
  0
INSERT
  8
1
  2
B555181
 10
143.011039214687
 20
266.423452094022
  0
INSERT
  8
_LabelDrawingFrame
  2
B815863
 10
123.460599775318
 20
20.7621818204234
  0
INSERT
  8
_LabelDrawingFrame
  2
B815800
 10
115.891682959832
 20
18.4300432698382
 50
90
  0
INSERT
  8
1
  2
B555182_00991453
 10
160.8898525
 20
278.123497774087
  0
INSERT
  8
_LabelDrawingFrame
  2
B815750
 10
3.27394517093657
 20
337.310473703956
 50
360
  0
INSERT
  8
1
  2
B456582
 10
148.397477258396
 20
240.391304172975
  0
INSERT
  8
1
  2
B459863
 10
213.220132533283
 20
227.786054594022
  0
INSERT
  8
_LabelDrawingFrame
  2
B815865
 10
123.447356983262
 20
15.5621818204234
  0
INSERT
  8
_LabelDrawingFrame
  2
B815746
 10
123.61614821168
 20
368.140889628925
  0
INSERT
  8
_LabelDrawingFrame
  2
B815755
 10
3.04195215702057
 20
37.0104737039558
  0
INSERT
  8
_LabelDrawingFrame
  2
B815772
 10
182.116166827285
 20
4.72173912226458
 50
-90.0001653137182
  0
INSERT
  8
1
  2
B450334
 10
102.070124138508
 20
227.786054594022
  0
INSERT
  8
_LabelDrawingFrame
  2
B815732
 10
244.225109959605
 20
157.450806824481
 50
360
  0
INSERT
  8
_LabelDrawingFrame
  2
B815777
 10
87.3156055444548
 20
10.1733249067307
  0
INSERT
  8
1
  2
B628142
 10
217.768730785313
 20
289.82357360304
  0
INSERT
  8
_LabelDrawingFrame
  2
B815849
 10
29.8919608915141
 20
26.0743128167333
  0
INSERT
  8
_LabelDrawingFrame
  2
B815733
 10
244.060069958417
 20
97.5663331621664
  0
INSERT
  8
_LabelDrawingFrame
  2
B815811
 10
168.799583393756
 20
25.3218322464829
 41
0.6
 42
0.5
  0
POLYLINE
  8
1
 62
7
 66
1
  0
VERTEX
  8
1
 62
7
 10
103.35
 20
109.448497774087
  0
VERTEX
  8
1
 62
7
 10
115.05
 20
109.448497774087
  0
SEQEND
  8
1
  0
POLYLINE
  8
1
 62
7
 66
1
  0
VERTEX
  8
1
 62
7
 10
54.6
 20
165.998466711732
  0
VERTEX
  8
1
 62
7
 10
54.6
 20
183.548497774087
  0
VERTEX
  8
1
 62
7
 10
173.55
 20
183.548497774087
  0
SEQEND
  8
1
  0
POLYLINE
  8
1
 62
7
 66
1
  0
VERTEX
  8
1
 62
7
 10
142.35
 20
109.448497774087
  0
VERTEX
  8
1
 62
7
 10
173.55
 20
109.448497774087
  0
VERTEX
  8
1
 62
7
 10
173.55
 20
183.548497774087
  0
SEQEND
  8
1
  0
POLYLINE
  8
1
 62
7
 66
1
  0
VERTEX
  8
1
 62
7
 10
142.3648525
 20
306.398530274087
  0
VERTEX
  8
1
 62
7
 10
142.3648525
 20
298.598498949644
  0
VERTEX
  8
1
 62
7
 10
140.4
 20
298.598498949644
  0
VERTEX
  8
1
 62
7
 10
140.4
 20
290.7984676252
  0
SEQEND
  8
1
  0
POLYLINE
  8
1
 62
7
 66
1
  0
VERTEX
  8
1
 62
7
 10
157.9648525
 20
306.398530274087
  0
VERTEX
  8
1
 62
7
 10
157.9648525
 20
290.7984676252
  0
SEQEND
  8
1
  0
POLYLINE
  8
1
 62
7
 66
1
  0
VERTEX
  8
1
 62
7
 10
107.25
 20
306.398497774087
  0
VERTEX
  8
1
 62
7
 10
107.25
 20
290.798497774087
  0
SEQEND
  8
1
  0
POLYLINE
  8
1
 62
7
 66
1
  0
VERTEX
  8
1
 62
7
 10
33.15
 20
109.448497774087
  0
VERTEX
  8
1
 62
7
 10
44.85
 20
109.448497774087
  0
SEQEND
  8
1
  0
POLYLINE
  8
1
 62
7
 66
1
  0
VERTEX
  8
1
 62
7
 10
173.55
 20
183.548497774087
  0
VERTEX
  8
1
 62
7
 10
173.55
 20
208.898514119674
  0
VERTEX
  8
1
 62
7
 10
44.879705
 20
208.898514119674
  0
SEQEND
  8
1
  0
POLYLINE
  8
1
 62
7
 66
1
  0
VERTEX
  8
1
 62
7
 10
40.9500241052246
 20
242.048465465261
  0
VERTEX
  8
1
 62
7
 10
40.9500241052246
 20
306.398497774088
  0
VERTEX
  8
1
 62
7
 10
79.95
 20
306.398497774088
  0
VERTEX
  8
1
 62
7
 10
79.95
 20
281.373497774088
  0
VERTEX
  8
1
 62
7
 10
64.35
 20
281.373497774088
  0
VERTEX
  8
1
 62
7
 10
64.35
 20
286.898497774088
  0
SEQEND
  8
1
  0
POLYLINE
  8
1
 62
7
 66
1
  0
VERTEX
  8
1
 62
7
 10
48.7500241052246
 20
242.048465465261
  0
VERTEX
  8
1
 62
7
 10
48.7500241052246
 20
286.898497774088
  0
SEQEND
  8
1
  0
POLYLINE
  8
1
 62
7
 66
1
  0
VERTEX
  8
1
 62
7
 10
99.4500241052246
 20
242.04846599291
  0
VERTEX
  8
1
 62
7
 10
99.4500241052246
 20
253.748481883499
  0
VERTEX
  8
1
 62
7
 10
89.7
 20
253.748481883499
  0
VERTEX
  8
1
 62
7
 10
89.7
 20
265.448497774087
  0
SEQEND
  8
1
  0
POLYLINE
  8
1
 62
7
 66
1
  0
VERTEX
  8
1
 62
7
 10
107.250024105225
 20
242.04846599291
  0
VERTEX
  8
1
 62
7
 10
107.250024105225
 20
265.448497774087
  0
SEQEND
  8
1
  0
POLYLINE
  8
1
 62
7
 66
1
  0
VERTEX
  8
1
 62
7
 10
103.350024105225
 20
226.44846599291
  0
VERTEX
  8
1
 62
7
 10
103.350024105225
 20
208.898481619674
  0
SEQEND
  8
1
  0
POLYLINE
  8
1
 62
7
 66
1
  0
VERTEX
  8
1
 62
7
 10
44.879705
 20
208.898514119674
  0
VERTEX
  8
1
 62
7
 10
44.879705
 20
217.673489792468
  0
VERTEX
  8
1
 62
7
 10
44.85
 20
217.673489792468
  0
VERTEX
  8
1
 62
7
 10
44.85
 20
226.448465465261
  0
SEQEND
  8
1
  0
POLYLINE
  8
1
 62
7
 66
1
  0
VERTEX
  8
1
 62
7
 10
150.164876605225
 20
242.04846599291
  0
VERTEX
  8
1
 62
7
 10
150.164876605225
 20
253.748481883499
  0
VERTEX
  8
1
 62
7
 10
140.4000325
 20
253.748481883499
  0
VERTEX
  8
1
 62
7
 10
140.4000325
 20
265.448497774087
  0
SEQEND
  8
1
  0
POLYLINE
  8
1
 62
7
 66
1
  0
VERTEX
  8
1
 62
7
 10
157.964876605225
 20
242.04846599291
  0
VERTEX
  8
1
 62
7
 10
157.964876605225
 20
265.448497774087
  0
SEQEND
  8
1
  0
POLYLINE
  8
1
 62
7
 66
1
  0
VERTEX
  8
1
 62
7
 10
154.064876605225
 20
226.44846599291
  0
VERTEX
  8
1
 62
7
 10
154.064876605225
 20
208.898514119674
  0
SEQEND
  8
1
  0
POLYLINE
  8
1
 62
7
 66
1
  0
VERTEX
  8
1
 62
7
 10
210.6000325
 20
242.04846599291
  0
VERTEX
  8
1
 62
7
 10
210.6000325
 20
247.898497774087
  0
VERTEX
  8
1
 62
7
 10
183.3
 20
247.898497774087
  0
VERTEX
  8
1
 62
7
 10
183.3
 20
325.898497774087
  0
VERTEX
  8
1
 62
7
 10
234
 20
325.898497774087
  0
VERTEX
  8
1
 62
7
 10
234
 20
259.598530274087
  0
VERTEX
  8
1
 62
7
 10
220.379705
 20
259.598530274087
  0
VERTEX
  8
1
 62
7
 10
220.379705
 20
265.448497774087
  0
SEQEND
  8
1
  0
POLYLINE
  8
1
 62
7
 66
1
  0
VERTEX
  8
1
 62
7
 10
218.4000325
 20
242.04846599291
  0
VERTEX
  8
1
 62
7
 10
218.4000325
 20
253.748485783499
  0
VERTEX
  8
1
 62
7
 10
198.9000169
 20
253.748485783499
  0
VERTEX
  8
1
 62
7
 10
198.9000169
 20
265.448497774087
  0
SEQEND
  8
1
  0
POLYLINE
  8
1
 62
7
 66
1
  0
VERTEX
  8
1
 62
7
 10
214.5000325
 20
226.44846599291
  0
VERTEX
  8
1
 62
7
 10
214.5000325
 20
208.898481619674
  0
SEQEND
  8
1
  0
POLYLINE
  8
1
 62
7
 66
1
  0
VERTEX
  8
1
 62
7
 10
103.35
 20
208.898497774087
  0
VERTEX
  8
1
 62
7
 10
44.879705
 20
208.898497774087
  0
SEQEND
  8
1
  0
POLYLINE
  8
1
 62
7
 66
1
  0
VERTEX
  8
1
 62
7
 10
154.064876605225
 20
208.898497774087
  0
VERTEX
  8
1
 62
7
 10
103.35
 20
208.898497774087
  0
SEQEND
  8
1
  0
POLYLINE
  8
1
 62
7
 66
1
  0
VERTEX
  8
1
 62
7
 10
214.5000325
 20
208.898497774087
  0
VERTEX
  8
1
 62
7
 10
154.064876605224
 20
208.898497774087
  0
SEQEND
  8
1
  0
POLYLINE
  8
1
 62
7
 66
1
  0
VERTEX
  8
1
 62
7
 10
89.7
 20
290.798497774087
  0
VERTEX
  8
1
 62
7
 10
89.7
 20
298.598514024087
  0
VERTEX
  8
1
 62
7
 10
91.65
 20
298.598514024087
  0
VERTEX
  8
1
 62
7
 10
91.65
 20
306.398497774087
  0
SEQEND
  8
1
  0
POLYLINE
  8
1
 62
7
 66
1
  0
VERTEX
  8
1
 62
7
 10
198.9000325
 20
290.798497774087
  0
VERTEX
  8
1
 62
7
 10
198.9000325
 20
298.598497774087
  0
VERTEX
  8
1
 62
7
 10
204.7797375
 20
298.598497774087
  0
VERTEX
  8
1
 62
7
 10
204.7797375
 20
306.398497774087
  0
SEQEND
  8
1
  0
POLYLINE
  8
1
 62
7
 66
1
  0
VERTEX
  8
1
 62
7
 10
220.379705
 20
290.798497774087
  0
VERTEX
  8
1
 62
7
 10
220.379705
 20
306.398497774087
  0
SEQEND
  8
1
  0
ENDSEC
  0
EOF
