  0
SECTION
  2
HEADER
  9
$LIMMIN
 10
0
 20
0
  9
$LIMMAX
 10
68.25
 20
96.525
  9
$EXTMIN
 10
0
 20
142.3825
  9
$EXTMAX
 10
0
 20
163.8
  0
ENDSEC
  0
SECTION
  2
TABLES
  0
TABLE
  2
LTYPE
 70
9
  0
LTYPE
  2
CONTINUOUS
 70
64
  3
Solid line
 72
65
 73
0
 40
0
  0
LTYPE
  2
DASHED
 70
64
  3
__ __ __ __ __ __ __ __ __
 72
65
 73
2
 40
0.75
 49
0.5
 49
-0.25
  0
LTYPE
  2
DOT
 70
64
  3
...........................
 72
65
 73
2
 40
0.25
 49
0
 49
-0.25
  0
LTYPE
  2
DASHDOT
 70
64
  3
__ . __ . __ . __ . __ . __ . 
 72
65
 73
4
 40
1
 49
0.5
 49
-0.25
 49
0
 49
-0.25
  0
ENDTAB
  0
TABLE
  2
LAYER
 70
10
  0
LAYER
  2
1
 70
0
 62
7
  6
CONTINUOUS
  0
LAYER
  2
CONNECTIONS
 70
0
 62
-7
  6
CONTINUOUS
  0
ENDTAB
  0
ENDSEC
  0
SECTION
  2
BLOCKS
  0
BLOCK
  8
0
  2
TRICON
 70
0
 10
0
 20
0
  0
POLYLINE
  8
1
 62
7
 70
1
 66
1
 40
0.65
 41
0.65
  0
VERTEX
  8
1
 10
-0.325
 20
0
 42
1
  0
VERTEX
  8
1
 10
0.325
 20
0
 42
1
  0
SEQEND
  8
1
  0
ENDBLK
  8
0
  0
BLOCK
  8
0
  2
TRICONSMALL
 70
0
 10
0
 20
0
  0
POLYLINE
  8
1
 62
7
 70
1
 66
1
 40
0.325
 41
0.325
  0
VERTEX
  8
1
 10
-0.1625
 20
0
 42
1
  0
VERTEX
  8
1
 10
0.1625
 20
0
 42
1
  0
SEQEND
  8
1
  0
ENDBLK
  8
0
  0
BLOCK
  8
0
  2
LCBP0
 70
0
 10
0
 20
0
  0
LINE
  8
1
 62
7
 10
0
 20
-0.609375
 11
0
 21
0.609375
  0
ENDBLK
  8
0
  0
BLOCK
  8
0
  2
LCBP1
 70
0
 10
0
 20
0
  0
LINE
  8
1
 62
7
 10
0
 20
-0.8125
 11
0
 21
0.8125
  0
ENDBLK
  8
0
  0
BLOCK
  8
0
  2
LCBP2
 70
0
 10
0
 20
0
  0
LINE
  8
1
 62
7
 10
0
 20
-1.21875
 11
0
 21
1.21875
  0
ENDBLK
  8
0
  0
BLOCK
  8
0
  2
LCA1
 70
0
 10
0
 20
0
  0
SOLID
  8
1
 62
7 
 10
0
 20
0
 11
-1.82
 21
-0.3575
 12
-1.82
 22
0.3575
 13
-1.82
 23
0.3575
  0
ENDBLK
  8
0
  0
BLOCK
  8
0
  2
LCA2
 70
0
 10
0
 20
0
  0
SOLID
  8
1
 62
7 
 10
0
 20
0
 11
-2.145
 21
-0.6825
 12
-2.145
 22
0.6825
 13
-2.145
 23
0.6825
  0
ENDBLK
  8
0
  0
BLOCK
  8
0
  2
LCA3
 70
0
 10
0
 20
0
  0
SOLID
  8
1
 62
7 
 10
0
 20
0
 11
-2.795
 21
-1.495
 12
-2.795
 22
1.495
 13
-2.795
 23
1.495
  0
ENDBLK
  8
0
  0
BLOCK
  8
0
  2
LCA1R
 70
0
 10
0
 20
0
  0
SOLID
  8
1
 62
7 
 10
0
 20
0
 11
1.82
 21
-0.3575
 12
1.82
 22
0.3575
 13
1.82
 23
0.3575
  0
ENDBLK
  8
0
  0
BLOCK
  8
0
  2
LCA2R
 70
0
 10
0
 20
0
  0
SOLID
  8
1
 62
7 
 10
0
 20
0
 11
2.145
 21
-0.6825
 12
2.145
 22
0.6825
 13
2.145
 23
0.6825
  0
ENDBLK
  8
0
  0
BLOCK
  8
0
  2
LCA3R
 70
0
 10
0
 20
0
  0
SOLID
  8
1
 62
7 
 10
0
 20
0
 11
2.795
 21
-1.495
 12
2.795
 22
1.495
 13
2.795
 23
1.495
  0
ENDBLK
  8
0
  0
BLOCK
  8
0
  2
B1054565_00991756
 70
0
 10
0
 20
0
  0
POLYLINE
  8
1
 62
7
  6
DASHDOT
 66
1
  0
VERTEX
  8
1
 62
7
 10
-25.6518693861414
 20
19.5
  0
VERTEX
  8
1
 62
7
 10
25.0481306138586
 20
19.5
  0
VERTEX
  8
1
 62
7
 10
25.0481306138586
 20
-15.6
  0
VERTEX
  8
1
 62
7
 10
-25.6518693861414
 20
-15.6
  0
VERTEX
  8
1
 62
7
 10
-25.6518693861414
 20
19.5
  0
SEQEND
  8
1
  0
LINE
  8
1
 62
7
 10
25.0481306138586
 20
0
 11
28.9481306138586
 21
0
  0
LINE
  8
1
 62
7
 10
-4.20186938614142
 20
-15.6
 11
-4.20186938614142
 21
-19.5
  0
LINE
  8
1
 62
7
 10
-25.6518693861414
 20
-3.9
 11
-29.5518693861414
 21
-3.9
  0
LINE
  8
1
 62
7
 10
-29.5518693861414
 20
0
 11
-25.6518693861414
 21
0
  0
LINE
  8
1
 62
7
 10
13.3481306138586
 20
0
 11
25.0481306138586
 21
0
  0
POLYLINE
  8
1
 62
7
 66
1
  0
VERTEX
  8
1
 62
7
 10
3.59813061385856
 20
0
  0
VERTEX
  8
1
 62
7
 10
3.59813061385856
 20
-9.75
  0
VERTEX
  8
1
 62
7
 10
5.54813061385856
 20
-9.75
  0
SEQEND
  8
1
  0
LINE
  8
1
 62
7
 10
-4.20186938614142
 20
-5.54223484848485
 11
-4.20186938614142
 21
-15.6
  0
LINE
  8
1
 62
7
 10
-13.9518693861414
 20
0
 11
-9.71730227939647
 21
0
  0
LINE
  8
1
 62
7
 10
-21.7518693861414
 20
-3.9
 11
-25.6518693861414
 21
-3.9
  0
LINE
  8
1
 62
7
 10
-25.6518693861414
 20
0
 11
-21.7518693861414
 21
0
  0
LINE
  8
1
 62
7
 10
1.31356350711366
 20
0
 11
5.54813061385858
 21
0
  0
POLYLINE
  8
1
 62
7
 70
1
 66
1
 40
0.4875
 41
0.4875
  0
VERTEX
  8
1
 10
3.35438061385858
 20
0
 42
1
  0
VERTEX
  8
1
 10
3.84188061385858
 20
0
 42
1
  0
SEQEND
  8
1
  0
POLYLINE
  8
1
 62
7
 70
1
 66
1
 40
0.4875
 41
0.4875
  0
VERTEX
  8
1
 10
17.0043806138586
 20
0
 42
1
  0
VERTEX
  8
1
 10
17.4918806138586
 20
0
 42
1
  0
SEQEND
  8
1
  0
POLYLINE
  8
1
 62
7
 66
1
  0
VERTEX
  8
1
 62
7
 10
15.2981306138586
 20
-9.75
  0
VERTEX
  8
1
 62
7
 10
17.2481306138586
 20
-9.75
  0
VERTEX
  8
1
 62
7
 10
17.2481306138586
 20
0
  0
SEQEND
  8
1
  0
LINE
  8
1
 62
7
 10
17.2481306138586
 20
5.85
 11
17.2481306138586
 21
0
  0
LINE
  8
1
 62
7
 10
18.9717033930008
 20
8.02642722085779
 11
15.5245578347164
 21
11.4735727791422
  0
INSERT
  8
1
  2
LCA1
 10
15.5245578347164
 20
11.4735727791422
 50
135
  0
CIRCLE
  8
1
 62
7
 10
17.2481306138586
 20
9.75
 40
3.9
  0
LINE
  8
1
 62
7
 10
5.54813061385858
 20
-9.75
 11
8.98403325077541
 21
-9.75263691683571
  0
LINE
  8
1
 62
7
 10
11.3981306138586
 20
-9.75
 11
15.2981306138586
 21
-9.75
  0
CIRCLE
  8
1
 62
7
 10
9.93563061385858
 20
-9.75
 40
0.975
  0
POLYLINE
  8
1
 62
7
 66
1
  0
VERTEX
  8
1
 62
7
 10
9.44813061385856
 20
-11.7
  0
VERTEX
  8
1
 62
7
 10
11.3981306138586
 20
-9.75
  0
VERTEX
  8
1
 62
7
 10
9.44813061385856
 20
-7.80000000000001
  0
SEQEND
  8
1
  0
POLYLINE
  8
1
 62
7
 66
1
  0
VERTEX
  8
1
 62
7
 10
-13.9518693861414
 20
9.75
  0
VERTEX
  8
1
 62
7
 10
-21.7518693861414
 20
9.75
  0
VERTEX
  8
1
 62
7
 10
-21.7518693861414
 20
1.94999999999999
  0
VERTEX
  8
1
 62
7
 10
-13.9518693861414
 20
1.94999999999999
  0
VERTEX
  8
1
 62
7
 10
-13.9518693861414
 20
9.75
  0
SEQEND
  8
1
  0
LINE
  8
1
 62
7
 10
-21.7518693861414
 20
3.9
 11
-19.8018693861414
 21
3.9
  0
INSERT
  8
1
  2
LCBP1
 10
-19.8018693861414
 20
3.9
 50
0
  0
LINE
  8
1
 62
7
 10
-21.7518693861414
 20
7.8
 11
-13.9518693861414
 21
7.8
  0
INSERT
  8
1
  2
LCA1
 10
-13.9518693861414
 20
7.8
 50
0
  0
LINE
  8
1
 62
7
 10
-21.7518693861414
 20
0
 11
-19.8018693861414
 21
0
  0
INSERT
  8
1
  2
LCBP1
 10
-19.8018693861414
 20
0
 50
0
  0
POLYLINE
  8
1
 62
7
 66
1
  0
VERTEX
  8
1
 62
7
 10
-13.9518693861414
 20
1.94999999999999
  0
VERTEX
  8
1
 62
7
 10
-21.7518693861414
 20
1.94999999999999
  0
VERTEX
  8
1
 62
7
 10
-21.7518693861414
 20
-5.84999999999999
  0
VERTEX
  8
1
 62
7
 10
-13.9518693861414
 20
-5.84999999999999
  0
VERTEX
  8
1
 62
7
 10
-13.9518693861414
 20
1.94999999999999
  0
SEQEND
  8
1
  0
LINE
  8
1
 62
7
 10
-13.9518693861414
 20
0
 11
-21.7518693861414
 21
-3.9
  0
INSERT
  8
1
  2
LCA1
 10
-21.7518693861414
 20
-3.9
 50
-153.434948822922
  0
LINE
  8
1
 62
7
 10
-17.8518693861414
 20
12.675
 11
-15.9018693861414
 21
12.675
  0
LINE
  8
1
 62
7
 10
-21.2643693861414
 20
15.6
 11
-18.3393693861414
 21
15.6
  0
LINE
  8
1
 62
7
 10
-18.8268693861414
 20
13.89375
 11
-18.8268693861414
 21
15.6
  0
POLYLINE
  8
1
 62
7
 66
1
  0
VERTEX
  8
1
 62
7
 10
-18.8268693861414
 20
13.89375
  0
VERTEX
  8
1
 62
7
 10
-18.8268693861414
 20
13.40625
  0
VERTEX
  8
1
 62
7
 10
-20.0934315391762
 20
12.675
  0
VERTEX
  8
1
 62
7
 10
-18.8268693861414
 20
11.94375
  0
VERTEX
  8
1
 62
7
 10
-18.8268693861414
 20
11.45625
  0
SEQEND
  8
1
  0
LINE
  8
1
 62
7
 10
-18.8268693861414
 20
9.75
 11
-18.8268693861414
 21
11.45625
  0
LINE
  8
1
 62
7
 10
-20.7768693861414
 20
9.75
 11
-20.7768693861414
 21
15.6
  0
LINE
  8
1
 62
7
  6
DASHED
 10
-4.20185560597615
 20
-2.12973484848484
 11
-4.20185560597615
 21
5.48863093802527
  0
LINE
  8
1
 62
7
 10
-5.54609203689282
 20
-2.12972486276279
 11
-4.20186938614142
 21
-3.47394751351419
  0
LINE
  8
1
 62
7
 10
-4.20186938614142
 20
-3.47394751351419
 11
-2.85768721777667
 21
-2.12976534514945
  0
LINE
  8
1
 62
7
 10
-0.78934799762888
 20
-2.12973484848484
 11
-7.61436321432342
 21
-2.12973484848484
  0
POLYLINE
  8
1
 62
7
 66
1
  0
VERTEX
  8
1
 62
7
 10
-4.20186938614144
 20
5.48863093802524
  0
VERTEX
  8
1
 62
7
 10
-9.7173022793965
 20
-0.0268019552297858
  0
VERTEX
  8
1
 62
7
 10
-4.20186938614144
 20
-5.54223484848492
  0
VERTEX
  8
1
 62
7
 10
1.31356350711377
 20
-0.0268019552297858
  0
VERTEX
  8
1
 62
7
 10
-4.20186938614144
 20
5.48863093802524
  0
SEQEND
  8
1
  0
LINE
  8
1
 62
7
 10
3.16659767828234
 20
7.08860462147179
 11
11.8299323530519
 21
9.48646977884308
  0
INSERT
  8
1
  2
LCA1
 10
11.8299323530519
 20
9.48646977884308
 50
15.4711922908485
  0
POLYLINE
  8
1
 62
7
 66
1
  0
VERTEX
  8
1
 62
7
 10
7.4982389247557
 20
5.85002256477026
  0
VERTEX
  8
1
 62
7
 10
9.4482389247557
 20
6.25627256477026
  0
VERTEX
  8
1
 62
7
 10
5.5482389247557
 20
7.06877256477026
  0
VERTEX
  8
1
 62
7
 10
9.4482389247557
 20
7.88127256477026
  0
VERTEX
  8
1
 62
7
 10
5.5482389247557
 20
8.69377256477026
  0
VERTEX
  8
1
 62
7
 10
9.4482389247557
 20
9.50627256477026
  0
VERTEX
  8
1
 62
7
 10
5.5482389247557
 20
10.3187725647702
  0
VERTEX
  8
1
 62
7
 10
7.4982389247557
 20
10.7250225647702
  0
SEQEND
  8
1
  0
POLYLINE
  8
1
 62
7
 66
1
  0
VERTEX
  8
1
 62
7
 10
5.54813061385856
 20
4.875
  0
VERTEX
  8
1
 62
7
 10
3.59813061385856
 20
3.90000000000001
  0
VERTEX
  8
1
 62
7
 10
5.54813061385856
 20
2.92499999999998
  0
SEQEND
  8
1
  0
POLYLINE
  8
1
 62
7
  6
DOT
 66
1
  0
VERTEX
  8
1
 62
7
 10
7.49813061385856
 20
-1.95000000000002
  0
VERTEX
  8
1
 62
7
 10
7.49813061385856
 20
-5.84999999999999
  0
VERTEX
  8
1
 62
7
 10
15.2981306138586
 20
-5.84999999999999
  0
VERTEX
  8
1
 62
7
 10
15.2981306138586
 20
-1.95000000000002
  0
VERTEX
  8
1
 62
7
 10
13.3481306138586
 20
0
  0
SEQEND
  8
1
  0
POLYLINE
  8
1
 62
7
 66
1
  0
VERTEX
  8
1
 62
7
 10
5.54813061385856
 20
-1.95000000000002
  0
VERTEX
  8
1
 62
7
 10
13.3481306138586
 20
-1.95000000000002
  0
VERTEX
  8
1
 62
7
 10
13.3481306138586
 20
5.84999999999999
  0
VERTEX
  8
1
 62
7
 10
5.54813061385856
 20
5.84999999999999
  0
VERTEX
  8
1
 62
7
 10
5.54813061385856
 20
-1.95000000000002
  0
SEQEND
  8
1
  0
LINE
  8
1
 62
7
 10
13.3481306138586
 20
0
 11
5.54813061385858
 21
0
  0
INSERT
  8
1
  2
LCA1
 10
5.54813061385858
 20
0
 50
-180
  0
INSERT
  8
1
  2
LCA1R
 10
13.3481306138586
 20
0
 50
-180
  0
CIRCLE
  8
CONNECTIONS
 62
7
 10
28.9481306138586
 20
0
 40
0
  0
CIRCLE
  8
CONNECTIONS
 62
7
 10
-29.5518693861414
 20
0
 40
0
  0
CIRCLE
  8
CONNECTIONS
 62
7
 10
-29.5518693861414
 20
-3.9
 40
0
  0
ENDBLK
  8
0
  0
BLOCK
  8
0
  2
B1054574
 70
0
 10
0
 20
0
  0
TEXT
  8
1
 62
7
 40
2.34
 41
0.75
  1
3
  7
STANDARD
 73
2
 10
-1.63599046468735
 20
0
 11
-1.63599046468735
 21
0
  0
ENDBLK
  8
0
  0
BLOCK
  8
0
  2
B1054575
 70
0
 10
0
 20
0
  0
TEXT
  8
1
 62
7
 40
2.34
 41
0.75
  1
1
  7
STANDARD
 72
2
 10
1.63599046468735
 20
-1.07283818006515
 11
1.63599046468735
 21
-1.07283818006515
  0
ENDBLK
  8
0
  0
BLOCK
  8
0
  2
B1054576
 70
0
 10
0
 20
0
  0
TEXT
  8
1
 62
7
 40
2.34
 41
0.75
  1
2
  7
STANDARD
 73
2
 10
-1.63599046468735
 20
0
 11
-1.63599046468735
 21
0
  0
ENDBLK
  8
0
  0
BLOCK
  8
0
  2
B1056948_00993166
 70
0
 10
0
 20
0
  0
LINE
  8
1
 62
7
 10
1.42749907475932
 20
0
 11
1.95
 21
0
  0
LINE
  8
1
 62
7
 10
1.42749907475931
 20
0
 11
-1.95
 21
1.95
  0
LINE
  8
1
 62
7
 10
-1.95
 20
1.95
 11
-1.95
 21
-1.95
  0
LINE
  8
1
 62
7
 10
1.42749907475931
 20
0
 11
-1.95
 21
-1.95
  0
CIRCLE
  8
CONNECTIONS
 62
7
 10
1.95000000000001
 20
0
 40
0
  0
ENDBLK
  8
0
  0
BLOCK
  8
0
  2
B1062072
 70
0
 10
0
 20
0
  0
TEXT
  8
1
 62
7
 40
2.34
 41
0.75
  1
1
  7
STANDARD
 72
2
 73
3
 10
1.63599046468735
 20
1.65783818006516
 11
1.63599046468735
 21
1.65783818006516
  0
ENDBLK
  8
0
  0
BLOCK
  8
0
  2
B1062073
 70
0
 10
0
 20
0
  0
TEXT
  8
1
 62
7
 40
2.34
 41
0.75
  1
5
  7
STANDARD
 72
2
 73
3
 10
1.63599046468735
 20
1.65783818006516
 11
1.63599046468735
 21
1.65783818006516
  0
ENDBLK
  8
0
  0
BLOCK
  8
0
  2
B1062074
 70
0
 10
0
 20
0
  0
TEXT
  8
1
 62
7
 40
2.34
 41
0.75
  1
2
  7
STANDARD
 73
3
 10
-1.63599046468735
 20
1.65783818006516
 11
-1.63599046468735
 21
1.65783818006516
  0
ENDBLK
  8
0
  0
BLOCK
  8
0
  2
B1062075
 70
0
 10
0
 20
0
  0
TEXT
  8
1
 62
7
 40
2.34
 41
0.75
  1
4
  7
STANDARD
 72
2
 10
1.63599046468735
 20
-1.07283818006515
 11
1.63599046468735
 21
-1.07283818006515
  0
ENDBLK
  8
0
  0
BLOCK
  8
0
  2
B1062076
 70
0
 10
0
 20
0
  0
TEXT
  8
1
 62
7
 40
2.34
 41
0.75
  1
2
  7
STANDARD
 72
2
 10
1.63599046468735
 20
-1.07283818006515
 11
1.63599046468735
 21
-1.07283818006515
  0
ENDBLK
  8
0
  0
BLOCK
  8
0
  2
B1062065_00991040
 70
0
 10
0
 20
0
  0
TEXT
  8
1
 62
7
 40
2.413125
 41
0.75
  1
14
  7
STANDARD
 73
2
 10
-15.8265345859528
 20
3.12
 11
-15.8265345859528
 21
3.12
  0
LINE
  8
1
 62
7
 10
16.0875
 20
4.095
 11
16.0875
 21
7.995
  0
LINE
  8
1
 62
7
 10
8.2875
 20
-3.705
 11
8.2875
 21
-7.605
  0
LINE
  8
1
 62
7
 10
8.2875
 20
7.995
 11
8.2875
 21
4.095
  0
LINE
  8
1
 62
7
 10
12.1875
 20
-3.705
 11
12.1875
 21
-7.605
  0
LINE
  8
1
 62
7
 10
16.0875
 20
-3.705
 11
16.0875
 21
-7.605
  0
LINE
  8
1
 62
7
 10
-15.1125
 20
-3.705
 11
-13.1625
 21
0.195000000000002
  0
POLYLINE
  8
1
 62
7
 66
1
  0
VERTEX
  8
1
 62
7
 10
-17.0625
 20
0.194999999999993
  0
VERTEX
  8
1
 62
7
 10
-11.2125
 20
0.194999999999993
  0
VERTEX
  8
1
 62
7
 10
-11.2125
 20
-3.70499999999998
  0
VERTEX
  8
1
 62
7
 10
-17.0625
 20
-3.70499999999998
  0
VERTEX
  8
1
 62
7
 10
-17.0625
 20
0.194999999999993
  0
SEQEND
  8
1
  0
POLYLINE
  8
1
 62
7
 66
1
  0
VERTEX
  8
1
 62
7
 10
18.0375
 20
0.194999999999993
  0
VERTEX
  8
1
 62
7
 10
23.8875
 20
0.194999999999993
  0
VERTEX
  8
1
 62
7
 10
23.8875
 20
-3.70499999999998
  0
VERTEX
  8
1
 62
7
 10
18.0375
 20
-3.70499999999998
  0
VERTEX
  8
1
 62
7
 10
18.0375
 20
0.194999999999993
  0
SEQEND
  8
1
  0
LINE
  8
1
 62
7
 10
20.5100009252407
 20
-1.755
 11
23.8875
 21
0.195000000000002
  0
LINE
  8
1
 62
7
 10
20.5100009252407
 20
-1.755
 11
18.0375
 21
-1.755
  0
LINE
  8
1
 62
7
 10
23.8875
 20
-3.705
 11
20.5100009252407
 21
-1.755
  0
LINE
  8
1
 62
7
 10
-11.2125
 20
0.195000000000002
 11
-11.2125
 21
-3.705
  0
POLYLINE
  8
1
 62
7
 66
1
  0
VERTEX
  8
1
 62
7
 10
-11.2125
 20
0.194999999999993
  0
VERTEX
  8
1
 62
7
 10
-5.3625
 20
0.194999999999993
  0
VERTEX
  8
1
 62
7
 10
-5.3625
 20
-3.70499999999998
  0
VERTEX
  8
1
 62
7
 10
-11.2125
 20
-3.70499999999998
  0
VERTEX
  8
1
 62
7
 10
-11.2125
 20
0.194999999999993
  0
SEQEND
  8
1
  0
LINE
  8
1
 62
7
 10
-11.2125
 20
0.195000000000002
 11
-7.83500092524069
 21
-1.755
  0
LINE
  8
1
 62
7
 10
-11.2125
 20
-3.705
 11
-7.83500092524069
 21
-1.755
  0
LINE
  8
1
 62
7
 10
-3.4125
 20
-3.705
 11
-3.4125
 21
-1.755
  0
INSERT
  8
1
  2
LCBP1
 10
-3.4125
 20
-1.755
 50
90
  0
POLYLINE
  8
1
 62
7
 66
1
  0
VERTEX
  8
1
 62
7
 10
-5.3625
 20
4.095
  0
VERTEX
  8
1
 62
7
 10
6.3375
 20
4.095
  0
VERTEX
  8
1
 62
7
 10
6.3375
 20
-3.70499999999998
  0
VERTEX
  8
1
 62
7
 10
-5.3625
 20
-3.70499999999998
  0
VERTEX
  8
1
 62
7
 10
-5.3625
 20
4.095
  0
SEQEND
  8
1
  0
LINE
  8
1
 62
7
 10
4.3875
 20
4.095
 11
4.3875
 21
-3.705
  0
INSERT
  8
1
  2
LCA1
 10
4.3875
 20
-3.705
 50
-90
  0
LINE
  8
1
 62
7
 10
0.4875
 20
-3.705
 11
-3.4125
 21
4.095
  0
INSERT
  8
1
  2
LCA1
 10
-3.4125
 20
4.095
 50
116.565051177078
  0
LINE
  8
1
 62
7
 10
16.0875
 20
-3.705
 11
16.0875
 21
-1.755
  0
INSERT
  8
1
  2
LCBP1
 10
16.0875
 20
-1.755
 50
90
  0
POLYLINE
  8
1
 62
7
 66
1
  0
VERTEX
  8
1
 62
7
 10
6.3375
 20
4.095
  0
VERTEX
  8
1
 62
7
 10
18.0375
 20
4.095
  0
VERTEX
  8
1
 62
7
 10
18.0375
 20
-3.70499999999998
  0
VERTEX
  8
1
 62
7
 10
6.3375
 20
-3.70499999999998
  0
VERTEX
  8
1
 62
7
 10
6.3375
 20
4.095
  0
SEQEND
  8
1
  0
LINE
  8
1
 62
7
 10
8.2875
 20
4.095
 11
8.2875
 21
-3.705
  0
INSERT
  8
1
  2
LCA1
 10
8.2875
 20
-3.705
 50
-90
  0
LINE
  8
1
 62
7
 10
12.1875
 20
-3.705
 11
16.0875
 21
4.095
  0
INSERT
  8
1
  2
LCA1
 10
16.0875
 20
4.095
 50
63.434948822922
  0
CIRCLE
  8
CONNECTIONS
 62
7
 10
8.2875
 20
7.995
 40
0
  0
CIRCLE
  8
CONNECTIONS
 62
7
 10
16.0875
 20
7.995
 40
0
  0
CIRCLE
  8
CONNECTIONS
 62
7
 10
16.0875
 20
-7.605
 40
0
  0
CIRCLE
  8
CONNECTIONS
 62
7
 10
12.1875
 20
-7.605
 40
0
  0
CIRCLE
  8
CONNECTIONS
 62
7
 10
8.2875
 20
-7.605
 40
0
  0
CIRCLE
  8
CONNECTIONS
 62
7
 10
-17.0773670291901
 20
-1.755
 40
0
  0
ENDBLK
  8
0
  0
BLOCK
  8
0
  2
B1065379_00991473
 70
0
 10
0
 20
0
  0
LINE
  8
1
 62
7
 10
0.975
 20
-1.4625
 11
0
 21
-1.4625
  0
LINE
  8
1
 62
7
 10
-0.975
 20
-0.4875
 11
0
 21
-0.4875
  0
LINE
  8
1
 62
7
 10
0.975
 20
0.4875
 11
0
 21
0.4875
  0
POLYLINE
  8
1
 62
7
 66
1
  0
VERTEX
  8
1
 62
7
 10
0.975
 20
1.46250000000001
  0
VERTEX
  8
1
 62
7
 10
-0.975
 20
1.46250000000001
  0
VERTEX
  8
1
 62
7
 10
-0.975
 20
-2.4375
  0
VERTEX
  8
1
 62
7
 10
0.975
 20
-2.4375
  0
VERTEX
  8
1
 62
7
 10
0.975
 20
1.46250000000001
  0
SEQEND
  8
1
  0
LINE
  8
1
 62
7
 10
0
 20
3.4125
 11
0
 21
1.4625
  0
POLYLINE
  8
1
 62
7
 66
1
  0
VERTEX
  8
1
 62
7
 10
-0.4875
 20
-2.4375
  0
VERTEX
  8
1
 62
7
 10
0
 20
-3.41249999999999
  0
VERTEX
  8
1
 62
7
 10
0.4875
 20
-2.4375
  0
SEQEND
  8
1
  0
CIRCLE
  8
CONNECTIONS
 62
7
 10
0
 20
3.4125
 40
0
  0
ENDBLK
  8
0
  0
BLOCK
  8
0
  2
B1065636_00991473
 70
0
 10
0
 20
0
  0
LINE
  8
1
 62
7
 10
0.975
 20
-1.4625
 11
0
 21
-1.4625
  0
LINE
  8
1
 62
7
 10
-0.975
 20
-0.4875
 11
0
 21
-0.4875
  0
LINE
  8
1
 62
7
 10
0.975
 20
0.4875
 11
0
 21
0.4875
  0
POLYLINE
  8
1
 62
7
 66
1
  0
VERTEX
  8
1
 62
7
 10
0.975
 20
1.46250000000001
  0
VERTEX
  8
1
 62
7
 10
-0.975
 20
1.46250000000001
  0
VERTEX
  8
1
 62
7
 10
-0.975
 20
-2.4375
  0
VERTEX
  8
1
 62
7
 10
0.975
 20
-2.4375
  0
VERTEX
  8
1
 62
7
 10
0.975
 20
1.46250000000001
  0
SEQEND
  8
1
  0
LINE
  8
1
 62
7
 10
0
 20
3.4125
 11
0
 21
1.4625
  0
POLYLINE
  8
1
 62
7
 66
1
  0
VERTEX
  8
1
 62
7
 10
-0.4875
 20
-2.4375
  0
VERTEX
  8
1
 62
7
 10
0
 20
-3.41249999999999
  0
VERTEX
  8
1
 62
7
 10
0.4875
 20
-2.4375
  0
SEQEND
  8
1
  0
CIRCLE
  8
CONNECTIONS
 62
7
 10
0
 20
3.4125
 40
0
  0
ENDBLK
  8
0
  0
BLOCK
  8
0
  2
B1065381
 70
0
 10
0
 20
0
  0
ENDBLK
  8
0
  0
BLOCK
  8
0
  2
B1069207_00991265
 70
0
 10
0
 20
0
  0
LINE
  8
1
 62
7
 10
-7.8
 20
-3.9
 11
-3.9
 21
-3.9
  0
LINE
  8
1
 62
7
 10
-3.9
 20
5.85
 11
-3.9
 21
-5.85
  0
LINE
  8
1
 62
7
 10
-7.8
 20
3.9
 11
-3.9
 21
3.9
  0
POLYLINE
  8
1
 62
7
 66
1
  0
VERTEX
  8
1
 62
7
 10
1.95
 20
0.974999999999994
  0
VERTEX
  8
1
 62
7
 10
7.8
 20
0.974999999999994
  0
VERTEX
  8
1
 62
7
 10
7.8
 20
-0.974999999999994
  0
VERTEX
  8
1
 62
7
 10
1.95
 20
-0.974999999999994
  0
SEQEND
  8
1
  0
ARC
  8
1
 62
7
 10
-3.9
 20
0
 40
8.775
 50
330
 51
30
  0
INSERT
  8
1
  2
LCA1
 10
3.62164306366104
 20
4.51945910733573
 50
120.5
  0
INSERT
  8
1
  2
LCA1R
 10
3.69937291820845
 20
-4.3875
 50
60.4999999999997
  0
ARC
  8
1
 62
7
 10
-3.9
 20
0
 40
5.85
 50
270
 51
90
  0
CIRCLE
  8
CONNECTIONS
 62
7
 10
-7.8
 20
3.9
 40
0
  0
CIRCLE
  8
CONNECTIONS
 62
7
 10
-7.8
 20
-3.9
 40
0
  0
ENDBLK
  8
0
  0
BLOCK
  8
0
  2
B1069216_00991453
 70
0
 10
0
 20
0
  0
POLYLINE
  8
1
 62
7
 66
1
  0
VERTEX
  8
1
 62
7
 10
-6.825
 20
8.77500000000001
  0
VERTEX
  8
1
 62
7
 10
6.825
 20
8.77500000000001
  0
VERTEX
  8
1
 62
7
 10
6.825
 20
-8.77500000000001
  0
VERTEX
  8
1
 62
7
 10
-6.825
 20
-8.77500000000001
  0
VERTEX
  8
1
 62
7
 10
-6.825
 20
8.77500000000001
  0
SEQEND
  8
1
  0
LINE
  8
1
 62
7
 10
-2.925
 20
8.775
 11
-2.925
 21
12.675
  0
LINE
  8
1
 62
7
 10
-2.925
 20
-8.775
 11
-2.925
 21
-12.675
  0
LINE
  8
1
 62
7
 10
-2.925
 20
-4.875
 11
2.925
 21
-4.875
  0
LINE
  8
1
 62
7
 10
2.925
 20
4.875
 11
-2.925
 21
4.875
  0
LINE
  8
1
 62
7
 10
2.925
 20
4.875
 11
2.925
 21
3.9
  0
LINE
  8
1
 62
7
 10
2.925
 20
-4.875
 11
2.925
 21
-3.9
  0
LINE
  8
1
 62
7
 10
-2.925
 20
4.875
 11
-2.925
 21
8.775
  0
LINE
  8
1
 62
7
 10
-2.925
 20
-8.775
 11
-2.925
 21
-4.875
  0
POLYLINE
  8
1
 62
7
 70
1
 66
1
 40
0.4875
 41
0.4875
  0
VERTEX
  8
1
 10
-3.16875
 20
-4.875
 42
1
  0
VERTEX
  8
1
 10
-2.68125
 20
-4.875
 42
1
  0
SEQEND
  8
1
  0
POLYLINE
  8
1
 62
7
 70
1
 66
1
 40
0.4875
 41
0.4875
  0
VERTEX
  8
1
 10
-3.16875
 20
4.875
 42
1
  0
VERTEX
  8
1
 10
-2.68125
 20
4.875
 42
1
  0
SEQEND
  8
1
  0
LINE
  8
1
 62
7
 10
2.925
 20
3.9
 11
2.925
 21
1.56000000000001
  0
LINE
  8
1
 62
7
 10
2.925
 20
-0.975
 11
2.925
 21
-3.80249999999998
  0
POLYLINE
  8
1
 62
7
 66
1
  0
VERTEX
  8
1
 62
7
 10
0.975
 20
-0.389999999999986
  0
VERTEX
  8
1
 62
7
 10
2.925
 20
1.56000000000003
  0
VERTEX
  8
1
 62
7
 10
4.875
 20
-0.389999999999986
  0
SEQEND
  8
1
  0
CIRCLE
  8
1
 62
7
 10
2.925
 20
0.130000000000016
 40
0.975
  0
LINE
  8
1
 62
7
 10
-2.925
 20
4.875
 11
-2.925
 21
-4.875
  0
LINE
  8
1
 62
7
 10
-6.175
 20
-1.43
 11
0.65
 21
1.495
  0
INSERT
  8
1
  2
LCA1
 10
0.65
 20
1.495
 50
23.1985905136482
  0
ARC
  8
1
 62
7
 10
-12.675
 20
0
 40
8.775
 50
340.528596800055
 51
19.4710505793386
  0
ARC
  8
1
 62
7
 10
6.825
 20
0
 40
8.775
 50
160.52865870751
 51
199.47139531546
  0
CIRCLE
  8
CONNECTIONS
 62
7
 10
-2.925
 20
-12.675
 40
0
  0
CIRCLE
  8
CONNECTIONS
 62
7
 10
-2.925
 20
12.675
 40
0
  0
ENDBLK
  8
0
  0
BLOCK
  8
0
  2
B1069225
 70
0
 10
0
 20
0
  0
TEXT
  8
1
 62
7
 40
2.34
 41
0.75
  1
2
  7
STANDARD
 73
2
 10
-1.63599046468735
 20
0
 11
-1.63599046468735
 21
0
  0
ENDBLK
  8
0
  0
BLOCK
  8
0
  2
B1069226
 70
0
 10
0
 20
0
  0
TEXT
  8
1
 62
7
 40
2.34
 41
0.75
  1
1
  7
STANDARD
 73
2
 10
-1.63599046468735
 20
0
 11
-1.63599046468735
 21
0
  0
ENDBLK
  8
0
  0
BLOCK
  8
0
  2
B1069227_00991453
 70
0
 10
0
 20
0
  0
POLYLINE
  8
1
 62
7
 66
1
  0
VERTEX
  8
1
 62
7
 10
-6.825
 20
8.77500000000001
  0
VERTEX
  8
1
 62
7
 10
6.825
 20
8.77500000000001
  0
VERTEX
  8
1
 62
7
 10
6.825
 20
-8.77500000000001
  0
VERTEX
  8
1
 62
7
 10
-6.825
 20
-8.77500000000001
  0
VERTEX
  8
1
 62
7
 10
-6.825
 20
8.77500000000001
  0
SEQEND
  8
1
  0
LINE
  8
1
 62
7
 10
-2.925
 20
8.775
 11
-2.925
 21
12.675
  0
LINE
  8
1
 62
7
 10
-2.925
 20
-8.775
 11
-2.925
 21
-12.675
  0
LINE
  8
1
 62
7
 10
-2.925
 20
-4.875
 11
2.925
 21
-4.875
  0
LINE
  8
1
 62
7
 10
2.925
 20
4.875
 11
-2.925
 21
4.875
  0
LINE
  8
1
 62
7
 10
2.925
 20
4.875
 11
2.925
 21
3.9
  0
LINE
  8
1
 62
7
 10
2.925
 20
-4.875
 11
2.925
 21
-3.9
  0
LINE
  8
1
 62
7
 10
-2.925
 20
4.875
 11
-2.925
 21
8.775
  0
LINE
  8
1
 62
7
 10
-2.925
 20
-8.775
 11
-2.925
 21
-4.875
  0
POLYLINE
  8
1
 62
7
 70
1
 66
1
 40
0.4875
 41
0.4875
  0
VERTEX
  8
1
 10
-3.16875
 20
-4.875
 42
1
  0
VERTEX
  8
1
 10
-2.68125
 20
-4.875
 42
1
  0
SEQEND
  8
1
  0
POLYLINE
  8
1
 62
7
 70
1
 66
1
 40
0.4875
 41
0.4875
  0
VERTEX
  8
1
 10
-3.16875
 20
4.875
 42
1
  0
VERTEX
  8
1
 10
-2.68125
 20
4.875
 42
1
  0
SEQEND
  8
1
  0
LINE
  8
1
 62
7
 10
2.925
 20
3.9
 11
2.925
 21
1.56000000000001
  0
LINE
  8
1
 62
7
 10
2.925
 20
-0.975
 11
2.925
 21
-3.80249999999998
  0
POLYLINE
  8
1
 62
7
 66
1
  0
VERTEX
  8
1
 62
7
 10
0.975
 20
-0.389999999999986
  0
VERTEX
  8
1
 62
7
 10
2.925
 20
1.56000000000003
  0
VERTEX
  8
1
 62
7
 10
4.875
 20
-0.389999999999986
  0
SEQEND
  8
1
  0
CIRCLE
  8
1
 62
7
 10
2.925
 20
0.130000000000016
 40
0.975
  0
LINE
  8
1
 62
7
 10
-2.925
 20
4.875
 11
-2.925
 21
-4.875
  0
LINE
  8
1
 62
7
 10
-6.175
 20
-1.43
 11
0.65
 21
1.495
  0
INSERT
  8
1
  2
LCA1
 10
0.65
 20
1.495
 50
23.1985905136482
  0
ARC
  8
1
 62
7
 10
-12.675
 20
0
 40
8.775
 50
340.528596800055
 51
19.4710505793386
  0
ARC
  8
1
 62
7
 10
6.825
 20
0
 40
8.775
 50
160.52865870751
 51
199.47139531546
  0
CIRCLE
  8
CONNECTIONS
 62
7
 10
-2.925
 20
-12.675
 40
0
  0
CIRCLE
  8
CONNECTIONS
 62
7
 10
-2.925
 20
12.675
 40
0
  0
ENDBLK
  8
0
  0
BLOCK
  8
0
  2
B1069236
 70
0
 10
0
 20
0
  0
TEXT
  8
1
 62
7
 40
2.34
 41
0.75
  1
2
  7
STANDARD
 73
2
 10
-1.63599046468735
 20
0
 11
-1.63599046468735
 21
0
  0
ENDBLK
  8
0
  0
BLOCK
  8
0
  2
B1069237
 70
0
 10
0
 20
0
  0
TEXT
  8
1
 62
7
 40
2.34
 41
0.75
  1
1
  7
STANDARD
 73
2
 10
-1.63599046468735
 20
0
 11
-1.63599046468735
 21
0
  0
ENDBLK
  8
0
  0
BLOCK
  8
0
  2
B1080528_00991471
 70
0
 10
0
 20
0
  0
LINE
  8
1
 62
7
 10
0.4875
 20
-2.68125
 11
0.4875
 21
-6.58125
  0
LINE
  8
1
 62
7
 10
4.3875
 20
-2.68125
 11
4.3875
 21
-6.58125
  0
LINE
  8
1
 62
7
 10
2.4375
 20
7.06875
 11
2.4375
 21
3.16875
  0
POLYLINE
  8
1
 62
7
 66
1
  0
VERTEX
  8
1
 62
7
 10
11.2125
 20
0.243750000000006
  0
VERTEX
  8
1
 62
7
 10
10.80625
 20
-1.70625000000001
  0
VERTEX
  8
1
 62
7
 10
9.99375
 20
2.19374999999999
  0
VERTEX
  8
1
 62
7
 10
9.18125
 20
-1.70625000000001
  0
VERTEX
  8
1
 62
7
 10
8.36875
 20
2.19374999999999
  0
VERTEX
  8
1
 62
7
 10
7.55625
 20
-1.70625000000001
  0
VERTEX
  8
1
 62
7
 10
6.74375
 20
2.19374999999999
  0
VERTEX
  8
1
 62
7
 10
6.3375
 20
0.243750000000006
  0
SEQEND
  8
1
  0
LINE
  8
1
 62
7
 10
7.57606742131435
 20
-4.08791733738478
 11
9.97393257868564
 21
4.57541733738478
  0
INSERT
  8
1
  2
LCA1
 10
9.97393257868564
 20
4.57541733738478
 50
74.5288077091515
  0
LINE
  8
1
 62
7
 10
-5.36249999999323
 20
0.243742669606235
 11
-1.4625
 21
0.243742669606235
  0
LINE
  8
1
 62
7
 10
-8.73998637813807
 20
0.24375
 11
-11.2125
 21
0.24375
  0
LINE
  8
1
 62
7
 10
-8.73998637813806
 20
2.19375
 11
-8.73998637813806
 21
-1.70625
  0
LINE
  8
1
 62
7
 10
-8.73998637813806
 20
2.19375
 11
-5.36248730337875
 21
0.24375
  0
LINE
  8
1
 62
7
 10
-8.73998637813806
 20
-1.70625
 11
-5.36248730337875
 21
0.24375
  0
LINE
  8
1
 62
7
 10
2.16708365442307
 20
1.30062548163459
 11
0.757916345608673
 21
-0.813125481586999
  0
LINE
  8
1
 62
7
 10
2.4375
 20
2.19375
 11
2.4375
 21
3.16875
  0
LINE
  8
1
 62
7
 10
4.3875
 20
-1.70625
 11
4.3875
 21
-2.68125
  0
LINE
  8
1
 62
7
 10
0.4875
 20
-1.70625
 11
0.4875
 21
-2.68125
  0
CIRCLE
  8
1
 62
7
 10
2.4375
 20
1.70625
 40
0.4875
  0
CIRCLE
  8
1
 62
7
 10
4.3875
 20
-1.21875
 40
0.4875
  0
CIRCLE
  8
1
 62
7
 10
0.4875
 20
-1.21875
 40
0.4875
  0
POLYLINE
  8
1
 62
7
 66
1
  0
VERTEX
  8
1
 62
7
 10
-1.4625
 20
3.16874999999999
  0
VERTEX
  8
1
 62
7
 10
6.3375
 20
3.16874999999999
  0
VERTEX
  8
1
 62
7
 10
6.3375
 20
-2.68125000000001
  0
VERTEX
  8
1
 62
7
 10
-1.4625
 20
-2.68125000000001
  0
VERTEX
  8
1
 62
7
 10
-1.4625
 20
3.16874999999999
  0
SEQEND
  8
1
  0
CIRCLE
  8
CONNECTIONS
 62
7
 10
2.4375
 20
7.06875
 40
0
  0
CIRCLE
  8
CONNECTIONS
 62
7
 10
0.4875
 20
-6.58125
 40
0
  0
CIRCLE
  8
CONNECTIONS
 62
7
 10
4.3875
 20
-6.58125
 40
0
  0
CIRCLE
  8
CONNECTIONS
 62
7
 10
-11.2124873033788
 20
0.243764660787531
 40
0
  0
ENDBLK
  8
0
  0
BLOCK
  8
0
  2
B1080537
 70
0
 10
0
 20
0
  0
TEXT
  8
1
 62
7
 40
2.34
 41
0.75
  1
3
  7
STANDARD
 73
3
 10
-1.63599046468735
 20
1.65783818006516
 11
-1.63599046468735
 21
1.65783818006516
  0
ENDBLK
  8
0
  0
BLOCK
  8
0
  2
B1080538
 70
0
 10
0
 20
0
  0
TEXT
  8
1
 62
7
 40
2.34
 41
0.75
  1
2
  7
STANDARD
 72
2
 73
3
 10
1.63599046468735
 20
1.65783818006516
 11
1.63599046468735
 21
1.65783818006516
  0
ENDBLK
  8
0
  0
BLOCK
  8
0
  2
B1080539
 70
0
 10
0
 20
0
  0
TEXT
  8
1
 62
7
 40
2.34
 41
0.75
  1
1
  7
STANDARD
 10
-1.63599046468735
 20
-1.07283818006515
  0
ENDBLK
  8
0
  0
BLOCK
  8
0
  2
B1080987
 70
0
 10
0
 20
0
  0
CIRCLE
  8
CONNECTIONS
 62
7
 10
0
 20
0
 40
0
  0
CIRCLE
  8
CONNECTIONS
 62
7
 10
0
 20
0
 40
0
  0
CIRCLE
  8
CONNECTIONS
 62
7
 10
0
 20
0
 40
0
  0
CIRCLE
  8
CONNECTIONS
 62
7
 10
0
 20
0
 40
0
  0
ENDBLK
  8
0
  0
ENDSEC
  0
SECTION
  2
ENTITIES
  0
INSERT
  8
1
  2
B1054565_00991756
 10
52.9518693861414
 20
35.1
  0
INSERT
  8
1
  2
B1069207_00991265
 10
138.464885
 20
156
 50
90
  0
INSERT
  8
1
  2
B1056948_00993166
 10
15.6
 20
1.95
 50
90
  0
INSERT
  8
1
  2
B1069226
 10
122.221558285313
 20
141.375021671047
  0
INSERT
  8
1
  2
B1062073
 10
132.699985033283
 20
63.7375886011124
  0
INSERT
  8
1
  2
B1069216_00991453
 10
121.9075325
 20
129.675
 50
180
  0
INSERT
  8
1
  2
B1054575
 10
25.2100520518937
 20
37.9736148404238
  0
INSERT
  8
1
  2
B1062075
 10
132.797485653172
 20
76.3428381800651
  0
INSERT
  8
1
  2
B1065379_00991473
 10
134.564885
 20
58.9875
  0
INSERT
  8
1
  2
B1062074
 10
144.000875464687
 20
63.6400886011123
  0
INSERT
  8
1
  2
B1062072
 10
137.184985033283
 20
63.7375886011124
  0
INSERT
  8
1
  2
B1080528_00991471
 10
110.6625
 20
12.431218937645
  0
INSERT
  8
1
  2
B1069236
 10
149.390116283283
 20
117.975051819935
  0
INSERT
  8
1
  2
B1069237
 10
149.521525785313
 20
141.375051819935
  0
INSERT
  8
1
  2
B1080537
 10
116.685990464687
 20
7.0196307575798
  0
INSERT
  8
1
  2
B1054576
 10
80.7654986614086
 20
38.0409836065574
  0
INSERT
  8
1
  2
B1080538
 10
109.514009535313
 20
7.0196307575798
  0
INSERT
  8
1
  2
B1069227_00991453
 10
149.2075
 20
129.675
 50
180
  0
INSERT
  8
1
  2
TRICON
 10
113.1
 20
35.1
  0
INSERT
  8
1
  2
B1062065_00991040
 10
126.277385
 20
70.005
  0
INSERT
  8
1
  2
B1080539
 10
114.735990464687
 20
17.8428071177101
  0
INSERT
  8
1
  2
B1054574
 10
25.0998297504016
 20
27.6714285714286
  0
INSERT
  8
1
  2
B1069225
 10
122.090148783283
 20
117.975021671047
  0
INSERT
  8
1
  2
B1065381
 10
129.689885
 20
66.7875
  0
INSERT
  8
1
  2
B1062076
 10
140.402485033283
 20
76.3699113988876
  0
INSERT
  8
1
  2
B1065636_00991473
 10
142.364885
 20
58.9875
  0
POLYLINE
  8
1
 62
7
 66
1
  0
VERTEX
  8
1
 62
7
 10
81.9
 20
35.1
  0
VERTEX
  8
1
 62
7
 10
113.1
 20
35.1
  0
SEQEND
  8
1
  0
POLYLINE
  8
1
 62
7
 66
1
  0
VERTEX
  8
1
 62
7
 10
15.6
 20
3.90000000000001
  0
VERTEX
  8
1
 62
7
 10
15.6
 20
35.1
  0
VERTEX
  8
1
 62
7
 10
23.4
 20
35.1
  0
SEQEND
  8
1
  0
POLYLINE
  8
1
 62
7
 66
1
  0
VERTEX
  8
1
 62
7
 10
134.564885
 20
148.2
  0
VERTEX
  8
1
 62
7
 10
124.8325325
 20
148.2
  0
VERTEX
  8
1
 62
7
 10
124.8325325
 20
142.35
  0
SEQEND
  8
1
  0
POLYLINE
  8
1
 62
7
 66
1
  0
VERTEX
  8
1
 62
7
 10
142.364885
 20
148.2
  0
VERTEX
  8
1
 62
7
 10
152.1325
 20
148.2
  0
VERTEX
  8
1
 62
7
 10
152.1325
 20
142.35
  0
SEQEND
  8
1
  0
POLYLINE
  8
1
 62
7
 66
1
  0
VERTEX
  8
1
 62
7
 10
124.8325325
 20
117
  0
VERTEX
  8
1
 62
7
 10
124.8325325
 20
93.6
  0
VERTEX
  8
1
 62
7
 10
134.564885
 20
93.6
  0
VERTEX
  8
1
 62
7
 10
134.564885
 20
78
  0
SEQEND
  8
1
  0
POLYLINE
  8
1
 62
7
 66
1
  0
VERTEX
  8
1
 62
7
 10
152.1325
 20
117
  0
VERTEX
  8
1
 62
7
 10
152.1325
 20
93.6
  0
VERTEX
  8
1
 62
7
 10
142.364885
 20
93.6
  0
VERTEX
  8
1
 62
7
 10
142.364885
 20
78
  0
SEQEND
  8
1
  0
POLYLINE
  8
1
 62
7
 66
1
  0
VERTEX
  8
1
 62
7
 10
113.1
 20
19.499968937645
  0
VERTEX
  8
1
 62
7
 10
113.1
 20
35.1
  0
SEQEND
  8
1
  0
POLYLINE
  8
1
 62
7
 66
1
  0
VERTEX
  8
1
 62
7
 10
113.1
 20
35.1
  0
VERTEX
  8
1
 62
7
 10
138.464885
 20
35.1
  0
VERTEX
  8
1
 62
7
 10
138.464885
 20
62.4
  0
SEQEND
  8
1
  0
ENDSEC
  0
EOF
