  0
SECTION
  2
HEADER
  9
$LIMMIN
 10
0
 20
0
  9
$LIMMAX
 10
68.25
 20
96.525
  9
$EXTMIN
 10
0
 20
140.4148525
  9
$EXTMAX
 10
0
 20
140.4
  0
ENDSEC
  0
SECTION
  2
TABLES
  0
TABLE
  2
LTYPE
 70
9
  0
LTYPE
  2
CONTINUOUS
 70
64
  3
Solid line
 72
65
 73
0
 40
0
  0
LTYPE
  2
DASHED
 70
64
  3
__ __ __ __ __ __ __ __ __
 72
65
 73
2
 40
0.75
 49
0.5
 49
-0.25
  0
LTYPE
  2
DOT
 70
64
  3
...........................
 72
65
 73
2
 40
0.25
 49
0
 49
-0.25
  0
LTYPE
  2
DASHDOT
 70
64
  3
__ . __ . __ . __ . __ . __ . 
 72
65
 73
4
 40
1
 49
0.5
 49
-0.25
 49
0
 49
-0.25
  0
ENDTAB
  0
TABLE
  2
LAYER
 70
10
  0
LAYER
  2
1
 70
0
 62
7
  6
CONTINUOUS
  0
LAYER
  2
CONNECTIONS
 70
0
 62
-7
  6
CONTINUOUS
  0
ENDTAB
  0
ENDSEC
  0
SECTION
  2
BLOCKS
  0
BLOCK
  8
0
  2
TRICON
 70
0
 10
0
 20
0
  0
POLYLINE
  8
1
 62
7
 70
1
 66
1
 40
0.65
 41
0.65
  0
VERTEX
  8
1
 10
-0.325
 20
0
 42
1
  0
VERTEX
  8
1
 10
0.325
 20
0
 42
1
  0
SEQEND
  8
1
  0
ENDBLK
  8
0
  0
BLOCK
  8
0
  2
TRICONSMALL
 70
0
 10
0
 20
0
  0
POLYLINE
  8
1
 62
7
 70
1
 66
1
 40
0.325
 41
0.325
  0
VERTEX
  8
1
 10
-0.1625
 20
0
 42
1
  0
VERTEX
  8
1
 10
0.1625
 20
0
 42
1
  0
SEQEND
  8
1
  0
ENDBLK
  8
0
  0
BLOCK
  8
0
  2
LCBP0
 70
0
 10
0
 20
0
  0
LINE
  8
1
 62
7
 10
0
 20
-0.609375
 11
0
 21
0.609375
  0
ENDBLK
  8
0
  0
BLOCK
  8
0
  2
LCBP1
 70
0
 10
0
 20
0
  0
LINE
  8
1
 62
7
 10
0
 20
-0.8125
 11
0
 21
0.8125
  0
ENDBLK
  8
0
  0
BLOCK
  8
0
  2
LCBP2
 70
0
 10
0
 20
0
  0
LINE
  8
1
 62
7
 10
0
 20
-1.21875
 11
0
 21
1.21875
  0
ENDBLK
  8
0
  0
BLOCK
  8
0
  2
LCA1
 70
0
 10
0
 20
0
  0
SOLID
  8
1
 62
7 
 10
0
 20
0
 11
-1.82
 21
-0.3575
 12
-1.82
 22
0.3575
 13
-1.82
 23
0.3575
  0
ENDBLK
  8
0
  0
BLOCK
  8
0
  2
LCA2
 70
0
 10
0
 20
0
  0
SOLID
  8
1
 62
7 
 10
0
 20
0
 11
-2.145
 21
-0.6825
 12
-2.145
 22
0.6825
 13
-2.145
 23
0.6825
  0
ENDBLK
  8
0
  0
BLOCK
  8
0
  2
LCA3
 70
0
 10
0
 20
0
  0
SOLID
  8
1
 62
7 
 10
0
 20
0
 11
-2.795
 21
-1.495
 12
-2.795
 22
1.495
 13
-2.795
 23
1.495
  0
ENDBLK
  8
0
  0
BLOCK
  8
0
  2
LCA1R
 70
0
 10
0
 20
0
  0
SOLID
  8
1
 62
7 
 10
0
 20
0
 11
1.82
 21
-0.3575
 12
1.82
 22
0.3575
 13
1.82
 23
0.3575
  0
ENDBLK
  8
0
  0
BLOCK
  8
0
  2
LCA2R
 70
0
 10
0
 20
0
  0
SOLID
  8
1
 62
7 
 10
0
 20
0
 11
2.145
 21
-0.6825
 12
2.145
 22
0.6825
 13
2.145
 23
0.6825
  0
ENDBLK
  8
0
  0
BLOCK
  8
0
  2
LCA3R
 70
0
 10
0
 20
0
  0
SOLID
  8
1
 62
7 
 10
0
 20
0
 11
2.795
 21
-1.495
 12
2.795
 22
1.495
 13
2.795
 23
1.495
  0
ENDBLK
  8
0
  0
BLOCK
  8
0
  2
B53664_00991761
 70
0
 10
0
 20
0
  0
POLYLINE
  8
1
 62
7
  6
DASHDOT
 66
1
  0
VERTEX
  8
1
 62
7
 10
-25.6518693861414
 20
18.525
  0
VERTEX
  8
1
 62
7
 10
25.0481306138586
 20
18.525
  0
VERTEX
  8
1
 62
7
 10
25.0481306138586
 20
-14.625
  0
VERTEX
  8
1
 62
7
 10
-25.6518693861414
 20
-14.625
  0
VERTEX
  8
1
 62
7
 10
-25.6518693861414
 20
18.525
  0
SEQEND
  8
1
  0
LINE
  8
1
 62
7
 10
28.9481306138586
 20
0.975
 11
25.0481306138586
 21
0.975
  0
LINE
  8
1
 62
7
 10
-15.9018693861414
 20
-18.525
 11
-15.9018693861414
 21
-14.625
  0
LINE
  8
1
 62
7
 10
-29.5518693861414
 20
0.975
 11
-25.6518693861414
 21
0.975
  0
LINE
  8
1
 62
7
 10
25.0481306138586
 20
0.975
 11
20.7910627799681
 21
0.975
  0
LINE
  8
1
 62
7
 10
5.54813061385858
 20
6.825
 11
5.54813061385858
 21
0.975
  0
LINE
  8
1
 62
7
 10
1.64813061385858
 20
0.975
 11
9.78892775255234
 21
0.975
  0
LINE
  8
1
 62
7
 10
-10.3864364928863
 20
0.975
 11
-6.15186938614142
 21
0.975
  0
POLYLINE
  8
1
 62
7
 66
1
  0
VERTEX
  8
1
 62
7
 10
-8.10186938614144
 20
0.974999999999994
  0
VERTEX
  8
1
 62
7
 10
-8.10186938614144
 20
-8.77500000000001
  0
VERTEX
  8
1
 62
7
 10
-6.15186938614144
 20
-8.77500000000001
  0
SEQEND
  8
1
  0
LINE
  8
1
 62
7
 10
-15.9018693861414
 20
-14.625
 11
-15.9018693861414
 21
-4.53289473684212
  0
LINE
  8
1
 62
7
 10
-25.6518693861414
 20
0.975
 11
-21.4173022793965
 21
0.975
  0
POLYLINE
  8
1
 62
7
 70
1
 66
1
 40
0.4875
 41
0.4875
  0
VERTEX
  8
1
 10
-8.34561938614142
 20
0.975
 42
1
  0
VERTEX
  8
1
 10
-7.85811938614142
 20
0.975
 42
1
  0
SEQEND
  8
1
  0
POLYLINE
  8
1
 62
7
 70
1
 66
1
 40
0.4875
 41
0.4875
  0
VERTEX
  8
1
 10
5.30438061385858
 20
0.975
 42
1
  0
VERTEX
  8
1
 10
5.79188061385858
 20
0.975
 42
1
  0
SEQEND
  8
1
  0
POLYLINE
  8
1
 62
7
 66
1
  0
VERTEX
  8
1
 62
7
 10
3.59813061385856
 20
-8.77500000000001
  0
VERTEX
  8
1
 62
7
 10
5.54813061385856
 20
-8.77500000000001
  0
VERTEX
  8
1
 62
7
 10
5.54813061385856
 20
0.974999999999994
  0
SEQEND
  8
1
  0
LINE
  8
1
 62
7
 10
15.3043606458075
 20
3.27595846645368
 11
15.3043606458075
 21
6.5068242529638
  0
POLYLINE
  8
1
 62
7
 66
1
  0
VERTEX
  8
1
 62
7
 10
15.3043606458074
 20
6.50682425296375
  0
VERTEX
  8
1
 62
7
 10
9.78892775255242
 20
0.991391359708729
  0
VERTEX
  8
1
 62
7
 10
15.3043606458074
 20
-4.52404153354632
  0
VERTEX
  8
1
 62
7
 10
20.8197935390626
 20
0.991391359708729
  0
VERTEX
  8
1
 62
7
 10
15.3043606458074
 20
6.50682425296375
  0
SEQEND
  8
1
  0
POLYLINE
  8
1
 62
7
 66
1
  0
VERTEX
  8
1
 62
7
 10
-15.9018693861414
 20
6.497971049668
  0
VERTEX
  8
1
 62
7
 10
-21.4173022793965
 20
0.982538156412943
  0
VERTEX
  8
1
 62
7
 10
-15.9018693861414
 20
-4.53289473684214
  0
VERTEX
  8
1
 62
7
 10
-10.3864364928864
 20
0.982538156412943
  0
VERTEX
  8
1
 62
7
 10
-15.9018693861414
 20
6.497971049668
  0
SEQEND
  8
1
  0
LINE
  8
1
 62
7
  6
DASHED
 10
-15.9018556059762
 20
-2.58289473684211
 11
-15.9018556059762
 21
6.49797104966799
  0
LINE
  8
1
 62
7
 10
-17.8518429375737
 20
-2.58289473684211
 11
-13.9518574334233
 21
-2.58289473684211
  0
POLYLINE
  8
1
 62
7
 66
1
  0
VERTEX
  8
1
 62
7
 10
-17.8518429375737
 20
-2.58292118540982
  0
VERTEX
  8
1
 62
7
 10
-15.9018693861414
 20
-4.53289473684214
  0
VERTEX
  8
1
 62
7
 10
-13.9518574334233
 20
-2.582882784124
  0
SEQEND
  8
1
  0
LINE
  8
1
 62
7
 10
7.27170339300078
 20
9.00142722085779
 11
3.82455783471636
 21
12.4485727791422
  0
INSERT
  8
1
  2
LCA1
 10
3.82455783471636
 20
12.4485727791422
 50
135
  0
CIRCLE
  8
1
 62
7
 10
5.54813061385858
 20
10.725
 40
3.9
  0
LINE
  8
1
 62
7
 10
-0.301869386141423
 20
-8.775
 11
3.59813061385858
 21
-8.775
  0
LINE
  8
1
 62
7
 10
-6.15186938614142
 20
-8.775
 11
-2.71596573736102
 21
-8.775
  0
CIRCLE
  8
1
 62
7
 10
-1.76436938614142
 20
-8.775
 40
0.975
  0
POLYLINE
  8
1
 62
7
 66
1
  0
VERTEX
  8
1
 62
7
 10
-2.25186938614142
 20
-10.725
  0
VERTEX
  8
1
 62
7
 10
-0.301869386141422
 20
-8.77500000000001
  0
VERTEX
  8
1
 62
7
 10
-2.25186938614142
 20
-6.82499999999999
  0
SEQEND
  8
1
  0
LINE
  8
1
 62
7
 10
-8.53340232171766
 20
8.06360462147178
 11
0.129932353051913
 21
10.4614697788431
  0
INSERT
  8
1
  2
LCA1
 10
0.129932353051913
 20
10.4614697788431
 50
15.4711922908485
  0
POLYLINE
  8
1
 62
7
 66
1
  0
VERTEX
  8
1
 62
7
 10
-4.2017610752443
 20
6.82502256477028
  0
VERTEX
  8
1
 62
7
 10
-2.25176107524429
 20
7.23127256477028
  0
VERTEX
  8
1
 62
7
 10
-6.1517610752443
 20
8.04377256477028
  0
VERTEX
  8
1
 62
7
 10
-2.25176107524429
 20
8.85627256477028
  0
VERTEX
  8
1
 62
7
 10
-6.1517610752443
 20
9.66877256477028
  0
VERTEX
  8
1
 62
7
 10
-2.25176107524429
 20
10.4812725647702
  0
VERTEX
  8
1
 62
7
 10
-6.1517610752443
 20
11.2937725647702
  0
VERTEX
  8
1
 62
7
 10
-4.2017610752443
 20
11.7000225647702
  0
SEQEND
  8
1
  0
POLYLINE
  8
1
 62
7
 66
1
  0
VERTEX
  8
1
 62
7
 10
-6.15186938614144
 20
5.84999999999999
  0
VERTEX
  8
1
 62
7
 10
-8.10186938614144
 20
4.875
  0
VERTEX
  8
1
 62
7
 10
-6.15186938614144
 20
3.90000000000001
  0
SEQEND
  8
1
  0
POLYLINE
  8
1
 62
7
  6
DOT
 66
1
  0
VERTEX
  8
1
 62
7
 10
-4.20186938614144
 20
-0.974999999999994
  0
VERTEX
  8
1
 62
7
 10
-4.20186938614144
 20
-4.875
  0
VERTEX
  8
1
 62
7
 10
3.59813061385856
 20
-4.875
  0
VERTEX
  8
1
 62
7
 10
3.59813061385856
 20
-0.974999999999994
  0
VERTEX
  8
1
 62
7
 10
1.64813061385858
 20
0.974999999999994
  0
SEQEND
  8
1
  0
POLYLINE
  8
1
 62
7
 66
1
  0
VERTEX
  8
1
 62
7
 10
-6.15186938614144
 20
-0.974999999999994
  0
VERTEX
  8
1
 62
7
 10
1.64813061385858
 20
-0.974999999999994
  0
VERTEX
  8
1
 62
7
 10
1.64813061385858
 20
6.82500000000002
  0
VERTEX
  8
1
 62
7
 10
-6.15186938614144
 20
6.82500000000002
  0
VERTEX
  8
1
 62
7
 10
-6.15186938614144
 20
-0.974999999999994
  0
SEQEND
  8
1
  0
LINE
  8
1
 62
7
 10
1.64813061385858
 20
0.975
 11
-6.15186938614142
 21
0.975
  0
INSERT
  8
1
  2
LCA1
 10
-6.15186938614142
 20
0.975
 50
-180
  0
INSERT
  8
1
  2
LCA1R
 10
1.64813061385858
 20
0.975
 50
-180
  0
CIRCLE
  8
CONNECTIONS
 62
7
 10
28.9481306138586
 20
0.975
 40
0
  0
CIRCLE
  8
CONNECTIONS
 62
7
 10
-29.5518693861414
 20
0.975
 40
0
  0
ENDBLK
  8
0
  0
BLOCK
  8
0
  2
B53673
 70
0
 10
0
 20
0
  0
TEXT
  8
1
 62
7
 40
2.34
 41
0.75
  1
1
  7
STANDARD
 72
2
 10
1.63599046468735
 20
-1.07283818006515
 11
1.63599046468735
 21
-1.07283818006515
  0
ENDBLK
  8
0
  0
BLOCK
  8
0
  2
B53674
 70
0
 10
0
 20
0
  0
TEXT
  8
1
 62
7
 40
2.34
 41
0.75
  1
2
  7
STANDARD
 73
2
 10
-1.63599046468735
 20
0
 11
-1.63599046468735
 21
0
  0
ENDBLK
  8
0
  0
BLOCK
  8
0
  2
B53675_00993166
 70
0
 10
0
 20
0
  0
LINE
  8
1
 62
7
 10
1.42749907475932
 20
0
 11
1.95
 21
0
  0
LINE
  8
1
 62
7
 10
1.42749907475931
 20
0
 11
-1.95
 21
1.95
  0
LINE
  8
1
 62
7
 10
-1.95
 20
1.95
 11
-1.95
 21
-1.95
  0
LINE
  8
1
 62
7
 10
1.42749907475931
 20
0
 11
-1.95
 21
-1.95
  0
CIRCLE
  8
CONNECTIONS
 62
7
 10
1.95000000000001
 20
0
 40
0
  0
ENDBLK
  8
0
  0
BLOCK
  8
0
  2
B56903
 70
0
 10
0
 20
0
  0
TEXT
  8
1
 62
7
 40
2.34
 41
0.75
  1
1
  7
STANDARD
 72
2
 73
3
 10
1.63599046468735
 20
1.65783818006516
 11
1.63599046468735
 21
1.65783818006516
  0
ENDBLK
  8
0
  0
BLOCK
  8
0
  2
B56904
 70
0
 10
0
 20
0
  0
TEXT
  8
1
 62
7
 40
2.34
 41
0.75
  1
5
  7
STANDARD
 72
2
 73
3
 10
1.63599046468735
 20
1.65783818006516
 11
1.63599046468735
 21
1.65783818006516
  0
ENDBLK
  8
0
  0
BLOCK
  8
0
  2
B56905
 70
0
 10
0
 20
0
  0
TEXT
  8
1
 62
7
 40
2.34
 41
0.75
  1
2
  7
STANDARD
 73
3
 10
-1.63599046468735
 20
1.65783818006516
 11
-1.63599046468735
 21
1.65783818006516
  0
ENDBLK
  8
0
  0
BLOCK
  8
0
  2
B56906
 70
0
 10
0
 20
0
  0
TEXT
  8
1
 62
7
 40
2.34
 41
0.75
  1
4
  7
STANDARD
 72
2
 10
1.63599046468735
 20
-1.07283818006515
 11
1.63599046468735
 21
-1.07283818006515
  0
ENDBLK
  8
0
  0
BLOCK
  8
0
  2
B56907
 70
0
 10
0
 20
0
  0
TEXT
  8
1
 62
7
 40
2.34
 41
0.75
  1
2
  7
STANDARD
 72
2
 10
1.63599046468735
 20
-1.07283818006515
 11
1.63599046468735
 21
-1.07283818006515
  0
ENDBLK
  8
0
  0
BLOCK
  8
0
  2
B56909_00991040
 70
0
 10
0
 20
0
  0
TEXT
  8
1
 62
7
 40
2.413125
 41
0.75
  1
14
  7
STANDARD
 73
2
 10
-15.8265345859528
 20
3.12
 11
-15.8265345859528
 21
3.12
  0
LINE
  8
1
 62
7
 10
16.0875
 20
4.095
 11
16.0875
 21
7.995
  0
LINE
  8
1
 62
7
 10
8.2875
 20
-3.705
 11
8.2875
 21
-7.605
  0
LINE
  8
1
 62
7
 10
8.2875
 20
7.995
 11
8.2875
 21
4.095
  0
LINE
  8
1
 62
7
 10
12.1875
 20
-3.705
 11
12.1875
 21
-7.605
  0
LINE
  8
1
 62
7
 10
16.0875
 20
-3.705
 11
16.0875
 21
-7.605
  0
LINE
  8
1
 62
7
 10
-15.1125
 20
-3.705
 11
-13.1625
 21
0.195000000000002
  0
POLYLINE
  8
1
 62
7
 66
1
  0
VERTEX
  8
1
 62
7
 10
-17.0625
 20
0.195000000000022
  0
VERTEX
  8
1
 62
7
 10
-11.2125
 20
0.195000000000022
  0
VERTEX
  8
1
 62
7
 10
-11.2125
 20
-3.70499999999998
  0
VERTEX
  8
1
 62
7
 10
-17.0625
 20
-3.70499999999998
  0
VERTEX
  8
1
 62
7
 10
-17.0625
 20
0.195000000000022
  0
SEQEND
  8
1
  0
POLYLINE
  8
1
 62
7
 66
1
  0
VERTEX
  8
1
 62
7
 10
18.0375
 20
0.195000000000022
  0
VERTEX
  8
1
 62
7
 10
23.8875
 20
0.195000000000022
  0
VERTEX
  8
1
 62
7
 10
23.8875
 20
-3.70499999999998
  0
VERTEX
  8
1
 62
7
 10
18.0375
 20
-3.70499999999998
  0
VERTEX
  8
1
 62
7
 10
18.0375
 20
0.195000000000022
  0
SEQEND
  8
1
  0
LINE
  8
1
 62
7
 10
20.5100009252407
 20
-1.755
 11
23.8875
 21
0.195000000000002
  0
LINE
  8
1
 62
7
 10
20.5100009252407
 20
-1.755
 11
18.0375
 21
-1.755
  0
LINE
  8
1
 62
7
 10
23.8875
 20
-3.705
 11
20.5100009252407
 21
-1.755
  0
LINE
  8
1
 62
7
 10
-11.2125
 20
0.195000000000002
 11
-11.2125
 21
-3.705
  0
POLYLINE
  8
1
 62
7
 66
1
  0
VERTEX
  8
1
 62
7
 10
-11.2125
 20
0.195000000000022
  0
VERTEX
  8
1
 62
7
 10
-5.3625
 20
0.195000000000022
  0
VERTEX
  8
1
 62
7
 10
-5.3625
 20
-3.70499999999998
  0
VERTEX
  8
1
 62
7
 10
-11.2125
 20
-3.70499999999998
  0
VERTEX
  8
1
 62
7
 10
-11.2125
 20
0.195000000000022
  0
SEQEND
  8
1
  0
LINE
  8
1
 62
7
 10
-11.2125
 20
0.195000000000002
 11
-7.83500092524069
 21
-1.755
  0
LINE
  8
1
 62
7
 10
-11.2125
 20
-3.705
 11
-7.83500092524069
 21
-1.755
  0
LINE
  8
1
 62
7
 10
-3.4125
 20
-3.705
 11
-3.4125
 21
-1.755
  0
INSERT
  8
1
  2
LCBP1
 10
-3.4125
 20
-1.755
 50
90
  0
POLYLINE
  8
1
 62
7
 66
1
  0
VERTEX
  8
1
 62
7
 10
-5.3625
 20
4.09500000000003
  0
VERTEX
  8
1
 62
7
 10
6.3375
 20
4.09500000000003
  0
VERTEX
  8
1
 62
7
 10
6.3375
 20
-3.70499999999998
  0
VERTEX
  8
1
 62
7
 10
-5.3625
 20
-3.70499999999998
  0
VERTEX
  8
1
 62
7
 10
-5.3625
 20
4.09500000000003
  0
SEQEND
  8
1
  0
LINE
  8
1
 62
7
 10
4.3875
 20
4.095
 11
4.3875
 21
-3.705
  0
INSERT
  8
1
  2
LCA1
 10
4.3875
 20
-3.705
 50
-90
  0
LINE
  8
1
 62
7
 10
0.4875
 20
-3.705
 11
-3.4125
 21
4.095
  0
INSERT
  8
1
  2
LCA1
 10
-3.4125
 20
4.095
 50
116.565051177078
  0
LINE
  8
1
 62
7
 10
16.0875
 20
-3.705
 11
16.0875
 21
-1.755
  0
INSERT
  8
1
  2
LCBP1
 10
16.0875
 20
-1.755
 50
90
  0
POLYLINE
  8
1
 62
7
 66
1
  0
VERTEX
  8
1
 62
7
 10
6.3375
 20
4.09500000000003
  0
VERTEX
  8
1
 62
7
 10
18.0375
 20
4.09500000000003
  0
VERTEX
  8
1
 62
7
 10
18.0375
 20
-3.70499999999998
  0
VERTEX
  8
1
 62
7
 10
6.3375
 20
-3.70499999999998
  0
VERTEX
  8
1
 62
7
 10
6.3375
 20
4.09500000000003
  0
SEQEND
  8
1
  0
LINE
  8
1
 62
7
 10
8.2875
 20
4.095
 11
8.2875
 21
-3.705
  0
INSERT
  8
1
  2
LCA1
 10
8.2875
 20
-3.705
 50
-90
  0
LINE
  8
1
 62
7
 10
12.1875
 20
-3.705
 11
16.0875
 21
4.095
  0
INSERT
  8
1
  2
LCA1
 10
16.0875
 20
4.095
 50
63.434948822922
  0
CIRCLE
  8
CONNECTIONS
 62
7
 10
8.2875
 20
7.995
 40
0
  0
CIRCLE
  8
CONNECTIONS
 62
7
 10
16.0875
 20
7.995
 40
0
  0
CIRCLE
  8
CONNECTIONS
 62
7
 10
16.0875
 20
-7.605
 40
0
  0
CIRCLE
  8
CONNECTIONS
 62
7
 10
12.1875
 20
-7.605
 40
0
  0
CIRCLE
  8
CONNECTIONS
 62
7
 10
8.2875
 20
-7.605
 40
0
  0
CIRCLE
  8
CONNECTIONS
 62
7
 10
-17.0773670291901
 20
-1.755
 40
0
  0
ENDBLK
  8
0
  0
BLOCK
  8
0
  2
B56911_00991473
 70
0
 10
0
 20
0
  0
LINE
  8
1
 62
7
 10
0.975
 20
-1.4625
 11
0
 21
-1.4625
  0
LINE
  8
1
 62
7
 10
-0.975
 20
-0.4875
 11
0
 21
-0.4875
  0
LINE
  8
1
 62
7
 10
0.975
 20
0.4875
 11
0
 21
0.4875
  0
POLYLINE
  8
1
 62
7
 66
1
  0
VERTEX
  8
1
 62
7
 10
0.975
 20
1.46250000000001
  0
VERTEX
  8
1
 62
7
 10
-0.975
 20
1.46250000000001
  0
VERTEX
  8
1
 62
7
 10
-0.975
 20
-2.4375
  0
VERTEX
  8
1
 62
7
 10
0.975
 20
-2.4375
  0
VERTEX
  8
1
 62
7
 10
0.975
 20
1.46250000000001
  0
SEQEND
  8
1
  0
LINE
  8
1
 62
7
 10
0
 20
3.4125
 11
0
 21
1.4625
  0
POLYLINE
  8
1
 62
7
 66
1
  0
VERTEX
  8
1
 62
7
 10
-0.4875
 20
-2.4375
  0
VERTEX
  8
1
 62
7
 10
0
 20
-3.41249999999999
  0
VERTEX
  8
1
 62
7
 10
0.4875
 20
-2.4375
  0
SEQEND
  8
1
  0
CIRCLE
  8
CONNECTIONS
 62
7
 10
0
 20
3.4125
 40
0
  0
ENDBLK
  8
0
  0
BLOCK
  8
0
  2
B56912_00991473
 70
0
 10
0
 20
0
  0
LINE
  8
1
 62
7
 10
0.975
 20
-1.4625
 11
0
 21
-1.4625
  0
LINE
  8
1
 62
7
 10
-0.975
 20
-0.4875
 11
0
 21
-0.4875
  0
LINE
  8
1
 62
7
 10
0.975
 20
0.4875
 11
0
 21
0.4875
  0
POLYLINE
  8
1
 62
7
 66
1
  0
VERTEX
  8
1
 62
7
 10
0.975
 20
1.46250000000001
  0
VERTEX
  8
1
 62
7
 10
-0.975
 20
1.46250000000001
  0
VERTEX
  8
1
 62
7
 10
-0.975
 20
-2.4375
  0
VERTEX
  8
1
 62
7
 10
0.975
 20
-2.4375
  0
VERTEX
  8
1
 62
7
 10
0.975
 20
1.46250000000001
  0
SEQEND
  8
1
  0
LINE
  8
1
 62
7
 10
0
 20
3.4125
 11
0
 21
1.4625
  0
POLYLINE
  8
1
 62
7
 66
1
  0
VERTEX
  8
1
 62
7
 10
-0.4875
 20
-2.4375
  0
VERTEX
  8
1
 62
7
 10
0
 20
-3.41249999999999
  0
VERTEX
  8
1
 62
7
 10
0.4875
 20
-2.4375
  0
SEQEND
  8
1
  0
CIRCLE
  8
CONNECTIONS
 62
7
 10
0
 20
3.4125
 40
0
  0
ENDBLK
  8
0
  0
BLOCK
  8
0
  2
B56908
 70
0
 10
0
 20
0
  0
ENDBLK
  8
0
  0
BLOCK
  8
0
  2
B62833
 70
0
 10
0
 20
0
  0
TEXT
  8
1
 62
7
 40
2.34
 41
0.75
  1
1
  7
STANDARD
 72
2
 73
3
 10
1.63599046468735
 20
1.65783818006516
 11
1.63599046468735
 21
1.65783818006516
  0
ENDBLK
  8
0
  0
BLOCK
  8
0
  2
B62834
 70
0
 10
0
 20
0
  0
TEXT
  8
1
 62
7
 40
2.34
 41
0.75
  1
5
  7
STANDARD
 72
2
 73
3
 10
1.63599046468735
 20
1.65783818006516
 11
1.63599046468735
 21
1.65783818006516
  0
ENDBLK
  8
0
  0
BLOCK
  8
0
  2
B62835
 70
0
 10
0
 20
0
  0
TEXT
  8
1
 62
7
 40
2.34
 41
0.75
  1
2
  7
STANDARD
 73
3
 10
-1.63599046468735
 20
1.65783818006516
 11
-1.63599046468735
 21
1.65783818006516
  0
ENDBLK
  8
0
  0
BLOCK
  8
0
  2
B62836
 70
0
 10
0
 20
0
  0
TEXT
  8
1
 62
7
 40
2.34
 41
0.75
  1
4
  7
STANDARD
 72
2
 10
1.63599046468735
 20
-1.07283818006515
 11
1.63599046468735
 21
-1.07283818006515
  0
ENDBLK
  8
0
  0
BLOCK
  8
0
  2
B62837
 70
0
 10
0
 20
0
  0
TEXT
  8
1
 62
7
 40
2.34
 41
0.75
  1
2
  7
STANDARD
 72
2
 10
1.63599046468735
 20
-1.07283818006515
 11
1.63599046468735
 21
-1.07283818006515
  0
ENDBLK
  8
0
  0
BLOCK
  8
0
  2
B62839_00991040
 70
0
 10
0
 20
0
  0
TEXT
  8
1
 62
7
 40
2.413125
 41
0.75
  1
14
  7
STANDARD
 73
2
 10
-15.8265345859528
 20
3.12
 11
-15.8265345859528
 21
3.12
  0
LINE
  8
1
 62
7
 10
16.0875
 20
4.095
 11
16.0875
 21
7.995
  0
LINE
  8
1
 62
7
 10
8.2875
 20
-3.705
 11
8.2875
 21
-7.605
  0
LINE
  8
1
 62
7
 10
8.2875
 20
7.995
 11
8.2875
 21
4.095
  0
LINE
  8
1
 62
7
 10
12.1875
 20
-3.705
 11
12.1875
 21
-7.605
  0
LINE
  8
1
 62
7
 10
16.0875
 20
-3.705
 11
16.0875
 21
-7.605
  0
LINE
  8
1
 62
7
 10
-15.1125
 20
-3.705
 11
-13.1625
 21
0.195000000000002
  0
POLYLINE
  8
1
 62
7
 66
1
  0
VERTEX
  8
1
 62
7
 10
-17.0625
 20
0.195000000000022
  0
VERTEX
  8
1
 62
7
 10
-11.2125
 20
0.195000000000022
  0
VERTEX
  8
1
 62
7
 10
-11.2125
 20
-3.70499999999998
  0
VERTEX
  8
1
 62
7
 10
-17.0625
 20
-3.70499999999998
  0
VERTEX
  8
1
 62
7
 10
-17.0625
 20
0.195000000000022
  0
SEQEND
  8
1
  0
POLYLINE
  8
1
 62
7
 66
1
  0
VERTEX
  8
1
 62
7
 10
18.0375
 20
0.195000000000022
  0
VERTEX
  8
1
 62
7
 10
23.8875
 20
0.195000000000022
  0
VERTEX
  8
1
 62
7
 10
23.8875
 20
-3.70499999999998
  0
VERTEX
  8
1
 62
7
 10
18.0375
 20
-3.70499999999998
  0
VERTEX
  8
1
 62
7
 10
18.0375
 20
0.195000000000022
  0
SEQEND
  8
1
  0
LINE
  8
1
 62
7
 10
20.5100009252407
 20
-1.755
 11
23.8875
 21
0.195000000000002
  0
LINE
  8
1
 62
7
 10
20.5100009252407
 20
-1.755
 11
18.0375
 21
-1.755
  0
LINE
  8
1
 62
7
 10
23.8875
 20
-3.705
 11
20.5100009252407
 21
-1.755
  0
LINE
  8
1
 62
7
 10
-11.2125
 20
0.195000000000002
 11
-11.2125
 21
-3.705
  0
POLYLINE
  8
1
 62
7
 66
1
  0
VERTEX
  8
1
 62
7
 10
-11.2125
 20
0.195000000000022
  0
VERTEX
  8
1
 62
7
 10
-5.3625
 20
0.195000000000022
  0
VERTEX
  8
1
 62
7
 10
-5.3625
 20
-3.70499999999998
  0
VERTEX
  8
1
 62
7
 10
-11.2125
 20
-3.70499999999998
  0
VERTEX
  8
1
 62
7
 10
-11.2125
 20
0.195000000000022
  0
SEQEND
  8
1
  0
LINE
  8
1
 62
7
 10
-11.2125
 20
0.195000000000002
 11
-7.83500092524069
 21
-1.755
  0
LINE
  8
1
 62
7
 10
-11.2125
 20
-3.705
 11
-7.83500092524069
 21
-1.755
  0
LINE
  8
1
 62
7
 10
-3.4125
 20
-3.705
 11
-3.4125
 21
-1.755
  0
INSERT
  8
1
  2
LCBP1
 10
-3.4125
 20
-1.755
 50
90
  0
POLYLINE
  8
1
 62
7
 66
1
  0
VERTEX
  8
1
 62
7
 10
-5.3625
 20
4.09500000000003
  0
VERTEX
  8
1
 62
7
 10
6.3375
 20
4.09500000000003
  0
VERTEX
  8
1
 62
7
 10
6.3375
 20
-3.70499999999998
  0
VERTEX
  8
1
 62
7
 10
-5.3625
 20
-3.70499999999998
  0
VERTEX
  8
1
 62
7
 10
-5.3625
 20
4.09500000000003
  0
SEQEND
  8
1
  0
LINE
  8
1
 62
7
 10
4.3875
 20
4.095
 11
4.3875
 21
-3.705
  0
INSERT
  8
1
  2
LCA1
 10
4.3875
 20
-3.705
 50
-90
  0
LINE
  8
1
 62
7
 10
0.4875
 20
-3.705
 11
-3.4125
 21
4.095
  0
INSERT
  8
1
  2
LCA1
 10
-3.4125
 20
4.095
 50
116.565051177078
  0
LINE
  8
1
 62
7
 10
16.0875
 20
-3.705
 11
16.0875
 21
-1.755
  0
INSERT
  8
1
  2
LCBP1
 10
16.0875
 20
-1.755
 50
90
  0
POLYLINE
  8
1
 62
7
 66
1
  0
VERTEX
  8
1
 62
7
 10
6.3375
 20
4.09500000000003
  0
VERTEX
  8
1
 62
7
 10
18.0375
 20
4.09500000000003
  0
VERTEX
  8
1
 62
7
 10
18.0375
 20
-3.70499999999998
  0
VERTEX
  8
1
 62
7
 10
6.3375
 20
-3.70499999999998
  0
VERTEX
  8
1
 62
7
 10
6.3375
 20
4.09500000000003
  0
SEQEND
  8
1
  0
LINE
  8
1
 62
7
 10
8.2875
 20
4.095
 11
8.2875
 21
-3.705
  0
INSERT
  8
1
  2
LCA1
 10
8.2875
 20
-3.705
 50
-90
  0
LINE
  8
1
 62
7
 10
12.1875
 20
-3.705
 11
16.0875
 21
4.095
  0
INSERT
  8
1
  2
LCA1
 10
16.0875
 20
4.095
 50
63.434948822922
  0
CIRCLE
  8
CONNECTIONS
 62
7
 10
8.2875
 20
7.995
 40
0
  0
CIRCLE
  8
CONNECTIONS
 62
7
 10
16.0875
 20
7.995
 40
0
  0
CIRCLE
  8
CONNECTIONS
 62
7
 10
16.0875
 20
-7.605
 40
0
  0
CIRCLE
  8
CONNECTIONS
 62
7
 10
12.1875
 20
-7.605
 40
0
  0
CIRCLE
  8
CONNECTIONS
 62
7
 10
8.2875
 20
-7.605
 40
0
  0
CIRCLE
  8
CONNECTIONS
 62
7
 10
-17.0773670291901
 20
-1.755
 40
0
  0
ENDBLK
  8
0
  0
BLOCK
  8
0
  2
B62841_00991473
 70
0
 10
0
 20
0
  0
LINE
  8
1
 62
7
 10
0.975
 20
-1.4625
 11
0
 21
-1.4625
  0
LINE
  8
1
 62
7
 10
-0.975
 20
-0.4875
 11
0
 21
-0.4875
  0
LINE
  8
1
 62
7
 10
0.975
 20
0.4875
 11
0
 21
0.4875
  0
POLYLINE
  8
1
 62
7
 66
1
  0
VERTEX
  8
1
 62
7
 10
0.975
 20
1.46250000000001
  0
VERTEX
  8
1
 62
7
 10
-0.975
 20
1.46250000000001
  0
VERTEX
  8
1
 62
7
 10
-0.975
 20
-2.4375
  0
VERTEX
  8
1
 62
7
 10
0.975
 20
-2.4375
  0
VERTEX
  8
1
 62
7
 10
0.975
 20
1.46250000000001
  0
SEQEND
  8
1
  0
LINE
  8
1
 62
7
 10
0
 20
3.4125
 11
0
 21
1.4625
  0
POLYLINE
  8
1
 62
7
 66
1
  0
VERTEX
  8
1
 62
7
 10
-0.4875
 20
-2.4375
  0
VERTEX
  8
1
 62
7
 10
0
 20
-3.41249999999999
  0
VERTEX
  8
1
 62
7
 10
0.4875
 20
-2.4375
  0
SEQEND
  8
1
  0
CIRCLE
  8
CONNECTIONS
 62
7
 10
0
 20
3.4125
 40
0
  0
ENDBLK
  8
0
  0
BLOCK
  8
0
  2
B62842_00991473
 70
0
 10
0
 20
0
  0
LINE
  8
1
 62
7
 10
0.975
 20
-1.4625
 11
0
 21
-1.4625
  0
LINE
  8
1
 62
7
 10
-0.975
 20
-0.4875
 11
0
 21
-0.4875
  0
LINE
  8
1
 62
7
 10
0.975
 20
0.4875
 11
0
 21
0.4875
  0
POLYLINE
  8
1
 62
7
 66
1
  0
VERTEX
  8
1
 62
7
 10
0.975
 20
1.46250000000001
  0
VERTEX
  8
1
 62
7
 10
-0.975
 20
1.46250000000001
  0
VERTEX
  8
1
 62
7
 10
-0.975
 20
-2.4375
  0
VERTEX
  8
1
 62
7
 10
0.975
 20
-2.4375
  0
VERTEX
  8
1
 62
7
 10
0.975
 20
1.46250000000001
  0
SEQEND
  8
1
  0
LINE
  8
1
 62
7
 10
0
 20
3.4125
 11
0
 21
1.4625
  0
POLYLINE
  8
1
 62
7
 66
1
  0
VERTEX
  8
1
 62
7
 10
-0.4875
 20
-2.4375
  0
VERTEX
  8
1
 62
7
 10
0
 20
-3.41249999999999
  0
VERTEX
  8
1
 62
7
 10
0.4875
 20
-2.4375
  0
SEQEND
  8
1
  0
CIRCLE
  8
CONNECTIONS
 62
7
 10
0
 20
3.4125
 40
0
  0
ENDBLK
  8
0
  0
BLOCK
  8
0
  2
B62838
 70
0
 10
0
 20
0
  0
ENDBLK
  8
0
  0
BLOCK
  8
0
  2
B65615
 70
0
 10
0
 20
0
  0
CIRCLE
  8
CONNECTIONS
 62
7
 10
0
 20
0
 40
0
  0
CIRCLE
  8
CONNECTIONS
 62
7
 10
0
 20
0
 40
0
  0
CIRCLE
  8
CONNECTIONS
 62
7
 10
0
 20
0
 40
0
  0
CIRCLE
  8
CONNECTIONS
 62
7
 10
0
 20
0
 40
0
  0
ENDBLK
  8
0
  0
BLOCK
  8
0
  2
B67214_00992970
 70
0
 10
0
 20
0
  0
LINE
  8
1
 62
7
 10
5.9109375
 20
-1.95
 11
5.9109375
 21
-5.85
  0
LINE
  8
1
 62
7
 10
-9.6890625
 20
-1.95
 11
-9.6890625
 21
-5.85
  0
LINE
  8
1
 62
7
 10
-5.7890625
 20
-0.4875
 11
-5.7890625
 21
0.4875
  0
SOLID
  8
1
 62
7
 10
-5.7890625
 20
0.487500000000011
 11
-5.7890625
 21
-0.487499999999983
 12
-7.7390625
 22
-0.487499999999983
 13
-7.7390625
 23
-0.487499999999983
  0
SOLID
  8
1
 62
7
 10
-7.7390625
 20
4.38750000000002
 11
-5.7890625
 21
4.38750000000002
 12
-5.7890625
 22
3.41249999999999
 13
-5.7890625
 23
3.41249999999999
  0
SOLID
  8
1
 62
7
 10
-6.7640625
 20
0.487500000000011
 11
-5.7890625
 21
0.487500000000011
 12
-7.7390625
 22
-0.487499999999983
 13
-7.7390625
 23
-0.487499999999983
  0
SOLID
  8
1
 62
7
 10
-7.7390625
 20
4.38750000000002
 11
-5.7890625
 21
3.41249999999999
 12
-6.7640625
 22
3.41249999999999
 13
-6.7640625
 23
3.41249999999999
  0
SOLID
  8
1
 62
7
 10
-6.7640625
 20
3.41249999999999
 11
-6.7640625
 21
0.487500000000011
 12
-7.7390625
 22
-0.487499999999983
 13
-7.7390625
 23
-0.487499999999983
  0
SOLID
  8
1
 62
7
 10
-7.7390625
 20
-0.487499999999983
 11
-7.7390625
 21
4.38750000000002
 12
-6.7640625
 22
3.41249999999999
 13
-6.7640625
 23
3.41249999999999
  0
POLYLINE
  8
1
 62
7
 66
1
  0
VERTEX
  8
1
 62
7
 10
-4.8140625
 20
3.90000000000001
  0
VERTEX
  8
1
 62
7
 10
-3.8390625
 20
3.90000000000001
  0
VERTEX
  8
1
 62
7
 10
-3.8390625
 20
0
  0
VERTEX
  8
1
 62
7
 10
-4.8140625
 20
0
  0
VERTEX
  8
1
 62
7
 10
-4.8140625
 20
3.90000000000001
  0
SEQEND
  8
1
  0
POLYLINE
  8
1
 62
7
 66
1
  0
VERTEX
  8
1
 62
7
 10
-9.6890625
 20
3.90000000000001
  0
VERTEX
  8
1
 62
7
 10
-8.7140625
 20
3.90000000000001
  0
VERTEX
  8
1
 62
7
 10
-8.7140625
 20
0
  0
VERTEX
  8
1
 62
7
 10
-9.6890625
 20
0
  0
VERTEX
  8
1
 62
7
 10
-9.6890625
 20
3.90000000000001
  0
SEQEND
  8
1
  0
POLYLINE
  8
1
 62
7
 66
1
  0
VERTEX
  8
1
 62
7
 10
-8.7140625
 20
5.84999999999999
  0
VERTEX
  8
1
 62
7
 10
-4.8140625
 20
5.84999999999999
  0
VERTEX
  8
1
 62
7
 10
-4.8140625
 20
-1.94999999999999
  0
VERTEX
  8
1
 62
7
 10
-8.7140625
 20
-1.94999999999999
  0
VERTEX
  8
1
 62
7
 10
-8.7140625
 20
5.84999999999999
  0
SEQEND
  8
1
  0
LINE
  8
1
 62
7
 10
6.8859375
 20
5.85
 11
6.8859375
 21
2.925
  0
LINE
  8
1
 62
7
 10
6.8859375
 20
0.975
 11
6.8859375
 21
-1.95
  0
LINE
  8
1
 62
7
 10
-10.6640625
 20
5.85
 11
-10.6640625
 21
-1.95
  0
LINE
  8
1
 62
7
 10
-10.6640625
 20
5.85
 11
6.8859375
 21
5.85
  0
LINE
  8
1
 62
7
 10
-10.6640625
 20
-1.95
 11
6.8859375
 21
-1.95
  0
POLYLINE
  8
1
 62
7
 66
1
  0
VERTEX
  8
1
 62
7
 10
-3.8390625
 20
2.92500000000001
  0
VERTEX
  8
1
 62
7
 10
13.7109375
 20
2.92500000000001
  0
VERTEX
  8
1
 62
7
 10
13.7109375
 20
0.974999999999994
  0
VERTEX
  8
1
 62
7
 10
-3.8390625
 20
0.974999999999994
  0
SEQEND
  8
1
  0
LINE
  8
1
 62
7
 10
0.1828125
 20
3.778125
 11
-1.7671875
 21
3.778125
  0
LINE
  8
1
 62
7
 10
-11.7609375
 20
0.121875
 11
-13.7109375
 21
0.121875
  0
LINE
  8
1
 62
7
 10
-1.7671875
 20
3.778125
 11
-11.7609375
 21
0.121875
  0
CIRCLE
  8
CONNECTIONS
 62
7
 10
-9.6890625
 20
-5.85
 40
0
  0
CIRCLE
  8
CONNECTIONS
 62
7
 10
5.9109375
 20
-5.85
 40
0
  0
ENDBLK
  8
0
  0
BLOCK
  8
0
  2
B68143_00992970
 70
0
 10
0
 20
0
  0
LINE
  8
1
 62
7
 10
5.9109375
 20
-1.95
 11
5.9109375
 21
-5.85
  0
LINE
  8
1
 62
7
 10
-9.6890625
 20
-1.95
 11
-9.6890625
 21
-5.85
  0
LINE
  8
1
 62
7
 10
-5.7890625
 20
-0.4875
 11
-5.7890625
 21
0.4875
  0
SOLID
  8
1
 62
7
 10
-5.7890625
 20
0.487500000000011
 11
-5.7890625
 21
-0.487499999999983
 12
-7.7390625
 22
-0.487499999999983
 13
-7.7390625
 23
-0.487499999999983
  0
SOLID
  8
1
 62
7
 10
-7.7390625
 20
4.38750000000002
 11
-5.7890625
 21
4.38750000000002
 12
-5.7890625
 22
3.41249999999999
 13
-5.7890625
 23
3.41249999999999
  0
SOLID
  8
1
 62
7
 10
-6.7640625
 20
0.487500000000011
 11
-5.7890625
 21
0.487500000000011
 12
-7.7390625
 22
-0.487499999999983
 13
-7.7390625
 23
-0.487499999999983
  0
SOLID
  8
1
 62
7
 10
-7.7390625
 20
4.38750000000002
 11
-5.7890625
 21
3.41249999999999
 12
-6.7640625
 22
3.41249999999999
 13
-6.7640625
 23
3.41249999999999
  0
SOLID
  8
1
 62
7
 10
-6.7640625
 20
3.41249999999999
 11
-6.7640625
 21
0.487500000000011
 12
-7.7390625
 22
-0.487499999999983
 13
-7.7390625
 23
-0.487499999999983
  0
SOLID
  8
1
 62
7
 10
-7.7390625
 20
-0.487499999999983
 11
-7.7390625
 21
4.38750000000002
 12
-6.7640625
 22
3.41249999999999
 13
-6.7640625
 23
3.41249999999999
  0
POLYLINE
  8
1
 62
7
 66
1
  0
VERTEX
  8
1
 62
7
 10
-4.8140625
 20
3.90000000000001
  0
VERTEX
  8
1
 62
7
 10
-3.8390625
 20
3.90000000000001
  0
VERTEX
  8
1
 62
7
 10
-3.8390625
 20
0
  0
VERTEX
  8
1
 62
7
 10
-4.8140625
 20
0
  0
VERTEX
  8
1
 62
7
 10
-4.8140625
 20
3.90000000000001
  0
SEQEND
  8
1
  0
POLYLINE
  8
1
 62
7
 66
1
  0
VERTEX
  8
1
 62
7
 10
-9.6890625
 20
3.90000000000001
  0
VERTEX
  8
1
 62
7
 10
-8.7140625
 20
3.90000000000001
  0
VERTEX
  8
1
 62
7
 10
-8.7140625
 20
0
  0
VERTEX
  8
1
 62
7
 10
-9.6890625
 20
0
  0
VERTEX
  8
1
 62
7
 10
-9.6890625
 20
3.90000000000001
  0
SEQEND
  8
1
  0
POLYLINE
  8
1
 62
7
 66
1
  0
VERTEX
  8
1
 62
7
 10
-8.7140625
 20
5.84999999999999
  0
VERTEX
  8
1
 62
7
 10
-4.8140625
 20
5.84999999999999
  0
VERTEX
  8
1
 62
7
 10
-4.8140625
 20
-1.94999999999999
  0
VERTEX
  8
1
 62
7
 10
-8.7140625
 20
-1.94999999999999
  0
VERTEX
  8
1
 62
7
 10
-8.7140625
 20
5.84999999999999
  0
SEQEND
  8
1
  0
LINE
  8
1
 62
7
 10
6.8859375
 20
5.85
 11
6.8859375
 21
2.925
  0
LINE
  8
1
 62
7
 10
6.8859375
 20
0.975
 11
6.8859375
 21
-1.95
  0
LINE
  8
1
 62
7
 10
-10.6640625
 20
5.85
 11
-10.6640625
 21
-1.95
  0
LINE
  8
1
 62
7
 10
-10.6640625
 20
5.85
 11
6.8859375
 21
5.85
  0
LINE
  8
1
 62
7
 10
-10.6640625
 20
-1.95
 11
6.8859375
 21
-1.95
  0
POLYLINE
  8
1
 62
7
 66
1
  0
VERTEX
  8
1
 62
7
 10
-3.8390625
 20
2.92500000000001
  0
VERTEX
  8
1
 62
7
 10
13.7109375
 20
2.92500000000001
  0
VERTEX
  8
1
 62
7
 10
13.7109375
 20
0.974999999999994
  0
VERTEX
  8
1
 62
7
 10
-3.8390625
 20
0.974999999999994
  0
SEQEND
  8
1
  0
LINE
  8
1
 62
7
 10
0.1828125
 20
3.778125
 11
-1.7671875
 21
3.778125
  0
LINE
  8
1
 62
7
 10
-11.7609375
 20
0.121875
 11
-13.7109375
 21
0.121875
  0
LINE
  8
1
 62
7
 10
-1.7671875
 20
3.778125
 11
-11.7609375
 21
0.121875
  0
CIRCLE
  8
CONNECTIONS
 62
7
 10
-9.6890625
 20
-5.85
 40
0
  0
CIRCLE
  8
CONNECTIONS
 62
7
 10
5.9109375
 20
-5.85
 40
0
  0
ENDBLK
  8
0
  0
ENDSEC
  0
SECTION
  2
ENTITIES
  0
INSERT
  8
1
  2
B56903
 10
123.520100033283
 20
70.5625568199349
  0
INSERT
  8
1
  2
TRICON
 10
152.099996228905
 20
46.7999841094112
  0
INSERT
  8
1
  2
B53675_00993166
 10
50.7
 20
1.95
 50
90
  0
INSERT
  8
1
  2
B62839_00991040
 10
165.2773525
 20
76.8300007188225
  0
INSERT
  8
1
  2
B62833
 10
176.184952533283
 20
70.5625893199349
  0
INSERT
  8
1
  2
B62841_00991473
 10
173.5648525
 20
65.8125325
  0
INSERT
  8
1
  2
B62837
 10
179.402452533283
 20
83.1949121177101
  0
INSERT
  8
1
  2
B53674
 10
115.865498661409
 20
22.4409836065574
  0
INSERT
  8
1
  2
B62842_00991473
 10
181.3648525
 20
65.8125325
  0
INSERT
  8
1
  2
B56909_00991040
 10
112.6125
 20
76.8299682188225
  0
INSERT
  8
1
  2
B56911_00991473
 10
120.9
 20
65.8125
  0
INSERT
  8
1
  2
B56905
 10
130.335990464687
 20
70.4650568199348
  0
INSERT
  8
1
  2
B53673
 10
60.3100520518937
 20
22.3736148404238
  0
INSERT
  8
1
  2
B62835
 10
183.000842964687
 20
70.4650893199348
  0
INSERT
  8
1
  2
B62838
 10
168.6898525
 20
73.6125166094112
  0
INSERT
  8
1
  2
B56908
 10
116.025
 20
73.6124841094113
  0
INSERT
  8
1
  2
B62836
 10
171.797453153172
 20
83.1678388988876
  0
INSERT
  8
1
  2
B68143_00992970
 10
175.45390962827
 20
134.55
  0
INSERT
  8
1
  2
B56907
 10
126.737600033283
 20
83.1948796177101
  0
INSERT
  8
1
  2
B56906
 10
119.132600653172
 20
83.1678063988876
  0
INSERT
  8
1
  2
B56904
 10
119.035100033283
 20
70.5625568199349
  0
INSERT
  8
1
  2
B62834
 10
171.699952533283
 20
70.5625893199349
  0
INSERT
  8
1
  2
B53664_00991761
 10
88.0518693861414
 20
18.525
  0
INSERT
  8
1
  2
B67214_00992970
 10
122.789034622279
 20
134.55
  0
INSERT
  8
1
  2
B56912_00991473
 10
128.7
 20
65.8125
  0
POLYLINE
  8
1
 62
7
 66
1
  0
VERTEX
  8
1
 62
7
 10
117
 20
19.5
  0
VERTEX
  8
1
 62
7
 10
152.099996228905
 20
19.5
  0
VERTEX
  8
1
 62
7
 10
152.099996228905
 20
46.7999841094112
  0
SEQEND
  8
1
  0
POLYLINE
  8
1
 62
7
 66
1
  0
VERTEX
  8
1
 62
7
 10
50.7
 20
3.90000000000001
  0
VERTEX
  8
1
 62
7
 10
50.7
 20
19.5
  0
VERTEX
  8
1
 62
7
 10
58.5
 20
19.5
  0
SEQEND
  8
1
  0
POLYLINE
  8
1
 62
7
 66
1
  0
VERTEX
  8
1
 62
7
 10
120.9
 20
84.8249682188225
  0
VERTEX
  8
1
 62
7
 10
120.9
 20
106.762484109411
  0
VERTEX
  8
1
 62
7
 10
113.099972122279
 20
106.762484109411
  0
VERTEX
  8
1
 62
7
 10
113.099972122279
 20
128.7
  0
SEQEND
  8
1
  0
POLYLINE
  8
1
 62
7
 66
1
  0
VERTEX
  8
1
 62
7
 10
128.7
 20
84.8249682188225
  0
VERTEX
  8
1
 62
7
 10
128.7
 20
106.762484109411
  0
VERTEX
  8
1
 62
7
 10
128.699972122279
 20
106.762484109411
  0
VERTEX
  8
1
 62
7
 10
128.699972122279
 20
128.7
  0
SEQEND
  8
1
  0
POLYLINE
  8
1
 62
7
 66
1
  0
VERTEX
  8
1
 62
7
 10
173.5648525
 20
84.8250007188225
  0
VERTEX
  8
1
 62
7
 10
173.5648525
 20
106.762500359411
  0
VERTEX
  8
1
 62
7
 10
165.76484712827
 20
106.762500359411
  0
VERTEX
  8
1
 62
7
 10
165.76484712827
 20
128.7
  0
SEQEND
  8
1
  0
POLYLINE
  8
1
 62
7
 66
1
  0
VERTEX
  8
1
 62
7
 10
181.3648525
 20
84.8250007188225
  0
VERTEX
  8
1
 62
7
 10
181.3648525
 20
106.762500359411
  0
VERTEX
  8
1
 62
7
 10
181.36484712827
 20
106.762500359411
  0
VERTEX
  8
1
 62
7
 10
181.36484712827
 20
128.7
  0
SEQEND
  8
1
  0
POLYLINE
  8
1
 62
7
 66
1
  0
VERTEX
  8
1
 62
7
 10
177.4648525
 20
69.2250007188225
  0
VERTEX
  8
1
 62
7
 10
177.4648525
 20
46.7999841094112
  0
VERTEX
  8
1
 62
7
 10
152.099996228905
 20
46.7999841094112
  0
SEQEND
  8
1
  0
POLYLINE
  8
1
 62
7
 66
1
  0
VERTEX
  8
1
 62
7
 10
152.099996228905
 20
46.7999841094112
  0
VERTEX
  8
1
 62
7
 10
124.8
 20
46.7999841094112
  0
VERTEX
  8
1
 62
7
 10
124.8
 20
69.2249682188224
  0
SEQEND
  8
1
  0
ENDSEC
  0
EOF
