  0
SECTION
  2
HEADER
  9
$LIMMIN
 10
0
 20
0
  9
$LIMMAX
 10
68.25
 20
96.525
  9
$EXTMIN
 10
0
 20
122.85
  9
$EXTMAX
 10
0
 20
109.200006701344
  0
ENDSEC
  0
SECTION
  2
TABLES
  0
TABLE
  2
LTYPE
 70
9
  0
LTYPE
  2
CONTINUOUS
 70
64
  3
Solid line
 72
65
 73
0
 40
0
  0
LTYPE
  2
DASHED
 70
64
  3
__ __ __ __ __ __ __ __ __
 72
65
 73
2
 40
0.75
 49
0.5
 49
-0.25
  0
LTYPE
  2
DOT
 70
64
  3
...........................
 72
65
 73
2
 40
0.25
 49
0
 49
-0.25
  0
LTYPE
  2
DASHDOT
 70
64
  3
__ . __ . __ . __ . __ . __ . 
 72
65
 73
4
 40
1
 49
0.5
 49
-0.25
 49
0
 49
-0.25
  0
ENDTAB
  0
TABLE
  2
LAYER
 70
10
  0
LAYER
  2
1
 70
0
 62
7
  6
CONTINUOUS
  0
LAYER
  2
CONNECTIONS
 70
0
 62
-7
  6
CONTINUOUS
  0
ENDTAB
  0
ENDSEC
  0
SECTION
  2
BLOCKS
  0
BLOCK
  8
0
  2
TRICON
 70
0
 10
0
 20
0
  0
POLYLINE
  8
1
 62
7
 70
1
 66
1
 40
0.65
 41
0.65
  0
VERTEX
  8
1
 10
-0.325
 20
0
 42
1
  0
VERTEX
  8
1
 10
0.325
 20
0
 42
1
  0
SEQEND
  8
1
  0
ENDBLK
  8
0
  0
BLOCK
  8
0
  2
TRICONSMALL
 70
0
 10
0
 20
0
  0
POLYLINE
  8
1
 62
7
 70
1
 66
1
 40
0.325
 41
0.325
  0
VERTEX
  8
1
 10
-0.1625
 20
0
 42
1
  0
VERTEX
  8
1
 10
0.1625
 20
0
 42
1
  0
SEQEND
  8
1
  0
ENDBLK
  8
0
  0
BLOCK
  8
0
  2
LCBP0
 70
0
 10
0
 20
0
  0
LINE
  8
1
 62
7
 10
0
 20
-0.609375
 11
0
 21
0.609375
  0
ENDBLK
  8
0
  0
BLOCK
  8
0
  2
LCBP1
 70
0
 10
0
 20
0
  0
LINE
  8
1
 62
7
 10
0
 20
-0.8125
 11
0
 21
0.8125
  0
ENDBLK
  8
0
  0
BLOCK
  8
0
  2
LCBP2
 70
0
 10
0
 20
0
  0
LINE
  8
1
 62
7
 10
0
 20
-1.21875
 11
0
 21
1.21875
  0
ENDBLK
  8
0
  0
BLOCK
  8
0
  2
LCA1
 70
0
 10
0
 20
0
  0
SOLID
  8
1
 62
7 
 10
0
 20
0
 11
-1.82
 21
-0.3575
 12
-1.82
 22
0.3575
 13
-1.82
 23
0.3575
  0
ENDBLK
  8
0
  0
BLOCK
  8
0
  2
LCA2
 70
0
 10
0
 20
0
  0
SOLID
  8
1
 62
7 
 10
0
 20
0
 11
-2.145
 21
-0.6825
 12
-2.145
 22
0.6825
 13
-2.145
 23
0.6825
  0
ENDBLK
  8
0
  0
BLOCK
  8
0
  2
LCA3
 70
0
 10
0
 20
0
  0
SOLID
  8
1
 62
7 
 10
0
 20
0
 11
-2.795
 21
-1.495
 12
-2.795
 22
1.495
 13
-2.795
 23
1.495
  0
ENDBLK
  8
0
  0
BLOCK
  8
0
  2
LCA1R
 70
0
 10
0
 20
0
  0
SOLID
  8
1
 62
7 
 10
0
 20
0
 11
1.82
 21
-0.3575
 12
1.82
 22
0.3575
 13
1.82
 23
0.3575
  0
ENDBLK
  8
0
  0
BLOCK
  8
0
  2
LCA2R
 70
0
 10
0
 20
0
  0
SOLID
  8
1
 62
7 
 10
0
 20
0
 11
2.145
 21
-0.6825
 12
2.145
 22
0.6825
 13
2.145
 23
0.6825
  0
ENDBLK
  8
0
  0
BLOCK
  8
0
  2
LCA3R
 70
0
 10
0
 20
0
  0
SOLID
  8
1
 62
7 
 10
0
 20
0
 11
2.795
 21
-1.495
 12
2.795
 22
1.495
 13
2.795
 23
1.495
  0
ENDBLK
  8
0
  0
BLOCK
  8
0
  2
B102995_00991761
 70
0
 10
0
 20
0
  0
POLYLINE
  8
1
 62
7
  6
DASHDOT
 66
1
  0
VERTEX
  8
1
 62
7
 10
-25.6518693861414
 20
18.525
  0
VERTEX
  8
1
 62
7
 10
25.0481306138586
 20
18.525
  0
VERTEX
  8
1
 62
7
 10
25.0481306138586
 20
-14.625
  0
VERTEX
  8
1
 62
7
 10
-25.6518693861414
 20
-14.625
  0
VERTEX
  8
1
 62
7
 10
-25.6518693861414
 20
18.525
  0
SEQEND
  8
1
  0
LINE
  8
1
 62
7
 10
28.9481306138586
 20
0.975
 11
25.0481306138586
 21
0.975
  0
LINE
  8
1
 62
7
 10
-15.9018693861414
 20
-18.525
 11
-15.9018693861414
 21
-14.625
  0
LINE
  8
1
 62
7
 10
-29.5518693861414
 20
0.975
 11
-25.6518693861414
 21
0.975
  0
LINE
  8
1
 62
7
 10
25.0481306138586
 20
0.975
 11
20.7910627799681
 21
0.975
  0
LINE
  8
1
 62
7
 10
5.54813061385858
 20
6.825
 11
5.54813061385858
 21
0.975
  0
LINE
  8
1
 62
7
 10
1.64813061385858
 20
0.975
 11
9.78892775255234
 21
0.975
  0
LINE
  8
1
 62
7
 10
-10.3864364928863
 20
0.975
 11
-6.15186938614142
 21
0.975
  0
POLYLINE
  8
1
 62
7
 66
1
  0
VERTEX
  8
1
 62
7
 10
-8.10186938614144
 20
0.975000000000023
  0
VERTEX
  8
1
 62
7
 10
-8.10186938614144
 20
-8.77499999999998
  0
VERTEX
  8
1
 62
7
 10
-6.15186938614144
 20
-8.77499999999998
  0
SEQEND
  8
1
  0
LINE
  8
1
 62
7
 10
-15.9018693861414
 20
-14.625
 11
-15.9018693861414
 21
-4.53289473684212
  0
LINE
  8
1
 62
7
 10
-25.6518693861414
 20
0.975
 11
-21.4173022793965
 21
0.975
  0
POLYLINE
  8
1
 62
7
 70
1
 66
1
 40
0.4875
 41
0.4875
  0
VERTEX
  8
1
 10
-8.34561938614142
 20
0.975
 42
1
  0
VERTEX
  8
1
 10
-7.85811938614142
 20
0.975
 42
1
  0
SEQEND
  8
1
  0
POLYLINE
  8
1
 62
7
 70
1
 66
1
 40
0.4875
 41
0.4875
  0
VERTEX
  8
1
 10
5.30438061385858
 20
0.975
 42
1
  0
VERTEX
  8
1
 10
5.79188061385858
 20
0.975
 42
1
  0
SEQEND
  8
1
  0
POLYLINE
  8
1
 62
7
 66
1
  0
VERTEX
  8
1
 62
7
 10
3.59813061385856
 20
-8.77499999999998
  0
VERTEX
  8
1
 62
7
 10
5.54813061385856
 20
-8.77499999999998
  0
VERTEX
  8
1
 62
7
 10
5.54813061385856
 20
0.975000000000023
  0
SEQEND
  8
1
  0
LINE
  8
1
 62
7
 10
15.3043606458075
 20
3.27595846645368
 11
15.3043606458075
 21
6.5068242529638
  0
POLYLINE
  8
1
 62
7
 66
1
  0
VERTEX
  8
1
 62
7
 10
15.3043606458074
 20
6.50682425296378
  0
VERTEX
  8
1
 62
7
 10
9.78892775255242
 20
0.991391359708729
  0
VERTEX
  8
1
 62
7
 10
15.3043606458074
 20
-4.52404153354632
  0
VERTEX
  8
1
 62
7
 10
20.8197935390626
 20
0.991391359708729
  0
VERTEX
  8
1
 62
7
 10
15.3043606458074
 20
6.50682425296378
  0
SEQEND
  8
1
  0
POLYLINE
  8
1
 62
7
 66
1
  0
VERTEX
  8
1
 62
7
 10
-15.9018693861414
 20
6.497971049668
  0
VERTEX
  8
1
 62
7
 10
-21.4173022793965
 20
0.982538156412971
  0
VERTEX
  8
1
 62
7
 10
-15.9018693861414
 20
-4.53289473684211
  0
VERTEX
  8
1
 62
7
 10
-10.3864364928864
 20
0.982538156412971
  0
VERTEX
  8
1
 62
7
 10
-15.9018693861414
 20
6.497971049668
  0
SEQEND
  8
1
  0
LINE
  8
1
 62
7
  6
DASHED
 10
-15.9018556059762
 20
-2.58289473684211
 11
-15.9018556059762
 21
6.49797104966799
  0
LINE
  8
1
 62
7
 10
-17.8518429375737
 20
-2.58289473684211
 11
-13.9518574334233
 21
-2.58289473684211
  0
POLYLINE
  8
1
 62
7
 66
1
  0
VERTEX
  8
1
 62
7
 10
-17.8518429375737
 20
-2.58292118540982
  0
VERTEX
  8
1
 62
7
 10
-15.9018693861414
 20
-4.53289473684211
  0
VERTEX
  8
1
 62
7
 10
-13.9518574334233
 20
-2.582882784124
  0
SEQEND
  8
1
  0
LINE
  8
1
 62
7
 10
7.27170339300078
 20
9.00142722085779
 11
3.82455783471636
 21
12.4485727791422
  0
INSERT
  8
1
  2
LCA1
 10
3.82455783471636
 20
12.4485727791422
 50
135
  0
CIRCLE
  8
1
 62
7
 10
5.54813061385858
 20
10.725
 40
3.9
  0
LINE
  8
1
 62
7
 10
-0.301869386141423
 20
-8.775
 11
3.59813061385858
 21
-8.775
  0
LINE
  8
1
 62
7
 10
-6.15186938614142
 20
-8.775
 11
-2.71596573736102
 21
-8.775
  0
CIRCLE
  8
1
 62
7
 10
-1.76436938614142
 20
-8.775
 40
0.975
  0
POLYLINE
  8
1
 62
7
 66
1
  0
VERTEX
  8
1
 62
7
 10
-2.25186938614142
 20
-10.725
  0
VERTEX
  8
1
 62
7
 10
-0.301869386141422
 20
-8.77499999999998
  0
VERTEX
  8
1
 62
7
 10
-2.25186938614142
 20
-6.82499999999999
  0
SEQEND
  8
1
  0
LINE
  8
1
 62
7
 10
-8.53340232171766
 20
8.06360462147178
 11
0.129932353051913
 21
10.4614697788431
  0
INSERT
  8
1
  2
LCA1
 10
0.129932353051913
 20
10.4614697788431
 50
15.4711922908485
  0
POLYLINE
  8
1
 62
7
 66
1
  0
VERTEX
  8
1
 62
7
 10
-4.2017610752443
 20
6.82502256477028
  0
VERTEX
  8
1
 62
7
 10
-2.25176107524429
 20
7.23127256477028
  0
VERTEX
  8
1
 62
7
 10
-6.1517610752443
 20
8.04377256477028
  0
VERTEX
  8
1
 62
7
 10
-2.25176107524429
 20
8.85627256477028
  0
VERTEX
  8
1
 62
7
 10
-6.1517610752443
 20
9.66877256477028
  0
VERTEX
  8
1
 62
7
 10
-2.25176107524429
 20
10.4812725647703
  0
VERTEX
  8
1
 62
7
 10
-6.1517610752443
 20
11.2937725647703
  0
VERTEX
  8
1
 62
7
 10
-4.2017610752443
 20
11.7000225647703
  0
SEQEND
  8
1
  0
POLYLINE
  8
1
 62
7
 66
1
  0
VERTEX
  8
1
 62
7
 10
-6.15186938614144
 20
5.85000000000002
  0
VERTEX
  8
1
 62
7
 10
-8.10186938614144
 20
4.875
  0
VERTEX
  8
1
 62
7
 10
-6.15186938614144
 20
3.90000000000001
  0
SEQEND
  8
1
  0
POLYLINE
  8
1
 62
7
  6
DOT
 66
1
  0
VERTEX
  8
1
 62
7
 10
-4.20186938614144
 20
-0.974999999999994
  0
VERTEX
  8
1
 62
7
 10
-4.20186938614144
 20
-4.875
  0
VERTEX
  8
1
 62
7
 10
3.59813061385856
 20
-4.875
  0
VERTEX
  8
1
 62
7
 10
3.59813061385856
 20
-0.974999999999994
  0
VERTEX
  8
1
 62
7
 10
1.64813061385858
 20
0.975000000000023
  0
SEQEND
  8
1
  0
POLYLINE
  8
1
 62
7
 66
1
  0
VERTEX
  8
1
 62
7
 10
-6.15186938614144
 20
-0.974999999999994
  0
VERTEX
  8
1
 62
7
 10
1.64813061385858
 20
-0.974999999999994
  0
VERTEX
  8
1
 62
7
 10
1.64813061385858
 20
6.82500000000002
  0
VERTEX
  8
1
 62
7
 10
-6.15186938614144
 20
6.82500000000002
  0
VERTEX
  8
1
 62
7
 10
-6.15186938614144
 20
-0.974999999999994
  0
SEQEND
  8
1
  0
LINE
  8
1
 62
7
 10
1.64813061385858
 20
0.975
 11
-6.15186938614142
 21
0.975
  0
INSERT
  8
1
  2
LCA1
 10
-6.15186938614142
 20
0.975
 50
-180
  0
INSERT
  8
1
  2
LCA1R
 10
1.64813061385858
 20
0.975
 50
-180
  0
CIRCLE
  8
CONNECTIONS
 62
7
 10
28.9481306138586
 20
0.975
 40
0
  0
CIRCLE
  8
CONNECTIONS
 62
7
 10
-29.5518693861414
 20
0.975
 40
0
  0
ENDBLK
  8
0
  0
BLOCK
  8
0
  2
B103004
 70
0
 10
0
 20
0
  0
TEXT
  8
1
 62
7
 40
2.34
 41
0.75
  1
1
  7
STANDARD
 72
2
 10
1.63599046468735
 20
-1.07283818006515
 11
1.63599046468735
 21
-1.07283818006515
  0
ENDBLK
  8
0
  0
BLOCK
  8
0
  2
B103005
 70
0
 10
0
 20
0
  0
TEXT
  8
1
 62
7
 40
2.34
 41
0.75
  1
2
  7
STANDARD
 73
2
 10
-1.63599046468735
 20
0
 11
-1.63599046468735
 21
0
  0
ENDBLK
  8
0
  0
BLOCK
  8
0
  2
B106905
 70
0
 10
0
 20
0
  0
TEXT
  8
1
 62
7
 40
2.34
 41
0.75
  1
1
  7
STANDARD
 72
2
 73
3
 10
1.63599046468735
 20
1.65783818006516
 11
1.63599046468735
 21
1.65783818006516
  0
ENDBLK
  8
0
  0
BLOCK
  8
0
  2
B106906
 70
0
 10
0
 20
0
  0
TEXT
  8
1
 62
7
 40
2.34
 41
0.75
  1
5
  7
STANDARD
 72
2
 73
3
 10
1.63599046468735
 20
1.65783818006516
 11
1.63599046468735
 21
1.65783818006516
  0
ENDBLK
  8
0
  0
BLOCK
  8
0
  2
B106907
 70
0
 10
0
 20
0
  0
TEXT
  8
1
 62
7
 40
2.34
 41
0.75
  1
2
  7
STANDARD
 73
3
 10
-1.63599046468735
 20
1.65783818006516
 11
-1.63599046468735
 21
1.65783818006516
  0
ENDBLK
  8
0
  0
BLOCK
  8
0
  2
B106908
 70
0
 10
0
 20
0
  0
TEXT
  8
1
 62
7
 40
2.34
 41
0.75
  1
4
  7
STANDARD
 72
2
 10
1.63599046468735
 20
-1.07283818006515
 11
1.63599046468735
 21
-1.07283818006515
  0
ENDBLK
  8
0
  0
BLOCK
  8
0
  2
B106909
 70
0
 10
0
 20
0
  0
TEXT
  8
1
 62
7
 40
2.34
 41
0.75
  1
2
  7
STANDARD
 72
2
 10
1.63599046468735
 20
-1.07283818006515
 11
1.63599046468735
 21
-1.07283818006515
  0
ENDBLK
  8
0
  0
BLOCK
  8
0
  2
B106911_00991040
 70
0
 10
0
 20
0
  0
TEXT
  8
1
 62
7
 40
2.413125
 41
0.75
  1
14
  7
STANDARD
 73
2
 10
-15.8265345859528
 20
3.12
 11
-15.8265345859528
 21
3.12
  0
LINE
  8
1
 62
7
 10
16.0875
 20
4.095
 11
16.0875
 21
7.995
  0
LINE
  8
1
 62
7
 10
8.2875
 20
-3.705
 11
8.2875
 21
-7.605
  0
LINE
  8
1
 62
7
 10
8.2875
 20
7.995
 11
8.2875
 21
4.095
  0
LINE
  8
1
 62
7
 10
12.1875
 20
-3.705
 11
12.1875
 21
-7.605
  0
LINE
  8
1
 62
7
 10
16.0875
 20
-3.705
 11
16.0875
 21
-7.605
  0
LINE
  8
1
 62
7
 10
-15.1125
 20
-3.705
 11
-13.1625
 21
0.195000000000002
  0
POLYLINE
  8
1
 62
7
 66
1
  0
VERTEX
  8
1
 62
7
 10
-17.0625
 20
0.195000000000022
  0
VERTEX
  8
1
 62
7
 10
-11.2125
 20
0.195000000000022
  0
VERTEX
  8
1
 62
7
 10
-11.2125
 20
-3.70499999999998
  0
VERTEX
  8
1
 62
7
 10
-17.0625
 20
-3.70499999999998
  0
VERTEX
  8
1
 62
7
 10
-17.0625
 20
0.195000000000022
  0
SEQEND
  8
1
  0
POLYLINE
  8
1
 62
7
 66
1
  0
VERTEX
  8
1
 62
7
 10
18.0375
 20
0.195000000000022
  0
VERTEX
  8
1
 62
7
 10
23.8875
 20
0.195000000000022
  0
VERTEX
  8
1
 62
7
 10
23.8875
 20
-3.70499999999998
  0
VERTEX
  8
1
 62
7
 10
18.0375
 20
-3.70499999999998
  0
VERTEX
  8
1
 62
7
 10
18.0375
 20
0.195000000000022
  0
SEQEND
  8
1
  0
LINE
  8
1
 62
7
 10
20.5100009252407
 20
-1.755
 11
23.8875
 21
0.195000000000002
  0
LINE
  8
1
 62
7
 10
20.5100009252407
 20
-1.755
 11
18.0375
 21
-1.755
  0
LINE
  8
1
 62
7
 10
23.8875
 20
-3.705
 11
20.5100009252407
 21
-1.755
  0
LINE
  8
1
 62
7
 10
-11.2125
 20
0.195000000000002
 11
-11.2125
 21
-3.705
  0
POLYLINE
  8
1
 62
7
 66
1
  0
VERTEX
  8
1
 62
7
 10
-11.2125
 20
0.195000000000022
  0
VERTEX
  8
1
 62
7
 10
-5.3625
 20
0.195000000000022
  0
VERTEX
  8
1
 62
7
 10
-5.3625
 20
-3.70499999999998
  0
VERTEX
  8
1
 62
7
 10
-11.2125
 20
-3.70499999999998
  0
VERTEX
  8
1
 62
7
 10
-11.2125
 20
0.195000000000022
  0
SEQEND
  8
1
  0
LINE
  8
1
 62
7
 10
-11.2125
 20
0.195000000000002
 11
-7.83500092524069
 21
-1.755
  0
LINE
  8
1
 62
7
 10
-11.2125
 20
-3.705
 11
-7.83500092524069
 21
-1.755
  0
LINE
  8
1
 62
7
 10
-3.4125
 20
-3.705
 11
-3.4125
 21
-1.755
  0
INSERT
  8
1
  2
LCBP1
 10
-3.4125
 20
-1.755
 50
90
  0
POLYLINE
  8
1
 62
7
 66
1
  0
VERTEX
  8
1
 62
7
 10
-5.3625
 20
4.09500000000003
  0
VERTEX
  8
1
 62
7
 10
6.3375
 20
4.09500000000003
  0
VERTEX
  8
1
 62
7
 10
6.3375
 20
-3.70499999999998
  0
VERTEX
  8
1
 62
7
 10
-5.3625
 20
-3.70499999999998
  0
VERTEX
  8
1
 62
7
 10
-5.3625
 20
4.09500000000003
  0
SEQEND
  8
1
  0
LINE
  8
1
 62
7
 10
4.3875
 20
4.095
 11
4.3875
 21
-3.705
  0
INSERT
  8
1
  2
LCA1
 10
4.3875
 20
-3.705
 50
-90
  0
LINE
  8
1
 62
7
 10
0.4875
 20
-3.705
 11
-3.4125
 21
4.095
  0
INSERT
  8
1
  2
LCA1
 10
-3.4125
 20
4.095
 50
116.565051177078
  0
LINE
  8
1
 62
7
 10
16.0875
 20
-3.705
 11
16.0875
 21
-1.755
  0
INSERT
  8
1
  2
LCBP1
 10
16.0875
 20
-1.755
 50
90
  0
POLYLINE
  8
1
 62
7
 66
1
  0
VERTEX
  8
1
 62
7
 10
6.3375
 20
4.09500000000003
  0
VERTEX
  8
1
 62
7
 10
18.0375
 20
4.09500000000003
  0
VERTEX
  8
1
 62
7
 10
18.0375
 20
-3.70499999999998
  0
VERTEX
  8
1
 62
7
 10
6.3375
 20
-3.70499999999998
  0
VERTEX
  8
1
 62
7
 10
6.3375
 20
4.09500000000003
  0
SEQEND
  8
1
  0
LINE
  8
1
 62
7
 10
8.2875
 20
4.095
 11
8.2875
 21
-3.705
  0
INSERT
  8
1
  2
LCA1
 10
8.2875
 20
-3.705
 50
-90
  0
LINE
  8
1
 62
7
 10
12.1875
 20
-3.705
 11
16.0875
 21
4.095
  0
INSERT
  8
1
  2
LCA1
 10
16.0875
 20
4.095
 50
63.434948822922
  0
CIRCLE
  8
CONNECTIONS
 62
7
 10
8.2875
 20
7.995
 40
0
  0
CIRCLE
  8
CONNECTIONS
 62
7
 10
16.0875
 20
7.995
 40
0
  0
CIRCLE
  8
CONNECTIONS
 62
7
 10
16.0875
 20
-7.605
 40
0
  0
CIRCLE
  8
CONNECTIONS
 62
7
 10
12.1875
 20
-7.605
 40
0
  0
CIRCLE
  8
CONNECTIONS
 62
7
 10
8.2875
 20
-7.605
 40
0
  0
CIRCLE
  8
CONNECTIONS
 62
7
 10
-17.0773670291901
 20
-1.755
 40
0
  0
ENDBLK
  8
0
  0
BLOCK
  8
0
  2
B106913_00991473
 70
0
 10
0
 20
0
  0
LINE
  8
1
 62
7
 10
0.975
 20
-1.4625
 11
0
 21
-1.4625
  0
LINE
  8
1
 62
7
 10
-0.975
 20
-0.4875
 11
0
 21
-0.4875
  0
LINE
  8
1
 62
7
 10
0.975
 20
0.4875
 11
0
 21
0.4875
  0
POLYLINE
  8
1
 62
7
 66
1
  0
VERTEX
  8
1
 62
7
 10
0.975
 20
1.46250000000001
  0
VERTEX
  8
1
 62
7
 10
-0.975
 20
1.46250000000001
  0
VERTEX
  8
1
 62
7
 10
-0.975
 20
-2.4375
  0
VERTEX
  8
1
 62
7
 10
0.975
 20
-2.4375
  0
VERTEX
  8
1
 62
7
 10
0.975
 20
1.46250000000001
  0
SEQEND
  8
1
  0
LINE
  8
1
 62
7
 10
0
 20
3.4125
 11
0
 21
1.4625
  0
POLYLINE
  8
1
 62
7
 66
1
  0
VERTEX
  8
1
 62
7
 10
-0.4875
 20
-2.4375
  0
VERTEX
  8
1
 62
7
 10
0
 20
-3.41249999999999
  0
VERTEX
  8
1
 62
7
 10
0.4875
 20
-2.4375
  0
SEQEND
  8
1
  0
CIRCLE
  8
CONNECTIONS
 62
7
 10
0
 20
3.4125
 40
0
  0
ENDBLK
  8
0
  0
BLOCK
  8
0
  2
B106914_00991473
 70
0
 10
0
 20
0
  0
LINE
  8
1
 62
7
 10
0.975
 20
-1.4625
 11
0
 21
-1.4625
  0
LINE
  8
1
 62
7
 10
-0.975
 20
-0.4875
 11
0
 21
-0.4875
  0
LINE
  8
1
 62
7
 10
0.975
 20
0.4875
 11
0
 21
0.4875
  0
POLYLINE
  8
1
 62
7
 66
1
  0
VERTEX
  8
1
 62
7
 10
0.975
 20
1.46250000000001
  0
VERTEX
  8
1
 62
7
 10
-0.975
 20
1.46250000000001
  0
VERTEX
  8
1
 62
7
 10
-0.975
 20
-2.4375
  0
VERTEX
  8
1
 62
7
 10
0.975
 20
-2.4375
  0
VERTEX
  8
1
 62
7
 10
0.975
 20
1.46250000000001
  0
SEQEND
  8
1
  0
LINE
  8
1
 62
7
 10
0
 20
3.4125
 11
0
 21
1.4625
  0
POLYLINE
  8
1
 62
7
 66
1
  0
VERTEX
  8
1
 62
7
 10
-0.4875
 20
-2.4375
  0
VERTEX
  8
1
 62
7
 10
0
 20
-3.41249999999999
  0
VERTEX
  8
1
 62
7
 10
0.4875
 20
-2.4375
  0
SEQEND
  8
1
  0
CIRCLE
  8
CONNECTIONS
 62
7
 10
0
 20
3.4125
 40
0
  0
ENDBLK
  8
0
  0
BLOCK
  8
0
  2
B106910
 70
0
 10
0
 20
0
  0
ENDBLK
  8
0
  0
BLOCK
  8
0
  2
B112382
 70
0
 10
0
 20
0
  0
LINE
  8
1
 62
7
 10
-2.75770434900357
 20
0
 11
2.75770434900357
 21
0
  0
ENDBLK
  8
0
  0
BLOCK
  8
0
  2
B112383
 70
0
 10
0
 20
0
  0
LINE
  8
1
 62
7
 10
-2.75770956598537
 20
0
 11
2.75770956598537
 21
0
  0
ENDBLK
  8
0
  0
BLOCK
  8
0
  2
B112384
 70
0
 10
0
 20
0
  0
LINE
  8
1
 62
7
 10
-1.94999623005216
 20
0
 11
1.94999623005216
 21
0
  0
ENDBLK
  8
0
  0
BLOCK
  8
0
  2
B114233
 70
0
 10
0
 20
0
  0
CIRCLE
  8
CONNECTIONS
 62
7
 10
0
 20
0
 40
0
  0
CIRCLE
  8
CONNECTIONS
 62
7
 10
0
 20
0
 40
0
  0
ENDBLK
  8
0
  0
BLOCK
  8
0
  2
B123355
 70
0
 10
0
 20
0
  0
TEXT
  8
1
 62
7
 40
2.413125
 41
0.75
  1
HAVA ÜFLEME
  7
STANDARD
 73
3
 10
-14.1545543670654
 20
4.02257231235504
 11
-14.1545543670654
 21
4.02257231235504
  0
TEXT
  8
1
 62
7
 40
2.413125
 41
0.75
  1
     TARAÐI
  7
STANDARD
 73
3
 10
-14.1545543670654
 20
-0.60328125
 11
-14.1545543670654
 21
-0.60328125
  0
ENDBLK
  8
0
  0
BLOCK
  8
0
  2
B130445_00993166
 70
0
 10
0
 20
0
  0
LINE
  8
1
 62
7
 10
1.42749907475932
 20
0
 11
1.95
 21
0
  0
LINE
  8
1
 62
7
 10
1.42749907475931
 20
0
 11
-1.95
 21
1.95
  0
LINE
  8
1
 62
7
 10
-1.95
 20
1.95
 11
-1.95
 21
-1.95
  0
LINE
  8
1
 62
7
 10
1.42749907475931
 20
0
 11
-1.95
 21
-1.95
  0
CIRCLE
  8
CONNECTIONS
 62
7
 10
1.95000000000001
 20
0
 40
0
  0
ENDBLK
  8
0
  0
ENDSEC
  0
SECTION
  2
ENTITIES
  0
INSERT
  8
1
  2
B106906
 10
148.285100033283
 20
52.0375568199349
  0
INSERT
  8
1
  2
B106905
 10
152.770100033283
 20
52.0375568199349
  0
INSERT
  8
1
  2
B106907
 10
159.585990464687
 20
51.9400568199348
  0
INSERT
  8
1
  2
B106909
 10
155.987600033283
 20
64.6698796177101
  0
INSERT
  8
1
  2
B106910
 10
145.275
 20
55.0874841094113
  0
INSERT
  8
1
  2
B130445_00993166
 10
44.85
 20
5.85
 50
90
  0
INSERT
  8
1
  2
B112383
 10
155.999974693514
 20
107.250012086298
 50
224.999984732699
  0
INSERT
  8
1
  2
B112382
 10
159.899998395238
 20
107.249976503862
 50
315.00001320895
  0
INSERT
  8
1
  2
B106911_00991040
 10
141.8625
 20
58.3049682188225
  0
INSERT
  8
1
  2
B106908
 10
148.382600653172
 20
64.6428063988876
  0
INSERT
  8
1
  2
B114233
 10
157.95
 20
105.3
 50
180
  0
INSERT
  8
1
  2
B112384
 10
157.950016927302
 20
107.250010238821
 50
269.999673757144
  0
INSERT
  8
1
  2
B103005
 10
113.915498661409
 20
22.4409836065574
  0
INSERT
  8
1
  2
B103004
 10
58.3600520518937
 20
22.3736148404238
  0
INSERT
  8
1
  2
B123355
 10
143.795461867065
 20
98.225823937645
  0
INSERT
  8
1
  2
B106913_00991473
 10
150.15
 20
47.2875
  0
INSERT
  8
1
  2
B106914_00991473
 10
157.95
 20
47.2875
  0
INSERT
  8
1
  2
B102995_00991761
 10
86.1018693861414
 20
18.525
  0
POLYLINE
  8
1
 62
7
 66
1
  0
VERTEX
  8
1
 62
7
 10
115.05
 20
19.5
  0
VERTEX
  8
1
 62
7
 10
154.05
 20
19.5
  0
VERTEX
  8
1
 62
7
 10
154.05
 20
50.6999682188225
  0
SEQEND
  8
1
  0
POLYLINE
  8
1
 62
7
 66
1
  0
VERTEX
  8
1
 62
7
 10
157.95
 20
66.2999682188225
  0
VERTEX
  8
1
 62
7
 10
157.95
 20
105.3
  0
SEQEND
  8
1
  0
POLYLINE
  8
1
 62
7
 66
1
  0
VERTEX
  8
1
 62
7
 10
44.85
 20
7.79999999999998
  0
VERTEX
  8
1
 62
7
 10
44.85
 20
19.5
  0
VERTEX
  8
1
 62
7
 10
56.55
 20
19.5
  0
SEQEND
  8
1
  0
ENDSEC
  0
EOF
