<?xml version="1.0" encoding="utf-8"?>
<!-- Generator: Adobe Illustrator 23.1.1, SVG Export Plug-In . SVG Version: 6.00 Build 0)  -->
<svg version="1.1" id="Layer_1" xmlns="http://www.w3.org/2000/svg" xmlns:xlink="http://www.w3.org/1999/xlink" x="0px" y="0px"
	 viewBox="0 0 500 200" style="enable-background:new 0 0 500 200;" xml:space="preserve">
<style type="text/css">
	.st0{fill:#00609C;}
	.st1{fill:#D4D700;}
</style>
<g>
	<g>
		<g>
			<g>
				<path class="st0" d="M115.78,32.81c-1.93,0-3.5,1.57-3.5,3.5v54.05L57.07,34.05c-0.77-0.79-1.85-1.24-2.95-1.24
					c-2.28,0-4.13,1.85-4.13,4.13v61.66c0,1.93,1.57,3.49,3.5,3.49c1.93,0,3.5-1.57,3.5-3.49v-54.6l55.88,56.98
					c0.7,0.71,1.67,1.12,2.67,1.12c2.06,0,3.74-1.68,3.74-3.74V36.31C119.28,34.38,117.71,32.81,115.78,32.81z"/>
				<path class="st0" d="M196.42,32.81c-1.93,0-3.5,1.57-3.5,3.5v32.98c0,17.11-10.59,27.74-27.65,27.74s-27.65-10.63-27.65-27.74
					V36.31c0-1.93-1.57-3.5-3.5-3.5c-1.93,0-3.5,1.57-3.5,3.5v32.98c0,21.04,13.6,34.64,34.64,34.64c21.04,0,34.64-13.6,34.64-34.64
					V36.31C199.92,34.38,198.35,32.81,196.42,32.81z"/>
				<path class="st0" d="M282.57,32.81c-1.25,0-2.41,0.68-3.02,1.77l-32.03,57.44L215.4,34.58c0,0,0,0,0,0
					c-0.61-1.09-1.77-1.77-3.02-1.77h-0.09c-1.22,0-2.36,0.65-2.98,1.71c-0.62,1.05-0.63,2.37-0.04,3.44l34.55,62.01
					c0.73,1.31,2.11,2.12,3.61,2.12c1.5,0,2.89-0.81,3.61-2.12l34.55-62.01c0.59-1.07,0.58-2.38-0.04-3.44
					C284.93,33.47,283.79,32.81,282.57,32.81z"/>
				<path class="st0" d="M299.06,32.81c-1.93,0-3.5,1.57-3.5,3.5v62.29c0,1.93,1.57,3.49,3.5,3.49c1.93,0,3.49-1.57,3.49-3.49V36.31
					C302.56,34.38,300.99,32.81,299.06,32.81z"/>
				<path class="st0" d="M384.43,36.26c0-1.9-1.55-3.45-3.45-3.45H316.4c-1.9,0-3.45,1.55-3.45,3.45s1.55,3.45,3.45,3.45h28.79
					v58.93c0,1.9,1.55,3.45,3.45,3.45h0.09c1.9,0,3.45-1.55,3.45-3.45V39.71h28.79C382.88,39.71,384.43,38.16,384.43,36.26z"/>
				<path class="st0" d="M449.5,96.84l-37.54-61.95c-0.8-1.32-2.27-2.11-3.8-2.07c0,0,0,0,0,0c-1.55,0.04-2.96,0.92-3.69,2.28
					l-33.58,62.88c-0.58,1.08-0.54,2.4,0.11,3.45c0.63,1.02,1.75,1.64,2.93,1.64c0.03,0,0.06,0,0.09,0l0.1,0
					c1.24-0.03,2.37-0.73,2.96-1.83l31.26-58.79l35.26,58c0.64,1.06,1.81,1.69,3.05,1.66c1.23-0.03,2.35-0.72,2.94-1.8
					C450.17,99.21,450.14,97.89,449.5,96.84z"/>
			</g>
			<polygon class="st1" points="298.89,29.27 305.27,19.25 292.5,19.25 			"/>
			<polygon class="st1" points="409.96,89.46 401.91,102.11 418.02,102.11 			"/>
		</g>
	</g>
	<g>
		<g>
			<path class="st0" d="M99.07,144.76h6.78c3.15,0,5.21,2.06,5.21,4.93c0,3.12-2.02,5.96-4.8,6.41c1.78,0.51,2.81,2.5,2.81,4.35
				c0,3.46-2.26,7.16-6.95,7.16h-8.08L99.07,144.76z M103.12,157.12h-4.04l-1.78,8.05h4.66c2.74,0,4.35-2.4,4.35-4.93
				C106.3,158.29,105.14,157.12,103.12,157.12z M105.14,147.15h-3.87l-1.68,7.57h4.63c2.84,0,3.94-2.67,3.94-4.62
				C108.15,148.28,106.88,147.15,105.14,147.15z"/>
			<path class="st0" d="M122.11,151.06h2.43l-3.66,16.55h-2.43L122.11,151.06z M124.44,144.93c0.89,0,1.54,0.68,1.54,1.47
				c0,1.17-1.03,1.88-1.88,1.88c-0.89,0-1.54-0.65-1.54-1.47C122.56,145.65,123.59,144.93,124.44,144.93z"/>
			<path class="st0" d="M137.3,144.76h2.43l-5.04,22.85h-2.43L137.3,144.76z"/>
			<path class="st0" d="M149.75,151.06h2.43l-3.66,16.55h-2.43L149.75,151.06z M152.08,144.93c0.89,0,1.54,0.68,1.54,1.47
				c0,1.17-1.03,1.88-1.88,1.88c-0.89,0-1.54-0.65-1.54-1.47C150.19,145.65,151.22,144.93,152.08,144.93z"/>
			<path class="st0" d="M179.26,155.72c0.03-0.17,0.14-0.58,0.14-0.92c0-1.27-0.86-1.95-2.06-1.95c-1.44,0-2.98,1.34-3.98,2.71
				l-2.64,12.06h-2.47l2.64-11.89c0.07-0.38,0.14-0.65,0.14-1.06c-0.03-1.1-0.72-1.82-2.09-1.82c-1.44,0-2.95,1.34-3.94,2.71
				l-2.67,12.06h-2.43l3.67-16.55H166l-0.51,2.29c0.99-1.27,2.67-2.71,4.62-2.71c2.3,0,3.46,1.54,3.46,2.67c0,0.1,0,0.17-0.03,0.27
				c1.23-1.61,2.95-2.95,4.93-2.95c1.99,0,3.53,1.2,3.53,3.29c0,0.38-0.1,0.89-0.17,1.27l-2.74,12.4h-2.47L179.26,155.72z"/>
			<path class="st0" d="M205.01,144.76h2.47l-5.07,22.85h-2.47l0.51-2.26c-1.2,1.75-2.74,2.67-4.45,2.67
				c-2.95,0-4.87-2.12-4.87-5.86c0-4.73,2.71-11.51,7.57-11.51c1.92,0,3.56,1.03,4.39,2.91L205.01,144.76z M196.96,165.82
				c1.61,0,3.15-1.3,4.01-2.77l1.68-7.47c-0.48-1.54-1.85-2.74-3.6-2.74c-3.32,0-5.31,5.52-5.31,8.98
				C193.74,164.42,194.97,165.82,196.96,165.82z"/>
			<path class="st0" d="M222.67,150.65c3.46,0,5.65,2.3,5.65,6.17c0,1.16-0.24,2.47-0.45,3.32h-10.79c-0.1,0.48-0.14,1.1-0.14,1.54
				c0,2.33,1.34,4.28,4.18,4.28c1.37,0,2.84-0.65,3.91-1.71l0.96,1.61c-1.37,1.37-3.22,2.16-5.11,2.16c-3.94,0-6.41-2.4-6.41-6.51
				C214.48,157.12,217.46,150.65,222.67,150.65z M226.06,156.71c0-2.23-1.23-4.01-3.6-4.01c-2.67,0-4.59,2.98-5.07,5.62h8.46
				C225.99,157.81,226.06,157.23,226.06,156.71z"/>
			<path class="st0" d="M248.28,155.82c0.03-0.27,0.14-0.68,0.14-0.99c0-1.4-0.96-1.99-2.26-1.99c-1.68,0-3.32,1.34-4.35,2.71
				l-2.67,12.06h-2.43l3.67-16.55h2.43l-0.51,2.29c1.23-1.4,2.95-2.71,4.93-2.71c2.3,0,3.8,1.2,3.8,3.32c0,0.24-0.1,0.92-0.17,1.23
				l-2.74,12.4h-2.47L248.28,155.82z"/>
			<path class="st0" d="M288.32,157.05h-9.42l-2.29,10.55h-2.74l5.04-22.85h2.74l-2.19,9.9h9.42l2.16-9.9h2.74l-5.03,22.85h-2.74
				L288.32,157.05z"/>
			<path class="st0" d="M313.42,151.06h2.43l-3.67,16.55h-2.47l0.51-2.26c-1.2,1.75-2.74,2.67-4.45,2.67
				c-2.95,0-4.87-2.12-4.87-5.86c0-4.73,2.71-11.51,7.57-11.51c1.92,0,3.56,1.03,4.39,2.91L313.42,151.06z M306.74,165.82
				c1.61,0,3.15-1.3,4.01-2.77l1.68-7.47c-0.48-1.54-1.85-2.74-3.6-2.74c-3.32,0-5.31,5.52-5.31,8.98
				C303.52,164.42,304.75,165.82,306.74,165.82z"/>
			<path class="st0" d="M323.37,172.09c0.82,0,1.33-0.41,2.06-1.61l1.47-2.61l-1.71-16.82h2.57l1.1,13.57l7.16-13.57h2.74
				l-11.06,20.04c-1.33,2.36-2.6,3.22-4.42,3.22c-0.72,0-1.47-0.17-1.95-0.34l0.86-2.16C322.41,171.99,322.96,172.09,323.37,172.09z
				"/>
			<path class="st0" d="M357.58,151.06h2.43l-3.67,16.55h-2.47l0.51-2.26c-1.2,1.75-2.74,2.67-4.45,2.67
				c-2.95,0-4.87-2.12-4.87-5.86c0-4.73,2.71-11.51,7.57-11.51c1.92,0,3.56,1.03,4.39,2.91L357.58,151.06z M350.9,165.82
				c1.61,0,3.15-1.3,4.01-2.77l1.68-7.47c-0.48-1.54-1.85-2.74-3.6-2.74c-3.32,0-5.31,5.52-5.31,8.98
				C347.68,164.42,348.91,165.82,350.9,165.82z"/>
			<path class="st0" d="M368.97,164.22l2.43-11h-2.19l0.48-2.16h2.23l0.99-4.52h2.43l-0.99,4.52h2.81l-0.48,2.16h-2.81l-2.36,10.55
				c-0.03,0.24-0.1,0.55-0.1,0.82c0,0.82,0.48,1.23,1.33,1.23c0.51,0,1.03-0.2,1.34-0.48l0.31,1.92c-0.55,0.44-1.27,0.75-2.26,0.75
				c-2.05,0-3.29-0.86-3.29-2.7C368.83,165.04,368.87,164.63,368.97,164.22z"/>
			<path class="st0" d="M396.77,151.06h2.43l-3.67,16.55h-2.47l0.51-2.26c-1.2,1.75-2.74,2.67-4.45,2.67
				c-2.95,0-4.87-2.12-4.87-5.86c0-4.73,2.71-11.51,7.57-11.51c1.92,0,3.56,1.03,4.39,2.91L396.77,151.06z M390.09,165.82
				c1.61,0,3.15-1.3,4.01-2.77l1.68-7.47c-0.48-1.54-1.85-2.74-3.6-2.74c-3.32,0-5.31,5.52-5.31,8.98
				C386.87,164.42,388.1,165.82,390.09,165.82z"/>
		</g>
	</g>
</g>
</svg>
