<svg xmlns="http://www.w3.org/2000/svg" xmlns:xlink="http://www.w3.org/1999/xlink" viewBox="0 0 661.29 509.65"><defs><style>.cls-1{fill:none;}.cls-2{clip-path:url(#clip-path);}.cls-3{fill:#1d1d1b;}.cls-3,.cls-4{fill-rule:evenodd;}.cls-4{fill:#fff;}</style><clipPath id="clip-path" transform="translate(0 0)"><rect class="cls-1" width="661.29" height="509.65"/></clipPath></defs><g id="katman_2" data-name="katman 2"><g id="katman_1-2" data-name="katman 1"><g class="cls-2"><g class="cls-2"><polygon class="cls-3" points="661.29 490.5 511.38 490.5 477.33 457.91 426.13 509.65 372.71 457.64 336.69 490.91 203.45 490.91 0 287.41 286.05 0 477.2 191.57 410.83 257.85 286.31 133.32 241.74 177.49 367.06 302.82 301.33 367.75 176 243.09 131.97 288.06 261.25 416.88 372.25 307.76 425.17 361.62 477.67 307.29 661.29 490.5"/><polygon class="cls-4" points="625.63 476.5 477.25 329.83 424.46 381.33 371.74 329.42 261.36 438.09 110.09 286.9 176 220.97 302.13 347.39 346.7 301.62 220.92 176.15 286.7 111.52 410.99 235.81 454.74 191.66 286.29 22.81 20.98 287.31 209.02 475.83 331.74 475.83 372.32 435.43 426.06 487.23 477.5 435.43 519.05 476.5 625.63 476.5"/><path class="cls-3" d="M475.26,226.05a38.25,38.25,0,0,1,18.33,4.82,34.25,34.25,0,0,1,13.93,13.79,37.48,37.48,0,0,1,.08,37.23,34.64,34.64,0,0,1-13.79,13.81,37.45,37.45,0,0,1-37.11,0,34.75,34.75,0,0,1-13.81-13.81,37.31,37.31,0,0,1,.07-37.23,34.39,34.39,0,0,1,14-13.79A38.23,38.23,0,0,1,475.26,226.05Zm0,6.17a31.82,31.82,0,0,0-15.3,4,28.93,28.93,0,0,0-11.64,11.52,31,31,0,0,0-.08,31,29.33,29.33,0,0,0,11.54,11.52,31,31,0,0,0,30.94,0,29.08,29.08,0,0,0,11.52-11.52,31.18,31.18,0,0,0-.07-31,28.81,28.81,0,0,0-11.64-11.52A31.88,31.88,0,0,0,475.26,232.22Zm-16.37,51.71V243.86h13.8c4.71,0,8.13.37,10.24,1.11a9.9,9.9,0,0,1,5,3.87,10.3,10.3,0,0,1,1.88,5.87,10.64,10.64,0,0,1-3.15,7.65,12.44,12.44,0,0,1-8.34,3.66,10.93,10.93,0,0,1,3.4,2.12,45.43,45.43,0,0,1,5.93,7.94l4.89,7.85h-7.86l-3.57-6.32q-4.22-7.46-6.79-9.33a8.24,8.24,0,0,0-5.19-1.35h-3.81v17Zm6.47-22.57h7.87c3.76,0,6.32-.55,7.69-1.67a5.41,5.41,0,0,0,2.05-4.42,5.35,5.35,0,0,0-1-3.17,5.86,5.86,0,0,0-2.74-2.09,20.46,20.46,0,0,0-6.51-.69h-7.37Z" transform="translate(0 0)"/></g></g></g></g></svg>