<svg xmlns="http://www.w3.org/2000/svg" xmlns:xlink="http://www.w3.org/1999/xlink" viewBox="0 0 776.74 272.61"><defs><style>.cls-1{fill:none;}.cls-2{clip-path:url(#clip-path);}.cls-3{fill:#009fe3;}.cls-3,.cls-4,.cls-5{fill-rule:evenodd;}.cls-4{fill:#fff;}.cls-5{fill:#312783;}</style><clipPath id="clip-path" transform="translate(-455.51 -1059.87)"><rect class="cls-1" width="1788.99" height="2528.64"/></clipPath></defs><g id="katman_2" data-name="katman 2"><g id="katman_1-2" data-name="katman 1"><g class="cls-2"><polygon class="cls-3" points="776.74 262.37 696.55 262.37 678.34 244.94 650.95 272.61 622.38 244.79 603.11 262.59 0 262.59 0 149.33 427.45 149.33 576.03 0 678.27 102.47 642.77 137.92 576.16 71.31 552.32 94.94 619.36 161.98 584.2 196.71 517.16 130.03 493.61 154.08 562.76 222.99 622.13 164.62 650.44 193.43 678.52 164.37 776.74 262.37"/><polygon class="cls-4" points="757.66 254.88 678.3 176.43 650.06 203.97 621.86 176.21 562.82 234.33 481.91 153.47 517.16 118.2 584.63 185.82 608.47 161.34 541.19 94.22 576.37 59.65 642.86 126.14 666.25 102.52 576.15 12.2 434.24 153.68 534.82 254.52 600.47 254.52 622.17 232.91 650.92 260.62 678.43 232.91 700.66 254.88 757.66 254.88"/><polygon class="cls-4" points="523.51 254.26 426.92 157.65 8.08 157.65 8.08 254.26 523.51 254.26"/><polygon class="cls-5" points="508.06 247.54 424.78 164.26 16.1 164.26 16.1 247.54 508.06 247.54"/><path class="cls-5" d="M1128.8,1203.85h1a12.21,12.21,0,0,0,2.76-.17,1.59,1.59,0,0,0,.85-.59,1.61,1.61,0,0,0,.32-1,1.53,1.53,0,0,0-.31-.93,1.63,1.63,0,0,0-.86-.59,12.33,12.33,0,0,0-2.76-.18h-1Zm-2.6,7.25v-12.7h2.58c2.41,0,3.77,0,4.06,0a5.27,5.27,0,0,1,2,.51,3.15,3.15,0,0,1,1.18,1.22,3.54,3.54,0,0,1,.48,1.82,3.35,3.35,0,0,1-.9,2.35,4.06,4.06,0,0,1-2.51,1.21,3.18,3.18,0,0,1,.89.47,7.05,7.05,0,0,1,.86,1c.09.12.41.64.94,1.55l1.49,2.56h-3.21l-1-2.07a8.62,8.62,0,0,0-1.76-2.62,2.84,2.84,0,0,0-1.78-.54h-.66v5.23Zm5.43-16a9.86,9.86,0,0,0-4.75,1.23,9,9,0,0,0-3.57,3.55,9.62,9.62,0,0,0,0,9.64,9,9,0,0,0,3.56,3.56,9.6,9.6,0,0,0,9.58,0,9.09,9.09,0,0,0,3.56-3.56,9.59,9.59,0,0,0,1.28-4.8,9.71,9.71,0,0,0-1.3-4.84,9,9,0,0,0-3.59-3.55A9.83,9.83,0,0,0,1131.63,1195.07Zm0-2.37a12.15,12.15,0,0,1,5.91,1.54,11.16,11.16,0,0,1,4.46,4.42,12.23,12.23,0,0,1,1.62,6,12.08,12.08,0,0,1-1.59,6,11.37,11.37,0,0,1-4.43,4.43,12.07,12.07,0,0,1-11.94,0,11.3,11.3,0,0,1-4.43-4.43,12,12,0,0,1,0-12,11.13,11.13,0,0,1,4.45-4.42A12.19,12.19,0,0,1,1131.62,1192.7Z" transform="translate(-455.51 -1059.87)"/><path class="cls-4" d="M493.05,1295.11V1294a9.33,9.33,0,0,0,2.84-5.23,55,55,0,0,0,.81-11.15v-29.84a16.44,16.44,0,0,0-.44-4.82,4.19,4.19,0,0,0-1.68-1.93v-1.15l7.08.34H523l2.34,14.76h-.94q-3.79-6.6-7.5-9.54a12.61,12.61,0,0,0-8-3h-1.07l-.65.09v21.69l1.33.16h.78a9.29,9.29,0,0,0,6.5-2.16,12.48,12.48,0,0,0,3.37-6.7h.91v20.76h-.91a12.45,12.45,0,0,0-3.37-6.74,9.24,9.24,0,0,0-6.5-2.2h-.78l-1.33.16v12.83q0,6.11,1.29,8.67a4.44,4.44,0,0,0,4.3,2.56c2.25,0,4.64-1.32,7.19-3.94a48.31,48.31,0,0,0,7.71-11.6l.91.33-3.25,18.5H501.82Z" transform="translate(-455.51 -1059.87)"/><path class="cls-4" d="M529.51,1295.11V1294a9.27,9.27,0,0,0,2.84-5.23,54.13,54.13,0,0,0,.82-11.15v-29.84a16.44,16.44,0,0,0-.44-4.82A4.27,4.27,0,0,0,531,1241v-1.15l4.59.3,2.79,0,2.8,0,4.58-.29V1241a4,4,0,0,0-1.67,1.92,16,16,0,0,0-.46,4.84v32.6c0,4.06.4,7,1.19,8.65a4.1,4.1,0,0,0,4,2.56q3.09,0,6.64-4a49.67,49.67,0,0,0,7.19-11.58l.84.33-3,18.5H538.28Z" transform="translate(-455.51 -1059.87)"/><path class="cls-4" d="M565.22,1295.11V1294a9.26,9.26,0,0,0,2.83-5.23,54.13,54.13,0,0,0,.82-11.15v-29.84a16.44,16.44,0,0,0-.44-4.82,4.3,4.3,0,0,0-1.68-1.93v-1.15l7.07.34h21.36l2.34,14.76h-.94q-3.81-6.6-7.5-9.54a12.61,12.61,0,0,0-8-3H580l-.65.09v21.69l1.33.16h.78a9.27,9.27,0,0,0,6.49-2.16,12.48,12.48,0,0,0,3.38-6.7h.91v20.76h-.91a12.46,12.46,0,0,0-3.38-6.74,9.21,9.21,0,0,0-6.49-2.2h-.78l-1.33.16v12.83q0,6.11,1.28,8.67a4.46,4.46,0,0,0,4.3,2.56c2.25,0,4.65-1.32,7.19-3.94a47.73,47.73,0,0,0,7.71-11.6l.91.33-3.24,18.5H574Z" transform="translate(-455.51 -1059.87)"/><path class="cls-4" d="M601.68,1294a9.21,9.21,0,0,0,2.86-5.33q.8-3.66.8-14.12v-26.83a15.93,15.93,0,0,0-.45-4.82,4.21,4.21,0,0,0-1.68-1.94v-1.15l4.58.3,2.8,0,2.79,0,4.59-.29V1241a3.86,3.86,0,0,0-1.67,1.92,15.88,15.88,0,0,0-.46,4.83v15.92l7.11-10.42a26.83,26.83,0,0,0,2.52-4.41,8.92,8.92,0,0,0,.78-3.42,5.25,5.25,0,0,0-.68-2.81,3.8,3.8,0,0,0-2.09-1.61v-1.15h.23c1.17,0,2.27,0,3.32.1l3.42.23,2.62,0,4.22-.29V1241q-3.9,2.52-10.71,12.24l-.29.42-8,11.57,1.13-.12,1.79,0a14.4,14.4,0,0,1,3.31.32,8.23,8.23,0,0,1,1.36.33,4.76,4.76,0,0,1,1.11.62q3.18,1.89,5.77,9.74l.33,1,2.53,7.68a34.08,34.08,0,0,0,2.92,7.15,4.6,4.6,0,0,0,2.73,2.14v1.07l-3.41-.19-3.89-.06c-.46,0-1.13,0-2,0s-1.54,0-2,0l-3.6.25-4.94-19.25-.39-1.52q-1.65-6.47-3.4-6.47c-.67,0-1.16.41-1.46,1.23a23.18,23.18,0,0,0-.39,5.51V1279c0,2.19.06,4.09.19,5.69a26.16,26.16,0,0,0,.65,4.21,9.72,9.72,0,0,0,2.81,5.1v1.15l-4.21-.19-4.71-.06c-.56,0-1.37,0-2.42,0s-1.81,0-2.28,0l-4.19.25Z" transform="translate(-455.51 -1059.87)"/><path class="cls-4" d="M648.92,1295.11V1294a9.13,9.13,0,0,0,2.86-5.33q.79-3.64.8-14.09v-28.23a6.58,6.58,0,0,0-.21-2.12.83.83,0,0,0-.83-.47q-1.87,0-4.82,3.23a44.15,44.15,0,0,0-6,8.92l-.94-.16,2.4-15.53h31.29l2.34,15.53-1,.16a45.11,45.11,0,0,0-6-8.9c-2-2.17-3.55-3.25-4.78-3.25a.9.9,0,0,0-.88.49,7,7,0,0,0-.2,2.11v28.26c0,7.15.27,11.88.8,14.22a9.16,9.16,0,0,0,2.86,5.23v1.16l-4.25-.25-4.68-.08c-.62,0-1.33,0-2.1,0l-2.6.06Z" transform="translate(-455.51 -1059.87)"/><path class="cls-4" d="M691.24,1264.52l1,.13h1.53c2.55,0,4.41-.83,5.56-2.5s1.74-4.37,1.74-8.13q0-5.37-1.7-8a5.75,5.75,0,0,0-5.15-2.59h-1.79l-1.2.12Zm-14.16,30.59V1294a9.13,9.13,0,0,0,2.86-5.33q.79-3.64.8-14.1v-26.79a16.44,16.44,0,0,0-.44-4.82,4.27,4.27,0,0,0-1.69-1.93v-1.15l4.45.25h11.23q9.72,0,13.87,3.11c2.77,2.07,4.15,5.45,4.15,10.11a12.16,12.16,0,0,1-3,8.57q-3,3.3-9.14,4.53a11.56,11.56,0,0,1,6.41,3.42,18.21,18.21,0,0,1,3.85,7.38l1.4,5.2c1.72,7.12,1.3,10,5.49,14.24,1.75,1.76,4.46,2.94,5.18,3.7,1.25,1.34.14,2.07-.87,2.14a22.44,22.44,0,0,1-6.48-1.28A20.61,20.61,0,0,1,701.58,1286c-2.79-11.68-5.65-18.34-9.07-18.34l-1.11.12-.16,0v6.39q0,10.93.8,14.49a9.21,9.21,0,0,0,2.86,5.3v1.16l-4.22-.25-4.71-.08c-.56,0-1.36,0-2.41,0s-1.81,0-2.29,0Z" transform="translate(-455.51 -1059.87)"/><path class="cls-4" d="M717,1267.29a42.09,42.09,0,0,1,1.56-11.81,29.72,29.72,0,0,1,4.64-9.5,19.35,19.35,0,0,1,6.21-5.47,16,16,0,0,1,15.16-.07,19.56,19.56,0,0,1,6.22,5.62,30.24,30.24,0,0,1,4.69,9.48,41.63,41.63,0,0,1,1.54,11.67c0,1.61-.07,3.13-.2,4.54a37.9,37.9,0,0,1-3.18,12,25.27,25.27,0,0,1-7.19,9.27,15,15,0,0,1-9.36,3.36,15.55,15.55,0,0,1-7.68-2,19.51,19.51,0,0,1-6.34-5.82,29.84,29.84,0,0,1-4.5-9.44A42.76,42.76,0,0,1,717,1267.29Zm20,26.3q4.44,0,6.63-6.52t2.19-19.7q0-13.26-2.15-19.68t-6.67-6.42q-4.41,0-6.57,6.34t-2.16,19.76q0,13.29,2.15,19.76T736.91,1293.59Z" transform="translate(-455.51 -1059.87)"/><path class="cls-4" d="M757.9,1295.19V1294a9.55,9.55,0,0,0,4.45-6.13q1.26-4.39,1.26-18.39v-17.82q0-5.39-.94-7.38a7,7,0,0,0-3.51-3.23v-1h14.91l7.92,31.36,8.42-31.36h4.78c.61,0,1.31,0,2.11-.06,2.4-.13,4.12-.19,5.16-.19h.2V1241a4.16,4.16,0,0,0-1.67,1.92,15.43,15.43,0,0,0-.48,4.84v25.84q0,11.29.82,15a9.5,9.5,0,0,0,2.9,5.44v1.16l-4.19-.25-4.74-.08c-.62,0-1.33,0-2.12,0l-2.61.06-4.22.25V1294a9.66,9.66,0,0,0,2.87-5.5q.85-3.81.85-14.93v-22.29l-12,44.73h-.61l-11.23-43.29v16.73q0,14,1.25,18.35a10.13,10.13,0,0,0,4.4,6.2v1.16l-3.28-.25-3.7-.08c-.44,0-1.06,0-1.89,0s-1.42,0-1.81,0Z" transform="translate(-455.51 -1059.87)"/><path class="cls-4" d="M802.24,1295.11V1294q3.54-1.61,8.25-15.8l.51-1.6,12.44-38h.81L840,1286.06a27.09,27.09,0,0,0,2.63,6.18,3.89,3.89,0,0,0,2.63,1.77v1.18l-.62-.08-8.25-.25-5.09.18c-1.45,0-3,.07-4.61.07h-1.17V1294a2.41,2.41,0,0,0,2-1.25,5.9,5.9,0,0,0,.81-3.24c0-.52,0-.92,0-1.19a10.82,10.82,0,0,0-.23-1.32c-.09-.58-.18-1.09-.29-1.52s-.26-1-.46-1.61L824.25,1273h-8.93c-1,3.38-1.77,6.28-2.27,8.69-.22,1.13-.39,2.19-.52,3.2a21.07,21.07,0,0,0-.19,2.7,9.57,9.57,0,0,0,.85,4.4,3.66,3.66,0,0,0,2.55,2v1.1l-3.55-.14-3,0-3.19,0Zm21.14-25.23-3.44-12.47-3.65,12.47Z" transform="translate(-455.51 -1059.87)"/><path class="cls-4" d="M884.34,1266.47l0,.9a5.81,5.81,0,0,0-2.65,3.94,29.37,29.37,0,0,0-.55,4.59q-.2,3.16-.19,8v5.13a28.91,28.91,0,0,1-7.87,5.42,20.52,20.52,0,0,1-8.62,1.89,15.29,15.29,0,0,1-7.76-2,18.27,18.27,0,0,1-6.1-6.07,34.62,34.62,0,0,1-4.18-9.4,40.26,40.26,0,0,1-1.08-5.33A44,44,0,0,1,845,1268a42,42,0,0,1,1.26-10.39,34.92,34.92,0,0,1,3.74-9.15,21.48,21.48,0,0,1,6.84-7.29,15.86,15.86,0,0,1,8.64-2.59,18.72,18.72,0,0,1,7.5,1.61,27.73,27.73,0,0,1,3.84,2.06,41.7,41.7,0,0,1,4.14,3.09l-3,14.76-.84-.33q-1.08-9-3.55-13.4c-1.64-2.94-3.78-4.41-6.4-4.41q-4.94,0-7.88,7t-2.94,19.23q0,11.61,2.34,18.19t6.44,6.58a4.62,4.62,0,0,0,4.24-2.85c1-1.9,1.48-4.69,1.48-8.39,0-5.52-.31-9.16-.91-10.92a5.44,5.44,0,0,0-3.42-3.55v-.82l4.32.2h8.86c.63,0,1.49,0,2.58-.1S884.08,1266.47,884.34,1266.47Z" transform="translate(-455.51 -1059.87)"/></g></g></g></svg>