<svg xmlns="http://www.w3.org/2000/svg" xmlns:xlink="http://www.w3.org/1999/xlink" viewBox="0 0 533.52 411.17"><defs><style>.cls-1{fill:none;}.cls-2{clip-path:url(#clip-path);}.cls-3{fill:#2e74b5;}.cls-3,.cls-4{fill-rule:evenodd;}.cls-4{fill:#fff;}</style><clipPath id="clip-path"><rect class="cls-1" width="533.49" height="411.17"/></clipPath></defs><g id="katman_2" data-name="katman 2"><g id="katman_1-2" data-name="katman 1"><g class="cls-2"><g class="cls-2"><polygon class="cls-3" points="533.51 395.71 412.56 395.71 385.09 369.4 343.79 411.17 300.69 369.2 271.62 396.03 164.14 396.03 0 231.86 230.79 0 385 154.54 331.45 208 230.99 107.53 195.02 143.19 296.12 244.29 243.1 296.68 141.99 196.1 106.46 232.39 210.76 336.31 300.31 248.28 343.01 291.73 385.38 247.9 533.51 395.71"/></g><g class="cls-2"><polygon class="cls-4" points="504.73 384.42 385.03 266.09 342.45 307.62 299.91 265.74 210.85 353.43 88.82 231.46 141.99 178.26 243.77 280.23 279.71 243.33 178.23 142.11 231.31 89.96 331.57 190.25 366.87 154.62 230.96 18.39 16.94 231.78 168.62 383.87 267.63 383.87 300.37 351.27 343.74 393.06 385.24 351.27 418.76 384.42 504.73 384.42"/></g></g></g></g></svg>