<svg xmlns="http://www.w3.org/2000/svg" xmlns:xlink="http://www.w3.org/1999/xlink" viewBox="0 0 132.99 32.08"><defs><style>.cls-1{fill:none;}.cls-2{isolation:isolate;}.cls-3,.cls-5{fill:#2e74b5;}.cls-4{clip-path:url(#clip-path);}.cls-5,.cls-6{fill-rule:evenodd;}.cls-6{fill:#fff;}.cls-7{fill:#2e75b6;stroke-miterlimit:10;stroke-width:0.5px;stroke:url(#Adsız_degrade_18);}</style><clipPath id="clip-path"><rect class="cls-1" x="64.82" y="18.71" width="17.36" height="13.38"/></clipPath><linearGradient id="Adsız_degrade_18" y1="17.47" x2="132.82" y2="17.47" gradientUnits="userSpaceOnUse"><stop offset="0.32" stop-color="#2e74b5"/><stop offset="0.35" stop-color="#4281bc"/><stop offset="0.44" stop-color="#73a2ce"/><stop offset="0.53" stop-color="#9ebfdd"/><stop offset="0.62" stop-color="#c1d6e9"/><stop offset="0.71" stop-color="#dce8f3"/><stop offset="0.81" stop-color="#f0f5fa"/><stop offset="0.9" stop-color="#fbfcfe"/><stop offset="1" stop-color="#fff"/></linearGradient></defs><g id="katman_2" data-name="katman 2"><g id="katman_1-2" data-name="katman 1"><g class="cls-2"><path class="cls-3" d="M10,11.42V14.3H0V.1H9.8V3H3.28V5.74h5.6V8.4H3.28v3Z"/><path class="cls-3" d="M12,14.3V.1h3.28V11.42h6.88V14.3Z"/><path class="cls-3" d="M33.66,11.42V14.3h-10V.1h9.8V3H27V5.74h5.6V8.4H27v3Z"/><path class="cls-3" d="M35.66,14.3V.1h3.28V6.22L44.14.1h3.68L42.5,6.44l5.68,7.86H44.44l-4-5.72-1.48,1.54V14.3Z"/><path class="cls-3" d="M60.06,3H55.74V14.3H52.46V3H48.12V.1H60.06Z"/><path class="cls-3" d="M61.66,14.3V.1h6.4a4.12,4.12,0,0,1,1.85.42,4.89,4.89,0,0,1,1.47,1.1,5.15,5.15,0,0,1,1,1.54A4.62,4.62,0,0,1,72.7,4.9a4.86,4.86,0,0,1-.16,1.27,5,5,0,0,1-.46,1.15A4.34,4.34,0,0,1,70.38,9L73.5,14.3H69.8L67.08,9.72H64.94V14.3Zm3.28-7.44h3a1.22,1.22,0,0,0,1-.55,2.27,2.27,0,0,0,.42-1.41,2,2,0,0,0-.48-1.4,1.4,1.4,0,0,0-1-.52h-2.9Z"/><path class="cls-3" d="M81.28,14.42a6.67,6.67,0,0,1-2.88-.62,7,7,0,0,1-2.22-1.63,7.41,7.41,0,0,1-1.43-2.31,7.29,7.29,0,0,1-.51-2.68,7.25,7.25,0,0,1,2-5A7.09,7.09,0,0,1,78.5.61,6.84,6.84,0,0,1,81.34,0a6.67,6.67,0,0,1,2.88.62,6.9,6.9,0,0,1,2.22,1.64,7.51,7.51,0,0,1,1.92,5,7.23,7.23,0,0,1-4.24,6.58A6.69,6.69,0,0,1,81.28,14.42Zm-3.7-7.2a5.28,5.28,0,0,0,.24,1.59,4.35,4.35,0,0,0,.71,1.37,3.62,3.62,0,0,0,4.41.94,3.48,3.48,0,0,0,1.16-1,4.26,4.26,0,0,0,.69-1.38A5.57,5.57,0,0,0,85,7.18a5.28,5.28,0,0,0-.24-1.59,4,4,0,0,0-.72-1.36,3.57,3.57,0,0,0-1.17-.94,3.51,3.51,0,0,0-1.59-.35,3.35,3.35,0,0,0-1.63.37,3.65,3.65,0,0,0-1.16,1,4.13,4.13,0,0,0-.7,1.37A5.57,5.57,0,0,0,77.58,7.22Z"/><path class="cls-3" d="M101.46,14.3V5.8L98.38,12H96.62L93.54,5.8v8.5H90.26V.1h3.56L97.5,7.52,101.2.1h3.54V14.3Z"/><path class="cls-3" d="M111.32.1h3l5.18,14.2H116.1L115,11.12h-4.42L109.5,14.3h-3.36Zm3.14,8.76-1.66-5-1.7,5Z"/><path class="cls-3" d="M130.1,12.9a5.35,5.35,0,0,1-3.74,1.5,6.73,6.73,0,0,1-2.64-.53,6.52,6.52,0,0,1-2.17-1.49,7,7,0,0,1-1.47-2.31,7.93,7.93,0,0,1-.54-3,7.15,7.15,0,0,1,.54-2.76,7,7,0,0,1,1.49-2.26A6.93,6.93,0,0,1,123.82.56a7.07,7.07,0,0,1,2.8-.56,7,7,0,0,1,3.46.83A5.34,5.34,0,0,1,132.3,3.1l-2.44,1.84a3.45,3.45,0,0,0-1.39-1.49,3.88,3.88,0,0,0-2-.53,3.33,3.33,0,0,0-1.49.33,3.42,3.42,0,0,0-1.15.92,4.21,4.21,0,0,0-.74,1.37,5.38,5.38,0,0,0-.26,1.68,4.93,4.93,0,0,0,.28,1.7,4.27,4.27,0,0,0,.78,1.35,3.48,3.48,0,0,0,1.19.89,3.64,3.64,0,0,0,1.53.32A4.51,4.51,0,0,0,130.1,9.7V9.26h-2.76V6.88h5.48V14.3H130.1Z"/></g><g class="cls-2"><path class="cls-3" d="M86.9,22.43a.41.41,0,0,0-.41.41v8.43a.36.36,0,0,1-.34.36h-.62a.37.37,0,0,1-.36-.36V22.84a1.72,1.72,0,0,1,1.73-1.71h1.92a1.67,1.67,0,0,1,1,.33.13.13,0,0,0,.12,0,1.7,1.7,0,0,1,1-.33h1.92a1.72,1.72,0,0,1,1.72,1.71v8.43a.36.36,0,0,1-.36.36h-.61a.37.37,0,0,1-.35-.36V22.84a.4.4,0,0,0-.4-.41H91a.41.41,0,0,0-.41.41v8.43a.35.35,0,0,1-.34.36h-.63a.36.36,0,0,1-.35-.36V22.84a.41.41,0,0,0-.42-.41Z"/><path class="cls-3" d="M95.72,28.25a1.76,1.76,0,0,1,1.77-1.71h2.76a.41.41,0,0,0,.4-.42v-.76a.4.4,0,0,0-.4-.41H97.34a.41.41,0,0,0-.42.41v.42a.34.34,0,0,1-.35.34h-.51a.34.34,0,0,1-.34-.34v-.32a1.71,1.71,0,0,1,1.71-1.71h2.71a1.71,1.71,0,0,1,1.71,1.71v5.82a.34.34,0,0,1-.34.35H97.43a1.71,1.71,0,0,1-1.71-1.71Zm4.93-.1a.4.4,0,0,0-.4-.41H97.31a.42.42,0,0,0-.39.41V30a.43.43,0,0,0,.42.42h2.91a.42.42,0,0,0,.4-.42Z"/><path class="cls-3" d="M107.84,25.37a.44.44,0,0,0-.42-.42h-2.91a.42.42,0,0,0-.41.42V30a.42.42,0,0,0,.41.42h2.91a.44.44,0,0,0,.42-.42v-.27a.34.34,0,0,1,.34-.35h.51a.34.34,0,0,1,.35.35v.18a1.72,1.72,0,0,1-1.71,1.71h-2.7a1.73,1.73,0,0,1-1.73-1.71V25.46a1.73,1.73,0,0,1,1.73-1.71h2.7A1.72,1.72,0,0,1,109,25.46v.32a.34.34,0,0,1-.35.34h-.51a.34.34,0,0,1-.34-.34Z"/><path class="cls-3" d="M110.09,21.47a.35.35,0,0,1,.34-.34h.51a.35.35,0,0,1,.35.34v2c0,.21.18.25.4.25h2.81a1.72,1.72,0,0,1,1.72,1.71v5.82a.35.35,0,0,1-.34.35h-.51a.34.34,0,0,1-.35-.35V25.36a.41.41,0,0,0-.42-.41h-2.91a.4.4,0,0,0-.4.41v5.92a.36.36,0,0,1-.36.35h-.48a.35.35,0,0,1-.36-.35Z"/><path class="cls-3" d="M117.69,23a.35.35,0,0,1-.34-.35v-1.2a.34.34,0,0,1,.34-.34h.51a.34.34,0,0,1,.35.34v1.2a.34.34,0,0,1-.35.35Zm-.34,1.08a.35.35,0,0,1,.34-.35h.51a.34.34,0,0,1,.35.35v7.18a.34.34,0,0,1-.35.35h-.51a.35.35,0,0,1-.34-.35Z"/><path class="cls-3" d="M120.87,31.28a.34.34,0,0,1-.34.35H120a.36.36,0,0,1-.36-.35V24.1a.36.36,0,0,1,.36-.35h4a1.73,1.73,0,0,1,1.73,1.71v5.82a.35.35,0,0,1-.35.35H125a.34.34,0,0,1-.34-.35V25.36a.42.42,0,0,0-.42-.41h-2.91a.41.41,0,0,0-.41.41Z"/><path class="cls-3" d="M133,26.75a1.71,1.71,0,0,1-1.71,1.71h-2.82a.4.4,0,0,0-.4.41V30a.41.41,0,0,0,.4.42h2.92a.42.42,0,0,0,.41-.42v-.27a.34.34,0,0,1,.34-.35h.52a.34.34,0,0,1,.34.35v.18a1.72,1.72,0,0,1-1.71,1.71h-2.72a1.71,1.71,0,0,1-1.7-1.71V25.46a1.71,1.71,0,0,1,1.7-1.71h2.72A1.72,1.72,0,0,1,133,25.46Zm-4.93.11a.39.39,0,0,0,.4.4h2.94a.41.41,0,0,0,.39-.4v-1.5a.41.41,0,0,0-.41-.41h-2.92a.4.4,0,0,0-.4.41Z"/></g><g class="cls-4"><g class="cls-4"><polygon class="cls-5" points="82.18 31.58 78.24 31.58 77.35 30.72 76.01 32.08 74.6 30.72 73.66 31.59 70.16 31.59 64.82 26.25 72.33 18.71 77.35 23.73 75.61 25.47 72.34 22.2 71.17 23.36 74.45 26.65 72.73 28.36 69.44 25.09 68.28 26.27 71.68 29.65 74.59 26.78 75.98 28.2 77.36 26.77 82.18 31.58"/></g><g class="cls-4"><polygon class="cls-6" points="81.24 31.21 77.35 27.36 75.96 28.71 74.58 27.35 71.68 30.2 67.71 26.24 69.44 24.5 72.75 27.82 73.92 26.62 70.62 23.33 72.35 21.63 75.61 24.89 76.76 23.74 72.33 19.3 65.37 26.25 70.31 31.2 73.53 31.2 74.59 30.13 76 31.49 77.36 30.13 78.44 31.21 81.24 31.21"/></g></g><line class="cls-7" y1="17.47" x2="132.82" y2="17.47"/></g></g></svg>