  0
SECTION
  2
HEADER
  9
$LIMMIN
 10
0
 20
0
  9
$LIMMAX
 10
68.25
 20
96.525
  9
$EXTMIN
 10
0
 20
329.5825
  9
$EXTMAX
 10
0
 20
183.3
  0
ENDSEC
  0
SECTION
  2
TABLES
  0
TABLE
  2
LTYPE
 70
9
  0
LTYPE
  2
CONTINUOUS
 70
64
  3
Solid line
 72
65
 73
0
 40
0
  0
LTYPE
  2
DASHED
 70
64
  3
__ __ __ __ __ __ __ __ __
 72
65
 73
2
 40
0.75
 49
0.5
 49
-0.25
  0
LTYPE
  2
DOT
 70
64
  3
...........................
 72
65
 73
2
 40
0.25
 49
0
 49
-0.25
  0
LTYPE
  2
DASHDOT
 70
64
  3
__ . __ . __ . __ . __ . __ . 
 72
65
 73
4
 40
1
 49
0.5
 49
-0.25
 49
0
 49
-0.25
  0
ENDTAB
  0
TABLE
  2
LAYER
 70
10
  0
LAYER
  2
1
 70
0
 62
7
  6
CONTINUOUS
  0
LAYER
  2
CONNECTIONS
 70
0
 62
-7
  6
CONTINUOUS
  0
ENDTAB
  0
ENDSEC
  0
SECTION
  2
BLOCKS
  0
BLOCK
  8
0
  2
TRICON
 70
0
 10
0
 20
0
  0
POLYLINE
  8
1
 62
7
 70
1
 66
1
 40
0.65
 41
0.65
  0
VERTEX
  8
1
 10
-0.325
 20
0
 42
1
  0
VERTEX
  8
1
 10
0.325
 20
0
 42
1
  0
SEQEND
  8
1
  0
ENDBLK
  8
0
  0
BLOCK
  8
0
  2
TRICONSMALL
 70
0
 10
0
 20
0
  0
POLYLINE
  8
1
 62
7
 70
1
 66
1
 40
0.325
 41
0.325
  0
VERTEX
  8
1
 10
-0.1625
 20
0
 42
1
  0
VERTEX
  8
1
 10
0.1625
 20
0
 42
1
  0
SEQEND
  8
1
  0
ENDBLK
  8
0
  0
BLOCK
  8
0
  2
LCBP0
 70
0
 10
0
 20
0
  0
LINE
  8
1
 62
7
 10
0
 20
-0.609375
 11
0
 21
0.609375
  0
ENDBLK
  8
0
  0
BLOCK
  8
0
  2
LCBP1
 70
0
 10
0
 20
0
  0
LINE
  8
1
 62
7
 10
0
 20
-0.8125
 11
0
 21
0.8125
  0
ENDBLK
  8
0
  0
BLOCK
  8
0
  2
LCBP2
 70
0
 10
0
 20
0
  0
LINE
  8
1
 62
7
 10
0
 20
-1.21875
 11
0
 21
1.21875
  0
ENDBLK
  8
0
  0
BLOCK
  8
0
  2
LCA1
 70
0
 10
0
 20
0
  0
SOLID
  8
1
 62
7 
 10
0
 20
0
 11
-1.82
 21
-0.3575
 12
-1.82
 22
0.3575
 13
-1.82
 23
0.3575
  0
ENDBLK
  8
0
  0
BLOCK
  8
0
  2
LCA2
 70
0
 10
0
 20
0
  0
SOLID
  8
1
 62
7 
 10
0
 20
0
 11
-2.145
 21
-0.6825
 12
-2.145
 22
0.6825
 13
-2.145
 23
0.6825
  0
ENDBLK
  8
0
  0
BLOCK
  8
0
  2
LCA3
 70
0
 10
0
 20
0
  0
SOLID
  8
1
 62
7 
 10
0
 20
0
 11
-2.795
 21
-1.495
 12
-2.795
 22
1.495
 13
-2.795
 23
1.495
  0
ENDBLK
  8
0
  0
BLOCK
  8
0
  2
LCA1R
 70
0
 10
0
 20
0
  0
SOLID
  8
1
 62
7 
 10
0
 20
0
 11
1.82
 21
-0.3575
 12
1.82
 22
0.3575
 13
1.82
 23
0.3575
  0
ENDBLK
  8
0
  0
BLOCK
  8
0
  2
LCA2R
 70
0
 10
0
 20
0
  0
SOLID
  8
1
 62
7 
 10
0
 20
0
 11
2.145
 21
-0.6825
 12
2.145
 22
0.6825
 13
2.145
 23
0.6825
  0
ENDBLK
  8
0
  0
BLOCK
  8
0
  2
LCA3R
 70
0
 10
0
 20
0
  0
SOLID
  8
1
 62
7 
 10
0
 20
0
 11
2.795
 21
-1.495
 12
2.795
 22
1.495
 13
2.795
 23
1.495
  0
ENDBLK
  8
0
  0
BLOCK
  8
0
  2
B1074682_00991761
 70
0
 10
0
 20
0
  0
POLYLINE
  8
1
 62
7
  6
DASHDOT
 66
1
  0
VERTEX
  8
1
 62
7
 10
-25.6518693861414
 20
18.525
  0
VERTEX
  8
1
 62
7
 10
25.0481306138586
 20
18.525
  0
VERTEX
  8
1
 62
7
 10
25.0481306138586
 20
-14.625
  0
VERTEX
  8
1
 62
7
 10
-25.6518693861414
 20
-14.625
  0
VERTEX
  8
1
 62
7
 10
-25.6518693861414
 20
18.525
  0
SEQEND
  8
1
  0
LINE
  8
1
 62
7
 10
28.9481306138586
 20
0.975
 11
25.0481306138586
 21
0.975
  0
LINE
  8
1
 62
7
 10
-15.9018693861414
 20
-18.525
 11
-15.9018693861414
 21
-14.625
  0
LINE
  8
1
 62
7
 10
-29.5518693861414
 20
0.975
 11
-25.6518693861414
 21
0.975
  0
LINE
  8
1
 62
7
 10
25.0481306138586
 20
0.975
 11
20.7910627799681
 21
0.975
  0
LINE
  8
1
 62
7
 10
5.54813061385858
 20
6.825
 11
5.54813061385858
 21
0.975
  0
LINE
  8
1
 62
7
 10
1.64813061385858
 20
0.975
 11
9.78892775255234
 21
0.975
  0
LINE
  8
1
 62
7
 10
-10.3864364928863
 20
0.975
 11
-6.15186938614142
 21
0.975
  0
POLYLINE
  8
1
 62
7
 66
1
  0
VERTEX
  8
1
 62
7
 10
-8.10186938614144
 20
0.975000000000023
  0
VERTEX
  8
1
 62
7
 10
-8.10186938614144
 20
-8.77499999999998
  0
VERTEX
  8
1
 62
7
 10
-6.15186938614144
 20
-8.77499999999998
  0
SEQEND
  8
1
  0
LINE
  8
1
 62
7
 10
-15.9018693861414
 20
-14.625
 11
-15.9018693861414
 21
-4.53289473684212
  0
LINE
  8
1
 62
7
 10
-25.6518693861414
 20
0.975
 11
-21.4173022793965
 21
0.975
  0
POLYLINE
  8
1
 62
7
 70
1
 66
1
 40
0.4875
 41
0.4875
  0
VERTEX
  8
1
 10
-8.34561938614142
 20
0.975
 42
1
  0
VERTEX
  8
1
 10
-7.85811938614142
 20
0.975
 42
1
  0
SEQEND
  8
1
  0
POLYLINE
  8
1
 62
7
 70
1
 66
1
 40
0.4875
 41
0.4875
  0
VERTEX
  8
1
 10
5.30438061385858
 20
0.975
 42
1
  0
VERTEX
  8
1
 10
5.79188061385858
 20
0.975
 42
1
  0
SEQEND
  8
1
  0
POLYLINE
  8
1
 62
7
 66
1
  0
VERTEX
  8
1
 62
7
 10
3.59813061385856
 20
-8.77499999999998
  0
VERTEX
  8
1
 62
7
 10
5.54813061385856
 20
-8.77499999999998
  0
VERTEX
  8
1
 62
7
 10
5.54813061385856
 20
0.975000000000023
  0
SEQEND
  8
1
  0
LINE
  8
1
 62
7
 10
15.3043606458075
 20
3.27595846645368
 11
15.3043606458075
 21
6.5068242529638
  0
POLYLINE
  8
1
 62
7
 66
1
  0
VERTEX
  8
1
 62
7
 10
15.3043606458074
 20
6.50682425296378
  0
VERTEX
  8
1
 62
7
 10
9.78892775255242
 20
0.991391359708729
  0
VERTEX
  8
1
 62
7
 10
15.3043606458074
 20
-4.52404153354632
  0
VERTEX
  8
1
 62
7
 10
20.8197935390626
 20
0.991391359708729
  0
VERTEX
  8
1
 62
7
 10
15.3043606458074
 20
6.50682425296378
  0
SEQEND
  8
1
  0
POLYLINE
  8
1
 62
7
 66
1
  0
VERTEX
  8
1
 62
7
 10
-15.9018693861414
 20
6.497971049668
  0
VERTEX
  8
1
 62
7
 10
-21.4173022793965
 20
0.982538156412971
  0
VERTEX
  8
1
 62
7
 10
-15.9018693861414
 20
-4.53289473684211
  0
VERTEX
  8
1
 62
7
 10
-10.3864364928864
 20
0.982538156412971
  0
VERTEX
  8
1
 62
7
 10
-15.9018693861414
 20
6.497971049668
  0
SEQEND
  8
1
  0
LINE
  8
1
 62
7
  6
DASHED
 10
-15.9018556059762
 20
-2.58289473684211
 11
-15.9018556059762
 21
6.49797104966799
  0
LINE
  8
1
 62
7
 10
-17.8518429375737
 20
-2.58289473684211
 11
-13.9518574334233
 21
-2.58289473684211
  0
POLYLINE
  8
1
 62
7
 66
1
  0
VERTEX
  8
1
 62
7
 10
-17.8518429375737
 20
-2.58292118540982
  0
VERTEX
  8
1
 62
7
 10
-15.9018693861414
 20
-4.53289473684211
  0
VERTEX
  8
1
 62
7
 10
-13.9518574334233
 20
-2.582882784124
  0
SEQEND
  8
1
  0
LINE
  8
1
 62
7
 10
7.27170339300078
 20
9.00142722085779
 11
3.82455783471636
 21
12.4485727791422
  0
INSERT
  8
1
  2
LCA1
 10
3.82455783471636
 20
12.4485727791422
 50
135
  0
CIRCLE
  8
1
 62
7
 10
5.54813061385858
 20
10.725
 40
3.9
  0
LINE
  8
1
 62
7
 10
-0.301869386141423
 20
-8.775
 11
3.59813061385858
 21
-8.775
  0
LINE
  8
1
 62
7
 10
-6.15186938614142
 20
-8.775
 11
-2.71596573736102
 21
-8.775
  0
CIRCLE
  8
1
 62
7
 10
-1.76436938614142
 20
-8.775
 40
0.975
  0
POLYLINE
  8
1
 62
7
 66
1
  0
VERTEX
  8
1
 62
7
 10
-2.25186938614142
 20
-10.725
  0
VERTEX
  8
1
 62
7
 10
-0.301869386141422
 20
-8.77499999999998
  0
VERTEX
  8
1
 62
7
 10
-2.25186938614142
 20
-6.82499999999999
  0
SEQEND
  8
1
  0
LINE
  8
1
 62
7
 10
-8.53340232171766
 20
8.06360462147178
 11
0.129932353051913
 21
10.4614697788431
  0
INSERT
  8
1
  2
LCA1
 10
0.129932353051913
 20
10.4614697788431
 50
15.4711922908485
  0
POLYLINE
  8
1
 62
7
 66
1
  0
VERTEX
  8
1
 62
7
 10
-4.2017610752443
 20
6.82502256477028
  0
VERTEX
  8
1
 62
7
 10
-2.25176107524429
 20
7.23127256477028
  0
VERTEX
  8
1
 62
7
 10
-6.1517610752443
 20
8.04377256477028
  0
VERTEX
  8
1
 62
7
 10
-2.25176107524429
 20
8.85627256477028
  0
VERTEX
  8
1
 62
7
 10
-6.1517610752443
 20
9.66877256477028
  0
VERTEX
  8
1
 62
7
 10
-2.25176107524429
 20
10.4812725647703
  0
VERTEX
  8
1
 62
7
 10
-6.1517610752443
 20
11.2937725647703
  0
VERTEX
  8
1
 62
7
 10
-4.2017610752443
 20
11.7000225647703
  0
SEQEND
  8
1
  0
POLYLINE
  8
1
 62
7
 66
1
  0
VERTEX
  8
1
 62
7
 10
-6.15186938614144
 20
5.85000000000002
  0
VERTEX
  8
1
 62
7
 10
-8.10186938614144
 20
4.875
  0
VERTEX
  8
1
 62
7
 10
-6.15186938614144
 20
3.90000000000001
  0
SEQEND
  8
1
  0
POLYLINE
  8
1
 62
7
  6
DOT
 66
1
  0
VERTEX
  8
1
 62
7
 10
-4.20186938614144
 20
-0.974999999999994
  0
VERTEX
  8
1
 62
7
 10
-4.20186938614144
 20
-4.875
  0
VERTEX
  8
1
 62
7
 10
3.59813061385856
 20
-4.875
  0
VERTEX
  8
1
 62
7
 10
3.59813061385856
 20
-0.974999999999994
  0
VERTEX
  8
1
 62
7
 10
1.64813061385858
 20
0.975000000000023
  0
SEQEND
  8
1
  0
POLYLINE
  8
1
 62
7
 66
1
  0
VERTEX
  8
1
 62
7
 10
-6.15186938614144
 20
-0.974999999999994
  0
VERTEX
  8
1
 62
7
 10
1.64813061385858
 20
-0.974999999999994
  0
VERTEX
  8
1
 62
7
 10
1.64813061385858
 20
6.82500000000002
  0
VERTEX
  8
1
 62
7
 10
-6.15186938614144
 20
6.82500000000002
  0
VERTEX
  8
1
 62
7
 10
-6.15186938614144
 20
-0.974999999999994
  0
SEQEND
  8
1
  0
LINE
  8
1
 62
7
 10
1.64813061385858
 20
0.975
 11
-6.15186938614142
 21
0.975
  0
INSERT
  8
1
  2
LCA1
 10
-6.15186938614142
 20
0.975
 50
-180
  0
INSERT
  8
1
  2
LCA1R
 10
1.64813061385858
 20
0.975
 50
-180
  0
CIRCLE
  8
CONNECTIONS
 62
7
 10
28.9481306138586
 20
0.975
 40
0
  0
CIRCLE
  8
CONNECTIONS
 62
7
 10
-29.5518693861414
 20
0.975
 40
0
  0
ENDBLK
  8
0
  0
BLOCK
  8
0
  2
B1074691
 70
0
 10
0
 20
0
  0
TEXT
  8
1
 62
7
 40
2.34
 41
0.75
  1
1
  7
STANDARD
 72
2
 10
1.63599046468735
 20
-1.07283818006515
 11
1.63599046468735
 21
-1.07283818006515
  0
ENDBLK
  8
0
  0
BLOCK
  8
0
  2
B1074692
 70
0
 10
0
 20
0
  0
TEXT
  8
1
 62
7
 40
2.34
 41
0.75
  1
2
  7
STANDARD
 73
2
 10
-1.63599046468735
 20
0
 11
-1.63599046468735
 21
0
  0
ENDBLK
  8
0
  0
BLOCK
  8
0
  2
B1074702_00991235
 70
0
 10
0
 20
0
  0
LINE
  8
1
 62
7
 10
4.3875
 20
-3.65625
 11
4.3875
 21
-7.55625
  0
LINE
  8
1
 62
7
 10
-11.2125
 20
-3.65625
 11
-11.2125
 21
-7.55625
  0
LINE
  8
1
 62
7
 10
-7.3125
 20
-2.19375
 11
-7.3125
 21
-1.21875
  0
SOLID
  8
1
 62
7
 10
-7.3125
 20
-1.21875
 11
-7.3125
 21
-2.19374999999999
 12
-9.2625
 22
-2.19374999999999
 13
-9.2625
 23
-2.19374999999999
  0
SOLID
  8
1
 62
7
 10
-9.2625
 20
2.68125000000001
 11
-7.3125
 21
2.68125000000001
 12
-7.3125
 22
1.70625000000001
 13
-7.3125
 23
1.70625000000001
  0
SOLID
  8
1
 62
7
 10
-8.2875
 20
-1.21875
 11
-7.3125
 21
-1.21875
 12
-9.2625
 22
-2.19374999999999
 13
-9.2625
 23
-2.19374999999999
  0
SOLID
  8
1
 62
7
 10
-9.2625
 20
2.68125000000001
 11
-7.3125
 21
1.70625000000001
 12
-8.2875
 22
1.70625000000001
 13
-8.2875
 23
1.70625000000001
  0
SOLID
  8
1
 62
7
 10
-8.2875
 20
1.70625000000001
 11
-8.2875
 21
-1.21875
 12
-9.2625
 22
-2.19374999999999
 13
-9.2625
 23
-2.19374999999999
  0
SOLID
  8
1
 62
7
 10
-9.2625
 20
-2.19374999999999
 11
-9.2625
 21
2.68125000000001
 12
-8.2875
 22
1.70625000000001
 13
-8.2875
 23
1.70625000000001
  0
LINE
  8
1
 62
7
 10
-10.2375
 20
-7.06875
 11
-6.3375
 21
7.55625
  0
INSERT
  8
1
  2
LCA1
 10
-6.3375
 20
7.55625
 50
75.0685828218624
  0
POLYLINE
  8
1
 62
7
 66
1
  0
VERTEX
  8
1
 62
7
 10
-6.3375
 20
2.19375000000002
  0
VERTEX
  8
1
 62
7
 10
-5.3625
 20
2.19375000000002
  0
VERTEX
  8
1
 62
7
 10
-5.3625
 20
-1.70624999999998
  0
VERTEX
  8
1
 62
7
 10
-6.3375
 20
-1.70624999999998
  0
VERTEX
  8
1
 62
7
 10
-6.3375
 20
2.19375000000002
  0
SEQEND
  8
1
  0
POLYLINE
  8
1
 62
7
 66
1
  0
VERTEX
  8
1
 62
7
 10
-11.2125
 20
2.19375000000002
  0
VERTEX
  8
1
 62
7
 10
-10.2375
 20
2.19375000000002
  0
VERTEX
  8
1
 62
7
 10
-10.2375
 20
-1.70624999999998
  0
VERTEX
  8
1
 62
7
 10
-11.2125
 20
-1.70624999999998
  0
VERTEX
  8
1
 62
7
 10
-11.2125
 20
2.19375000000002
  0
SEQEND
  8
1
  0
POLYLINE
  8
1
 62
7
 66
1
  0
VERTEX
  8
1
 62
7
 10
-10.2375
 20
4.14375000000001
  0
VERTEX
  8
1
 62
7
 10
-6.3375
 20
4.14375000000001
  0
VERTEX
  8
1
 62
7
 10
-6.3375
 20
-3.65625
  0
VERTEX
  8
1
 62
7
 10
-10.2375
 20
-3.65625
  0
VERTEX
  8
1
 62
7
 10
-10.2375
 20
4.14375000000001
  0
SEQEND
  8
1
  0
LINE
  8
1
 62
7
 10
5.3625
 20
4.14375
 11
5.3625
 21
1.21875
  0
LINE
  8
1
 62
7
 10
5.3625
 20
-0.73125
 11
5.3625
 21
-3.65625
  0
LINE
  8
1
 62
7
 10
-12.1875
 20
4.14375
 11
-12.1875
 21
-3.65625
  0
LINE
  8
1
 62
7
 10
-12.1875
 20
4.14375
 11
5.3625
 21
4.14375
  0
LINE
  8
1
 62
7
 10
-12.1875
 20
-3.65625
 11
5.3625
 21
-3.65625
  0
POLYLINE
  8
1
 62
7
 66
1
  0
VERTEX
  8
1
 62
7
 10
-5.3625
 20
1.21875
  0
VERTEX
  8
1
 62
7
 10
12.1875
 20
1.21875
  0
VERTEX
  8
1
 62
7
 10
12.1875
 20
-0.731249999999989
  0
VERTEX
  8
1
 62
7
 10
-5.3625
 20
-0.731249999999989
  0
SEQEND
  8
1
  0
CIRCLE
  8
CONNECTIONS
 62
7
 10
-11.2125
 20
-7.55625
 40
0
  0
CIRCLE
  8
CONNECTIONS
 62
7
 10
4.3875
 20
-7.55625
 40
0
  0
ENDBLK
  8
0
  0
BLOCK
  8
0
  2
B1074711_00991265
 70
0
 10
0
 20
0
  0
LINE
  8
1
 62
7
 10
-7.8
 20
-3.9
 11
-3.9
 21
-3.9
  0
LINE
  8
1
 62
7
 10
-3.9
 20
5.85
 11
-3.9
 21
-5.85
  0
LINE
  8
1
 62
7
 10
-7.8
 20
3.9
 11
-3.9
 21
3.9
  0
POLYLINE
  8
1
 62
7
 66
1
  0
VERTEX
  8
1
 62
7
 10
1.95
 20
0.975000000000023
  0
VERTEX
  8
1
 62
7
 10
7.8
 20
0.975000000000023
  0
VERTEX
  8
1
 62
7
 10
7.8
 20
-0.974999999999994
  0
VERTEX
  8
1
 62
7
 10
1.95
 20
-0.974999999999994
  0
SEQEND
  8
1
  0
ARC
  8
1
 62
7
 10
-3.9
 20
0
 40
8.775
 50
330
 51
30
  0
INSERT
  8
1
  2
LCA1
 10
3.62164306366104
 20
4.51945910733573
 50
120.5
  0
INSERT
  8
1
  2
LCA1R
 10
3.69937291820845
 20
-4.3875
 50
60.4999999999997
  0
ARC
  8
1
 62
7
 10
-3.9
 20
0
 40
5.85
 50
270
 51
90
  0
CIRCLE
  8
CONNECTIONS
 62
7
 10
-7.8
 20
3.9
 40
0
  0
CIRCLE
  8
CONNECTIONS
 62
7
 10
-7.8
 20
-3.9
 40
0
  0
ENDBLK
  8
0
  0
BLOCK
  8
0
  2
B1074720
 70
0
 10
0
 20
0
  0
TEXT
  8
1
 62
7
 40
2.34
 41
0.75
  1
3
  7
STANDARD
 73
3
 10
-1.63599046468735
 20
1.65783818006516
 11
-1.63599046468735
 21
1.65783818006516
  0
ENDBLK
  8
0
  0
BLOCK
  8
0
  2
B1074721
 70
0
 10
0
 20
0
  0
TEXT
  8
1
 62
7
 40
2.34
 41
0.75
  1
1
  7
STANDARD
 72
2
 73
3
 10
1.63599046468735
 20
1.65783818006516
 11
1.63599046468735
 21
1.65783818006516
  0
ENDBLK
  8
0
  0
BLOCK
  8
0
  2
B1074722
 70
0
 10
0
 20
0
  0
TEXT
  8
1
 62
7
 40
2.34
 41
0.75
  1
5
  7
STANDARD
 72
2
 73
3
 10
1.63599046468735
 20
1.65783818006516
 11
1.63599046468735
 21
1.65783818006516
  0
ENDBLK
  8
0
  0
BLOCK
  8
0
  2
B1074723
 70
0
 10
0
 20
0
  0
TEXT
  8
1
 62
7
 40
2.34
 41
0.75
  1
2
  7
STANDARD
 72
2
 10
1.63599046468735
 20
-1.07283818006515
 11
1.63599046468735
 21
-1.07283818006515
  0
ENDBLK
  8
0
  0
BLOCK
  8
0
  2
B1074724
 70
0
 10
0
 20
0
  0
TEXT
  8
1
 62
7
 40
2.34
 41
0.75
  1
84
  7
STANDARD
 10
-2.67012920379639
 20
-1.07283818006515
  0
ENDBLK
  8
0
  0
BLOCK
  8
0
  2
B1074725
 70
0
 10
0
 20
0
  0
TEXT
  8
1
 62
7
 40
2.34
 41
0.75
  1
14
  7
STANDARD
 72
2
 73
3
 10
2.67012920379639
 20
1.65783818006516
 11
2.67012920379639
 21
1.65783818006516
  0
ENDBLK
  8
0
  0
BLOCK
  8
0
  2
B1074726
 70
0
 10
0
 20
0
  0
TEXT
  8
1
 62
7
 40
2.34
 41
0.75
  1
4
  7
STANDARD
 72
2
 10
1.63599046468735
 20
-1.07283818006515
 11
1.63599046468735
 21
-1.07283818006515
  0
ENDBLK
  8
0
  0
BLOCK
  8
0
  2
B1074727
 70
0
 10
0
 20
0
  0
TEXT
  8
1
 62
7
 40
2.34
 41
0.75
  1
3
  7
STANDARD
 73
3
 10
-1.63599046468735
 20
1.65783818006516
 11
-1.63599046468735
 21
1.65783818006516
  0
ENDBLK
  8
0
  0
BLOCK
  8
0
  2
B1074728
 70
0
 10
0
 20
0
  0
TEXT
  8
1
 62
7
 40
2.34
 41
0.75
  1
1
  7
STANDARD
 72
2
 73
3
 10
1.63599046468735
 20
1.65783818006516
 11
1.63599046468735
 21
1.65783818006516
  0
ENDBLK
  8
0
  0
BLOCK
  8
0
  2
B1074729
 70
0
 10
0
 20
0
  0
TEXT
  8
1
 62
7
 40
2.34
 41
0.75
  1
5
  7
STANDARD
 72
2
 73
3
 10
1.63599046468735
 20
1.65783818006516
 11
1.63599046468735
 21
1.65783818006516
  0
ENDBLK
  8
0
  0
BLOCK
  8
0
  2
B1074730
 70
0
 10
0
 20
0
  0
TEXT
  8
1
 62
7
 40
2.34
 41
0.75
  1
2
  7
STANDARD
 72
2
 10
1.63599046468735
 20
-1.07283818006515
 11
1.63599046468735
 21
-1.07283818006515
  0
ENDBLK
  8
0
  0
BLOCK
  8
0
  2
B1074731
 70
0
 10
0
 20
0
  0
TEXT
  8
1
 62
7
 40
2.34
 41
0.75
  1
84
  7
STANDARD
 10
-2.67012920379639
 20
-1.07283818006515
  0
ENDBLK
  8
0
  0
BLOCK
  8
0
  2
B1074732
 70
0
 10
0
 20
0
  0
TEXT
  8
1
 62
7
 40
2.34
 41
0.75
  1
14
  7
STANDARD
 72
2
 73
3
 10
2.67012920379639
 20
1.65783818006516
 11
2.67012920379639
 21
1.65783818006516
  0
ENDBLK
  8
0
  0
BLOCK
  8
0
  2
B1074733
 70
0
 10
0
 20
0
  0
TEXT
  8
1
 62
7
 40
2.34
 41
0.75
  1
4
  7
STANDARD
 72
2
 10
1.63599046468735
 20
-1.07283818006515
 11
1.63599046468735
 21
-1.07283818006515
  0
ENDBLK
  8
0
  0
BLOCK
  8
0
  2
B1074734
 70
0
 10
0
 20
0
  0
TEXT
  8
1
 62
7
 40
2.34
 41
0.75
  1
3
  7
STANDARD
 73
3
 10
-1.63599046468735
 20
1.65783818006516
 11
-1.63599046468735
 21
1.65783818006516
  0
ENDBLK
  8
0
  0
BLOCK
  8
0
  2
B1074735
 70
0
 10
0
 20
0
  0
TEXT
  8
1
 62
7
 40
2.34
 41
0.75
  1
1
  7
STANDARD
 72
2
 73
3
 10
1.63599046468735
 20
1.65783818006516
 11
1.63599046468735
 21
1.65783818006516
  0
ENDBLK
  8
0
  0
BLOCK
  8
0
  2
B1074736
 70
0
 10
0
 20
0
  0
TEXT
  8
1
 62
7
 40
2.34
 41
0.75
  1
5
  7
STANDARD
 72
2
 73
3
 10
1.63599046468735
 20
1.65783818006516
 11
1.63599046468735
 21
1.65783818006516
  0
ENDBLK
  8
0
  0
BLOCK
  8
0
  2
B1074737
 70
0
 10
0
 20
0
  0
TEXT
  8
1
 62
7
 40
2.34
 41
0.75
  1
2
  7
STANDARD
 72
2
 10
1.63599046468735
 20
-1.07283818006515
 11
1.63599046468735
 21
-1.07283818006515
  0
ENDBLK
  8
0
  0
BLOCK
  8
0
  2
B1074738
 70
0
 10
0
 20
0
  0
TEXT
  8
1
 62
7
 40
2.34
 41
0.75
  1
84
  7
STANDARD
 10
-2.67012920379639
 20
-1.07283818006515
  0
ENDBLK
  8
0
  0
BLOCK
  8
0
  2
B1074739
 70
0
 10
0
 20
0
  0
TEXT
  8
1
 62
7
 40
2.34
 41
0.75
  1
14
  7
STANDARD
 72
2
 73
3
 10
2.67012920379639
 20
1.65783818006516
 11
2.67012920379639
 21
1.65783818006516
  0
ENDBLK
  8
0
  0
BLOCK
  8
0
  2
B1074740
 70
0
 10
0
 20
0
  0
TEXT
  8
1
 62
7
 40
2.34
 41
0.75
  1
4
  7
STANDARD
 72
2
 10
1.63599046468735
 20
-1.07283818006515
 11
1.63599046468735
 21
-1.07283818006515
  0
ENDBLK
  8
0
  0
BLOCK
  8
0
  2
B1074741
 70
0
 10
0
 20
0
  0
TEXT
  8
1
 62
7
 40
2.34
 41
0.75
  1
3
  7
STANDARD
 73
3
 10
-1.63599046468735
 20
1.65783818006516
 11
-1.63599046468735
 21
1.65783818006516
  0
ENDBLK
  8
0
  0
BLOCK
  8
0
  2
B1074742
 70
0
 10
0
 20
0
  0
TEXT
  8
1
 62
7
 40
2.34
 41
0.75
  1
1
  7
STANDARD
 72
2
 73
3
 10
1.63599046468735
 20
1.65783818006516
 11
1.63599046468735
 21
1.65783818006516
  0
ENDBLK
  8
0
  0
BLOCK
  8
0
  2
B1074743
 70
0
 10
0
 20
0
  0
TEXT
  8
1
 62
7
 40
2.34
 41
0.75
  1
5
  7
STANDARD
 72
2
 73
3
 10
1.63599046468735
 20
1.65783818006516
 11
1.63599046468735
 21
1.65783818006516
  0
ENDBLK
  8
0
  0
BLOCK
  8
0
  2
B1074744
 70
0
 10
0
 20
0
  0
TEXT
  8
1
 62
7
 40
2.34
 41
0.75
  1
2
  7
STANDARD
 72
2
 10
1.63599046468735
 20
-1.07283818006515
 11
1.63599046468735
 21
-1.07283818006515
  0
ENDBLK
  8
0
  0
BLOCK
  8
0
  2
B1074745
 70
0
 10
0
 20
0
  0
TEXT
  8
1
 62
7
 40
2.34
 41
0.75
  1
84
  7
STANDARD
 10
-2.67012920379639
 20
-1.07283818006515
  0
ENDBLK
  8
0
  0
BLOCK
  8
0
  2
B1074746
 70
0
 10
0
 20
0
  0
TEXT
  8
1
 62
7
 40
2.34
 41
0.75
  1
14
  7
STANDARD
 72
2
 73
3
 10
2.67012920379639
 20
1.65783818006516
 11
2.67012920379639
 21
1.65783818006516
  0
ENDBLK
  8
0
  0
BLOCK
  8
0
  2
B1074747
 70
0
 10
0
 20
0
  0
TEXT
  8
1
 62
7
 40
2.34
 41
0.75
  1
4
  7
STANDARD
 72
2
 10
1.63599046468735
 20
-1.07283818006515
 11
1.63599046468735
 21
-1.07283818006515
  0
ENDBLK
  8
0
  0
BLOCK
  8
0
  2
B1074748
 70
0
 10
0
 20
0
  0
TEXT
  8
1
 62
7
 40
2.34
 41
0.75
  1
3
  7
STANDARD
 73
3
 10
-1.63599046468735
 20
1.65783818006516
 11
-1.63599046468735
 21
1.65783818006516
  0
ENDBLK
  8
0
  0
BLOCK
  8
0
  2
B1074749
 70
0
 10
0
 20
0
  0
TEXT
  8
1
 62
7
 40
2.34
 41
0.75
  1
1
  7
STANDARD
 72
2
 73
3
 10
1.63599046468735
 20
1.65783818006516
 11
1.63599046468735
 21
1.65783818006516
  0
ENDBLK
  8
0
  0
BLOCK
  8
0
  2
B1074750
 70
0
 10
0
 20
0
  0
TEXT
  8
1
 62
7
 40
2.34
 41
0.75
  1
5
  7
STANDARD
 72
2
 73
3
 10
1.63599046468735
 20
1.65783818006516
 11
1.63599046468735
 21
1.65783818006516
  0
ENDBLK
  8
0
  0
BLOCK
  8
0
  2
B1074751
 70
0
 10
0
 20
0
  0
TEXT
  8
1
 62
7
 40
2.34
 41
0.75
  1
2
  7
STANDARD
 72
2
 10
1.63599046468735
 20
-1.07283818006515
 11
1.63599046468735
 21
-1.07283818006515
  0
ENDBLK
  8
0
  0
BLOCK
  8
0
  2
B1074752
 70
0
 10
0
 20
0
  0
TEXT
  8
1
 62
7
 40
2.34
 41
0.75
  1
84
  7
STANDARD
 10
-2.67012920379639
 20
-1.07283818006515
  0
ENDBLK
  8
0
  0
BLOCK
  8
0
  2
B1074753
 70
0
 10
0
 20
0
  0
TEXT
  8
1
 62
7
 40
2.34
 41
0.75
  1
14
  7
STANDARD
 72
2
 73
3
 10
2.67012920379639
 20
1.65783818006516
 11
2.67012920379639
 21
1.65783818006516
  0
ENDBLK
  8
0
  0
BLOCK
  8
0
  2
B1074754
 70
0
 10
0
 20
0
  0
TEXT
  8
1
 62
7
 40
2.34
 41
0.75
  1
4
  7
STANDARD
 72
2
 10
1.63599046468735
 20
-1.07283818006515
 11
1.63599046468735
 21
-1.07283818006515
  0
ENDBLK
  8
0
  0
BLOCK
  8
0
  2
B1074755_00991738
 70
0
 10
0
 20
0
  0
LINE
  8
1
 62
7
 10
4.3875
 20
-2.4375
 11
4.3875
 21
-6.3375
  0
LINE
  8
1
 62
7
 10
-11.2125
 20
-2.4375
 11
-11.2125
 21
-6.3375
  0
POLYLINE
  8
1
 62
7
 66
1
  0
VERTEX
  8
1
 62
7
 10
-6.3375
 20
3.41250000000002
  0
VERTEX
  8
1
 62
7
 10
-5.3625
 20
3.41250000000002
  0
VERTEX
  8
1
 62
7
 10
-5.3625
 20
-0.487499999999983
  0
VERTEX
  8
1
 62
7
 10
-6.3375
 20
-0.487499999999983
  0
VERTEX
  8
1
 62
7
 10
-6.3375
 20
3.41250000000002
  0
SEQEND
  8
1
  0
POLYLINE
  8
1
 62
7
 66
1
  0
VERTEX
  8
1
 62
7
 10
-11.2125
 20
3.41250000000002
  0
VERTEX
  8
1
 62
7
 10
-10.2375
 20
3.41250000000002
  0
VERTEX
  8
1
 62
7
 10
-10.2375
 20
-0.487499999999983
  0
VERTEX
  8
1
 62
7
 10
-11.2125
 20
-0.487499999999983
  0
VERTEX
  8
1
 62
7
 10
-11.2125
 20
3.41250000000002
  0
SEQEND
  8
1
  0
POLYLINE
  8
1
 62
7
 66
1
  0
VERTEX
  8
1
 62
7
 10
-10.2375
 20
5.36250000000001
  0
VERTEX
  8
1
 62
7
 10
-6.3375
 20
5.36250000000001
  0
VERTEX
  8
1
 62
7
 10
-6.3375
 20
-2.4375
  0
VERTEX
  8
1
 62
7
 10
-10.2375
 20
-2.4375
  0
VERTEX
  8
1
 62
7
 10
-10.2375
 20
5.36250000000001
  0
SEQEND
  8
1
  0
LINE
  8
1
 62
7
 10
5.3625
 20
5.3625
 11
5.3625
 21
2.4375
  0
LINE
  8
1
 62
7
 10
5.3625
 20
0.4875
 11
5.3625
 21
-2.4375
  0
LINE
  8
1
 62
7
 10
-12.1875
 20
5.3625
 11
-12.1875
 21
-2.4375
  0
LINE
  8
1
 62
7
 10
-12.1875
 20
5.3625
 11
5.3625
 21
5.3625
  0
LINE
  8
1
 62
7
 10
-12.1875
 20
-2.4375
 11
5.3625
 21
-2.4375
  0
POLYLINE
  8
1
 62
7
 66
1
  0
VERTEX
  8
1
 62
7
 10
-5.3625
 20
2.4375
  0
VERTEX
  8
1
 62
7
 10
12.1875
 20
2.4375
  0
VERTEX
  8
1
 62
7
 10
12.1875
 20
0.487500000000011
  0
VERTEX
  8
1
 62
7
 10
-5.3625
 20
0.487500000000011
  0
SEQEND
  8
1
  0
LINE
  8
1
 62
7
 10
6.3375
 20
6.3375
 11
6.3375
 21
2.4375
  0
LINE
  8
1
 62
7
 10
-10.2375
 20
6.3375
 11
7.3125
 21
6.3375
  0
CIRCLE
  8
CONNECTIONS
 62
7
 10
-11.2125
 20
-6.3375
 40
0
  0
CIRCLE
  8
CONNECTIONS
 62
7
 10
4.3875
 20
-6.3375
 40
0
  0
ENDBLK
  8
0
  0
BLOCK
  8
0
  2
B1074764_00991453
 70
0
 10
0
 20
0
  0
POLYLINE
  8
1
 62
7
 66
1
  0
VERTEX
  8
1
 62
7
 10
-6.825
 20
8.77500000000001
  0
VERTEX
  8
1
 62
7
 10
6.825
 20
8.77500000000001
  0
VERTEX
  8
1
 62
7
 10
6.825
 20
-8.77499999999998
  0
VERTEX
  8
1
 62
7
 10
-6.825
 20
-8.77499999999998
  0
VERTEX
  8
1
 62
7
 10
-6.825
 20
8.77500000000001
  0
SEQEND
  8
1
  0
LINE
  8
1
 62
7
 10
-2.925
 20
8.775
 11
-2.925
 21
12.675
  0
LINE
  8
1
 62
7
 10
-2.925
 20
-8.775
 11
-2.925
 21
-12.675
  0
LINE
  8
1
 62
7
 10
-2.925
 20
-4.875
 11
2.925
 21
-4.875
  0
LINE
  8
1
 62
7
 10
2.925
 20
4.875
 11
-2.925
 21
4.875
  0
LINE
  8
1
 62
7
 10
2.925
 20
4.875
 11
2.925
 21
3.9
  0
LINE
  8
1
 62
7
 10
2.925
 20
-4.875
 11
2.925
 21
-3.9
  0
LINE
  8
1
 62
7
 10
-2.925
 20
4.875
 11
-2.925
 21
8.775
  0
LINE
  8
1
 62
7
 10
-2.925
 20
-8.775
 11
-2.925
 21
-4.875
  0
POLYLINE
  8
1
 62
7
 70
1
 66
1
 40
0.4875
 41
0.4875
  0
VERTEX
  8
1
 10
-3.16875
 20
-4.875
 42
1
  0
VERTEX
  8
1
 10
-2.68125
 20
-4.875
 42
1
  0
SEQEND
  8
1
  0
POLYLINE
  8
1
 62
7
 70
1
 66
1
 40
0.4875
 41
0.4875
  0
VERTEX
  8
1
 10
-3.16875
 20
4.875
 42
1
  0
VERTEX
  8
1
 10
-2.68125
 20
4.875
 42
1
  0
SEQEND
  8
1
  0
LINE
  8
1
 62
7
 10
2.925
 20
3.9
 11
2.925
 21
1.56000000000001
  0
LINE
  8
1
 62
7
 10
2.925
 20
-0.975
 11
2.925
 21
-3.80249999999998
  0
POLYLINE
  8
1
 62
7
 66
1
  0
VERTEX
  8
1
 62
7
 10
0.975
 20
-0.389999999999958
  0
VERTEX
  8
1
 62
7
 10
2.925
 20
1.56000000000003
  0
VERTEX
  8
1
 62
7
 10
4.875
 20
-0.389999999999958
  0
SEQEND
  8
1
  0
CIRCLE
  8
1
 62
7
 10
2.925
 20
0.130000000000016
 40
0.975
  0
LINE
  8
1
 62
7
 10
-2.925
 20
4.875
 11
-2.925
 21
-4.875
  0
LINE
  8
1
 62
7
 10
-6.175
 20
-1.43
 11
0.65
 21
1.495
  0
INSERT
  8
1
  2
LCA1
 10
0.65
 20
1.495
 50
23.1985905136482
  0
ARC
  8
1
 62
7
 10
-12.675
 20
0
 40
8.775
 50
340.528596800055
 51
19.4710505793386
  0
ARC
  8
1
 62
7
 10
6.825
 20
0
 40
8.775
 50
160.52865870751
 51
199.47139531546
  0
CIRCLE
  8
CONNECTIONS
 62
7
 10
-2.925
 20
-12.675
 40
0
  0
CIRCLE
  8
CONNECTIONS
 62
7
 10
-2.925
 20
12.675
 40
0
  0
ENDBLK
  8
0
  0
BLOCK
  8
0
  2
B1074773
 70
0
 10
0
 20
0
  0
TEXT
  8
1
 62
7
 40
2.34
 41
0.75
  1
2
  7
STANDARD
 73
2
 10
-1.63599046468735
 20
0
 11
-1.63599046468735
 21
0
  0
ENDBLK
  8
0
  0
BLOCK
  8
0
  2
B1074774
 70
0
 10
0
 20
0
  0
TEXT
  8
1
 62
7
 40
2.34
 41
0.75
  1
1
  7
STANDARD
 73
2
 10
-1.63599046468735
 20
0
 11
-1.63599046468735
 21
0
  0
ENDBLK
  8
0
  0
BLOCK
  8
0
  2
B1074775_00991453
 70
0
 10
0
 20
0
  0
POLYLINE
  8
1
 62
7
 66
1
  0
VERTEX
  8
1
 62
7
 10
-6.825
 20
8.77500000000001
  0
VERTEX
  8
1
 62
7
 10
6.825
 20
8.77500000000001
  0
VERTEX
  8
1
 62
7
 10
6.825
 20
-8.77499999999998
  0
VERTEX
  8
1
 62
7
 10
-6.825
 20
-8.77499999999998
  0
VERTEX
  8
1
 62
7
 10
-6.825
 20
8.77500000000001
  0
SEQEND
  8
1
  0
LINE
  8
1
 62
7
 10
-2.925
 20
8.775
 11
-2.925
 21
12.675
  0
LINE
  8
1
 62
7
 10
-2.925
 20
-8.775
 11
-2.925
 21
-12.675
  0
LINE
  8
1
 62
7
 10
-2.925
 20
-4.875
 11
2.925
 21
-4.875
  0
LINE
  8
1
 62
7
 10
2.925
 20
4.875
 11
-2.925
 21
4.875
  0
LINE
  8
1
 62
7
 10
2.925
 20
4.875
 11
2.925
 21
3.9
  0
LINE
  8
1
 62
7
 10
2.925
 20
-4.875
 11
2.925
 21
-3.9
  0
LINE
  8
1
 62
7
 10
-2.925
 20
4.875
 11
-2.925
 21
8.775
  0
LINE
  8
1
 62
7
 10
-2.925
 20
-8.775
 11
-2.925
 21
-4.875
  0
POLYLINE
  8
1
 62
7
 70
1
 66
1
 40
0.4875
 41
0.4875
  0
VERTEX
  8
1
 10
-3.16875
 20
-4.875
 42
1
  0
VERTEX
  8
1
 10
-2.68125
 20
-4.875
 42
1
  0
SEQEND
  8
1
  0
POLYLINE
  8
1
 62
7
 70
1
 66
1
 40
0.4875
 41
0.4875
  0
VERTEX
  8
1
 10
-3.16875
 20
4.875
 42
1
  0
VERTEX
  8
1
 10
-2.68125
 20
4.875
 42
1
  0
SEQEND
  8
1
  0
LINE
  8
1
 62
7
 10
2.925
 20
3.9
 11
2.925
 21
1.56000000000001
  0
LINE
  8
1
 62
7
 10
2.925
 20
-0.975
 11
2.925
 21
-3.80249999999998
  0
POLYLINE
  8
1
 62
7
 66
1
  0
VERTEX
  8
1
 62
7
 10
0.975
 20
-0.389999999999958
  0
VERTEX
  8
1
 62
7
 10
2.925
 20
1.56000000000003
  0
VERTEX
  8
1
 62
7
 10
4.875
 20
-0.389999999999958
  0
SEQEND
  8
1
  0
CIRCLE
  8
1
 62
7
 10
2.925
 20
0.130000000000016
 40
0.975
  0
LINE
  8
1
 62
7
 10
-2.925
 20
4.875
 11
-2.925
 21
-4.875
  0
LINE
  8
1
 62
7
 10
-6.175
 20
-1.43
 11
0.65
 21
1.495
  0
INSERT
  8
1
  2
LCA1
 10
0.65
 20
1.495
 50
23.1985905136482
  0
ARC
  8
1
 62
7
 10
-12.675
 20
0
 40
8.775
 50
340.528596800055
 51
19.4710505793386
  0
ARC
  8
1
 62
7
 10
6.825
 20
0
 40
8.775
 50
160.52865870751
 51
199.47139531546
  0
CIRCLE
  8
CONNECTIONS
 62
7
 10
-2.925
 20
-12.675
 40
0
  0
CIRCLE
  8
CONNECTIONS
 62
7
 10
-2.925
 20
12.675
 40
0
  0
ENDBLK
  8
0
  0
BLOCK
  8
0
  2
B1074784
 70
0
 10
0
 20
0
  0
TEXT
  8
1
 62
7
 40
2.34
 41
0.75
  1
2
  7
STANDARD
 73
2
 10
-1.63599046468735
 20
0
 11
-1.63599046468735
 21
0
  0
ENDBLK
  8
0
  0
BLOCK
  8
0
  2
B1074785
 70
0
 10
0
 20
0
  0
TEXT
  8
1
 62
7
 40
2.34
 41
0.75
  1
1
  7
STANDARD
 73
2
 10
-1.63599046468735
 20
0
 11
-1.63599046468735
 21
0
  0
ENDBLK
  8
0
  0
BLOCK
  8
0
  2
B1074786
 70
0
 10
0
 20
0
  0
CIRCLE
  8
CONNECTIONS
 62
7
 10
0
 20
0
 40
0
  0
CIRCLE
  8
CONNECTIONS
 62
7
 10
0
 20
0
 40
0
  0
CIRCLE
  8
CONNECTIONS
 62
7
 10
0
 20
0
 40
0
  0
CIRCLE
  8
CONNECTIONS
 62
7
 10
0
 20
0
 40
0
  0
ENDBLK
  8
0
  0
BLOCK
  8
0
  2
B1074787
 70
0
 10
0
 20
0
  0
CIRCLE
  8
CONNECTIONS
 62
7
 10
0
 20
0
 40
0
  0
CIRCLE
  8
CONNECTIONS
 62
7
 10
0
 20
0
 40
0
  0
CIRCLE
  8
CONNECTIONS
 62
7
 10
0
 20
0
 40
0
  0
CIRCLE
  8
CONNECTIONS
 62
7
 10
0
 20
0
 40
0
  0
ENDBLK
  8
0
  0
BLOCK
  8
0
  2
B1074788
 70
0
 10
0
 20
0
  0
CIRCLE
  8
CONNECTIONS
 62
7
 10
0
 20
0
 40
0
  0
CIRCLE
  8
CONNECTIONS
 62
7
 10
0
 20
0
 40
0
  0
CIRCLE
  8
CONNECTIONS
 62
7
 10
0
 20
0
 40
0
  0
CIRCLE
  8
CONNECTIONS
 62
7
 10
0
 20
0
 40
0
  0
ENDBLK
  8
0
  0
BLOCK
  8
0
  2
B1074789
 70
0
 10
0
 20
0
  0
CIRCLE
  8
CONNECTIONS
 62
7
 10
0
 20
0
 40
0
  0
CIRCLE
  8
CONNECTIONS
 62
7
 10
0
 20
0
 40
0
  0
CIRCLE
  8
CONNECTIONS
 62
7
 10
0
 20
0
 40
0
  0
CIRCLE
  8
CONNECTIONS
 62
7
 10
0
 20
0
 40
0
  0
ENDBLK
  8
0
  0
BLOCK
  8
0
  2
B1074791_00991053
 70
0
 10
0
 20
0
  0
TEXT
  8
1
 62
7
 40
2.413125
 41
0.75
  1
14
  7
STANDARD
 73
2
 10
-15.8265345859528
 20
6.97125
 11
-15.8265345859528
 21
6.97125
  0
LINE
  8
1
 62
7
 10
-7.3125
 20
-2.77875
 11
-7.3125
 21
-6.67875
  0
LINE
  8
1
 62
7
 10
-11.245
 20
-2.77875
 11
-11.245
 21
-6.67875
  0
LINE
  8
1
 62
7
 10
16.055
 20
5.02125
 11
16.055
 21
8.92125
  0
LINE
  8
1
 62
7
 10
8.255
 20
-2.77875
 11
8.255
 21
-6.67875
  0
LINE
  8
1
 62
7
 10
8.255
 20
8.92125
 11
8.255
 21
5.02125
  0
LINE
  8
1
 62
7
 10
12.155
 20
-2.77875
 11
12.155
 21
-6.67875
  0
LINE
  8
1
 62
7
 10
16.055
 20
-2.77875
 11
16.055
 21
-6.67875
  0
LINE
  8
1
 62
7
 10
-15.1125
 20
4.53375
 11
-11.2125
 21
4.53375
  0
LINE
  8
1
 62
7
 10
-15.1125
 20
5.02125
 11
-15.1125
 21
2.09625
  0
LINE
  8
1
 62
7
 10
-15.1125
 20
2.58375
 11
-11.2125
 21
2.58375
  0
LINE
  8
1
 62
7
 10
-11.2125
 20
1.12125
 11
-11.2125
 21
5.02125
  0
LINE
  8
1
 62
7
 10
-15.1125
 20
-2.77875
 11
-13.1625
 21
1.12125
  0
POLYLINE
  8
1
 62
7
 66
1
  0
VERTEX
  8
1
 62
7
 10
-17.0625
 20
1.12125000000003
  0
VERTEX
  8
1
 62
7
 10
-11.2125
 20
1.12125000000003
  0
VERTEX
  8
1
 62
7
 10
-11.2125
 20
-2.77874999999997
  0
VERTEX
  8
1
 62
7
 10
-17.0625
 20
-2.77874999999997
  0
VERTEX
  8
1
 62
7
 10
-17.0625
 20
1.12125000000003
  0
SEQEND
  8
1
  0
POLYLINE
  8
1
 62
7
  6
DOT
 66
1
  0
VERTEX
  8
1
 62
7
 10
23.8875
 20
-2.77874999999997
  0
VERTEX
  8
1
 62
7
 10
23.8875
 20
-4.72874999999996
  0
VERTEX
  8
1
 62
7
 10
-9.2625
 20
-4.72874999999996
  0
VERTEX
  8
1
 62
7
 10
-11.2125
 20
-2.77874999999997
  0
SEQEND
  8
1
  0
POLYLINE
  8
1
 62
7
 66
1
  0
VERTEX
  8
1
 62
7
 10
18.0375
 20
1.12125000000003
  0
VERTEX
  8
1
 62
7
 10
23.8875
 20
1.12125000000003
  0
VERTEX
  8
1
 62
7
 10
23.8875
 20
-2.77874999999997
  0
VERTEX
  8
1
 62
7
 10
18.0375
 20
-2.77874999999997
  0
VERTEX
  8
1
 62
7
 10
18.0375
 20
1.12125000000003
  0
SEQEND
  8
1
  0
LINE
  8
1
 62
7
 10
20.5100009252407
 20
-0.828749999999998
 11
23.8875
 21
1.12125
  0
LINE
  8
1
 62
7
 10
20.5100009252407
 20
-0.828749999999998
 11
18.0375
 21
-0.828749999999998
  0
LINE
  8
1
 62
7
 10
23.8875
 20
-2.77875
 11
20.5100009252407
 21
-0.828749999999998
  0
LINE
  8
1
 62
7
 10
-11.2125
 20
1.12125
 11
-11.2125
 21
-2.77875
  0
POLYLINE
  8
1
 62
7
 66
1
  0
VERTEX
  8
1
 62
7
 10
-11.2125
 20
1.12125000000003
  0
VERTEX
  8
1
 62
7
 10
-5.3625
 20
1.12125000000003
  0
VERTEX
  8
1
 62
7
 10
-5.3625
 20
-2.77874999999997
  0
VERTEX
  8
1
 62
7
 10
-11.2125
 20
-2.77874999999997
  0
VERTEX
  8
1
 62
7
 10
-11.2125
 20
1.12125000000003
  0
SEQEND
  8
1
  0
LINE
  8
1
 62
7
 10
-11.2125
 20
1.12125
 11
-7.83500092524069
 21
-0.828749999999998
  0
LINE
  8
1
 62
7
 10
-11.2125
 20
-2.77875
 11
-7.83500092524069
 21
-0.828749999999998
  0
LINE
  8
1
 62
7
 10
-3.4125
 20
-2.77875
 11
-3.4125
 21
-0.828749999999998
  0
INSERT
  8
1
  2
LCBP1
 10
-3.4125
 20
-0.828749999999998
 50
90
  0
POLYLINE
  8
1
 62
7
 66
1
  0
VERTEX
  8
1
 62
7
 10
-5.3625
 20
5.02125000000004
  0
VERTEX
  8
1
 62
7
 10
6.3375
 20
5.02125000000004
  0
VERTEX
  8
1
 62
7
 10
6.3375
 20
-2.77874999999997
  0
VERTEX
  8
1
 62
7
 10
-5.3625
 20
-2.77874999999997
  0
VERTEX
  8
1
 62
7
 10
-5.3625
 20
5.02125000000004
  0
SEQEND
  8
1
  0
LINE
  8
1
 62
7
 10
-3.4125
 20
5.02125
 11
0.4875
 21
-2.77875
  0
INSERT
  8
1
  2
LCA1
 10
0.4875
 20
-2.77875
 50
-63.434948822922
  0
INSERT
  8
1
  2
LCA1R
 10
-3.4125
 20
5.02125
 50
-63.434948822922
  0
LINE
  8
1
 62
7
 10
4.3875
 20
-2.77875
 11
4.3875
 21
5.02125
  0
INSERT
  8
1
  2
LCA1
 10
4.3875
 20
5.02125
 50
90
  0
INSERT
  8
1
  2
LCA1R
 10
4.3875
 20
-2.77875
 50
90
  0
LINE
  8
1
 62
7
 10
16.0875
 20
-2.77875
 11
16.0875
 21
-0.828749999999998
  0
INSERT
  8
1
  2
LCBP1
 10
16.0875
 20
-0.828749999999998
 50
90
  0
POLYLINE
  8
1
 62
7
 66
1
  0
VERTEX
  8
1
 62
7
 10
6.3375
 20
5.02125000000004
  0
VERTEX
  8
1
 62
7
 10
18.0375
 20
5.02125000000004
  0
VERTEX
  8
1
 62
7
 10
18.0375
 20
-2.77874999999997
  0
VERTEX
  8
1
 62
7
 10
6.3375
 20
-2.77874999999997
  0
VERTEX
  8
1
 62
7
 10
6.3375
 20
5.02125000000004
  0
SEQEND
  8
1
  0
LINE
  8
1
 62
7
 10
8.2875
 20
-2.77875
 11
8.2875
 21
5.02125
  0
INSERT
  8
1
  2
LCA1
 10
8.2875
 20
5.02125
 50
90
  0
INSERT
  8
1
  2
LCA1R
 10
8.2875
 20
-2.77875
 50
90
  0
LINE
  8
1
 62
7
 10
12.1875
 20
-2.77875
 11
16.0875
 21
5.02125
  0
INSERT
  8
1
  2
LCA1
 10
16.0875
 20
5.02125
 50
63.434948822922
  0
INSERT
  8
1
  2
LCA1R
 10
12.1875
 20
-2.77875
 50
63.434948822922
  0
CIRCLE
  8
CONNECTIONS
 62
7
 10
-7.3125
 20
-6.67875
 40
0
  0
CIRCLE
  8
CONNECTIONS
 62
7
 10
-11.245
 20
-6.67875
 40
0
  0
CIRCLE
  8
CONNECTIONS
 62
7
 10
8.255
 20
8.92125
 40
0
  0
CIRCLE
  8
CONNECTIONS
 62
7
 10
16.055
 20
8.92125
 40
0
  0
CIRCLE
  8
CONNECTIONS
 62
7
 10
16.055
 20
-6.67875
 40
0
  0
CIRCLE
  8
CONNECTIONS
 62
7
 10
12.155
 20
-6.67875
 40
0
  0
CIRCLE
  8
CONNECTIONS
 62
7
 10
8.255
 20
-6.67875
 40
0
  0
CIRCLE
  8
CONNECTIONS
 62
7
 10
-17.0773670291901
 20
-0.82875
 40
0
  0
ENDBLK
  8
0
  0
BLOCK
  8
0
  2
B1074800
 70
0
 10
0
 20
0
  0
LINE
  8
1
 62
7
 10
0
 20
0.8125
 11
0
 21
-0.8125
  0
LINE
  8
1
 62
7
 10
-1.3
 20
-0.8125
 11
1.3
 21
-0.8125
  0
CIRCLE
  8
CONNECTIONS
 62
7
 10
0
 20
0.8125
 40
0
  0
ENDBLK
  8
0
  0
BLOCK
  8
0
  2
B1074801
 70
0
 10
0
 20
0
  0
LINE
  8
1
 62
7
 10
0
 20
0.8125
 11
0
 21
-0.8125
  0
LINE
  8
1
 62
7
 10
-1.3
 20
-0.8125
 11
1.3
 21
-0.8125
  0
CIRCLE
  8
CONNECTIONS
 62
7
 10
0
 20
0.8125
 40
0
  0
ENDBLK
  8
0
  0
BLOCK
  8
0
  2
B1074802_00991473
 70
0
 10
0
 20
0
  0
LINE
  8
1
 62
7
 10
0.975
 20
-1.4625
 11
0
 21
-1.4625
  0
LINE
  8
1
 62
7
 10
-0.975
 20
-0.4875
 11
0
 21
-0.4875
  0
LINE
  8
1
 62
7
 10
0.975
 20
0.4875
 11
0
 21
0.4875
  0
POLYLINE
  8
1
 62
7
 66
1
  0
VERTEX
  8
1
 62
7
 10
0.975
 20
1.46250000000001
  0
VERTEX
  8
1
 62
7
 10
-0.975
 20
1.46250000000001
  0
VERTEX
  8
1
 62
7
 10
-0.975
 20
-2.4375
  0
VERTEX
  8
1
 62
7
 10
0.975
 20
-2.4375
  0
VERTEX
  8
1
 62
7
 10
0.975
 20
1.46250000000001
  0
SEQEND
  8
1
  0
LINE
  8
1
 62
7
 10
0
 20
3.4125
 11
0
 21
1.4625
  0
POLYLINE
  8
1
 62
7
 66
1
  0
VERTEX
  8
1
 62
7
 10
-0.4875
 20
-2.4375
  0
VERTEX
  8
1
 62
7
 10
0
 20
-3.41249999999999
  0
VERTEX
  8
1
 62
7
 10
0.4875
 20
-2.4375
  0
SEQEND
  8
1
  0
CIRCLE
  8
CONNECTIONS
 62
7
 10
0
 20
3.4125
 40
0
  0
ENDBLK
  8
0
  0
BLOCK
  8
0
  2
B1074803_00991473
 70
0
 10
0
 20
0
  0
LINE
  8
1
 62
7
 10
0.975
 20
-1.4625
 11
0
 21
-1.4625
  0
LINE
  8
1
 62
7
 10
-0.975
 20
-0.4875
 11
0
 21
-0.4875
  0
LINE
  8
1
 62
7
 10
0.975
 20
0.4875
 11
0
 21
0.4875
  0
POLYLINE
  8
1
 62
7
 66
1
  0
VERTEX
  8
1
 62
7
 10
0.975
 20
1.46250000000001
  0
VERTEX
  8
1
 62
7
 10
-0.975
 20
1.46250000000001
  0
VERTEX
  8
1
 62
7
 10
-0.975
 20
-2.4375
  0
VERTEX
  8
1
 62
7
 10
0.975
 20
-2.4375
  0
VERTEX
  8
1
 62
7
 10
0.975
 20
1.46250000000001
  0
SEQEND
  8
1
  0
LINE
  8
1
 62
7
 10
0
 20
3.4125
 11
0
 21
1.4625
  0
POLYLINE
  8
1
 62
7
 66
1
  0
VERTEX
  8
1
 62
7
 10
-0.4875
 20
-2.4375
  0
VERTEX
  8
1
 62
7
 10
0
 20
-3.41249999999999
  0
VERTEX
  8
1
 62
7
 10
0.4875
 20
-2.4375
  0
SEQEND
  8
1
  0
CIRCLE
  8
CONNECTIONS
 62
7
 10
0
 20
3.4125
 40
0
  0
ENDBLK
  8
0
  0
BLOCK
  8
0
  2
B1074790
 70
0
 10
0
 20
0
  0
ENDBLK
  8
0
  0
BLOCK
  8
0
  2
B1074805_00991053
 70
0
 10
0
 20
0
  0
TEXT
  8
1
 62
7
 40
2.413125
 41
0.75
  1
14
  7
STANDARD
 73
2
 10
-15.8265345859528
 20
6.97125
 11
-15.8265345859528
 21
6.97125
  0
LINE
  8
1
 62
7
 10
-7.3125
 20
-2.77875
 11
-7.3125
 21
-6.67875
  0
LINE
  8
1
 62
7
 10
-11.245
 20
-2.77875
 11
-11.245
 21
-6.67875
  0
LINE
  8
1
 62
7
 10
16.055
 20
5.02125
 11
16.055
 21
8.92125
  0
LINE
  8
1
 62
7
 10
8.255
 20
-2.77875
 11
8.255
 21
-6.67875
  0
LINE
  8
1
 62
7
 10
8.255
 20
8.92125
 11
8.255
 21
5.02125
  0
LINE
  8
1
 62
7
 10
12.155
 20
-2.77875
 11
12.155
 21
-6.67875
  0
LINE
  8
1
 62
7
 10
16.055
 20
-2.77875
 11
16.055
 21
-6.67875
  0
LINE
  8
1
 62
7
 10
-15.1125
 20
4.53375
 11
-11.2125
 21
4.53375
  0
LINE
  8
1
 62
7
 10
-15.1125
 20
5.02125
 11
-15.1125
 21
2.09625
  0
LINE
  8
1
 62
7
 10
-15.1125
 20
2.58375
 11
-11.2125
 21
2.58375
  0
LINE
  8
1
 62
7
 10
-11.2125
 20
1.12125
 11
-11.2125
 21
5.02125
  0
LINE
  8
1
 62
7
 10
-15.1125
 20
-2.77875
 11
-13.1625
 21
1.12125
  0
POLYLINE
  8
1
 62
7
 66
1
  0
VERTEX
  8
1
 62
7
 10
-17.0625
 20
1.12125000000003
  0
VERTEX
  8
1
 62
7
 10
-11.2125
 20
1.12125000000003
  0
VERTEX
  8
1
 62
7
 10
-11.2125
 20
-2.77874999999997
  0
VERTEX
  8
1
 62
7
 10
-17.0625
 20
-2.77874999999997
  0
VERTEX
  8
1
 62
7
 10
-17.0625
 20
1.12125000000003
  0
SEQEND
  8
1
  0
POLYLINE
  8
1
 62
7
  6
DOT
 66
1
  0
VERTEX
  8
1
 62
7
 10
23.8875
 20
-2.77874999999997
  0
VERTEX
  8
1
 62
7
 10
23.8875
 20
-4.72874999999996
  0
VERTEX
  8
1
 62
7
 10
-9.2625
 20
-4.72874999999996
  0
VERTEX
  8
1
 62
7
 10
-11.2125
 20
-2.77874999999997
  0
SEQEND
  8
1
  0
POLYLINE
  8
1
 62
7
 66
1
  0
VERTEX
  8
1
 62
7
 10
18.0375
 20
1.12125000000003
  0
VERTEX
  8
1
 62
7
 10
23.8875
 20
1.12125000000003
  0
VERTEX
  8
1
 62
7
 10
23.8875
 20
-2.77874999999997
  0
VERTEX
  8
1
 62
7
 10
18.0375
 20
-2.77874999999997
  0
VERTEX
  8
1
 62
7
 10
18.0375
 20
1.12125000000003
  0
SEQEND
  8
1
  0
LINE
  8
1
 62
7
 10
20.5100009252407
 20
-0.828749999999998
 11
23.8875
 21
1.12125
  0
LINE
  8
1
 62
7
 10
20.5100009252407
 20
-0.828749999999998
 11
18.0375
 21
-0.828749999999998
  0
LINE
  8
1
 62
7
 10
23.8875
 20
-2.77875
 11
20.5100009252407
 21
-0.828749999999998
  0
LINE
  8
1
 62
7
 10
-11.2125
 20
1.12125
 11
-11.2125
 21
-2.77875
  0
POLYLINE
  8
1
 62
7
 66
1
  0
VERTEX
  8
1
 62
7
 10
-11.2125
 20
1.12125000000003
  0
VERTEX
  8
1
 62
7
 10
-5.3625
 20
1.12125000000003
  0
VERTEX
  8
1
 62
7
 10
-5.3625
 20
-2.77874999999997
  0
VERTEX
  8
1
 62
7
 10
-11.2125
 20
-2.77874999999997
  0
VERTEX
  8
1
 62
7
 10
-11.2125
 20
1.12125000000003
  0
SEQEND
  8
1
  0
LINE
  8
1
 62
7
 10
-11.2125
 20
1.12125
 11
-7.83500092524069
 21
-0.828749999999998
  0
LINE
  8
1
 62
7
 10
-11.2125
 20
-2.77875
 11
-7.83500092524069
 21
-0.828749999999998
  0
LINE
  8
1
 62
7
 10
-3.4125
 20
-2.77875
 11
-3.4125
 21
-0.828749999999998
  0
INSERT
  8
1
  2
LCBP1
 10
-3.4125
 20
-0.828749999999998
 50
90
  0
POLYLINE
  8
1
 62
7
 66
1
  0
VERTEX
  8
1
 62
7
 10
-5.3625
 20
5.02125000000004
  0
VERTEX
  8
1
 62
7
 10
6.3375
 20
5.02125000000004
  0
VERTEX
  8
1
 62
7
 10
6.3375
 20
-2.77874999999997
  0
VERTEX
  8
1
 62
7
 10
-5.3625
 20
-2.77874999999997
  0
VERTEX
  8
1
 62
7
 10
-5.3625
 20
5.02125000000004
  0
SEQEND
  8
1
  0
LINE
  8
1
 62
7
 10
-3.4125
 20
5.02125
 11
0.4875
 21
-2.77875
  0
INSERT
  8
1
  2
LCA1
 10
0.4875
 20
-2.77875
 50
-63.434948822922
  0
INSERT
  8
1
  2
LCA1R
 10
-3.4125
 20
5.02125
 50
-63.434948822922
  0
LINE
  8
1
 62
7
 10
4.3875
 20
-2.77875
 11
4.3875
 21
5.02125
  0
INSERT
  8
1
  2
LCA1
 10
4.3875
 20
5.02125
 50
90
  0
INSERT
  8
1
  2
LCA1R
 10
4.3875
 20
-2.77875
 50
90
  0
LINE
  8
1
 62
7
 10
16.0875
 20
-2.77875
 11
16.0875
 21
-0.828749999999998
  0
INSERT
  8
1
  2
LCBP1
 10
16.0875
 20
-0.828749999999998
 50
90
  0
POLYLINE
  8
1
 62
7
 66
1
  0
VERTEX
  8
1
 62
7
 10
6.3375
 20
5.02125000000004
  0
VERTEX
  8
1
 62
7
 10
18.0375
 20
5.02125000000004
  0
VERTEX
  8
1
 62
7
 10
18.0375
 20
-2.77874999999997
  0
VERTEX
  8
1
 62
7
 10
6.3375
 20
-2.77874999999997
  0
VERTEX
  8
1
 62
7
 10
6.3375
 20
5.02125000000004
  0
SEQEND
  8
1
  0
LINE
  8
1
 62
7
 10
8.2875
 20
-2.77875
 11
8.2875
 21
5.02125
  0
INSERT
  8
1
  2
LCA1
 10
8.2875
 20
5.02125
 50
90
  0
INSERT
  8
1
  2
LCA1R
 10
8.2875
 20
-2.77875
 50
90
  0
LINE
  8
1
 62
7
 10
12.1875
 20
-2.77875
 11
16.0875
 21
5.02125
  0
INSERT
  8
1
  2
LCA1
 10
16.0875
 20
5.02125
 50
63.434948822922
  0
INSERT
  8
1
  2
LCA1R
 10
12.1875
 20
-2.77875
 50
63.434948822922
  0
CIRCLE
  8
CONNECTIONS
 62
7
 10
-7.3125
 20
-6.67875
 40
0
  0
CIRCLE
  8
CONNECTIONS
 62
7
 10
-11.245
 20
-6.67875
 40
0
  0
CIRCLE
  8
CONNECTIONS
 62
7
 10
8.255
 20
8.92125
 40
0
  0
CIRCLE
  8
CONNECTIONS
 62
7
 10
16.055
 20
8.92125
 40
0
  0
CIRCLE
  8
CONNECTIONS
 62
7
 10
16.055
 20
-6.67875
 40
0
  0
CIRCLE
  8
CONNECTIONS
 62
7
 10
12.155
 20
-6.67875
 40
0
  0
CIRCLE
  8
CONNECTIONS
 62
7
 10
8.255
 20
-6.67875
 40
0
  0
CIRCLE
  8
CONNECTIONS
 62
7
 10
-17.0773670291901
 20
-0.82875
 40
0
  0
ENDBLK
  8
0
  0
BLOCK
  8
0
  2
B1074814
 70
0
 10
0
 20
0
  0
LINE
  8
1
 62
7
 10
0
 20
0.8125
 11
0
 21
-0.8125
  0
LINE
  8
1
 62
7
 10
-1.3
 20
-0.8125
 11
1.3
 21
-0.8125
  0
CIRCLE
  8
CONNECTIONS
 62
7
 10
0
 20
0.8125
 40
0
  0
ENDBLK
  8
0
  0
BLOCK
  8
0
  2
B1074815
 70
0
 10
0
 20
0
  0
LINE
  8
1
 62
7
 10
0
 20
0.8125
 11
0
 21
-0.8125
  0
LINE
  8
1
 62
7
 10
-1.3
 20
-0.8125
 11
1.3
 21
-0.8125
  0
CIRCLE
  8
CONNECTIONS
 62
7
 10
0
 20
0.8125
 40
0
  0
ENDBLK
  8
0
  0
BLOCK
  8
0
  2
B1074816_00991473
 70
0
 10
0
 20
0
  0
LINE
  8
1
 62
7
 10
0.975
 20
-1.4625
 11
0
 21
-1.4625
  0
LINE
  8
1
 62
7
 10
-0.975
 20
-0.4875
 11
0
 21
-0.4875
  0
LINE
  8
1
 62
7
 10
0.975
 20
0.4875
 11
0
 21
0.4875
  0
POLYLINE
  8
1
 62
7
 66
1
  0
VERTEX
  8
1
 62
7
 10
0.975
 20
1.46250000000001
  0
VERTEX
  8
1
 62
7
 10
-0.975
 20
1.46250000000001
  0
VERTEX
  8
1
 62
7
 10
-0.975
 20
-2.4375
  0
VERTEX
  8
1
 62
7
 10
0.975
 20
-2.4375
  0
VERTEX
  8
1
 62
7
 10
0.975
 20
1.46250000000001
  0
SEQEND
  8
1
  0
LINE
  8
1
 62
7
 10
0
 20
3.4125
 11
0
 21
1.4625
  0
POLYLINE
  8
1
 62
7
 66
1
  0
VERTEX
  8
1
 62
7
 10
-0.4875
 20
-2.4375
  0
VERTEX
  8
1
 62
7
 10
0
 20
-3.41249999999999
  0
VERTEX
  8
1
 62
7
 10
0.4875
 20
-2.4375
  0
SEQEND
  8
1
  0
CIRCLE
  8
CONNECTIONS
 62
7
 10
0
 20
3.4125
 40
0
  0
ENDBLK
  8
0
  0
BLOCK
  8
0
  2
B1074817_00991473
 70
0
 10
0
 20
0
  0
LINE
  8
1
 62
7
 10
0.975
 20
-1.4625
 11
0
 21
-1.4625
  0
LINE
  8
1
 62
7
 10
-0.975
 20
-0.4875
 11
0
 21
-0.4875
  0
LINE
  8
1
 62
7
 10
0.975
 20
0.4875
 11
0
 21
0.4875
  0
POLYLINE
  8
1
 62
7
 66
1
  0
VERTEX
  8
1
 62
7
 10
0.975
 20
1.46250000000001
  0
VERTEX
  8
1
 62
7
 10
-0.975
 20
1.46250000000001
  0
VERTEX
  8
1
 62
7
 10
-0.975
 20
-2.4375
  0
VERTEX
  8
1
 62
7
 10
0.975
 20
-2.4375
  0
VERTEX
  8
1
 62
7
 10
0.975
 20
1.46250000000001
  0
SEQEND
  8
1
  0
LINE
  8
1
 62
7
 10
0
 20
3.4125
 11
0
 21
1.4625
  0
POLYLINE
  8
1
 62
7
 66
1
  0
VERTEX
  8
1
 62
7
 10
-0.4875
 20
-2.4375
  0
VERTEX
  8
1
 62
7
 10
0
 20
-3.41249999999999
  0
VERTEX
  8
1
 62
7
 10
0.4875
 20
-2.4375
  0
SEQEND
  8
1
  0
CIRCLE
  8
CONNECTIONS
 62
7
 10
0
 20
3.4125
 40
0
  0
ENDBLK
  8
0
  0
BLOCK
  8
0
  2
B1074804
 70
0
 10
0
 20
0
  0
ENDBLK
  8
0
  0
BLOCK
  8
0
  2
B1074818_00993166
 70
0
 10
0
 20
0
  0
LINE
  8
1
 62
7
 10
1.42749907475932
 20
0
 11
1.95
 21
0
  0
LINE
  8
1
 62
7
 10
1.42749907475931
 20
0
 11
-1.95
 21
1.95
  0
LINE
  8
1
 62
7
 10
-1.95
 20
1.95
 11
-1.95
 21
-1.95
  0
LINE
  8
1
 62
7
 10
1.42749907475931
 20
0
 11
-1.95
 21
-1.95
  0
CIRCLE
  8
CONNECTIONS
 62
7
 10
1.95000000000001
 20
0
 40
0
  0
ENDBLK
  8
0
  0
BLOCK
  8
0
  2
B1074820_00991008
 70
0
 10
0
 20
0
  0
TEXT
  8
1
 62
7
 40
2.413125
 41
0.75
  1
12
  7
STANDARD
 10
-13.7302845859528
 20
4.5703125
  0
LINE
  8
1
 62
7
 10
12.33375
 20
-4.46332321882248
 11
12.33375
 21
-8.36332321882248
  0
LINE
  8
1
 62
7
 10
8.43375
 20
-4.46332321882248
 11
8.43375
 21
-8.36332321882248
  0
LINE
  8
1
 62
7
 10
8.43375
 20
3.33667678117752
 11
8.43375
 21
7.23667678117752
  0
POLYLINE
  8
1
 62
7
 66
1
  0
VERTEX
  8
1
 62
7
 10
19.15875
 20
-2.51332321882248
  0
VERTEX
  8
1
 62
7
 10
18.7525
 20
-4.46332321882247
  0
VERTEX
  8
1
 62
7
 10
17.94
 20
-0.563323218822461
  0
VERTEX
  8
1
 62
7
 10
17.1275
 20
-4.46332321882247
  0
VERTEX
  8
1
 62
7
 10
16.315
 20
-0.563323218822461
  0
VERTEX
  8
1
 62
7
 10
15.5025
 20
-4.46332321882247
  0
VERTEX
  8
1
 62
7
 10
14.69
 20
-0.563323218822461
  0
VERTEX
  8
1
 62
7
 10
14.28375
 20
-2.51332321882248
  0
SEQEND
  8
1
  0
LINE
  8
1
 62
7
 10
-11.06625
 20
-4.46332321882248
 11
-9.11625
 21
-0.563323218822481
  0
POLYLINE
  8
1
 62
7
 66
1
  0
VERTEX
  8
1
 62
7
 10
-13.01625
 20
-0.563323218822461
  0
VERTEX
  8
1
 62
7
 10
-7.16625
 20
-0.563323218822461
  0
VERTEX
  8
1
 62
7
 10
-7.16625
 20
-4.46332321882247
  0
VERTEX
  8
1
 62
7
 10
-13.01625
 20
-4.46332321882247
  0
VERTEX
  8
1
 62
7
 10
-13.01625
 20
-0.563323218822461
  0
SEQEND
  8
1
  0
LINE
  8
1
 62
7
 10
-7.16625
 20
-0.563323218822481
 11
-7.16625
 21
-4.46332321882248
  0
POLYLINE
  8
1
 62
7
 66
1
  0
VERTEX
  8
1
 62
7
 10
-7.16625
 20
-0.563323218822461
  0
VERTEX
  8
1
 62
7
 10
-1.31625
 20
-0.563323218822461
  0
VERTEX
  8
1
 62
7
 10
-1.31625
 20
-4.46332321882247
  0
VERTEX
  8
1
 62
7
 10
-7.16625
 20
-4.46332321882247
  0
VERTEX
  8
1
 62
7
 10
-7.16625
 20
-0.563323218822461
  0
SEQEND
  8
1
  0
LINE
  8
1
 62
7
 10
-7.16625
 20
-0.563323218822481
 11
-3.78875092524069
 21
-2.51332321882248
  0
LINE
  8
1
 62
7
 10
-7.16625
 20
-4.46332321882248
 11
-3.78875092524069
 21
-2.51332321882248
  0
LINE
  8
1
 62
7
 10
-11.06625
 20
2.84917678117752
 11
-7.16625
 21
2.84917678117752
  0
LINE
  8
1
 62
7
 10
-11.06625
 20
3.33667678117752
 11
-11.06625
 21
0.411676781177519
  0
LINE
  8
1
 62
7
 10
-11.06625
 20
0.899176781177519
 11
-7.16625
 21
0.899176781177519
  0
LINE
  8
1
 62
7
 10
-7.16625
 20
-0.563323218822481
 11
-7.16625
 21
3.33667678117752
  0
LINE
  8
1
 62
7
 10
8.43375
 20
-4.46332321882248
 11
8.43375
 21
-2.51332321882248
  0
INSERT
  8
1
  2
LCBP1
 10
8.43375
 20
-2.51332321882248
 50
90
  0
POLYLINE
  8
1
 62
7
 66
1
  0
VERTEX
  8
1
 62
7
 10
6.48375
 20
3.33667678117752
  0
VERTEX
  8
1
 62
7
 10
14.28375
 20
3.33667678117752
  0
VERTEX
  8
1
 62
7
 10
14.28375
 20
-4.46332321882247
  0
VERTEX
  8
1
 62
7
 10
6.48375
 20
-4.46332321882247
  0
VERTEX
  8
1
 62
7
 10
6.48375
 20
3.33667678117752
  0
SEQEND
  8
1
  0
LINE
  8
1
 62
7
 10
8.43375
 20
3.33667678117752
 11
12.33375
 21
-4.46332321882248
  0
INSERT
  8
1
  2
LCA1
 10
12.33375
 20
-4.46332321882248
 50
-63.434948822922
  0
POLYLINE
  8
1
 62
7
 66
1
  0
VERTEX
  8
1
 62
7
 10
-1.31625
 20
3.33667678117752
  0
VERTEX
  8
1
 62
7
 10
6.48375
 20
3.33667678117752
  0
VERTEX
  8
1
 62
7
 10
6.48375
 20
-4.46332321882247
  0
VERTEX
  8
1
 62
7
 10
-1.31625
 20
-4.46332321882247
  0
VERTEX
  8
1
 62
7
 10
-1.31625
 20
3.33667678117752
  0
SEQEND
  8
1
  0
LINE
  8
1
 62
7
 10
4.53375
 20
-4.46332321882248
 11
4.53375
 21
-2.51332321882248
  0
INSERT
  8
1
  2
LCBP1
 10
4.53375
 20
-2.51332321882248
 50
90
  0
LINE
  8
1
 62
7
 10
0.633750000000003
 20
-4.46332321882248
 11
0.633750000000003
 21
3.33667678117752
  0
INSERT
  8
1
  2
LCA1
 10
0.633750000000003
 20
3.33667678117752
 50
90
  0
CIRCLE
  8
CONNECTIONS
 62
7
 10
-13.0311170291901
 20
-2.61082321882248
 40
0
  0
CIRCLE
  8
CONNECTIONS
 62
7
 10
8.43375
 20
7.23667678117752
 40
0
  0
CIRCLE
  8
CONNECTIONS
 62
7
 10
8.43375
 20
-8.36332321882248
 40
0
  0
CIRCLE
  8
CONNECTIONS
 62
7
 10
12.33375
 20
-8.36332321882248
 40
0
  0
ENDBLK
  8
0
  0
BLOCK
  8
0
  2
B1074829
 70
0
 10
0
 20
0
  0
TEXT
  8
1
 62
7
 40
2.34
 41
0.75
  1
3
  7
STANDARD
 73
3
 10
-1.63599046468735
 20
1.65783818006516
 11
-1.63599046468735
 21
1.65783818006516
  0
ENDBLK
  8
0
  0
BLOCK
  8
0
  2
B1074830
 70
0
 10
0
 20
0
  0
TEXT
  8
1
 62
7
 40
2.34
 41
0.75
  1
1
  7
STANDARD
 72
2
 73
3
 10
1.63599046468735
 20
1.65783818006516
 11
1.63599046468735
 21
1.65783818006516
  0
ENDBLK
  8
0
  0
BLOCK
  8
0
  2
B1074831
 70
0
 10
0
 20
0
  0
TEXT
  8
1
 62
7
 40
2.34
 41
0.75
  1
2
  7
STANDARD
 72
2
 73
3
 10
1.63599046468735
 20
1.65783818006516
 11
1.63599046468735
 21
1.65783818006516
  0
ENDBLK
  8
0
  0
BLOCK
  8
0
  2
B1074834_00991053
 70
0
 10
0
 20
0
  0
TEXT
  8
1
 62
7
 40
2.413125
 41
0.75
  1
14
  7
STANDARD
 73
2
 10
-15.8265345859528
 20
6.97125
 11
-15.8265345859528
 21
6.97125
  0
LINE
  8
1
 62
7
 10
-7.3125
 20
-2.77875
 11
-7.3125
 21
-6.67875
  0
LINE
  8
1
 62
7
 10
-11.245
 20
-2.77875
 11
-11.245
 21
-6.67875
  0
LINE
  8
1
 62
7
 10
16.055
 20
5.02125
 11
16.055
 21
8.92125
  0
LINE
  8
1
 62
7
 10
8.255
 20
-2.77875
 11
8.255
 21
-6.67875
  0
LINE
  8
1
 62
7
 10
8.255
 20
8.92125
 11
8.255
 21
5.02125
  0
LINE
  8
1
 62
7
 10
12.155
 20
-2.77875
 11
12.155
 21
-6.67875
  0
LINE
  8
1
 62
7
 10
16.055
 20
-2.77875
 11
16.055
 21
-6.67875
  0
LINE
  8
1
 62
7
 10
-15.1125
 20
4.53375
 11
-11.2125
 21
4.53375
  0
LINE
  8
1
 62
7
 10
-15.1125
 20
5.02125
 11
-15.1125
 21
2.09625
  0
LINE
  8
1
 62
7
 10
-15.1125
 20
2.58375
 11
-11.2125
 21
2.58375
  0
LINE
  8
1
 62
7
 10
-11.2125
 20
1.12125
 11
-11.2125
 21
5.02125
  0
LINE
  8
1
 62
7
 10
-15.1125
 20
-2.77875
 11
-13.1625
 21
1.12125
  0
POLYLINE
  8
1
 62
7
 66
1
  0
VERTEX
  8
1
 62
7
 10
-17.0625
 20
1.12125000000003
  0
VERTEX
  8
1
 62
7
 10
-11.2125
 20
1.12125000000003
  0
VERTEX
  8
1
 62
7
 10
-11.2125
 20
-2.77874999999997
  0
VERTEX
  8
1
 62
7
 10
-17.0625
 20
-2.77874999999997
  0
VERTEX
  8
1
 62
7
 10
-17.0625
 20
1.12125000000003
  0
SEQEND
  8
1
  0
POLYLINE
  8
1
 62
7
  6
DOT
 66
1
  0
VERTEX
  8
1
 62
7
 10
23.8875
 20
-2.77874999999997
  0
VERTEX
  8
1
 62
7
 10
23.8875
 20
-4.72874999999996
  0
VERTEX
  8
1
 62
7
 10
-9.2625
 20
-4.72874999999996
  0
VERTEX
  8
1
 62
7
 10
-11.2125
 20
-2.77874999999997
  0
SEQEND
  8
1
  0
POLYLINE
  8
1
 62
7
 66
1
  0
VERTEX
  8
1
 62
7
 10
18.0375
 20
1.12125000000003
  0
VERTEX
  8
1
 62
7
 10
23.8875
 20
1.12125000000003
  0
VERTEX
  8
1
 62
7
 10
23.8875
 20
-2.77874999999997
  0
VERTEX
  8
1
 62
7
 10
18.0375
 20
-2.77874999999997
  0
VERTEX
  8
1
 62
7
 10
18.0375
 20
1.12125000000003
  0
SEQEND
  8
1
  0
LINE
  8
1
 62
7
 10
20.5100009252407
 20
-0.828749999999998
 11
23.8875
 21
1.12125
  0
LINE
  8
1
 62
7
 10
20.5100009252407
 20
-0.828749999999998
 11
18.0375
 21
-0.828749999999998
  0
LINE
  8
1
 62
7
 10
23.8875
 20
-2.77875
 11
20.5100009252407
 21
-0.828749999999998
  0
LINE
  8
1
 62
7
 10
-11.2125
 20
1.12125
 11
-11.2125
 21
-2.77875
  0
POLYLINE
  8
1
 62
7
 66
1
  0
VERTEX
  8
1
 62
7
 10
-11.2125
 20
1.12125000000003
  0
VERTEX
  8
1
 62
7
 10
-5.3625
 20
1.12125000000003
  0
VERTEX
  8
1
 62
7
 10
-5.3625
 20
-2.77874999999997
  0
VERTEX
  8
1
 62
7
 10
-11.2125
 20
-2.77874999999997
  0
VERTEX
  8
1
 62
7
 10
-11.2125
 20
1.12125000000003
  0
SEQEND
  8
1
  0
LINE
  8
1
 62
7
 10
-11.2125
 20
1.12125
 11
-7.83500092524069
 21
-0.828749999999998
  0
LINE
  8
1
 62
7
 10
-11.2125
 20
-2.77875
 11
-7.83500092524069
 21
-0.828749999999998
  0
LINE
  8
1
 62
7
 10
-3.4125
 20
-2.77875
 11
-3.4125
 21
-0.828749999999998
  0
INSERT
  8
1
  2
LCBP1
 10
-3.4125
 20
-0.828749999999998
 50
90
  0
POLYLINE
  8
1
 62
7
 66
1
  0
VERTEX
  8
1
 62
7
 10
-5.3625
 20
5.02125000000004
  0
VERTEX
  8
1
 62
7
 10
6.3375
 20
5.02125000000004
  0
VERTEX
  8
1
 62
7
 10
6.3375
 20
-2.77874999999997
  0
VERTEX
  8
1
 62
7
 10
-5.3625
 20
-2.77874999999997
  0
VERTEX
  8
1
 62
7
 10
-5.3625
 20
5.02125000000004
  0
SEQEND
  8
1
  0
LINE
  8
1
 62
7
 10
-3.4125
 20
5.02125
 11
0.4875
 21
-2.77875
  0
INSERT
  8
1
  2
LCA1
 10
0.4875
 20
-2.77875
 50
-63.434948822922
  0
INSERT
  8
1
  2
LCA1R
 10
-3.4125
 20
5.02125
 50
-63.434948822922
  0
LINE
  8
1
 62
7
 10
4.3875
 20
-2.77875
 11
4.3875
 21
5.02125
  0
INSERT
  8
1
  2
LCA1
 10
4.3875
 20
5.02125
 50
90
  0
INSERT
  8
1
  2
LCA1R
 10
4.3875
 20
-2.77875
 50
90
  0
LINE
  8
1
 62
7
 10
16.0875
 20
-2.77875
 11
16.0875
 21
-0.828749999999998
  0
INSERT
  8
1
  2
LCBP1
 10
16.0875
 20
-0.828749999999998
 50
90
  0
POLYLINE
  8
1
 62
7
 66
1
  0
VERTEX
  8
1
 62
7
 10
6.3375
 20
5.02125000000004
  0
VERTEX
  8
1
 62
7
 10
18.0375
 20
5.02125000000004
  0
VERTEX
  8
1
 62
7
 10
18.0375
 20
-2.77874999999997
  0
VERTEX
  8
1
 62
7
 10
6.3375
 20
-2.77874999999997
  0
VERTEX
  8
1
 62
7
 10
6.3375
 20
5.02125000000004
  0
SEQEND
  8
1
  0
LINE
  8
1
 62
7
 10
8.2875
 20
-2.77875
 11
8.2875
 21
5.02125
  0
INSERT
  8
1
  2
LCA1
 10
8.2875
 20
5.02125
 50
90
  0
INSERT
  8
1
  2
LCA1R
 10
8.2875
 20
-2.77875
 50
90
  0
LINE
  8
1
 62
7
 10
12.1875
 20
-2.77875
 11
16.0875
 21
5.02125
  0
INSERT
  8
1
  2
LCA1
 10
16.0875
 20
5.02125
 50
63.434948822922
  0
INSERT
  8
1
  2
LCA1R
 10
12.1875
 20
-2.77875
 50
63.434948822922
  0
CIRCLE
  8
CONNECTIONS
 62
7
 10
-7.3125
 20
-6.67875
 40
0
  0
CIRCLE
  8
CONNECTIONS
 62
7
 10
-11.245
 20
-6.67875
 40
0
  0
CIRCLE
  8
CONNECTIONS
 62
7
 10
8.255
 20
8.92125
 40
0
  0
CIRCLE
  8
CONNECTIONS
 62
7
 10
16.055
 20
8.92125
 40
0
  0
CIRCLE
  8
CONNECTIONS
 62
7
 10
16.055
 20
-6.67875
 40
0
  0
CIRCLE
  8
CONNECTIONS
 62
7
 10
12.155
 20
-6.67875
 40
0
  0
CIRCLE
  8
CONNECTIONS
 62
7
 10
8.255
 20
-6.67875
 40
0
  0
CIRCLE
  8
CONNECTIONS
 62
7
 10
-17.0773670291901
 20
-0.82875
 40
0
  0
ENDBLK
  8
0
  0
BLOCK
  8
0
  2
B1074843_00991473
 70
0
 10
0
 20
0
  0
LINE
  8
1
 62
7
 10
0.975
 20
-1.4625
 11
0
 21
-1.4625
  0
LINE
  8
1
 62
7
 10
-0.975
 20
-0.4875
 11
0
 21
-0.4875
  0
LINE
  8
1
 62
7
 10
0.975
 20
0.4875
 11
0
 21
0.4875
  0
POLYLINE
  8
1
 62
7
 66
1
  0
VERTEX
  8
1
 62
7
 10
0.975
 20
1.46250000000001
  0
VERTEX
  8
1
 62
7
 10
-0.975
 20
1.46250000000001
  0
VERTEX
  8
1
 62
7
 10
-0.975
 20
-2.4375
  0
VERTEX
  8
1
 62
7
 10
0.975
 20
-2.4375
  0
VERTEX
  8
1
 62
7
 10
0.975
 20
1.46250000000001
  0
SEQEND
  8
1
  0
LINE
  8
1
 62
7
 10
0
 20
3.4125
 11
0
 21
1.4625
  0
POLYLINE
  8
1
 62
7
 66
1
  0
VERTEX
  8
1
 62
7
 10
-0.4875
 20
-2.4375
  0
VERTEX
  8
1
 62
7
 10
0
 20
-3.41249999999999
  0
VERTEX
  8
1
 62
7
 10
0.4875
 20
-2.4375
  0
SEQEND
  8
1
  0
CIRCLE
  8
CONNECTIONS
 62
7
 10
0
 20
3.4125
 40
0
  0
ENDBLK
  8
0
  0
BLOCK
  8
0
  2
B1074844_00991473
 70
0
 10
0
 20
0
  0
LINE
  8
1
 62
7
 10
0.975
 20
-1.4625
 11
0
 21
-1.4625
  0
LINE
  8
1
 62
7
 10
-0.975
 20
-0.4875
 11
0
 21
-0.4875
  0
LINE
  8
1
 62
7
 10
0.975
 20
0.4875
 11
0
 21
0.4875
  0
POLYLINE
  8
1
 62
7
 66
1
  0
VERTEX
  8
1
 62
7
 10
0.975
 20
1.46250000000001
  0
VERTEX
  8
1
 62
7
 10
-0.975
 20
1.46250000000001
  0
VERTEX
  8
1
 62
7
 10
-0.975
 20
-2.4375
  0
VERTEX
  8
1
 62
7
 10
0.975
 20
-2.4375
  0
VERTEX
  8
1
 62
7
 10
0.975
 20
1.46250000000001
  0
SEQEND
  8
1
  0
LINE
  8
1
 62
7
 10
0
 20
3.4125
 11
0
 21
1.4625
  0
POLYLINE
  8
1
 62
7
 66
1
  0
VERTEX
  8
1
 62
7
 10
-0.4875
 20
-2.4375
  0
VERTEX
  8
1
 62
7
 10
0
 20
-3.41249999999999
  0
VERTEX
  8
1
 62
7
 10
0.4875
 20
-2.4375
  0
SEQEND
  8
1
  0
CIRCLE
  8
CONNECTIONS
 62
7
 10
0
 20
3.4125
 40
0
  0
ENDBLK
  8
0
  0
BLOCK
  8
0
  2
B1074833
 70
0
 10
0
 20
0
  0
ENDBLK
  8
0
  0
BLOCK
  8
0
  2
B1074846_00991053
 70
0
 10
0
 20
0
  0
TEXT
  8
1
 62
7
 40
2.413125
 41
0.75
  1
14
  7
STANDARD
 73
2
 10
-15.8265345859528
 20
6.97125
 11
-15.8265345859528
 21
6.97125
  0
LINE
  8
1
 62
7
 10
-7.3125
 20
-2.77875
 11
-7.3125
 21
-6.67875
  0
LINE
  8
1
 62
7
 10
-11.245
 20
-2.77875
 11
-11.245
 21
-6.67875
  0
LINE
  8
1
 62
7
 10
16.055
 20
5.02125
 11
16.055
 21
8.92125
  0
LINE
  8
1
 62
7
 10
8.255
 20
-2.77875
 11
8.255
 21
-6.67875
  0
LINE
  8
1
 62
7
 10
8.255
 20
8.92125
 11
8.255
 21
5.02125
  0
LINE
  8
1
 62
7
 10
12.155
 20
-2.77875
 11
12.155
 21
-6.67875
  0
LINE
  8
1
 62
7
 10
16.055
 20
-2.77875
 11
16.055
 21
-6.67875
  0
LINE
  8
1
 62
7
 10
-15.1125
 20
4.53375
 11
-11.2125
 21
4.53375
  0
LINE
  8
1
 62
7
 10
-15.1125
 20
5.02125
 11
-15.1125
 21
2.09625
  0
LINE
  8
1
 62
7
 10
-15.1125
 20
2.58375
 11
-11.2125
 21
2.58375
  0
LINE
  8
1
 62
7
 10
-11.2125
 20
1.12125
 11
-11.2125
 21
5.02125
  0
LINE
  8
1
 62
7
 10
-15.1125
 20
-2.77875
 11
-13.1625
 21
1.12125
  0
POLYLINE
  8
1
 62
7
 66
1
  0
VERTEX
  8
1
 62
7
 10
-17.0625
 20
1.12125000000003
  0
VERTEX
  8
1
 62
7
 10
-11.2125
 20
1.12125000000003
  0
VERTEX
  8
1
 62
7
 10
-11.2125
 20
-2.77874999999997
  0
VERTEX
  8
1
 62
7
 10
-17.0625
 20
-2.77874999999997
  0
VERTEX
  8
1
 62
7
 10
-17.0625
 20
1.12125000000003
  0
SEQEND
  8
1
  0
POLYLINE
  8
1
 62
7
  6
DOT
 66
1
  0
VERTEX
  8
1
 62
7
 10
23.8875
 20
-2.77874999999997
  0
VERTEX
  8
1
 62
7
 10
23.8875
 20
-4.72874999999996
  0
VERTEX
  8
1
 62
7
 10
-9.2625
 20
-4.72874999999996
  0
VERTEX
  8
1
 62
7
 10
-11.2125
 20
-2.77874999999997
  0
SEQEND
  8
1
  0
POLYLINE
  8
1
 62
7
 66
1
  0
VERTEX
  8
1
 62
7
 10
18.0375
 20
1.12125000000003
  0
VERTEX
  8
1
 62
7
 10
23.8875
 20
1.12125000000003
  0
VERTEX
  8
1
 62
7
 10
23.8875
 20
-2.77874999999997
  0
VERTEX
  8
1
 62
7
 10
18.0375
 20
-2.77874999999997
  0
VERTEX
  8
1
 62
7
 10
18.0375
 20
1.12125000000003
  0
SEQEND
  8
1
  0
LINE
  8
1
 62
7
 10
20.5100009252407
 20
-0.828749999999998
 11
23.8875
 21
1.12125
  0
LINE
  8
1
 62
7
 10
20.5100009252407
 20
-0.828749999999998
 11
18.0375
 21
-0.828749999999998
  0
LINE
  8
1
 62
7
 10
23.8875
 20
-2.77875
 11
20.5100009252407
 21
-0.828749999999998
  0
LINE
  8
1
 62
7
 10
-11.2125
 20
1.12125
 11
-11.2125
 21
-2.77875
  0
POLYLINE
  8
1
 62
7
 66
1
  0
VERTEX
  8
1
 62
7
 10
-11.2125
 20
1.12125000000003
  0
VERTEX
  8
1
 62
7
 10
-5.3625
 20
1.12125000000003
  0
VERTEX
  8
1
 62
7
 10
-5.3625
 20
-2.77874999999997
  0
VERTEX
  8
1
 62
7
 10
-11.2125
 20
-2.77874999999997
  0
VERTEX
  8
1
 62
7
 10
-11.2125
 20
1.12125000000003
  0
SEQEND
  8
1
  0
LINE
  8
1
 62
7
 10
-11.2125
 20
1.12125
 11
-7.83500092524069
 21
-0.828749999999998
  0
LINE
  8
1
 62
7
 10
-11.2125
 20
-2.77875
 11
-7.83500092524069
 21
-0.828749999999998
  0
LINE
  8
1
 62
7
 10
-3.4125
 20
-2.77875
 11
-3.4125
 21
-0.828749999999998
  0
INSERT
  8
1
  2
LCBP1
 10
-3.4125
 20
-0.828749999999998
 50
90
  0
POLYLINE
  8
1
 62
7
 66
1
  0
VERTEX
  8
1
 62
7
 10
-5.3625
 20
5.02125000000004
  0
VERTEX
  8
1
 62
7
 10
6.3375
 20
5.02125000000004
  0
VERTEX
  8
1
 62
7
 10
6.3375
 20
-2.77874999999997
  0
VERTEX
  8
1
 62
7
 10
-5.3625
 20
-2.77874999999997
  0
VERTEX
  8
1
 62
7
 10
-5.3625
 20
5.02125000000004
  0
SEQEND
  8
1
  0
LINE
  8
1
 62
7
 10
-3.4125
 20
5.02125
 11
0.4875
 21
-2.77875
  0
INSERT
  8
1
  2
LCA1
 10
0.4875
 20
-2.77875
 50
-63.434948822922
  0
INSERT
  8
1
  2
LCA1R
 10
-3.4125
 20
5.02125
 50
-63.434948822922
  0
LINE
  8
1
 62
7
 10
4.3875
 20
-2.77875
 11
4.3875
 21
5.02125
  0
INSERT
  8
1
  2
LCA1
 10
4.3875
 20
5.02125
 50
90
  0
INSERT
  8
1
  2
LCA1R
 10
4.3875
 20
-2.77875
 50
90
  0
LINE
  8
1
 62
7
 10
16.0875
 20
-2.77875
 11
16.0875
 21
-0.828749999999998
  0
INSERT
  8
1
  2
LCBP1
 10
16.0875
 20
-0.828749999999998
 50
90
  0
POLYLINE
  8
1
 62
7
 66
1
  0
VERTEX
  8
1
 62
7
 10
6.3375
 20
5.02125000000004
  0
VERTEX
  8
1
 62
7
 10
18.0375
 20
5.02125000000004
  0
VERTEX
  8
1
 62
7
 10
18.0375
 20
-2.77874999999997
  0
VERTEX
  8
1
 62
7
 10
6.3375
 20
-2.77874999999997
  0
VERTEX
  8
1
 62
7
 10
6.3375
 20
5.02125000000004
  0
SEQEND
  8
1
  0
LINE
  8
1
 62
7
 10
8.2875
 20
-2.77875
 11
8.2875
 21
5.02125
  0
INSERT
  8
1
  2
LCA1
 10
8.2875
 20
5.02125
 50
90
  0
INSERT
  8
1
  2
LCA1R
 10
8.2875
 20
-2.77875
 50
90
  0
LINE
  8
1
 62
7
 10
12.1875
 20
-2.77875
 11
16.0875
 21
5.02125
  0
INSERT
  8
1
  2
LCA1
 10
16.0875
 20
5.02125
 50
63.434948822922
  0
INSERT
  8
1
  2
LCA1R
 10
12.1875
 20
-2.77875
 50
63.434948822922
  0
CIRCLE
  8
CONNECTIONS
 62
7
 10
-7.3125
 20
-6.67875
 40
0
  0
CIRCLE
  8
CONNECTIONS
 62
7
 10
-11.245
 20
-6.67875
 40
0
  0
CIRCLE
  8
CONNECTIONS
 62
7
 10
8.255
 20
8.92125
 40
0
  0
CIRCLE
  8
CONNECTIONS
 62
7
 10
16.055
 20
8.92125
 40
0
  0
CIRCLE
  8
CONNECTIONS
 62
7
 10
16.055
 20
-6.67875
 40
0
  0
CIRCLE
  8
CONNECTIONS
 62
7
 10
12.155
 20
-6.67875
 40
0
  0
CIRCLE
  8
CONNECTIONS
 62
7
 10
8.255
 20
-6.67875
 40
0
  0
CIRCLE
  8
CONNECTIONS
 62
7
 10
-17.0773670291901
 20
-0.82875
 40
0
  0
ENDBLK
  8
0
  0
BLOCK
  8
0
  2
B1074855_00991473
 70
0
 10
0
 20
0
  0
LINE
  8
1
 62
7
 10
0.975
 20
-1.4625
 11
0
 21
-1.4625
  0
LINE
  8
1
 62
7
 10
-0.975
 20
-0.4875
 11
0
 21
-0.4875
  0
LINE
  8
1
 62
7
 10
0.975
 20
0.4875
 11
0
 21
0.4875
  0
POLYLINE
  8
1
 62
7
 66
1
  0
VERTEX
  8
1
 62
7
 10
0.975
 20
1.46250000000001
  0
VERTEX
  8
1
 62
7
 10
-0.975
 20
1.46250000000001
  0
VERTEX
  8
1
 62
7
 10
-0.975
 20
-2.4375
  0
VERTEX
  8
1
 62
7
 10
0.975
 20
-2.4375
  0
VERTEX
  8
1
 62
7
 10
0.975
 20
1.46250000000001
  0
SEQEND
  8
1
  0
LINE
  8
1
 62
7
 10
0
 20
3.4125
 11
0
 21
1.4625
  0
POLYLINE
  8
1
 62
7
 66
1
  0
VERTEX
  8
1
 62
7
 10
-0.4875
 20
-2.4375
  0
VERTEX
  8
1
 62
7
 10
0
 20
-3.41249999999999
  0
VERTEX
  8
1
 62
7
 10
0.4875
 20
-2.4375
  0
SEQEND
  8
1
  0
CIRCLE
  8
CONNECTIONS
 62
7
 10
0
 20
3.4125
 40
0
  0
ENDBLK
  8
0
  0
BLOCK
  8
0
  2
B1074856_00991473
 70
0
 10
0
 20
0
  0
LINE
  8
1
 62
7
 10
0.975
 20
-1.4625
 11
0
 21
-1.4625
  0
LINE
  8
1
 62
7
 10
-0.975
 20
-0.4875
 11
0
 21
-0.4875
  0
LINE
  8
1
 62
7
 10
0.975
 20
0.4875
 11
0
 21
0.4875
  0
POLYLINE
  8
1
 62
7
 66
1
  0
VERTEX
  8
1
 62
7
 10
0.975
 20
1.46250000000001
  0
VERTEX
  8
1
 62
7
 10
-0.975
 20
1.46250000000001
  0
VERTEX
  8
1
 62
7
 10
-0.975
 20
-2.4375
  0
VERTEX
  8
1
 62
7
 10
0.975
 20
-2.4375
  0
VERTEX
  8
1
 62
7
 10
0.975
 20
1.46250000000001
  0
SEQEND
  8
1
  0
LINE
  8
1
 62
7
 10
0
 20
3.4125
 11
0
 21
1.4625
  0
POLYLINE
  8
1
 62
7
 66
1
  0
VERTEX
  8
1
 62
7
 10
-0.4875
 20
-2.4375
  0
VERTEX
  8
1
 62
7
 10
0
 20
-3.41249999999999
  0
VERTEX
  8
1
 62
7
 10
0.4875
 20
-2.4375
  0
SEQEND
  8
1
  0
CIRCLE
  8
CONNECTIONS
 62
7
 10
0
 20
3.4125
 40
0
  0
ENDBLK
  8
0
  0
BLOCK
  8
0
  2
B1074845
 70
0
 10
0
 20
0
  0
ENDBLK
  8
0
  0
BLOCK
  8
0
  2
B1074858_00991053
 70
0
 10
0
 20
0
  0
TEXT
  8
1
 62
7
 40
2.413125
 41
0.75
  1
14
  7
STANDARD
 73
2
 10
-15.8265345859528
 20
6.97125
 11
-15.8265345859528
 21
6.97125
  0
LINE
  8
1
 62
7
 10
-7.3125
 20
-2.77875
 11
-7.3125
 21
-6.67875
  0
LINE
  8
1
 62
7
 10
-11.245
 20
-2.77875
 11
-11.245
 21
-6.67875
  0
LINE
  8
1
 62
7
 10
16.055
 20
5.02125
 11
16.055
 21
8.92125
  0
LINE
  8
1
 62
7
 10
8.255
 20
-2.77875
 11
8.255
 21
-6.67875
  0
LINE
  8
1
 62
7
 10
8.255
 20
8.92125
 11
8.255
 21
5.02125
  0
LINE
  8
1
 62
7
 10
12.155
 20
-2.77875
 11
12.155
 21
-6.67875
  0
LINE
  8
1
 62
7
 10
16.055
 20
-2.77875
 11
16.055
 21
-6.67875
  0
LINE
  8
1
 62
7
 10
-15.1125
 20
4.53375
 11
-11.2125
 21
4.53375
  0
LINE
  8
1
 62
7
 10
-15.1125
 20
5.02125
 11
-15.1125
 21
2.09625
  0
LINE
  8
1
 62
7
 10
-15.1125
 20
2.58375
 11
-11.2125
 21
2.58375
  0
LINE
  8
1
 62
7
 10
-11.2125
 20
1.12125
 11
-11.2125
 21
5.02125
  0
LINE
  8
1
 62
7
 10
-15.1125
 20
-2.77875
 11
-13.1625
 21
1.12125
  0
POLYLINE
  8
1
 62
7
 66
1
  0
VERTEX
  8
1
 62
7
 10
-17.0625
 20
1.12125000000003
  0
VERTEX
  8
1
 62
7
 10
-11.2125
 20
1.12125000000003
  0
VERTEX
  8
1
 62
7
 10
-11.2125
 20
-2.77874999999997
  0
VERTEX
  8
1
 62
7
 10
-17.0625
 20
-2.77874999999997
  0
VERTEX
  8
1
 62
7
 10
-17.0625
 20
1.12125000000003
  0
SEQEND
  8
1
  0
POLYLINE
  8
1
 62
7
  6
DOT
 66
1
  0
VERTEX
  8
1
 62
7
 10
23.8875
 20
-2.77874999999997
  0
VERTEX
  8
1
 62
7
 10
23.8875
 20
-4.72874999999996
  0
VERTEX
  8
1
 62
7
 10
-9.2625
 20
-4.72874999999996
  0
VERTEX
  8
1
 62
7
 10
-11.2125
 20
-2.77874999999997
  0
SEQEND
  8
1
  0
POLYLINE
  8
1
 62
7
 66
1
  0
VERTEX
  8
1
 62
7
 10
18.0375
 20
1.12125000000003
  0
VERTEX
  8
1
 62
7
 10
23.8875
 20
1.12125000000003
  0
VERTEX
  8
1
 62
7
 10
23.8875
 20
-2.77874999999997
  0
VERTEX
  8
1
 62
7
 10
18.0375
 20
-2.77874999999997
  0
VERTEX
  8
1
 62
7
 10
18.0375
 20
1.12125000000003
  0
SEQEND
  8
1
  0
LINE
  8
1
 62
7
 10
20.5100009252407
 20
-0.828749999999998
 11
23.8875
 21
1.12125
  0
LINE
  8
1
 62
7
 10
20.5100009252407
 20
-0.828749999999998
 11
18.0375
 21
-0.828749999999998
  0
LINE
  8
1
 62
7
 10
23.8875
 20
-2.77875
 11
20.5100009252407
 21
-0.828749999999998
  0
LINE
  8
1
 62
7
 10
-11.2125
 20
1.12125
 11
-11.2125
 21
-2.77875
  0
POLYLINE
  8
1
 62
7
 66
1
  0
VERTEX
  8
1
 62
7
 10
-11.2125
 20
1.12125000000003
  0
VERTEX
  8
1
 62
7
 10
-5.3625
 20
1.12125000000003
  0
VERTEX
  8
1
 62
7
 10
-5.3625
 20
-2.77874999999997
  0
VERTEX
  8
1
 62
7
 10
-11.2125
 20
-2.77874999999997
  0
VERTEX
  8
1
 62
7
 10
-11.2125
 20
1.12125000000003
  0
SEQEND
  8
1
  0
LINE
  8
1
 62
7
 10
-11.2125
 20
1.12125
 11
-7.83500092524069
 21
-0.828749999999998
  0
LINE
  8
1
 62
7
 10
-11.2125
 20
-2.77875
 11
-7.83500092524069
 21
-0.828749999999998
  0
LINE
  8
1
 62
7
 10
-3.4125
 20
-2.77875
 11
-3.4125
 21
-0.828749999999998
  0
INSERT
  8
1
  2
LCBP1
 10
-3.4125
 20
-0.828749999999998
 50
90
  0
POLYLINE
  8
1
 62
7
 66
1
  0
VERTEX
  8
1
 62
7
 10
-5.3625
 20
5.02125000000004
  0
VERTEX
  8
1
 62
7
 10
6.3375
 20
5.02125000000004
  0
VERTEX
  8
1
 62
7
 10
6.3375
 20
-2.77874999999997
  0
VERTEX
  8
1
 62
7
 10
-5.3625
 20
-2.77874999999997
  0
VERTEX
  8
1
 62
7
 10
-5.3625
 20
5.02125000000004
  0
SEQEND
  8
1
  0
LINE
  8
1
 62
7
 10
-3.4125
 20
5.02125
 11
0.4875
 21
-2.77875
  0
INSERT
  8
1
  2
LCA1
 10
0.4875
 20
-2.77875
 50
-63.434948822922
  0
INSERT
  8
1
  2
LCA1R
 10
-3.4125
 20
5.02125
 50
-63.434948822922
  0
LINE
  8
1
 62
7
 10
4.3875
 20
-2.77875
 11
4.3875
 21
5.02125
  0
INSERT
  8
1
  2
LCA1
 10
4.3875
 20
5.02125
 50
90
  0
INSERT
  8
1
  2
LCA1R
 10
4.3875
 20
-2.77875
 50
90
  0
LINE
  8
1
 62
7
 10
16.0875
 20
-2.77875
 11
16.0875
 21
-0.828749999999998
  0
INSERT
  8
1
  2
LCBP1
 10
16.0875
 20
-0.828749999999998
 50
90
  0
POLYLINE
  8
1
 62
7
 66
1
  0
VERTEX
  8
1
 62
7
 10
6.3375
 20
5.02125000000004
  0
VERTEX
  8
1
 62
7
 10
18.0375
 20
5.02125000000004
  0
VERTEX
  8
1
 62
7
 10
18.0375
 20
-2.77874999999997
  0
VERTEX
  8
1
 62
7
 10
6.3375
 20
-2.77874999999997
  0
VERTEX
  8
1
 62
7
 10
6.3375
 20
5.02125000000004
  0
SEQEND
  8
1
  0
LINE
  8
1
 62
7
 10
8.2875
 20
-2.77875
 11
8.2875
 21
5.02125
  0
INSERT
  8
1
  2
LCA1
 10
8.2875
 20
5.02125
 50
90
  0
INSERT
  8
1
  2
LCA1R
 10
8.2875
 20
-2.77875
 50
90
  0
LINE
  8
1
 62
7
 10
12.1875
 20
-2.77875
 11
16.0875
 21
5.02125
  0
INSERT
  8
1
  2
LCA1
 10
16.0875
 20
5.02125
 50
63.434948822922
  0
INSERT
  8
1
  2
LCA1R
 10
12.1875
 20
-2.77875
 50
63.434948822922
  0
CIRCLE
  8
CONNECTIONS
 62
7
 10
-7.3125
 20
-6.67875
 40
0
  0
CIRCLE
  8
CONNECTIONS
 62
7
 10
-11.245
 20
-6.67875
 40
0
  0
CIRCLE
  8
CONNECTIONS
 62
7
 10
8.255
 20
8.92125
 40
0
  0
CIRCLE
  8
CONNECTIONS
 62
7
 10
16.055
 20
8.92125
 40
0
  0
CIRCLE
  8
CONNECTIONS
 62
7
 10
16.055
 20
-6.67875
 40
0
  0
CIRCLE
  8
CONNECTIONS
 62
7
 10
12.155
 20
-6.67875
 40
0
  0
CIRCLE
  8
CONNECTIONS
 62
7
 10
8.255
 20
-6.67875
 40
0
  0
CIRCLE
  8
CONNECTIONS
 62
7
 10
-17.0773670291901
 20
-0.82875
 40
0
  0
ENDBLK
  8
0
  0
BLOCK
  8
0
  2
B1074867_00991473
 70
0
 10
0
 20
0
  0
LINE
  8
1
 62
7
 10
0.975
 20
-1.4625
 11
0
 21
-1.4625
  0
LINE
  8
1
 62
7
 10
-0.975
 20
-0.4875
 11
0
 21
-0.4875
  0
LINE
  8
1
 62
7
 10
0.975
 20
0.4875
 11
0
 21
0.4875
  0
POLYLINE
  8
1
 62
7
 66
1
  0
VERTEX
  8
1
 62
7
 10
0.975
 20
1.46250000000001
  0
VERTEX
  8
1
 62
7
 10
-0.975
 20
1.46250000000001
  0
VERTEX
  8
1
 62
7
 10
-0.975
 20
-2.4375
  0
VERTEX
  8
1
 62
7
 10
0.975
 20
-2.4375
  0
VERTEX
  8
1
 62
7
 10
0.975
 20
1.46250000000001
  0
SEQEND
  8
1
  0
LINE
  8
1
 62
7
 10
0
 20
3.4125
 11
0
 21
1.4625
  0
POLYLINE
  8
1
 62
7
 66
1
  0
VERTEX
  8
1
 62
7
 10
-0.4875
 20
-2.4375
  0
VERTEX
  8
1
 62
7
 10
0
 20
-3.41249999999999
  0
VERTEX
  8
1
 62
7
 10
0.4875
 20
-2.4375
  0
SEQEND
  8
1
  0
CIRCLE
  8
CONNECTIONS
 62
7
 10
0
 20
3.4125
 40
0
  0
ENDBLK
  8
0
  0
BLOCK
  8
0
  2
B1074868_00991473
 70
0
 10
0
 20
0
  0
LINE
  8
1
 62
7
 10
0.975
 20
-1.4625
 11
0
 21
-1.4625
  0
LINE
  8
1
 62
7
 10
-0.975
 20
-0.4875
 11
0
 21
-0.4875
  0
LINE
  8
1
 62
7
 10
0.975
 20
0.4875
 11
0
 21
0.4875
  0
POLYLINE
  8
1
 62
7
 66
1
  0
VERTEX
  8
1
 62
7
 10
0.975
 20
1.46250000000001
  0
VERTEX
  8
1
 62
7
 10
-0.975
 20
1.46250000000001
  0
VERTEX
  8
1
 62
7
 10
-0.975
 20
-2.4375
  0
VERTEX
  8
1
 62
7
 10
0.975
 20
-2.4375
  0
VERTEX
  8
1
 62
7
 10
0.975
 20
1.46250000000001
  0
SEQEND
  8
1
  0
LINE
  8
1
 62
7
 10
0
 20
3.4125
 11
0
 21
1.4625
  0
POLYLINE
  8
1
 62
7
 66
1
  0
VERTEX
  8
1
 62
7
 10
-0.4875
 20
-2.4375
  0
VERTEX
  8
1
 62
7
 10
0
 20
-3.41249999999999
  0
VERTEX
  8
1
 62
7
 10
0.4875
 20
-2.4375
  0
SEQEND
  8
1
  0
CIRCLE
  8
CONNECTIONS
 62
7
 10
0
 20
3.4125
 40
0
  0
ENDBLK
  8
0
  0
BLOCK
  8
0
  2
B1074857
 70
0
 10
0
 20
0
  0
ENDBLK
  8
0
  0
ENDSEC
  0
SECTION
  2
ENTITIES
  0
INSERT
  8
1
  2
B1074732
 10
160.696863689423
 20
89.1850568199348
  0
INSERT
  8
1
  2
TRICON
 10
247.632385
 20
66.3
  0
INSERT
  8
1
  2
B1074738
 10
231.61223642231
 20
89.0178070187759
  0
INSERT
  8
1
  2
B1074774
 10
114.389058285313
 20
160.875021671047
  0
INSERT
  8
1
  2
B1074857
 10
299.325
 20
94.2689316094112
  0
INSERT
  8
1
  2
B1074721
 10
129.352485033283
 20
89.0875568199349
  0
INSERT
  8
1
  2
B1074720
 10
136.558375464687
 20
89.0875568199349
  0
INSERT
  8
1
  2
B1074691
 10
56.4100520518937
 20
22.3736148404238
  0
INSERT
  8
1
  2
B1074784
 10
141.557616283283
 20
137.475051819935
  0
INSERT
  8
1
  2
B1074755_00991738
 10
307.58
 20
168.1875
  0
INSERT
  8
1
  2
B1074745
 10
292.04735142231
 20
89.0178070187759
  0
INSERT
  8
1
  2
B1074682_00991761
 10
84.1518693861414
 20
18.525
  0
INSERT
  8
1
  2
B1074801
 10
251.532385
 20
106.112468218822
 50
180
  0
INSERT
  8
1
  2
B1074817_00991473
 10
366.6
 20
86.2874682188225
  0
INSERT
  8
1
  2
B1074739
 10
221.161748689423
 20
89.1850568199348
  0
INSERT
  8
1
  2
B1074856_00991473
 10
191.0675
 20
86.2874682188225
  0
INSERT
  8
1
  2
TRICON
 10
187.1675
 20
66.3
  0
INSERT
  8
1
  2
B1074723
 10
132.569985033283
 20
103.66987961771
  0
INSERT
  8
1
  2
B1074803_00991473
 10
251.532385
 20
86.2874682188225
  0
INSERT
  8
1
  2
B1074805_00991053
 10
350.545
 20
96.3787182188225
  0
INSERT
  8
1
  2
TRICON
 10
308.1
 20
66.3
  0
INSERT
  8
1
  2
B1074734
 10
253.558375464687
 20
89.0875568199349
  0
INSERT
  8
1
  2
B1074726
 10
124.964985653172
 20
103.642806398888
  0
INSERT
  8
1
  2
B1074749
 10
361.420100033283
 20
89.0875568199349
  0
INSERT
  8
1
  2
B1074845
 10
178.425
 20
94.2689316094112
  0
INSERT
  8
1
  2
B1074729
 10
181.402600033283
 20
89.0875568199349
  0
INSERT
  8
1
  2
B1074791_00991053
 10
235.477385
 20
96.3787182188225
  0
INSERT
  8
1
  2
B1074737
 10
249.569985033283
 20
103.66987961771
  0
INSERT
  8
1
  2
B1074820_00991008
 10
143.66625
 20
35.6633232188224
  0
INSERT
  8
1
  2
B1074746
 10
281.596863689423
 20
89.1850568199348
  0
INSERT
  8
1
  2
B1074815
 10
366.6
 20
106.112468218822
 50
180
  0
INSERT
  8
1
  2
B1074711_00991265
 10
130.632385
 20
175.5
 50
90
  0
INSERT
  8
1
  2
B1074735
 10
246.352485033283
 20
89.0875568199349
  0
INSERT
  8
1
  2
B1074844_00991473
 10
134.532385
 20
86.2874682188225
  0
INSERT
  8
1
  2
B1074742
 10
306.787600033283
 20
89.0875568199349
  0
INSERT
  8
1
  2
B1074728
 10
185.887600033283
 20
89.0875568199349
  0
INSERT
  8
1
  2
B1074800
 10
243.732385
 20
106.112468218822
 50
180
  0
INSERT
  8
1
  2
B1074736
 10
241.867485033283
 20
89.0875568199349
  0
INSERT
  8
1
  2
B1074804
 10
353.9575
 20
94.8999682188225
  0
INSERT
  8
1
  2
B1074843_00991473
 10
126.732385
 20
86.2874682188225
  0
INSERT
  8
1
  2
B1074846_00991053
 10
175.0125
 20
96.3787182188225
  0
INSERT
  8
1
  2
B1074733
 10
181.500100653172
 20
103.642806398888
  0
INSERT
  8
1
  2
B1074802_00991473
 10
243.732385
 20
86.2874682188225
  0
INSERT
  8
1
  2
B1074764_00991453
 10
114.0750325
 20
149.175
 50
180
  0
INSERT
  8
1
  2
B1074785
 10
141.689025785313
 20
160.875051819935
  0
INSERT
  8
1
  2
B1074773
 10
114.257648783283
 20
137.475021671047
  0
INSERT
  8
1
  2
B1074722
 10
124.867485033283
 20
89.0875568199349
  0
INSERT
  8
1
  2
B1074867_00991473
 10
304.1675
 20
86.2874682188225
  0
INSERT
  8
1
  2
B1074831
 10
149.586509535313
 20
43.1921618199348
  0
INSERT
  8
1
  2
B1074740
 10
241.964985653172
 20
103.642806398888
  0
INSERT
  8
1
  2
B1074753
 10
336.229363689423
 20
89.1850568199348
  0
INSERT
  8
1
  2
B1074818_00993166
 10
46.8
 20
5.85
 50
90
  0
INSERT
  8
1
  2
B1074727
 10
193.093490464687
 20
89.0875568199349
  0
INSERT
  8
1
  2
B1074743
 10
302.302600033283
 20
89.0875568199349
  0
INSERT
  8
1
  2
B1074752
 10
346.67985142231
 20
89.0178070187759
  0
INSERT
  8
1
  2
B1074702_00991235
 10
186.68
 20
167.45625
  0
INSERT
  8
1
  2
B1074748
 10
368.625990464687
 20
89.0875568199349
  0
INSERT
  8
1
  2
B1074725
 10
104.161748689423
 20
89.1850568199348
  0
INSERT
  8
1
  2
B1074747
 10
302.400100653172
 20
103.642806398888
  0
INSERT
  8
1
  2
B1074814
 10
358.8
 20
106.112468218822
 50
180
  0
INSERT
  8
1
  2
B1074830
 10
150.269009535313
 20
28.2746618199348
  0
INSERT
  8
1
  2
B1074730
 10
189.105100033283
 20
103.66987961771
  0
INSERT
  8
1
  2
B1074816_00991473
 10
358.8
 20
86.2874682188225
  0
INSERT
  8
1
  2
B1074775_00991453
 10
141.375
 20
149.175
 50
180
  0
INSERT
  8
1
  2
B1074744
 10
310.005100033283
 20
103.66987961771
  0
INSERT
  8
1
  2
B1074751
 10
364.637600033283
 20
103.66987961771
  0
INSERT
  8
1
  2
B1074741
 10
313.993490464687
 20
89.0875568199349
  0
INSERT
  8
1
  2
B1074858_00991053
 10
295.9125
 20
96.3787182188225
  0
INSERT
  8
1
  2
B1074855_00991473
 10
183.2675
 20
86.2874682188225
  0
INSERT
  8
1
  2
B1074731
 10
171.14735142231
 20
89.0178070187759
  0
INSERT
  8
1
  2
B1074868_00991473
 10
311.9675
 20
86.2874682188225
  0
INSERT
  8
1
  2
B1074750
 10
356.935100033283
 20
89.0875568199349
  0
INSERT
  8
1
  2
B1074829
 10
158.610990464687
 20
28.2746618199348
  0
INSERT
  8
1
  2
B1074790
 10
238.889885
 20
94.8999682188225
  0
INSERT
  8
1
  2
B1074692
 10
111.965498661409
 20
22.4409836065574
  0
INSERT
  8
1
  2
B1074724
 10
114.61223642231
 20
89.0178070187759
  0
INSERT
  8
1
  2
B1074834_00991053
 10
118.477385
 20
96.3787182188225
  0
INSERT
  8
1
  2
B1074754
 10
357.032600653172
 20
103.642806398888
  0
INSERT
  8
1
  2
TRICON
 10
247.664885
 20
66.3
  0
INSERT
  8
1
  2
B1074833
 10
121.889885
 20
94.2689316094112
  0
POLYLINE
  8
1
 62
7
 66
1
  0
VERTEX
  8
1
 62
7
 10
113.1
 20
19.5
  0
VERTEX
  8
1
 62
7
 10
152.1
 20
19.5
  0
VERTEX
  8
1
 62
7
 10
152.1
 20
27.3
  0
SEQEND
  8
1
  0
POLYLINE
  8
1
 62
7
 66
1
  0
VERTEX
  8
1
 62
7
 10
175.4675
 20
159.9
  0
VERTEX
  8
1
 62
7
 10
175.4675
 20
130.649984109411
  0
VERTEX
  8
1
 62
7
 10
183.2675
 20
130.649984109411
  0
VERTEX
  8
1
 62
7
 10
183.2675
 20
105.299968218822
  0
SEQEND
  8
1
  0
POLYLINE
  8
1
 62
7
 66
1
  0
VERTEX
  8
1
 62
7
 10
191.0675
 20
159.9
  0
VERTEX
  8
1
 62
7
 10
191.0675
 20
105.299968218822
  0
SEQEND
  8
1
  0
POLYLINE
  8
1
 62
7
 66
1
  0
VERTEX
  8
1
 62
7
 10
126.732385
 20
167.7
  0
VERTEX
  8
1
 62
7
 10
117.0000325
 20
167.7
  0
VERTEX
  8
1
 62
7
 10
117.0000325
 20
161.85
  0
SEQEND
  8
1
  0
POLYLINE
  8
1
 62
7
 66
1
  0
VERTEX
  8
1
 62
7
 10
134.532385
 20
167.7
  0
VERTEX
  8
1
 62
7
 10
144.3
 20
167.7
  0
VERTEX
  8
1
 62
7
 10
144.3
 20
161.85
  0
SEQEND
  8
1
  0
POLYLINE
  8
1
 62
7
 66
1
  0
VERTEX
  8
1
 62
7
 10
296.3675
 20
161.85
  0
VERTEX
  8
1
 62
7
 10
296.3675
 20
130.649984109411
  0
VERTEX
  8
1
 62
7
 10
304.1675
 20
130.649984109411
  0
VERTEX
  8
1
 62
7
 10
304.1675
 20
105.299968218822
  0
SEQEND
  8
1
  0
POLYLINE
  8
1
 62
7
 66
1
  0
VERTEX
  8
1
 62
7
 10
311.9675
 20
161.85
  0
VERTEX
  8
1
 62
7
 10
311.9675
 20
105.299968218822
  0
SEQEND
  8
1
  0
POLYLINE
  8
1
 62
7
 66
1
  0
VERTEX
  8
1
 62
7
 10
117.0000325
 20
136.5
  0
VERTEX
  8
1
 62
7
 10
117.0000325
 20
120.9
  0
VERTEX
  8
1
 62
7
 10
126.732385
 20
120.9
  0
VERTEX
  8
1
 62
7
 10
126.732385
 20
105.299968218822
  0
SEQEND
  8
1
  0
POLYLINE
  8
1
 62
7
 66
1
  0
VERTEX
  8
1
 62
7
 10
144.3
 20
136.5
  0
VERTEX
  8
1
 62
7
 10
144.3
 20
120.9
  0
VERTEX
  8
1
 62
7
 10
134.532385
 20
120.9
  0
VERTEX
  8
1
 62
7
 10
134.532385
 20
105.299968218822
  0
SEQEND
  8
1
  0
POLYLINE
  8
1
 62
7
 66
1
  0
VERTEX
  8
1
 62
7
 10
187.1675
 20
66.3
  0
VERTEX
  8
1
 62
7
 10
187.1675
 20
89.6999682188225
  0
SEQEND
  8
1
  0
POLYLINE
  8
1
 62
7
 66
1
  0
VERTEX
  8
1
 62
7
 10
247.664885
 20
66.3
  0
VERTEX
  8
1
 62
7
 10
187.1675
 20
66.3
  0
SEQEND
  8
1
  0
POLYLINE
  8
1
 62
7
 66
1
  0
VERTEX
  8
1
 62
7
 10
308.1
 20
66.3
  0
VERTEX
  8
1
 62
7
 10
247.664885
 20
66.3
  0
SEQEND
  8
1
  0
POLYLINE
  8
1
 62
7
 66
1
  0
VERTEX
  8
1
 62
7
 10
247.632385
 20
89.6999682188225
  0
VERTEX
  8
1
 62
7
 10
247.632385
 20
77.9999841094112
  0
VERTEX
  8
1
 62
7
 10
247.664885
 20
77.9999841094112
  0
VERTEX
  8
1
 62
7
 10
247.664885
 20
66.3
  0
SEQEND
  8
1
  0
POLYLINE
  8
1
 62
7
 66
1
  0
VERTEX
  8
1
 62
7
 10
362.7
 20
89.6999682188225
  0
VERTEX
  8
1
 62
7
 10
362.7
 20
66.3
  0
VERTEX
  8
1
 62
7
 10
308.1
 20
66.3
  0
SEQEND
  8
1
  0
POLYLINE
  8
1
 62
7
 66
1
  0
VERTEX
  8
1
 62
7
 10
46.8
 20
7.79999999999998
  0
VERTEX
  8
1
 62
7
 10
46.8
 20
19.5
  0
VERTEX
  8
1
 62
7
 10
54.6
 20
19.5
  0
SEQEND
  8
1
  0
POLYLINE
  8
1
 62
7
 66
1
  0
VERTEX
  8
1
 62
7
 10
152.1
 20
42.8999999999999
  0
VERTEX
  8
1
 62
7
 10
152.1
 20
50.1529267811775
  0
VERTEX
  8
1
 62
7
 10
247.632385
 20
50.1529267811775
  0
VERTEX
  8
1
 62
7
 10
247.632385
 20
66.3
  0
SEQEND
  8
1
  0
POLYLINE
  8
1
 62
7
 66
1
  0
VERTEX
  8
1
 62
7
 10
130.632385
 20
89.6999682188225
  0
VERTEX
  8
1
 62
7
 10
130.632385
 20
66.3
  0
VERTEX
  8
1
 62
7
 10
187.1675
 20
66.3
  0
SEQEND
  8
1
  0
POLYLINE
  8
1
 62
7
 66
1
  0
VERTEX
  8
1
 62
7
 10
308.0675
 20
89.6999682188225
  0
VERTEX
  8
1
 62
7
 10
308.0675
 20
77.9999841094112
  0
VERTEX
  8
1
 62
7
 10
308.1
 20
77.9999841094112
  0
VERTEX
  8
1
 62
7
 10
308.1
 20
66.3
  0
SEQEND
  8
1
  0
ENDSEC
  0
EOF
